<svg width="242" height="530" viewBox="0 0 242 530" fill="none" xmlns="http://www.w3.org/2000/svg">
<g filter="url(#filter0_d_28_248)">
<mask id="path-1-inside-1_28_248" fill="white">
<path d="M15 25C15 19.4771 19.4772 15 25 15H217C222.523 15 227 19.4772 227 25V505C227 510.523 222.523 515 217 515H25C19.4772 515 15 510.523 15 505V25Z"/>
</mask>
<path d="M15 25C15 19.4771 19.4772 15 25 15H217C222.523 15 227 19.4772 227 25V505C227 510.523 222.523 515 217 515H25C19.4772 515 15 510.523 15 505V25Z" fill="url(#paint0_linear_28_248)" shape-rendering="crispEdges"/>
<path d="M25 15V17H217V15V13H25V15ZM227 25H225V505H227H229V25H227ZM217 515V513H25V515V517H217V515ZM15 505H17V25H15H13V505H15ZM25 515V513C20.5817 513 17 509.418 17 505H15H13C13 511.627 18.3726 517 25 517V515ZM227 505H225C225 509.418 221.418 513 217 513V515V517C223.627 517 229 511.627 229 505H227ZM217 15V17C221.418 17 225 20.5817 225 25H227H229C229 18.3726 223.627 13 217 13V15ZM25 15V13C18.3726 13 13 18.3726 13 25H15H17C17 20.5817 20.5817 17 25 17V15Z" fill="#00B4FF" mask="url(#path-1-inside-1_28_248)"/>
<path d="M41 39C41 33.4772 45.4772 29 51 29H191C196.523 29 201 33.4772 201 39V70C201 75.5228 196.523 80 191 80H51C45.4772 80 41 75.5228 41 70V39Z" fill="#00B4FF"/>
<path d="M59.0413 64V50.8H54.0493V47.2H68.2333V50.8H63.1213V64H59.0413ZM73.0252 64.216C71.9532 64.216 70.9932 63.936 70.1452 63.376C69.3132 62.8 68.6492 62.016 68.1532 61.024C67.6572 60.016 67.4092 58.88 67.4092 57.616C67.4092 56.32 67.6572 55.176 68.1532 54.184C68.6492 53.192 69.3292 52.416 70.1932 51.856C71.0572 51.28 72.0412 50.992 73.1452 50.992C73.7532 50.992 74.3052 51.08 74.8012 51.256C75.3132 51.432 75.7612 51.68 76.1452 52C76.5292 52.304 76.8572 52.664 77.1292 53.08C77.4012 53.48 77.6012 53.912 77.7292 54.376L76.9372 54.28V51.256H80.7532V64H76.8652V60.928L77.7292 60.904C77.6012 61.352 77.3932 61.776 77.1052 62.176C76.8172 62.576 76.4652 62.928 76.0492 63.232C75.6332 63.536 75.1692 63.776 74.6572 63.952C74.1452 64.128 73.6012 64.216 73.0252 64.216ZM74.0812 60.976C74.6732 60.976 75.1852 60.84 75.6172 60.568C76.0492 60.296 76.3852 59.912 76.6252 59.416C76.8652 58.904 76.9852 58.304 76.9852 57.616C76.9852 56.928 76.8652 56.336 76.6252 55.84C76.3852 55.328 76.0492 54.936 75.6172 54.664C75.1852 54.376 74.6732 54.232 74.0812 54.232C73.5052 54.232 73.0012 54.376 72.5692 54.664C72.1532 54.936 71.8252 55.328 71.5852 55.84C71.3452 56.336 71.2252 56.928 71.2252 57.616C71.2252 58.304 71.3452 58.904 71.5852 59.416C71.8252 59.912 72.1532 60.296 72.5692 60.568C73.0012 60.84 73.5052 60.976 74.0812 60.976ZM91.7975 64.264C91.2215 64.264 90.6695 64.184 90.1415 64.024C89.6135 63.864 89.1335 63.648 88.7015 63.376C88.2855 63.104 87.9335 62.792 87.6455 62.44C87.3735 62.072 87.1895 61.696 87.0935 61.312L87.9335 61.024L87.7175 63.976H84.1415V46.24H88.0055V54.304L87.2135 54.016C87.3095 53.6 87.4935 53.216 87.7655 52.864C88.0375 52.496 88.3815 52.176 88.7975 51.904C89.2135 51.616 89.6695 51.392 90.1655 51.232C90.6615 51.072 91.1735 50.992 91.7015 50.992C92.8055 50.992 93.7815 51.28 94.6295 51.856C95.4935 52.416 96.1735 53.2 96.6695 54.208C97.1655 55.2 97.4135 56.336 97.4135 57.616C97.4135 58.912 97.1655 60.064 96.6695 61.072C96.1895 62.064 95.5255 62.848 94.6775 63.424C93.8295 63.984 92.8695 64.264 91.7975 64.264ZM90.7895 61.024C91.3655 61.024 91.8695 60.88 92.3015 60.592C92.7335 60.304 93.0615 59.912 93.2855 59.416C93.5255 58.904 93.6455 58.304 93.6455 57.616C93.6455 56.944 93.5255 56.352 93.2855 55.84C93.0615 55.328 92.7335 54.936 92.3015 54.664C91.8695 54.392 91.3655 54.256 90.7895 54.256C90.1975 54.256 89.6855 54.392 89.2535 54.664C88.8215 54.936 88.4855 55.328 88.2455 55.84C88.0055 56.352 87.8855 56.944 87.8855 57.616C87.8855 58.304 88.0055 58.904 88.2455 59.416C88.4855 59.912 88.8215 60.304 89.2535 60.592C89.6855 60.88 90.1975 61.024 90.7895 61.024ZM99.9624 64V46.24H103.802V64H99.9624ZM111.697 64.216C110.625 64.216 109.665 63.936 108.817 63.376C107.985 62.8 107.321 62.016 106.825 61.024C106.329 60.016 106.081 58.88 106.081 57.616C106.081 56.32 106.329 55.176 106.825 54.184C107.321 53.192 108.001 52.416 108.865 51.856C109.729 51.28 110.713 50.992 111.817 50.992C112.425 50.992 112.977 51.08 113.473 51.256C113.985 51.432 114.433 51.68 114.817 52C115.201 52.304 115.529 52.664 115.801 53.08C116.073 53.48 116.273 53.912 116.401 54.376L115.609 54.28V51.256H119.425V64H115.537V60.928L116.401 60.904C116.273 61.352 116.065 61.776 115.777 62.176C115.489 62.576 115.137 62.928 114.721 63.232C114.305 63.536 113.841 63.776 113.329 63.952C112.817 64.128 112.273 64.216 111.697 64.216ZM112.753 60.976C113.345 60.976 113.857 60.84 114.289 60.568C114.721 60.296 115.057 59.912 115.297 59.416C115.537 58.904 115.657 58.304 115.657 57.616C115.657 56.928 115.537 56.336 115.297 55.84C115.057 55.328 114.721 54.936 114.289 54.664C113.857 54.376 113.345 54.232 112.753 54.232C112.177 54.232 111.673 54.376 111.241 54.664C110.825 54.936 110.497 55.328 110.257 55.84C110.017 56.336 109.897 56.928 109.897 57.616C109.897 58.304 110.017 58.904 110.257 59.416C110.497 59.912 110.825 60.296 111.241 60.568C111.673 60.84 112.177 60.976 112.753 60.976ZM135.325 64.264C134.221 64.264 133.237 63.984 132.373 63.424C131.525 62.848 130.853 62.064 130.357 61.072C129.861 60.064 129.613 58.92 129.613 57.64C129.613 56.36 129.861 55.224 130.357 54.232C130.853 53.224 131.533 52.432 132.397 51.856C133.261 51.28 134.253 50.992 135.373 50.992C135.949 50.992 136.501 51.08 137.029 51.256C137.557 51.432 138.037 51.672 138.469 51.976C138.901 52.28 139.253 52.632 139.525 53.032C139.797 53.416 139.957 53.816 140.005 54.232L139.093 54.448V46.24H142.957V64H139.381L139.165 61.096L139.933 61.216C139.885 61.616 139.725 62 139.453 62.368C139.197 62.736 138.861 63.064 138.445 63.352C138.029 63.624 137.549 63.84 137.005 64C136.477 64.176 135.917 64.264 135.325 64.264ZM136.309 61.072C136.901 61.072 137.413 60.928 137.845 60.64C138.277 60.352 138.605 59.952 138.829 59.44C139.069 58.928 139.189 58.328 139.189 57.64C139.189 56.936 139.069 56.328 138.829 55.816C138.605 55.304 138.277 54.904 137.845 54.616C137.413 54.328 136.901 54.184 136.309 54.184C135.717 54.184 135.205 54.328 134.773 54.616C134.357 54.904 134.029 55.304 133.789 55.816C133.549 56.328 133.429 56.936 133.429 57.64C133.429 58.328 133.549 58.928 133.789 59.44C134.029 59.952 134.357 60.352 134.773 60.64C135.205 60.928 135.717 61.072 136.309 61.072ZM152.276 64.24C150.868 64.24 149.644 63.96 148.604 63.4C147.564 62.824 146.756 62.048 146.18 61.072C145.604 60.08 145.316 58.952 145.316 57.688C145.316 56.712 145.476 55.816 145.796 55C146.116 54.184 146.564 53.48 147.14 52.888C147.716 52.28 148.396 51.816 149.18 51.496C149.98 51.16 150.852 50.992 151.796 50.992C152.692 50.992 153.508 51.152 154.244 51.472C154.996 51.792 155.644 52.24 156.188 52.816C156.732 53.392 157.148 54.072 157.436 54.856C157.724 55.64 157.852 56.496 157.82 57.424L157.796 58.456H147.644L147.092 56.296H154.676L154.268 56.752V56.272C154.236 55.872 154.108 55.52 153.884 55.216C153.676 54.896 153.396 54.648 153.044 54.472C152.692 54.296 152.292 54.208 151.844 54.208C151.22 54.208 150.684 54.336 150.236 54.592C149.804 54.832 149.476 55.192 149.252 55.672C149.028 56.136 148.916 56.712 148.916 57.4C148.916 58.104 149.06 58.72 149.348 59.248C149.652 59.76 150.084 60.16 150.644 60.448C151.22 60.736 151.9 60.88 152.684 60.88C153.228 60.88 153.708 60.8 154.124 60.64C154.556 60.48 155.02 60.208 155.516 59.824L157.316 62.368C156.82 62.8 156.292 63.152 155.732 63.424C155.172 63.696 154.596 63.896 154.004 64.024C153.428 64.168 152.852 64.24 152.276 64.24ZM160.291 64V46.24H164.131V64H160.291ZM180.427 64.24C179.067 64.24 177.875 63.96 176.851 63.4C175.843 62.824 174.923 61.84 174.091 60.448L177.019 58.552C177.371 59.112 177.731 59.56 178.099 59.896C178.483 60.232 178.875 60.48 179.275 60.64C179.691 60.784 180.123 60.856 180.571 60.856C181.019 60.856 181.427 60.76 181.795 60.568C182.179 60.36 182.483 60.072 182.707 59.704C182.947 59.336 183.067 58.92 183.067 58.456C183.067 57.96 182.963 57.544 182.755 57.208C182.563 56.856 182.275 56.592 181.891 56.416C181.523 56.24 181.075 56.152 180.547 56.152C180.307 56.152 180.051 56.184 179.779 56.248C179.507 56.296 179.219 56.368 178.915 56.464C178.611 56.56 178.299 56.688 177.979 56.848L177.091 54.472L181.171 50.032L182.275 50.632L175.267 50.488V47.056H185.587L186.331 48.544L180.787 54.496L179.827 53.368C179.955 53.304 180.163 53.248 180.451 53.2C180.755 53.136 181.043 53.104 181.315 53.104C182.067 53.104 182.771 53.24 183.427 53.512C184.083 53.784 184.667 54.16 185.179 54.64C185.691 55.12 186.091 55.688 186.379 56.344C186.667 56.984 186.811 57.672 186.811 58.408C186.811 59.528 186.523 60.528 185.947 61.408C185.387 62.272 184.619 62.96 183.643 63.472C182.683 63.984 181.611 64.24 180.427 64.24Z" fill="#0F1521"/>
<mask id="path-5-inside-2_28_248" fill="white">
<path d="M41 88C41 85.7909 42.7909 84 45 84H197C199.209 84 201 85.7909 201 88V113C201 115.209 199.209 117 197 117H45C42.7909 117 41 115.209 41 113V88Z"/>
</mask>
<path d="M41 88C41 85.7909 42.7909 84 45 84H197C199.209 84 201 85.7909 201 88V113C201 115.209 199.209 117 197 117H45C42.7909 117 41 115.209 41 113V88Z" fill="#0F1521"/>
<path d="M45 84V85H197V84V83H45V84ZM201 88H200V113H201H202V88H201ZM197 117V116H45V117V118H197V117ZM41 113H42V88H41H40V113H41ZM45 117V116C43.3431 116 42 114.657 42 113H41H40C40 115.761 42.2386 118 45 118V117ZM201 113H200C200 114.657 198.657 116 197 116V117V118C199.761 118 202 115.761 202 113H201ZM197 84V85C198.657 85 200 86.3431 200 88H201H202C202 85.2386 199.761 83 197 83V84ZM45 84V83C42.2386 83 40 85.2386 40 88H41H42C42 86.3431 43.3431 85 45 85V84Z" fill="#00B4FF" mask="url(#path-5-inside-2_28_248)"/>
<path d="M95.767 108.14C94.9737 108.14 94.2784 107.977 93.681 107.65C93.093 107.314 92.5564 106.74 92.071 105.928L93.779 104.822C93.9844 105.149 94.1944 105.41 94.409 105.606C94.633 105.802 94.8617 105.947 95.095 106.04C95.3377 106.124 95.5897 106.166 95.851 106.166C96.1124 106.166 96.3504 106.11 96.565 105.998C96.789 105.877 96.9664 105.709 97.097 105.494C97.237 105.279 97.307 105.037 97.307 104.766C97.307 104.477 97.2464 104.234 97.125 104.038C97.013 103.833 96.845 103.679 96.621 103.576C96.4064 103.473 96.145 103.422 95.837 103.422C95.697 103.422 95.5477 103.441 95.389 103.478C95.2304 103.506 95.0624 103.548 94.885 103.604C94.7077 103.66 94.5257 103.735 94.339 103.828L93.821 102.442L96.201 99.852L96.845 100.202L92.757 100.118V98.116H98.777L99.211 98.984L95.977 102.456L95.417 101.798C95.4917 101.761 95.613 101.728 95.781 101.7C95.9584 101.663 96.1264 101.644 96.285 101.644C96.7237 101.644 97.1344 101.723 97.517 101.882C97.8997 102.041 98.2404 102.26 98.539 102.54C98.8377 102.82 99.071 103.151 99.239 103.534C99.407 103.907 99.491 104.309 99.491 104.738C99.491 105.391 99.323 105.975 98.987 106.488C98.6604 106.992 98.2124 107.393 97.643 107.692C97.083 107.991 96.4577 108.14 95.767 108.14ZM110.077 107.258L105.037 102.218L106.381 100.902L111.421 105.942L110.077 107.258ZM106.381 107.3L105.065 105.942L110.091 100.902L111.421 102.246L106.381 107.3ZM119.394 107.314V99.362L119.912 100.552L117.812 101.546L117.406 99.418L120.192 98.06H121.732V107.314H119.394ZM117.602 108V105.9H123.566V108H117.602ZM129.71 103.45V101.63H136.556V103.45H129.71ZM129.71 106.488V104.682H136.556V106.488H129.71ZM145.997 108.14C145.204 108.14 144.509 107.977 143.911 107.65C143.323 107.314 142.787 106.74 142.301 105.928L144.009 104.822C144.215 105.149 144.425 105.41 144.639 105.606C144.863 105.802 145.092 105.947 145.325 106.04C145.568 106.124 145.82 106.166 146.081 106.166C146.343 106.166 146.581 106.11 146.795 105.998C147.019 105.877 147.197 105.709 147.327 105.494C147.467 105.279 147.537 105.037 147.537 104.766C147.537 104.477 147.477 104.234 147.355 104.038C147.243 103.833 147.075 103.679 146.851 103.576C146.637 103.473 146.375 103.422 146.067 103.422C145.927 103.422 145.778 103.441 145.619 103.478C145.461 103.506 145.293 103.548 145.115 103.604C144.938 103.66 144.756 103.735 144.569 103.828L144.051 102.442L146.431 99.852L147.075 100.202L142.987 100.118V98.116H149.007L149.441 98.984L146.207 102.456L145.647 101.798C145.722 101.761 145.843 101.728 146.011 101.7C146.189 101.663 146.357 101.644 146.515 101.644C146.954 101.644 147.365 101.723 147.747 101.882C148.13 102.041 148.471 102.26 148.769 102.54C149.068 102.82 149.301 103.151 149.469 103.534C149.637 103.907 149.721 104.309 149.721 104.738C149.721 105.391 149.553 105.975 149.217 106.488C148.891 106.992 148.443 107.393 147.873 107.692C147.313 107.991 146.688 108.14 145.997 108.14Z" fill="white"/>
<mask id="path-8-inside-3_28_248" fill="white">
<path d="M41 129C41 126.791 42.7909 125 45 125H197C199.209 125 201 126.791 201 129V154C201 156.209 199.209 158 197 158H45C42.7909 158 41 156.209 41 154V129Z"/>
</mask>
<path d="M41 129C41 126.791 42.7909 125 45 125H197C199.209 125 201 126.791 201 129V154C201 156.209 199.209 158 197 158H45C42.7909 158 41 156.209 41 154V129Z" fill="#0F1521"/>
<path d="M45 125V126H197V125V124H45V125ZM201 129H200V154H201H202V129H201ZM197 158V157H45V158V159H197V158ZM41 154H42V129H41H40V154H41ZM45 158V157C43.3431 157 42 155.657 42 154H41H40C40 156.761 42.2386 159 45 159V158ZM201 154H200C200 155.657 198.657 157 197 157V158V159C199.761 159 202 156.761 202 154H201ZM197 125V126C198.657 126 200 127.343 200 129H201H202C202 126.239 199.761 124 197 124V125ZM45 125V124C42.2386 124 40 126.239 40 129H41H42C42 127.343 43.3431 126 45 126V125Z" fill="#00B4FF" mask="url(#path-8-inside-3_28_248)"/>
<path d="M95.9379 149.14C95.1446 149.14 94.4493 148.977 93.8519 148.65C93.2639 148.314 92.7273 147.74 92.2419 146.928L93.9499 145.822C94.1553 146.149 94.3653 146.41 94.5799 146.606C94.8039 146.802 95.0326 146.947 95.2659 147.04C95.5086 147.124 95.7606 147.166 96.0219 147.166C96.2833 147.166 96.5213 147.11 96.7359 146.998C96.9599 146.877 97.1373 146.709 97.2679 146.494C97.4079 146.279 97.4779 146.037 97.4779 145.766C97.4779 145.477 97.4173 145.234 97.2959 145.038C97.1839 144.833 97.0159 144.679 96.7919 144.576C96.5773 144.473 96.3159 144.422 96.0079 144.422C95.8679 144.422 95.7186 144.441 95.5599 144.478C95.4013 144.506 95.2333 144.548 95.0559 144.604C94.8786 144.66 94.6966 144.735 94.5099 144.828L93.9919 143.442L96.3719 140.852L97.0159 141.202L92.9279 141.118V139.116H98.9479L99.3819 139.984L96.1479 143.456L95.5879 142.798C95.6626 142.761 95.7839 142.728 95.9519 142.7C96.1293 142.663 96.2973 142.644 96.4559 142.644C96.8946 142.644 97.3053 142.723 97.6879 142.882C98.0706 143.041 98.4113 143.26 98.7099 143.54C99.0086 143.82 99.2419 144.151 99.4099 144.534C99.5779 144.907 99.6619 145.309 99.6619 145.738C99.6619 146.391 99.4939 146.975 99.1579 147.488C98.8313 147.992 98.3833 148.393 97.8139 148.692C97.2539 148.991 96.6286 149.14 95.9379 149.14ZM110.248 148.258L105.208 143.218L106.552 141.902L111.592 146.942L110.248 148.258ZM106.552 148.3L105.236 146.942L110.262 141.902L111.592 143.246L106.552 148.3ZM117.437 149L116.975 147.852L119.831 144.73C119.99 144.553 120.163 144.352 120.349 144.128C120.536 143.904 120.718 143.675 120.895 143.442C121.073 143.199 121.213 142.966 121.315 142.742C121.427 142.518 121.483 142.313 121.483 142.126C121.483 141.939 121.441 141.776 121.357 141.636C121.273 141.496 121.152 141.389 120.993 141.314C120.835 141.23 120.634 141.188 120.391 141.188C120.177 141.188 119.971 141.244 119.775 141.356C119.579 141.459 119.393 141.622 119.215 141.846C119.047 142.07 118.889 142.345 118.739 142.672L116.975 141.72C117.171 141.179 117.447 140.703 117.801 140.292C118.165 139.872 118.59 139.55 119.075 139.326C119.561 139.093 120.079 138.976 120.629 138.976C121.208 138.985 121.731 139.111 122.197 139.354C122.664 139.587 123.033 139.919 123.303 140.348C123.583 140.768 123.723 141.263 123.723 141.832C123.723 142.028 123.7 142.233 123.653 142.448C123.607 142.663 123.537 142.887 123.443 143.12C123.35 143.344 123.224 143.587 123.065 143.848C122.916 144.1 122.734 144.366 122.519 144.646C122.305 144.926 122.053 145.225 121.763 145.542L119.537 147.964L119.257 146.9H124.157V149H117.437ZM129.704 144.45V142.63H136.55V144.45H129.704ZM129.704 147.488V145.682H136.55V147.488H129.704Z" fill="white"/>
<path d="M146.089 149C145.585 149 145.109 148.911 144.661 148.734C144.222 148.547 143.839 148.295 143.513 147.978C143.186 147.651 142.925 147.273 142.729 146.844C142.542 146.415 142.449 145.953 142.449 145.458C142.449 145.113 142.486 144.781 142.561 144.464C142.635 144.137 142.738 143.811 142.869 143.484C143.009 143.148 143.172 142.807 143.359 142.462C143.555 142.107 143.769 141.734 144.003 141.342L145.375 139.046H147.573L147.629 139.186L145.725 142.182C145.482 142.574 145.272 142.943 145.095 143.288C144.917 143.624 144.759 143.96 144.619 144.296C144.479 144.632 144.339 144.987 144.199 145.36L143.751 144.394C143.844 144.067 143.993 143.769 144.199 143.498C144.404 143.218 144.642 142.98 144.913 142.784C145.193 142.579 145.482 142.425 145.781 142.322C146.079 142.21 146.373 142.154 146.663 142.154C147.213 142.154 147.717 142.303 148.175 142.602C148.641 142.891 149.015 143.279 149.295 143.764C149.575 144.249 149.715 144.781 149.715 145.36C149.715 146.051 149.556 146.671 149.239 147.222C148.931 147.773 148.501 148.207 147.951 148.524C147.409 148.841 146.789 149 146.089 149ZM146.117 147.04C146.415 147.04 146.677 146.975 146.901 146.844C147.134 146.713 147.316 146.531 147.447 146.298C147.577 146.055 147.643 145.78 147.643 145.472C147.643 145.211 147.573 144.968 147.433 144.744C147.302 144.511 147.12 144.324 146.887 144.184C146.663 144.035 146.411 143.96 146.131 143.96C145.832 143.96 145.561 144.03 145.319 144.17C145.085 144.301 144.903 144.483 144.773 144.716C144.642 144.94 144.577 145.192 144.577 145.472C144.577 145.771 144.642 146.041 144.773 146.284C144.903 146.517 145.085 146.704 145.319 146.844C145.552 146.975 145.818 147.04 146.117 147.04Z" fill="#F59E0B"/>
<mask id="path-11-inside-4_28_248" fill="white">
<path d="M41 170C41 167.791 42.7909 166 45 166H197C199.209 166 201 167.791 201 170V195C201 197.209 199.209 199 197 199H45C42.7909 199 41 197.209 41 195V170Z"/>
</mask>
<path d="M41 170C41 167.791 42.7909 166 45 166H197C199.209 166 201 167.791 201 170V195C201 197.209 199.209 199 197 199H45C42.7909 199 41 197.209 41 195V170Z" fill="#0F1521"/>
<path d="M45 166V167H197V166V165H45V166ZM201 170H200V195H201H202V170H201ZM197 199V198H45V199V200H197V199ZM41 195H42V170H41H40V195H41ZM45 199V198C43.3431 198 42 196.657 42 195H41H40C40 197.761 42.2386 200 45 200V199ZM201 195H200C200 196.657 198.657 198 197 198V199V200C199.761 200 202 197.761 202 195H201ZM197 166V167C198.657 167 200 168.343 200 170H201H202C202 167.239 199.761 165 197 165V166ZM45 166V165C42.2386 165 40 167.239 40 170H41H42C42 168.343 43.3431 167 45 167V166Z" fill="#00B4FF" mask="url(#path-11-inside-4_28_248)"/>
<path d="M97.8793 190.14C97.086 190.14 96.3907 189.977 95.7933 189.65C95.2053 189.314 94.6687 188.74 94.1833 187.928L95.8913 186.822C96.0967 187.149 96.3067 187.41 96.5213 187.606C96.7453 187.802 96.974 187.947 97.2073 188.04C97.45 188.124 97.702 188.166 97.9633 188.166C98.2247 188.166 98.4627 188.11 98.6773 187.998C98.9013 187.877 99.0787 187.709 99.2093 187.494C99.3493 187.279 99.4193 187.037 99.4193 186.766C99.4193 186.477 99.3587 186.234 99.2373 186.038C99.1253 185.833 98.9573 185.679 98.7333 185.576C98.5187 185.473 98.2573 185.422 97.9493 185.422C97.8093 185.422 97.66 185.441 97.5013 185.478C97.3427 185.506 97.1747 185.548 96.9973 185.604C96.82 185.66 96.638 185.735 96.4513 185.828L95.9333 184.442L98.3133 181.852L98.9573 182.202L94.8693 182.118V180.116H100.889L101.323 180.984L98.0893 184.456L97.5293 183.798C97.604 183.761 97.7253 183.728 97.8933 183.7C98.0707 183.663 98.2387 183.644 98.3973 183.644C98.836 183.644 99.2467 183.723 99.6293 183.882C100.012 184.041 100.353 184.26 100.651 184.54C100.95 184.82 101.183 185.151 101.351 185.534C101.519 185.907 101.603 186.309 101.603 186.738C101.603 187.391 101.435 187.975 101.099 188.488C100.773 188.992 100.325 189.393 99.7553 189.692C99.1953 189.991 98.57 190.14 97.8793 190.14ZM107.705 189.258L102.665 184.218L104.009 182.902L109.049 187.942L107.705 189.258ZM104.009 189.3L102.693 187.942L107.719 182.902L109.049 184.246L104.009 189.3ZM118.086 190.14C117.293 190.14 116.598 189.977 116 189.65C115.412 189.314 114.876 188.74 114.39 187.928L116.098 186.822C116.304 187.149 116.514 187.41 116.728 187.606C116.952 187.802 117.181 187.947 117.414 188.04C117.657 188.124 117.909 188.166 118.17 188.166C118.432 188.166 118.67 188.11 118.884 187.998C119.108 187.877 119.286 187.709 119.416 187.494C119.556 187.279 119.626 187.037 119.626 186.766C119.626 186.477 119.566 186.234 119.444 186.038C119.332 185.833 119.164 185.679 118.94 185.576C118.726 185.473 118.464 185.422 118.156 185.422C118.016 185.422 117.867 185.441 117.708 185.478C117.55 185.506 117.382 185.548 117.204 185.604C117.027 185.66 116.845 185.735 116.658 185.828L116.14 184.442L118.52 181.852L119.164 182.202L115.076 182.118V180.116H121.096L121.53 180.984L118.296 184.456L117.736 183.798C117.811 183.761 117.932 183.728 118.1 183.7C118.278 183.663 118.446 183.644 118.604 183.644C119.043 183.644 119.454 183.723 119.836 183.882C120.219 184.041 120.56 184.26 120.858 184.54C121.157 184.82 121.39 185.151 121.558 185.534C121.726 185.907 121.81 186.309 121.81 186.738C121.81 187.391 121.642 187.975 121.306 188.488C120.98 188.992 120.532 189.393 119.962 189.692C119.402 189.991 118.777 190.14 118.086 190.14ZM127.762 185.45V183.63H134.608V185.45H127.762ZM127.762 188.488V186.682H134.608V188.488H127.762Z" fill="white"/>
<path d="M144.147 190C143.643 190 143.167 189.911 142.719 189.734C142.281 189.547 141.898 189.295 141.571 188.978C141.245 188.651 140.983 188.273 140.787 187.844C140.601 187.415 140.507 186.953 140.507 186.458C140.507 186.113 140.545 185.781 140.619 185.464C140.694 185.137 140.797 184.811 140.927 184.484C141.067 184.148 141.231 183.807 141.417 183.462C141.613 183.107 141.828 182.734 142.061 182.342L143.433 180.046H145.631L145.687 180.186L143.783 183.182C143.541 183.574 143.331 183.943 143.153 184.288C142.976 184.624 142.817 184.96 142.677 185.296C142.537 185.632 142.397 185.987 142.257 186.36L141.809 185.394C141.903 185.067 142.052 184.769 142.257 184.498C142.463 184.218 142.701 183.98 142.971 183.784C143.251 183.579 143.541 183.425 143.839 183.322C144.138 183.21 144.432 183.154 144.721 183.154C145.272 183.154 145.776 183.303 146.233 183.602C146.7 183.891 147.073 184.279 147.353 184.764C147.633 185.249 147.773 185.781 147.773 186.36C147.773 187.051 147.615 187.671 147.297 188.222C146.989 188.773 146.56 189.207 146.009 189.524C145.468 189.841 144.847 190 144.147 190ZM144.175 188.04C144.474 188.04 144.735 187.975 144.959 187.844C145.193 187.713 145.375 187.531 145.505 187.298C145.636 187.055 145.701 186.78 145.701 186.472C145.701 186.211 145.631 185.968 145.491 185.744C145.361 185.511 145.179 185.324 144.945 185.184C144.721 185.035 144.469 184.96 144.189 184.96C143.891 184.96 143.62 185.03 143.377 185.17C143.144 185.301 142.962 185.483 142.831 185.716C142.701 185.94 142.635 186.192 142.635 186.472C142.635 186.771 142.701 187.041 142.831 187.284C142.962 187.517 143.144 187.704 143.377 187.844C143.611 187.975 143.877 188.04 144.175 188.04Z" fill="#F59E0B"/>
<mask id="path-14-inside-5_28_248" fill="white">
<path d="M41 211C41 208.791 42.7909 207 45 207H197C199.209 207 201 208.791 201 211V236C201 238.209 199.209 240 197 240H45C42.7909 240 41 238.209 41 236V211Z"/>
</mask>
<path d="M41 211C41 208.791 42.7909 207 45 207H197C199.209 207 201 208.791 201 211V236C201 238.209 199.209 240 197 240H45C42.7909 240 41 238.209 41 236V211Z" fill="#0F1521"/>
<path d="M45 207V208H197V207V206H45V207ZM201 211H200V236H201H202V211H201ZM197 240V239H45V240V241H197V240ZM41 236H42V211H41H40V236H41ZM45 240V239C43.3431 239 42 237.657 42 236H41H40C40 238.761 42.2386 241 45 241V240ZM201 236H200C200 237.657 198.657 239 197 239V240V241C199.761 241 202 238.761 202 236H201ZM197 207V208C198.657 208 200 209.343 200 211H201H202C202 208.239 199.761 206 197 206V207ZM45 207V206C42.2386 206 40 208.239 40 211H41H42C42 209.343 43.3431 208 45 208V207Z" fill="#00B4FF" mask="url(#path-14-inside-5_28_248)"/>
<path d="M91.433 231.14C90.6397 231.14 89.9444 230.977 89.347 230.65C88.759 230.314 88.2224 229.74 87.737 228.928L89.445 227.822C89.6504 228.149 89.8604 228.41 90.075 228.606C90.299 228.802 90.5277 228.947 90.761 229.04C91.0037 229.124 91.2557 229.166 91.517 229.166C91.7784 229.166 92.0164 229.11 92.231 228.998C92.455 228.877 92.6324 228.709 92.763 228.494C92.903 228.279 92.973 228.037 92.973 227.766C92.973 227.477 92.9124 227.234 92.791 227.038C92.679 226.833 92.511 226.679 92.287 226.576C92.0724 226.473 91.811 226.422 91.503 226.422C91.363 226.422 91.2137 226.441 91.055 226.478C90.8964 226.506 90.7284 226.548 90.551 226.604C90.3737 226.66 90.1917 226.735 90.005 226.828L89.487 225.442L91.867 222.852L92.511 223.202L88.423 223.118V221.116H94.443L94.877 221.984L91.643 225.456L91.083 224.798C91.1577 224.761 91.279 224.728 91.447 224.7C91.6244 224.663 91.7924 224.644 91.951 224.644C92.3897 224.644 92.8004 224.723 93.183 224.882C93.5657 225.041 93.9064 225.26 94.205 225.54C94.5037 225.82 94.737 226.151 94.905 226.534C95.073 226.907 95.157 227.309 95.157 227.738C95.157 228.391 94.989 228.975 94.653 229.488C94.3264 229.992 93.8784 230.393 93.309 230.692C92.749 230.991 92.1237 231.14 91.433 231.14ZM105.743 230.258L100.703 225.218L102.047 223.902L107.087 228.942L105.743 230.258ZM102.047 230.3L100.731 228.942L105.757 223.902L107.087 225.246L102.047 230.3ZM116.992 231V223.076L118.266 223.104L114.724 227.444L114.388 227.024H120.884V228.984H113.324L112.372 227.15L117.37 221.116H119.288V231H116.992ZM126.798 226.45V224.63H133.644V226.45H126.798ZM126.798 229.488V227.682H133.644V229.488H126.798Z" fill="white"/>
<path d="M142.021 230.314V222.362L142.539 223.552L140.439 224.546L140.033 222.418L142.819 221.06H144.359V230.314H142.021ZM140.229 231V228.9H146.193V231H140.229ZM147.741 231L147.279 229.852L150.135 226.73C150.294 226.553 150.466 226.352 150.653 226.128C150.84 225.904 151.022 225.675 151.199 225.442C151.376 225.199 151.516 224.966 151.619 224.742C151.731 224.518 151.787 224.313 151.787 224.126C151.787 223.939 151.745 223.776 151.661 223.636C151.577 223.496 151.456 223.389 151.297 223.314C151.138 223.23 150.938 223.188 150.695 223.188C150.48 223.188 150.275 223.244 150.079 223.356C149.883 223.459 149.696 223.622 149.519 223.846C149.351 224.07 149.192 224.345 149.043 224.672L147.279 223.72C147.475 223.179 147.75 222.703 148.105 222.292C148.469 221.872 148.894 221.55 149.379 221.326C149.864 221.093 150.382 220.976 150.933 220.976C151.512 220.985 152.034 221.111 152.501 221.354C152.968 221.587 153.336 221.919 153.607 222.348C153.887 222.768 154.027 223.263 154.027 223.832C154.027 224.028 154.004 224.233 153.957 224.448C153.91 224.663 153.84 224.887 153.747 225.12C153.654 225.344 153.528 225.587 153.369 225.848C153.22 226.1 153.038 226.366 152.823 226.646C152.608 226.926 152.356 227.225 152.067 227.542L149.841 229.964L149.561 228.9H154.461V231H147.741Z" fill="#F59E0B"/>
<mask id="path-17-inside-6_28_248" fill="white">
<path d="M41 252C41 249.791 42.7909 248 45 248H197C199.209 248 201 249.791 201 252V277C201 279.209 199.209 281 197 281H45C42.7909 281 41 279.209 41 277V252Z"/>
</mask>
<path d="M41 252C41 249.791 42.7909 248 45 248H197C199.209 248 201 249.791 201 252V277C201 279.209 199.209 281 197 281H45C42.7909 281 41 279.209 41 277V252Z" fill="#0F1521"/>
<path d="M45 248V249H197V248V247H45V248ZM201 252H200V277H201H202V252H201ZM197 281V280H45V281V282H197V281ZM41 277H42V252H41H40V277H41ZM45 281V280C43.3431 280 42 278.657 42 277H41H40C40 279.761 42.2386 282 45 282V281ZM201 277H200C200 278.657 198.657 280 197 280V281V282C199.761 282 202 279.761 202 277H201ZM197 248V249C198.657 249 200 250.343 200 252H201H202C202 249.239 199.761 247 197 247V248ZM45 248V247C42.2386 247 40 249.239 40 252H41H42C42 250.343 43.3431 249 45 249V248Z" fill="#00B4FF" mask="url(#path-17-inside-6_28_248)"/>
<path d="M91.5629 270.14C90.7696 270.14 90.0743 269.977 89.4769 269.65C88.8889 269.314 88.3523 268.74 87.8669 267.928L89.5749 266.822C89.7803 267.149 89.9903 267.41 90.2049 267.606C90.4289 267.802 90.6576 267.947 90.8909 268.04C91.1336 268.124 91.3856 268.166 91.6469 268.166C91.9083 268.166 92.1463 268.11 92.3609 267.998C92.5849 267.877 92.7623 267.709 92.8929 267.494C93.0329 267.279 93.1029 267.037 93.1029 266.766C93.1029 266.477 93.0423 266.234 92.9209 266.038C92.8089 265.833 92.6409 265.679 92.4169 265.576C92.2023 265.473 91.9409 265.422 91.6329 265.422C91.4929 265.422 91.3436 265.441 91.1849 265.478C91.0263 265.506 90.8583 265.548 90.6809 265.604C90.5036 265.66 90.3216 265.735 90.1349 265.828L89.6169 264.442L91.9969 261.852L92.6409 262.202L88.5529 262.118V260.116H94.5729L95.0069 260.984L91.7729 264.456L91.2129 263.798C91.2876 263.761 91.4089 263.728 91.5769 263.7C91.7543 263.663 91.9223 263.644 92.0809 263.644C92.5196 263.644 92.9303 263.723 93.3129 263.882C93.6956 264.041 94.0363 264.26 94.3349 264.54C94.6336 264.82 94.8669 265.151 95.0349 265.534C95.2029 265.907 95.2869 266.309 95.2869 266.738C95.2869 267.391 95.1189 267.975 94.7829 268.488C94.4563 268.992 94.0083 269.393 93.4389 269.692C92.8789 269.991 92.2536 270.14 91.5629 270.14ZM105.873 269.258L100.833 264.218L102.177 262.902L107.217 267.942L105.873 269.258ZM102.177 269.3L100.861 267.942L105.887 262.902L107.217 264.246L102.177 269.3ZM116.184 270.098C115.447 270.098 114.775 269.949 114.168 269.65C113.571 269.351 113.076 268.922 112.684 268.362L113.958 266.962C114.341 267.382 114.696 267.671 115.022 267.83C115.349 267.979 115.713 268.054 116.114 268.054C116.413 268.054 116.679 267.993 116.912 267.872C117.146 267.751 117.328 267.583 117.458 267.368C117.598 267.144 117.668 266.897 117.668 266.626C117.668 266.346 117.598 266.099 117.458 265.884C117.328 265.66 117.146 265.483 116.912 265.352C116.688 265.221 116.427 265.156 116.128 265.156C115.914 265.156 115.713 265.175 115.526 265.212C115.34 265.249 115.139 265.315 114.924 265.408C114.719 265.492 114.472 265.618 114.182 265.786L113.174 264.442L113.776 260.116H119.404V262.118H114.91L115.526 261.334L115.064 264.442L114.224 264.162C114.402 264.003 114.616 263.863 114.868 263.742C115.13 263.621 115.41 263.523 115.708 263.448C116.007 263.364 116.306 263.322 116.604 263.322C117.22 263.322 117.771 263.467 118.256 263.756C118.751 264.036 119.143 264.428 119.432 264.932C119.722 265.436 119.866 266.015 119.866 266.668C119.866 267.312 119.703 267.895 119.376 268.418C119.05 268.931 118.611 269.342 118.06 269.65C117.51 269.949 116.884 270.098 116.184 270.098ZM125.999 265.45V263.63H132.845V265.45H125.999ZM125.999 268.488V266.682H132.845V268.488H125.999Z" fill="white"/>
<path d="M141.222 269.314V261.362L141.74 262.552L139.64 263.546L139.234 261.418L142.02 260.06H143.56V269.314H141.222ZM139.43 270V267.9H145.394V270H139.43ZM150.063 270.098C149.326 270.098 148.654 269.949 148.047 269.65C147.45 269.351 146.955 268.922 146.563 268.362L147.837 266.962C148.22 267.382 148.575 267.671 148.901 267.83C149.228 267.979 149.592 268.054 149.993 268.054C150.292 268.054 150.558 267.993 150.791 267.872C151.025 267.751 151.207 267.583 151.337 267.368C151.477 267.144 151.547 266.897 151.547 266.626C151.547 266.346 151.477 266.099 151.337 265.884C151.207 265.66 151.025 265.483 150.791 265.352C150.567 265.221 150.306 265.156 150.007 265.156C149.793 265.156 149.592 265.175 149.405 265.212C149.219 265.249 149.018 265.315 148.803 265.408C148.598 265.492 148.351 265.618 148.061 265.786L147.053 264.442L147.655 260.116H153.283V262.118H148.789L149.405 261.334L148.943 264.442L148.103 264.162C148.281 264.003 148.495 263.863 148.747 263.742C149.009 263.621 149.289 263.523 149.587 263.448C149.886 263.364 150.185 263.322 150.483 263.322C151.099 263.322 151.65 263.467 152.135 263.756C152.63 264.036 153.022 264.428 153.311 264.932C153.601 265.436 153.745 266.015 153.745 266.668C153.745 267.312 153.582 267.895 153.255 268.418C152.929 268.931 152.49 269.342 151.939 269.65C151.389 269.949 150.763 270.098 150.063 270.098Z" fill="#F59E0B"/>
<mask id="path-20-inside-7_28_248" fill="white">
<path d="M41 293C41 290.791 42.7909 289 45 289H197C199.209 289 201 290.791 201 293V318C201 320.209 199.209 322 197 322H45C42.7909 322 41 320.209 41 318V293Z"/>
</mask>
<path d="M41 293C41 290.791 42.7909 289 45 289H197C199.209 289 201 290.791 201 293V318C201 320.209 199.209 322 197 322H45C42.7909 322 41 320.209 41 318V293Z" fill="#0F1521"/>
<path d="M45 289V290H197V289V288H45V289ZM201 293H200V318H201H202V293H201ZM197 322V321H45V322V323H197V322ZM41 318H42V293H41H40V318H41ZM45 322V321C43.3431 321 42 319.657 42 318H41H40C40 320.761 42.2386 323 45 323V322ZM201 318H200C200 319.657 198.657 321 197 321V322V323C199.761 323 202 320.761 202 318H201ZM197 289V290C198.657 290 200 291.343 200 293H201H202C202 290.239 199.761 288 197 288V289ZM45 289V288C42.2386 288 40 290.239 40 293H41H42C42 291.343 43.3431 290 45 290V289Z" fill="#00B4FF" mask="url(#path-20-inside-7_28_248)"/>
<path d="M91.6586 311.14C90.8653 311.14 90.17 310.977 89.5726 310.65C88.9846 310.314 88.448 309.74 87.9626 308.928L89.6706 307.822C89.876 308.149 90.086 308.41 90.3006 308.606C90.5246 308.802 90.7533 308.947 90.9866 309.04C91.2293 309.124 91.4813 309.166 91.7426 309.166C92.004 309.166 92.242 309.11 92.4566 308.998C92.6806 308.877 92.858 308.709 92.9886 308.494C93.1286 308.279 93.1986 308.037 93.1986 307.766C93.1986 307.477 93.138 307.234 93.0166 307.038C92.9046 306.833 92.7366 306.679 92.5126 306.576C92.298 306.473 92.0366 306.422 91.7286 306.422C91.5886 306.422 91.4393 306.441 91.2806 306.478C91.122 306.506 90.954 306.548 90.7766 306.604C90.5993 306.66 90.4173 306.735 90.2306 306.828L89.7126 305.442L92.0926 302.852L92.7366 303.202L88.6486 303.118V301.116H94.6686L95.1026 301.984L91.8686 305.456L91.3086 304.798C91.3833 304.761 91.5046 304.728 91.6726 304.7C91.85 304.663 92.018 304.644 92.1766 304.644C92.6153 304.644 93.026 304.723 93.4086 304.882C93.7913 305.041 94.132 305.26 94.4306 305.54C94.7293 305.82 94.9626 306.151 95.1306 306.534C95.2986 306.907 95.3826 307.309 95.3826 307.738C95.3826 308.391 95.2146 308.975 94.8786 309.488C94.552 309.992 94.104 310.393 93.5346 310.692C92.9746 310.991 92.3493 311.14 91.6586 311.14ZM105.968 310.258L100.928 305.218L102.272 303.902L107.312 308.942L105.968 310.258ZM102.272 310.3L100.956 308.942L105.982 303.902L107.312 305.246L102.272 310.3ZM116.448 311C115.944 311 115.468 310.911 115.02 310.734C114.581 310.547 114.199 310.295 113.872 309.978C113.545 309.651 113.284 309.273 113.088 308.844C112.901 308.415 112.808 307.953 112.808 307.458C112.808 307.113 112.845 306.781 112.92 306.464C112.995 306.137 113.097 305.811 113.228 305.484C113.368 305.148 113.531 304.807 113.718 304.462C113.914 304.107 114.129 303.734 114.362 303.342L115.734 301.046H117.932L117.988 301.186L116.084 304.182C115.841 304.574 115.631 304.943 115.454 305.288C115.277 305.624 115.118 305.96 114.978 306.296C114.838 306.632 114.698 306.987 114.558 307.36L114.11 306.394C114.203 306.067 114.353 305.769 114.558 305.498C114.763 305.218 115.001 304.98 115.272 304.784C115.552 304.579 115.841 304.425 116.14 304.322C116.439 304.21 116.733 304.154 117.022 304.154C117.573 304.154 118.077 304.303 118.534 304.602C119.001 304.891 119.374 305.279 119.654 305.764C119.934 306.249 120.074 306.781 120.074 307.36C120.074 308.051 119.915 308.671 119.598 309.222C119.29 309.773 118.861 310.207 118.31 310.524C117.769 310.841 117.148 311 116.448 311ZM116.476 309.04C116.775 309.04 117.036 308.975 117.26 308.844C117.493 308.713 117.675 308.531 117.806 308.298C117.937 308.055 118.002 307.78 118.002 307.472C118.002 307.211 117.932 306.968 117.792 306.744C117.661 306.511 117.479 306.324 117.246 306.184C117.022 306.035 116.77 305.96 116.49 305.96C116.191 305.96 115.921 306.03 115.678 306.17C115.445 306.301 115.263 306.483 115.132 306.716C115.001 306.94 114.936 307.192 114.936 307.472C114.936 307.771 115.001 308.041 115.132 308.284C115.263 308.517 115.445 308.704 115.678 308.844C115.911 308.975 116.177 309.04 116.476 309.04ZM125.862 306.45V304.63H132.708V306.45H125.862ZM125.862 309.488V307.682H132.708V309.488H125.862Z" fill="white"/>
<path d="M141.085 310.314V302.362L141.603 303.552L139.503 304.546L139.097 302.418L141.883 301.06H143.423V310.314H141.085ZM139.293 311V308.9H145.257V311H139.293ZM150.165 311.042C149.493 311.042 148.881 310.916 148.331 310.664C147.789 310.403 147.355 310.053 147.029 309.614C146.702 309.175 146.539 308.681 146.539 308.13C146.539 307.766 146.585 307.439 146.679 307.15C146.772 306.851 146.912 306.59 147.099 306.366C147.295 306.133 147.528 305.937 147.799 305.778C148.079 305.61 148.396 305.475 148.751 305.372L148.583 305.932C148.321 305.829 148.083 305.703 147.869 305.554C147.654 305.405 147.472 305.237 147.323 305.05C147.173 304.854 147.057 304.644 146.973 304.42C146.898 304.196 146.861 303.963 146.861 303.72C146.861 303.197 147.005 302.735 147.295 302.334C147.593 301.933 147.99 301.62 148.485 301.396C148.989 301.163 149.549 301.046 150.165 301.046C150.771 301.046 151.322 301.163 151.817 301.396C152.321 301.62 152.722 301.933 153.021 302.334C153.319 302.735 153.469 303.197 153.469 303.72C153.469 303.963 153.431 304.196 153.357 304.42C153.282 304.644 153.17 304.849 153.021 305.036C152.871 305.213 152.689 305.381 152.475 305.54C152.26 305.689 152.013 305.82 151.733 305.932L151.607 305.428C151.924 305.512 152.218 305.633 152.489 305.792C152.759 305.941 152.993 306.133 153.189 306.366C153.385 306.59 153.534 306.851 153.637 307.15C153.749 307.439 153.805 307.766 153.805 308.13C153.805 308.69 153.641 309.189 153.315 309.628C152.988 310.067 152.549 310.412 151.999 310.664C151.448 310.916 150.837 311.042 150.165 311.042ZM150.165 309.166C150.426 309.166 150.659 309.115 150.865 309.012C151.07 308.909 151.233 308.769 151.355 308.592C151.476 308.415 151.537 308.209 151.537 307.976C151.537 307.733 151.476 307.523 151.355 307.346C151.243 307.159 151.079 307.015 150.865 306.912C150.659 306.8 150.426 306.744 150.165 306.744C149.903 306.744 149.67 306.8 149.465 306.912C149.259 307.015 149.096 307.159 148.975 307.346C148.853 307.523 148.793 307.733 148.793 307.976C148.793 308.2 148.853 308.401 148.975 308.578C149.096 308.755 149.259 308.9 149.465 309.012C149.67 309.115 149.903 309.166 150.165 309.166ZM150.165 304.854C150.389 304.854 150.589 304.812 150.767 304.728C150.953 304.635 151.098 304.513 151.201 304.364C151.303 304.205 151.355 304.023 151.355 303.818C151.355 303.613 151.303 303.431 151.201 303.272C151.098 303.113 150.953 302.987 150.767 302.894C150.589 302.801 150.389 302.754 150.165 302.754C149.931 302.754 149.721 302.801 149.535 302.894C149.357 302.987 149.217 303.113 149.115 303.272C149.012 303.431 148.961 303.613 148.961 303.818C148.961 304.023 149.012 304.205 149.115 304.364C149.217 304.513 149.357 304.635 149.535 304.728C149.721 304.812 149.931 304.854 150.165 304.854Z" fill="#F59E0B"/>
<mask id="path-23-inside-8_28_248" fill="white">
<path d="M41 334C41 331.791 42.7909 330 45 330H197C199.209 330 201 331.791 201 334V359C201 361.209 199.209 363 197 363H45C42.7909 363 41 361.209 41 359V334Z"/>
</mask>
<path d="M41 334C41 331.791 42.7909 330 45 330H197C199.209 330 201 331.791 201 334V359C201 361.209 199.209 363 197 363H45C42.7909 363 41 361.209 41 359V334Z" fill="#0F1521"/>
<path d="M45 330V331H197V330V329H45V330ZM201 334H200V359H201H202V334H201ZM197 363V362H45V363V364H197V363ZM41 359H42V334H41H40V359H41ZM45 363V362C43.3431 362 42 360.657 42 359H41H40C40 361.761 42.2386 364 45 364V363ZM201 359H200C200 360.657 198.657 362 197 362V363V364C199.761 364 202 361.761 202 359H201ZM197 330V331C198.657 331 200 332.343 200 334H201H202C202 331.239 199.761 329 197 329V330ZM45 330V329C42.2386 329 40 331.239 40 334H41H42C42 332.343 43.3431 331 45 331V330Z" fill="#00B4FF" mask="url(#path-23-inside-8_28_248)"/>
<path d="M92.1987 352.14C91.4053 352.14 90.71 351.977 90.1127 351.65C89.5247 351.314 88.988 350.74 88.5027 349.928L90.2107 348.822C90.416 349.149 90.626 349.41 90.8407 349.606C91.0647 349.802 91.2933 349.947 91.5267 350.04C91.7693 350.124 92.0213 350.166 92.2827 350.166C92.544 350.166 92.782 350.11 92.9967 349.998C93.2207 349.877 93.398 349.709 93.5287 349.494C93.6687 349.279 93.7387 349.037 93.7387 348.766C93.7387 348.477 93.678 348.234 93.5567 348.038C93.4447 347.833 93.2767 347.679 93.0527 347.576C92.838 347.473 92.5767 347.422 92.2687 347.422C92.1287 347.422 91.9793 347.441 91.8207 347.478C91.662 347.506 91.494 347.548 91.3167 347.604C91.1393 347.66 90.9573 347.735 90.7707 347.828L90.2527 346.442L92.6327 343.852L93.2767 344.202L89.1887 344.118V342.116H95.2087L95.6427 342.984L92.4087 346.456L91.8487 345.798C91.9233 345.761 92.0447 345.728 92.2127 345.7C92.39 345.663 92.558 345.644 92.7167 345.644C93.1553 345.644 93.566 345.723 93.9487 345.882C94.3313 346.041 94.672 346.26 94.9707 346.54C95.2693 346.82 95.5027 347.151 95.6707 347.534C95.8387 347.907 95.9227 348.309 95.9227 348.738C95.9227 349.391 95.7547 349.975 95.4187 350.488C95.092 350.992 94.644 351.393 94.0747 351.692C93.5147 351.991 92.8893 352.14 92.1987 352.14ZM106.509 351.258L101.469 346.218L102.813 344.902L107.853 349.942L106.509 351.258ZM102.813 351.3L101.497 349.942L106.523 344.902L107.853 346.246L102.813 351.3ZM114.048 352L117.968 343.068L118.64 344.188H113.516V342.116H119.9L120.124 343.25L116.428 352H114.048ZM126.033 347.45V345.63H132.879V347.45H126.033ZM126.033 350.488V348.682H132.879V350.488H126.033Z" fill="white"/>
<path d="M139.128 352L138.666 350.852L141.522 347.73C141.68 347.553 141.853 347.352 142.04 347.128C142.226 346.904 142.408 346.675 142.586 346.442C142.763 346.199 142.903 345.966 143.006 345.742C143.118 345.518 143.174 345.313 143.174 345.126C143.174 344.939 143.132 344.776 143.048 344.636C142.964 344.496 142.842 344.389 142.684 344.314C142.525 344.23 142.324 344.188 142.082 344.188C141.867 344.188 141.662 344.244 141.466 344.356C141.27 344.459 141.083 344.622 140.906 344.846C140.738 345.07 140.579 345.345 140.43 345.672L138.666 344.72C138.862 344.179 139.137 343.703 139.492 343.292C139.856 342.872 140.28 342.55 140.766 342.326C141.251 342.093 141.769 341.976 142.32 341.976C142.898 341.985 143.421 342.111 143.888 342.354C144.354 342.587 144.723 342.919 144.994 343.348C145.274 343.768 145.414 344.263 145.414 344.832C145.414 345.028 145.39 345.233 145.344 345.448C145.297 345.663 145.227 345.887 145.134 346.12C145.04 346.344 144.914 346.587 144.756 346.848C144.606 347.1 144.424 347.366 144.21 347.646C143.995 347.926 143.743 348.225 143.454 348.542L141.228 350.964L140.948 349.9H145.848V352H139.128ZM148.926 351.314V343.362L149.444 344.552L147.344 345.546L146.938 343.418L149.724 342.06H151.264V351.314H148.926ZM147.134 352V349.9H153.098V352H147.134Z" fill="#F59E0B"/>
<mask id="path-26-inside-9_28_248" fill="white">
<path d="M41 375C41 372.791 42.7909 371 45 371H197C199.209 371 201 372.791 201 375V400C201 402.209 199.209 404 197 404H45C42.7909 404 41 402.209 41 400V375Z"/>
</mask>
<path d="M41 375C41 372.791 42.7909 371 45 371H197C199.209 371 201 372.791 201 375V400C201 402.209 199.209 404 197 404H45C42.7909 404 41 402.209 41 400V375Z" fill="#0F1521"/>
<path d="M45 371V372H197V371V370H45V371ZM201 375H200V400H201H202V375H201ZM197 404V403H45V404V405H197V404ZM41 400H42V375H41H40V400H41ZM45 404V403C43.3431 403 42 401.657 42 400H41H40C40 402.761 42.2386 405 45 405V404ZM201 400H200C200 401.657 198.657 403 197 403V404V405C199.761 405 202 402.761 202 400H201ZM197 371V372C198.657 372 200 373.343 200 375H201H202C202 372.239 199.761 370 197 370V371ZM45 371V370C42.2386 370 40 372.239 40 375H41H42C42 373.343 43.3431 372 45 372V371Z" fill="#00B4FF" mask="url(#path-26-inside-9_28_248)"/>
<path d="M91.3032 393.14C90.5098 393.14 89.8145 392.977 89.2172 392.65C88.6292 392.314 88.0925 391.74 87.6072 390.928L89.3152 389.822C89.5205 390.149 89.7305 390.41 89.9452 390.606C90.1692 390.802 90.3978 390.947 90.6312 391.04C90.8738 391.124 91.1258 391.166 91.3872 391.166C91.6485 391.166 91.8865 391.11 92.1012 390.998C92.3252 390.877 92.5025 390.709 92.6332 390.494C92.7732 390.279 92.8432 390.037 92.8432 389.766C92.8432 389.477 92.7825 389.234 92.6612 389.038C92.5492 388.833 92.3812 388.679 92.1572 388.576C91.9425 388.473 91.6812 388.422 91.3732 388.422C91.2332 388.422 91.0838 388.441 90.9252 388.478C90.7665 388.506 90.5985 388.548 90.4212 388.604C90.2438 388.66 90.0618 388.735 89.8752 388.828L89.3572 387.442L91.7372 384.852L92.3812 385.202L88.2932 385.118V383.116H94.3132L94.7472 383.984L91.5132 387.456L90.9532 386.798C91.0278 386.761 91.1492 386.728 91.3172 386.7C91.4945 386.663 91.6625 386.644 91.8212 386.644C92.2598 386.644 92.6705 386.723 93.0532 386.882C93.4358 387.041 93.7765 387.26 94.0752 387.54C94.3738 387.82 94.6072 388.151 94.7752 388.534C94.9432 388.907 95.0272 389.309 95.0272 389.738C95.0272 390.391 94.8592 390.975 94.5232 391.488C94.1965 391.992 93.7485 392.393 93.1792 392.692C92.6192 392.991 91.9938 393.14 91.3032 393.14ZM105.613 392.258L100.573 387.218L101.917 385.902L106.957 390.942L105.613 392.258ZM101.917 392.3L100.601 390.942L105.627 385.902L106.957 387.246L101.917 392.3ZM116.163 393.042C115.491 393.042 114.879 392.916 114.329 392.664C113.787 392.403 113.353 392.053 113.027 391.614C112.7 391.175 112.537 390.681 112.537 390.13C112.537 389.766 112.583 389.439 112.677 389.15C112.77 388.851 112.91 388.59 113.097 388.366C113.293 388.133 113.526 387.937 113.797 387.778C114.077 387.61 114.394 387.475 114.749 387.372L114.581 387.932C114.319 387.829 114.081 387.703 113.867 387.554C113.652 387.405 113.47 387.237 113.321 387.05C113.171 386.854 113.055 386.644 112.971 386.42C112.896 386.196 112.859 385.963 112.859 385.72C112.859 385.197 113.003 384.735 113.293 384.334C113.591 383.933 113.988 383.62 114.483 383.396C114.987 383.163 115.547 383.046 116.163 383.046C116.769 383.046 117.32 383.163 117.815 383.396C118.319 383.62 118.72 383.933 119.019 384.334C119.317 384.735 119.467 385.197 119.467 385.72C119.467 385.963 119.429 386.196 119.355 386.42C119.28 386.644 119.168 386.849 119.019 387.036C118.869 387.213 118.687 387.381 118.473 387.54C118.258 387.689 118.011 387.82 117.731 387.932L117.605 387.428C117.922 387.512 118.216 387.633 118.487 387.792C118.757 387.941 118.991 388.133 119.187 388.366C119.383 388.59 119.532 388.851 119.635 389.15C119.747 389.439 119.803 389.766 119.803 390.13C119.803 390.69 119.639 391.189 119.313 391.628C118.986 392.067 118.547 392.412 117.997 392.664C117.446 392.916 116.835 393.042 116.163 393.042ZM116.163 391.166C116.424 391.166 116.657 391.115 116.863 391.012C117.068 390.909 117.231 390.769 117.353 390.592C117.474 390.415 117.535 390.209 117.535 389.976C117.535 389.733 117.474 389.523 117.353 389.346C117.241 389.159 117.077 389.015 116.863 388.912C116.657 388.8 116.424 388.744 116.163 388.744C115.901 388.744 115.668 388.8 115.463 388.912C115.257 389.015 115.094 389.159 114.973 389.346C114.851 389.523 114.791 389.733 114.791 389.976C114.791 390.2 114.851 390.401 114.973 390.578C115.094 390.755 115.257 390.9 115.463 391.012C115.668 391.115 115.901 391.166 116.163 391.166ZM116.163 386.854C116.387 386.854 116.587 386.812 116.765 386.728C116.951 386.635 117.096 386.513 117.199 386.364C117.301 386.205 117.353 386.023 117.353 385.818C117.353 385.613 117.301 385.431 117.199 385.272C117.096 385.113 116.951 384.987 116.765 384.894C116.587 384.801 116.387 384.754 116.163 384.754C115.929 384.754 115.719 384.801 115.533 384.894C115.355 384.987 115.215 385.113 115.113 385.272C115.01 385.431 114.959 385.613 114.959 385.818C114.959 386.023 115.01 386.205 115.113 386.364C115.215 386.513 115.355 386.635 115.533 386.728C115.719 386.812 115.929 386.854 116.163 386.854ZM125.78 388.45V386.63H132.626V388.45H125.78ZM125.78 391.488V389.682H132.626V391.488H125.78Z" fill="white"/>
<path d="M138.875 393L138.413 391.852L141.269 388.73C141.427 388.553 141.6 388.352 141.787 388.128C141.973 387.904 142.155 387.675 142.333 387.442C142.51 387.199 142.65 386.966 142.753 386.742C142.865 386.518 142.921 386.313 142.921 386.126C142.921 385.939 142.879 385.776 142.795 385.636C142.711 385.496 142.589 385.389 142.431 385.314C142.272 385.23 142.071 385.188 141.829 385.188C141.614 385.188 141.409 385.244 141.213 385.356C141.017 385.459 140.83 385.622 140.653 385.846C140.485 386.07 140.326 386.345 140.177 386.672L138.413 385.72C138.609 385.179 138.884 384.703 139.239 384.292C139.603 383.872 140.027 383.55 140.513 383.326C140.998 383.093 141.516 382.976 142.067 382.976C142.645 382.985 143.168 383.111 143.635 383.354C144.101 383.587 144.47 383.919 144.741 384.348C145.021 384.768 145.161 385.263 145.161 385.832C145.161 386.028 145.137 386.233 145.091 386.448C145.044 386.663 144.974 386.887 144.881 387.12C144.787 387.344 144.661 387.587 144.503 387.848C144.353 388.1 144.171 388.366 143.957 388.646C143.742 388.926 143.49 389.225 143.201 389.542L140.975 391.964L140.695 390.9H145.595V393H138.875ZM150.331 393V385.076L151.605 385.104L148.063 389.444L147.727 389.024H154.223V390.984H146.663L145.711 389.15L150.709 383.116H152.627V393H150.331Z" fill="#F59E0B"/>
<mask id="path-29-inside-10_28_248" fill="white">
<path d="M41 416C41 413.791 42.7909 412 45 412H197C199.209 412 201 413.791 201 416V441C201 443.209 199.209 445 197 445H45C42.7909 445 41 443.209 41 441V416Z"/>
</mask>
<path d="M41 416C41 413.791 42.7909 412 45 412H197C199.209 412 201 413.791 201 416V441C201 443.209 199.209 445 197 445H45C42.7909 445 41 443.209 41 441V416Z" fill="#0F1521"/>
<path d="M45 412V413H197V412V411H45V412ZM201 416H200V441H201H202V416H201ZM197 445V444H45V445V446H197V445ZM41 441H42V416H41H40V441H41ZM45 445V444C43.3431 444 42 442.657 42 441H41H40C40 443.761 42.2386 446 45 446V445ZM201 441H200C200 442.657 198.657 444 197 444V445V446C199.761 446 202 443.761 202 441H201ZM197 412V413C198.657 413 200 414.343 200 416H201H202C202 413.239 199.761 411 197 411V412ZM45 412V411C42.2386 411 40 413.239 40 416H41H42C42 414.343 43.3431 413 45 413V412Z" fill="#00B4FF" mask="url(#path-29-inside-10_28_248)"/>
<path d="M92.0825 434.14C91.2891 434.14 90.5938 433.977 89.9965 433.65C89.4085 433.314 88.8718 432.74 88.3865 431.928L90.0945 430.822C90.2998 431.149 90.5098 431.41 90.7245 431.606C90.9485 431.802 91.1771 431.947 91.4105 432.04C91.6531 432.124 91.9051 432.166 92.1665 432.166C92.4278 432.166 92.6658 432.11 92.8805 431.998C93.1045 431.877 93.2818 431.709 93.4125 431.494C93.5525 431.279 93.6225 431.037 93.6225 430.766C93.6225 430.477 93.5618 430.234 93.4405 430.038C93.3285 429.833 93.1605 429.679 92.9365 429.576C92.7218 429.473 92.4605 429.422 92.1525 429.422C92.0125 429.422 91.8631 429.441 91.7045 429.478C91.5458 429.506 91.3778 429.548 91.2005 429.604C91.0231 429.66 90.8411 429.735 90.6545 429.828L90.1365 428.442L92.5165 425.852L93.1605 426.202L89.0725 426.118V424.116H95.0925L95.5265 424.984L92.2925 428.456L91.7325 427.798C91.8071 427.761 91.9285 427.728 92.0965 427.7C92.2738 427.663 92.4418 427.644 92.6005 427.644C93.0391 427.644 93.4498 427.723 93.8325 427.882C94.2151 428.041 94.5558 428.26 94.8545 428.54C95.1531 428.82 95.3865 429.151 95.5545 429.534C95.7225 429.907 95.8065 430.309 95.8065 430.738C95.8065 431.391 95.6385 431.975 95.3025 432.488C94.9758 432.992 94.5278 433.393 93.9585 433.692C93.3985 433.991 92.7731 434.14 92.0825 434.14ZM106.392 433.258L101.352 428.218L102.696 426.902L107.736 431.942L106.392 433.258ZM102.696 433.3L101.38 431.942L106.406 426.902L107.736 428.246L102.696 433.3ZM115.668 434L115.612 433.86L118.678 427.672L119.084 428.512C118.991 428.848 118.841 429.151 118.636 429.422C118.431 429.693 118.183 429.931 117.894 430.136C117.614 430.332 117.32 430.486 117.012 430.598C116.704 430.701 116.41 430.752 116.13 430.752C115.598 430.752 115.108 430.607 114.66 430.318C114.212 430.029 113.853 429.641 113.582 429.156C113.311 428.671 113.176 428.143 113.176 427.574C113.176 426.902 113.335 426.295 113.652 425.754C113.979 425.203 114.417 424.769 114.968 424.452C115.519 424.125 116.139 423.962 116.83 423.962C117.334 423.962 117.805 424.051 118.244 424.228C118.683 424.405 119.065 424.653 119.392 424.97C119.728 425.278 119.989 425.637 120.176 426.048C120.363 426.459 120.456 426.893 120.456 427.35C120.456 427.686 120.428 428.017 120.372 428.344C120.316 428.661 120.227 428.988 120.106 429.324C119.985 429.66 119.84 430.01 119.672 430.374C119.513 430.738 119.327 431.135 119.112 431.564L117.88 434H115.668ZM116.704 428.876C116.993 428.876 117.25 428.811 117.474 428.68C117.698 428.549 117.871 428.377 117.992 428.162C118.123 427.938 118.188 427.691 118.188 427.42C118.188 427.131 118.123 426.874 117.992 426.65C117.871 426.417 117.698 426.235 117.474 426.104C117.259 425.973 117.007 425.908 116.718 425.908C116.438 425.908 116.191 425.973 115.976 426.104C115.771 426.225 115.603 426.403 115.472 426.636C115.351 426.86 115.29 427.121 115.29 427.42C115.29 427.672 115.351 427.91 115.472 428.134C115.603 428.349 115.775 428.526 115.99 428.666C116.205 428.806 116.443 428.876 116.704 428.876ZM126.258 429.45V427.63H133.104V429.45H126.258ZM126.258 432.488V430.682H133.104V432.488H126.258Z" fill="white"/>
<path d="M139.353 434L138.891 432.852L141.747 429.73C141.906 429.553 142.079 429.352 142.265 429.128C142.452 428.904 142.634 428.675 142.811 428.442C142.989 428.199 143.129 427.966 143.231 427.742C143.343 427.518 143.399 427.313 143.399 427.126C143.399 426.939 143.357 426.776 143.273 426.636C143.189 426.496 143.068 426.389 142.909 426.314C142.751 426.23 142.55 426.188 142.307 426.188C142.093 426.188 141.887 426.244 141.691 426.356C141.495 426.459 141.309 426.622 141.131 426.846C140.963 427.07 140.805 427.345 140.655 427.672L138.891 426.72C139.087 426.179 139.363 425.703 139.717 425.292C140.081 424.872 140.506 424.55 140.991 424.326C141.477 424.093 141.995 423.976 142.545 423.976C143.124 423.985 143.647 424.111 144.113 424.354C144.58 424.587 144.949 424.919 145.219 425.348C145.499 425.768 145.639 426.263 145.639 426.832C145.639 427.028 145.616 427.233 145.569 427.448C145.523 427.663 145.453 427.887 145.359 428.12C145.266 428.344 145.14 428.587 144.981 428.848C144.832 429.1 144.65 429.366 144.435 429.646C144.221 429.926 143.969 430.225 143.679 430.542L141.453 432.964L141.173 431.9H146.073V434H139.353ZM147.373 434L151.293 425.068L151.965 426.188H146.841V424.116H153.225L153.449 425.25L149.753 434H147.373Z" fill="#F59E0B"/>
<mask id="path-32-inside-11_28_248" fill="white">
<path d="M41 457C41 454.791 42.7909 453 45 453H197C199.209 453 201 454.791 201 457V482C201 484.209 199.209 486 197 486H45C42.7909 486 41 484.209 41 482V457Z"/>
</mask>
<path d="M41 457C41 454.791 42.7909 453 45 453H197C199.209 453 201 454.791 201 457V482C201 484.209 199.209 486 197 486H45C42.7909 486 41 484.209 41 482V457Z" fill="#0F1521"/>
<path d="M45 453V454H197V453V452H45V453ZM201 457H200V482H201H202V457H201ZM197 486V485H45V486V487H197V486ZM41 482H42V457H41H40V482H41ZM45 486V485C43.3431 485 42 483.657 42 482H41H40C40 484.761 42.2386 487 45 487V486ZM201 482H200C200 483.657 198.657 485 197 485V486V487C199.761 487 202 484.761 202 482H201ZM197 453V454C198.657 454 200 455.343 200 457H201H202C202 454.239 199.761 452 197 452V453ZM45 453V452C42.2386 452 40 454.239 40 457H41H42C42 455.343 43.3431 454 45 454V453Z" fill="#00B4FF" mask="url(#path-32-inside-11_28_248)"/>
<path d="M86.3198 475.14C85.5264 475.14 84.8311 474.977 84.2338 474.65C83.6458 474.314 83.1091 473.74 82.6238 472.928L84.3318 471.822C84.5371 472.149 84.7471 472.41 84.9618 472.606C85.1858 472.802 85.4144 472.947 85.6478 473.04C85.8904 473.124 86.1424 473.166 86.4038 473.166C86.6651 473.166 86.9031 473.11 87.1178 472.998C87.3418 472.877 87.5191 472.709 87.6498 472.494C87.7898 472.279 87.8598 472.037 87.8598 471.766C87.8598 471.477 87.7991 471.234 87.6778 471.038C87.5658 470.833 87.3978 470.679 87.1738 470.576C86.9591 470.473 86.6978 470.422 86.3898 470.422C86.2498 470.422 86.1004 470.441 85.9418 470.478C85.7831 470.506 85.6151 470.548 85.4378 470.604C85.2604 470.66 85.0784 470.735 84.8918 470.828L84.3738 469.442L86.7538 466.852L87.3978 467.202L83.3098 467.118V465.116H89.3298L89.7638 465.984L86.5298 469.456L85.9698 468.798C86.0444 468.761 86.1658 468.728 86.3338 468.7C86.5111 468.663 86.6791 468.644 86.8378 468.644C87.2764 468.644 87.6871 468.723 88.0698 468.882C88.4524 469.041 88.7931 469.26 89.0918 469.54C89.3904 469.82 89.6238 470.151 89.7918 470.534C89.9598 470.907 90.0438 471.309 90.0438 471.738C90.0438 472.391 89.8758 472.975 89.5398 473.488C89.2131 473.992 88.7651 474.393 88.1958 474.692C87.6358 474.991 87.0104 475.14 86.3198 475.14ZM100.63 474.258L95.5896 469.218L96.9336 467.902L101.974 472.942L100.63 474.258ZM96.9336 474.3L95.6176 472.942L100.644 467.902L101.974 469.246L96.9336 474.3ZM109.947 474.314V466.362L110.465 467.552L108.365 468.546L107.959 466.418L110.745 465.06H112.285V474.314H109.947ZM108.155 475V472.9H114.119V475H108.155ZM119.559 475.14C118.681 475.14 117.93 474.939 117.305 474.538C116.689 474.137 116.217 473.563 115.891 472.816C115.564 472.06 115.401 471.155 115.401 470.1C115.401 469.045 115.564 468.145 115.891 467.398C116.217 466.642 116.689 466.063 117.305 465.662C117.93 465.261 118.681 465.06 119.559 465.06C120.436 465.06 121.187 465.261 121.813 465.662C122.438 466.063 122.914 466.642 123.241 467.398C123.567 468.145 123.731 469.045 123.731 470.1C123.731 471.155 123.567 472.06 123.241 472.816C122.914 473.563 122.438 474.137 121.813 474.538C121.187 474.939 120.436 475.14 119.559 475.14ZM119.559 473.124C120.165 473.124 120.632 472.863 120.959 472.34C121.295 471.817 121.463 471.071 121.463 470.1C121.463 469.101 121.295 468.336 120.959 467.804C120.632 467.263 120.165 466.992 119.559 466.992C118.952 466.992 118.481 467.263 118.145 467.804C117.818 468.336 117.655 469.101 117.655 470.1C117.655 471.071 117.818 471.817 118.145 472.34C118.481 472.863 118.952 473.124 119.559 473.124ZM129.71 470.45V468.63H136.556V470.45H129.71ZM129.71 473.488V471.682H136.556V473.488H129.71Z" fill="white"/>
<path d="M145.997 475.14C145.204 475.14 144.509 474.977 143.911 474.65C143.323 474.314 142.787 473.74 142.301 472.928L144.009 471.822C144.215 472.149 144.425 472.41 144.639 472.606C144.863 472.802 145.092 472.947 145.325 473.04C145.568 473.124 145.82 473.166 146.081 473.166C146.343 473.166 146.581 473.11 146.795 472.998C147.019 472.877 147.197 472.709 147.327 472.494C147.467 472.279 147.537 472.037 147.537 471.766C147.537 471.477 147.477 471.234 147.355 471.038C147.243 470.833 147.075 470.679 146.851 470.576C146.637 470.473 146.375 470.422 146.067 470.422C145.927 470.422 145.778 470.441 145.619 470.478C145.461 470.506 145.293 470.548 145.115 470.604C144.938 470.66 144.756 470.735 144.569 470.828L144.051 469.442L146.431 466.852L147.075 467.202L142.987 467.118V465.116H149.007L149.441 465.984L146.207 469.456L145.647 468.798C145.722 468.761 145.843 468.728 146.011 468.7C146.189 468.663 146.357 468.644 146.515 468.644C146.954 468.644 147.365 468.723 147.747 468.882C148.13 469.041 148.471 469.26 148.769 469.54C149.068 469.82 149.301 470.151 149.469 470.534C149.637 470.907 149.721 471.309 149.721 471.738C149.721 472.391 149.553 472.975 149.217 473.488C148.891 473.992 148.443 474.393 147.873 474.692C147.313 474.991 146.688 475.14 145.997 475.14ZM154.969 475.14C154.092 475.14 153.34 474.939 152.715 474.538C152.099 474.137 151.628 473.563 151.301 472.816C150.974 472.06 150.811 471.155 150.811 470.1C150.811 469.045 150.974 468.145 151.301 467.398C151.628 466.642 152.099 466.063 152.715 465.662C153.34 465.261 154.092 465.06 154.969 465.06C155.846 465.06 156.598 465.261 157.223 465.662C157.848 466.063 158.324 466.642 158.651 467.398C158.978 468.145 159.141 469.045 159.141 470.1C159.141 471.155 158.978 472.06 158.651 472.816C158.324 473.563 157.848 474.137 157.223 474.538C156.598 474.939 155.846 475.14 154.969 475.14ZM154.969 473.124C155.576 473.124 156.042 472.863 156.369 472.34C156.705 471.817 156.873 471.071 156.873 470.1C156.873 469.101 156.705 468.336 156.369 467.804C156.042 467.263 155.576 466.992 154.969 466.992C154.362 466.992 153.891 467.263 153.555 467.804C153.228 468.336 153.065 469.101 153.065 470.1C153.065 471.071 153.228 471.817 153.555 472.34C153.891 472.863 154.362 473.124 154.969 473.124Z" fill="#F59E0B"/>
</g>
<defs>
<filter id="filter0_d_28_248" x="0" y="0" width="242" height="530" filterUnits="userSpaceOnUse" color-interpolation-filters="sRGB">
<feFlood flood-opacity="0" result="BackgroundImageFix"/>
<feColorMatrix in="SourceAlpha" type="matrix" values="0 0 0 0 0 0 0 0 0 0 0 0 0 0 0 0 0 0 127 0" result="hardAlpha"/>
<feOffset/>
<feGaussianBlur stdDeviation="7.5"/>
<feComposite in2="hardAlpha" operator="out"/>
<feColorMatrix type="matrix" values="0 0 0 0 0 0 0 0 0 0.705882 0 0 0 0 1 0 0 0 0.2 0"/>
<feBlend mode="normal" in2="BackgroundImageFix" result="effect1_dropShadow_28_248"/>
<feBlend mode="normal" in="SourceGraphic" in2="effect1_dropShadow_28_248" result="shape"/>
</filter>
<linearGradient id="paint0_linear_28_248" x1="15" y1="15" x2="374.39" y2="167.381" gradientUnits="userSpaceOnUse">
<stop stop-color="#1A2332"/>
<stop offset="0.166667" stop-color="#18212F"/>
<stop offset="0.333333" stop-color="#161E2C"/>
<stop offset="0.5" stop-color="#141C29"/>
<stop offset="0.666667" stop-color="#131A27"/>
<stop offset="0.833333" stop-color="#111724"/>
<stop offset="1" stop-color="#0F1521"/>
</linearGradient>
</defs>
</svg>
