<svg width="242" height="530" viewBox="0 0 242 530" fill="none" xmlns="http://www.w3.org/2000/svg">
<g filter="url(#filter0_d_28_277)">
<mask id="path-1-inside-1_28_277" fill="white">
<path d="M15 25C15 19.4771 19.4772 15 25 15H217C222.523 15 227 19.4772 227 25V505C227 510.523 222.523 515 217 515H25C19.4772 515 15 510.523 15 505V25Z"/>
</mask>
<path d="M15 25C15 19.4771 19.4772 15 25 15H217C222.523 15 227 19.4772 227 25V505C227 510.523 222.523 515 217 515H25C19.4772 515 15 510.523 15 505V25Z" fill="url(#paint0_linear_28_277)" shape-rendering="crispEdges"/>
<path d="M25 15V17H217V15V13H25V15ZM227 25H225V505H227H229V25H227ZM217 515V513H25V515V517H217V515ZM15 505H17V25H15H13V505H15ZM25 515V513C20.5817 513 17 509.418 17 505H15H13C13 511.627 18.3726 517 25 517V515ZM227 505H225C225 509.418 221.418 513 217 513V515V517C223.627 517 229 511.627 229 505H227ZM217 15V17C221.418 17 225 20.5817 225 25H227H229C229 18.3726 223.627 13 217 13V15ZM25 15V13C18.3726 13 13 18.3726 13 25H15H17C17 20.5817 20.5817 17 25 17V15Z" fill="#00B4FF" mask="url(#path-1-inside-1_28_277)"/>
<path d="M41 39C41 33.4772 45.4772 29 51 29H191C196.523 29 201 33.4772 201 39V70C201 75.5228 196.523 80 191 80H51C45.4772 80 41 75.5228 41 70V39Z" fill="#00B4FF"/>
<path d="M61.1858 64V50.8H56.1938V47.2H70.3778V50.8H65.2658V64H61.1858ZM75.1697 64.216C74.0977 64.216 73.1377 63.936 72.2897 63.376C71.4577 62.8 70.7937 62.016 70.2977 61.024C69.8017 60.016 69.5537 58.88 69.5537 57.616C69.5537 56.32 69.8017 55.176 70.2977 54.184C70.7937 53.192 71.4737 52.416 72.3377 51.856C73.2017 51.28 74.1857 50.992 75.2897 50.992C75.8977 50.992 76.4497 51.08 76.9457 51.256C77.4577 51.432 77.9057 51.68 78.2897 52C78.6737 52.304 79.0017 52.664 79.2737 53.08C79.5457 53.48 79.7457 53.912 79.8737 54.376L79.0817 54.28V51.256H82.8977V64H79.0097V60.928L79.8737 60.904C79.7457 61.352 79.5377 61.776 79.2497 62.176C78.9617 62.576 78.6097 62.928 78.1937 63.232C77.7777 63.536 77.3137 63.776 76.8017 63.952C76.2897 64.128 75.7457 64.216 75.1697 64.216ZM76.2257 60.976C76.8177 60.976 77.3297 60.84 77.7617 60.568C78.1937 60.296 78.5297 59.912 78.7697 59.416C79.0097 58.904 79.1297 58.304 79.1297 57.616C79.1297 56.928 79.0097 56.336 78.7697 55.84C78.5297 55.328 78.1937 54.936 77.7617 54.664C77.3297 54.376 76.8177 54.232 76.2257 54.232C75.6497 54.232 75.1457 54.376 74.7137 54.664C74.2977 54.936 73.9697 55.328 73.7297 55.84C73.4897 56.336 73.3697 56.928 73.3697 57.616C73.3697 58.304 73.4897 58.904 73.7297 59.416C73.9697 59.912 74.2977 60.296 74.7137 60.568C75.1457 60.84 75.6497 60.976 76.2257 60.976ZM93.942 64.264C93.366 64.264 92.814 64.184 92.286 64.024C91.758 63.864 91.278 63.648 90.846 63.376C90.43 63.104 90.078 62.792 89.79 62.44C89.518 62.072 89.334 61.696 89.238 61.312L90.078 61.024L89.862 63.976H86.286V46.24H90.15V54.304L89.358 54.016C89.454 53.6 89.638 53.216 89.91 52.864C90.182 52.496 90.526 52.176 90.942 51.904C91.358 51.616 91.814 51.392 92.31 51.232C92.806 51.072 93.318 50.992 93.846 50.992C94.95 50.992 95.926 51.28 96.774 51.856C97.638 52.416 98.318 53.2 98.814 54.208C99.31 55.2 99.558 56.336 99.558 57.616C99.558 58.912 99.31 60.064 98.814 61.072C98.334 62.064 97.67 62.848 96.822 63.424C95.974 63.984 95.014 64.264 93.942 64.264ZM92.934 61.024C93.51 61.024 94.014 60.88 94.446 60.592C94.878 60.304 95.206 59.912 95.43 59.416C95.67 58.904 95.79 58.304 95.79 57.616C95.79 56.944 95.67 56.352 95.43 55.84C95.206 55.328 94.878 54.936 94.446 54.664C94.014 54.392 93.51 54.256 92.934 54.256C92.342 54.256 91.83 54.392 91.398 54.664C90.966 54.936 90.63 55.328 90.39 55.84C90.15 56.352 90.03 56.944 90.03 57.616C90.03 58.304 90.15 58.904 90.39 59.416C90.63 59.912 90.966 60.304 91.398 60.592C91.83 60.88 92.342 61.024 92.934 61.024ZM102.107 64V46.24H105.947V64H102.107ZM113.842 64.216C112.77 64.216 111.81 63.936 110.962 63.376C110.13 62.8 109.466 62.016 108.97 61.024C108.474 60.016 108.226 58.88 108.226 57.616C108.226 56.32 108.474 55.176 108.97 54.184C109.466 53.192 110.146 52.416 111.01 51.856C111.874 51.28 112.858 50.992 113.962 50.992C114.57 50.992 115.122 51.08 115.618 51.256C116.13 51.432 116.578 51.68 116.962 52C117.346 52.304 117.674 52.664 117.946 53.08C118.218 53.48 118.418 53.912 118.546 54.376L117.754 54.28V51.256H121.57V64H117.682V60.928L118.546 60.904C118.418 61.352 118.21 61.776 117.922 62.176C117.634 62.576 117.282 62.928 116.866 63.232C116.45 63.536 115.986 63.776 115.474 63.952C114.962 64.128 114.418 64.216 113.842 64.216ZM114.898 60.976C115.49 60.976 116.002 60.84 116.434 60.568C116.866 60.296 117.202 59.912 117.442 59.416C117.682 58.904 117.802 58.304 117.802 57.616C117.802 56.928 117.682 56.336 117.442 55.84C117.202 55.328 116.866 54.936 116.434 54.664C116.002 54.376 115.49 54.232 114.898 54.232C114.322 54.232 113.818 54.376 113.386 54.664C112.97 54.936 112.642 55.328 112.402 55.84C112.162 56.336 112.042 56.928 112.042 57.616C112.042 58.304 112.162 58.904 112.402 59.416C112.642 59.912 112.97 60.296 113.386 60.568C113.818 60.84 114.322 60.976 114.898 60.976ZM137.469 64.264C136.365 64.264 135.381 63.984 134.517 63.424C133.669 62.848 132.997 62.064 132.501 61.072C132.005 60.064 131.757 58.92 131.757 57.64C131.757 56.36 132.005 55.224 132.501 54.232C132.997 53.224 133.677 52.432 134.541 51.856C135.405 51.28 136.397 50.992 137.517 50.992C138.093 50.992 138.645 51.08 139.173 51.256C139.701 51.432 140.181 51.672 140.613 51.976C141.045 52.28 141.397 52.632 141.669 53.032C141.941 53.416 142.101 53.816 142.149 54.232L141.237 54.448V46.24H145.101V64H141.525L141.309 61.096L142.077 61.216C142.029 61.616 141.869 62 141.597 62.368C141.341 62.736 141.005 63.064 140.589 63.352C140.173 63.624 139.693 63.84 139.149 64C138.621 64.176 138.061 64.264 137.469 64.264ZM138.453 61.072C139.045 61.072 139.557 60.928 139.989 60.64C140.421 60.352 140.749 59.952 140.973 59.44C141.213 58.928 141.333 58.328 141.333 57.64C141.333 56.936 141.213 56.328 140.973 55.816C140.749 55.304 140.421 54.904 139.989 54.616C139.557 54.328 139.045 54.184 138.453 54.184C137.861 54.184 137.349 54.328 136.917 54.616C136.501 54.904 136.173 55.304 135.933 55.816C135.693 56.328 135.573 56.936 135.573 57.64C135.573 58.328 135.693 58.928 135.933 59.44C136.173 59.952 136.501 60.352 136.917 60.64C137.349 60.928 137.861 61.072 138.453 61.072ZM154.421 64.24C153.013 64.24 151.789 63.96 150.749 63.4C149.709 62.824 148.901 62.048 148.325 61.072C147.749 60.08 147.461 58.952 147.461 57.688C147.461 56.712 147.621 55.816 147.941 55C148.261 54.184 148.709 53.48 149.285 52.888C149.861 52.28 150.541 51.816 151.325 51.496C152.125 51.16 152.997 50.992 153.941 50.992C154.837 50.992 155.653 51.152 156.389 51.472C157.141 51.792 157.789 52.24 158.333 52.816C158.877 53.392 159.293 54.072 159.581 54.856C159.869 55.64 159.997 56.496 159.965 57.424L159.941 58.456H149.789L149.237 56.296H156.821L156.413 56.752V56.272C156.381 55.872 156.253 55.52 156.029 55.216C155.821 54.896 155.541 54.648 155.189 54.472C154.837 54.296 154.437 54.208 153.989 54.208C153.365 54.208 152.829 54.336 152.381 54.592C151.949 54.832 151.621 55.192 151.397 55.672C151.173 56.136 151.061 56.712 151.061 57.4C151.061 58.104 151.205 58.72 151.493 59.248C151.797 59.76 152.229 60.16 152.789 60.448C153.365 60.736 154.045 60.88 154.829 60.88C155.373 60.88 155.853 60.8 156.269 60.64C156.701 60.48 157.165 60.208 157.661 59.824L159.461 62.368C158.965 62.8 158.437 63.152 157.877 63.424C157.317 63.696 156.741 63.896 156.149 64.024C155.573 64.168 154.997 64.24 154.421 64.24ZM162.435 64V46.24H166.275V64H162.435ZM184.06 64V50.416L186.244 50.464L180.172 57.904L179.596 57.184H190.732V60.544H177.772L176.14 57.4L184.708 47.056H187.996V64H184.06Z" fill="#0F1521"/>
<mask id="path-5-inside-2_28_277" fill="white">
<path d="M41 88C41 85.7909 42.7909 84 45 84H197C199.209 84 201 85.7909 201 88V113C201 115.209 199.209 117 197 117H45C42.7909 117 41 115.209 41 113V88Z"/>
</mask>
<path d="M41 88C41 85.7909 42.7909 84 45 84H197C199.209 84 201 85.7909 201 88V113C201 115.209 199.209 117 197 117H45C42.7909 117 41 115.209 41 113V88Z" fill="#0F1521"/>
<path d="M45 84V85H197V84V83H45V84ZM201 88H200V113H201H202V88H201ZM197 117V116H45V117V118H197V117ZM41 113H42V88H41H40V113H41ZM45 117V116C43.3431 116 42 114.657 42 113H41H40C40 115.761 42.2386 118 45 118V117ZM201 113H200C200 114.657 198.657 116 197 116V117V118C199.761 118 202 115.761 202 113H201ZM197 84V85C198.657 85 200 86.3431 200 88H201H202C202 85.2386 199.761 83 197 83V84ZM45 84V83C42.2386 83 40 85.2386 40 88H41H42C42 86.3431 43.3431 85 45 85V84Z" fill="#00B4FF" mask="url(#path-5-inside-2_28_277)"/>
<path d="M95.637 108V100.076L96.911 100.104L93.369 104.444L93.033 104.024H99.529V105.984H91.969L91.017 104.15L96.015 98.116H97.933V108H95.637ZM110.077 107.258L105.037 102.218L106.381 100.902L111.421 105.942L110.077 107.258ZM106.381 107.3L105.065 105.942L110.091 100.902L111.421 102.246L106.381 107.3ZM119.394 107.314V99.362L119.912 100.552L117.812 101.546L117.406 99.418L120.192 98.06H121.732V107.314H119.394ZM117.602 108V105.9H123.566V108H117.602ZM129.71 103.45V101.63H136.556V103.45H129.71ZM129.71 106.488V104.682H136.556V106.488H129.71Z" fill="white"/>
<path d="M146.865 108V100.076L148.139 100.104L144.597 104.444L144.261 104.024H150.757V105.984H143.197L142.245 104.15L147.243 98.116H149.161V108H146.865Z" fill="#F59E0B"/>
<mask id="path-8-inside-3_28_277" fill="white">
<path d="M41 129C41 126.791 42.7909 125 45 125H197C199.209 125 201 126.791 201 129V154C201 156.209 199.209 158 197 158H45C42.7909 158 41 156.209 41 154V129Z"/>
</mask>
<path d="M41 129C41 126.791 42.7909 125 45 125H197C199.209 125 201 126.791 201 129V154C201 156.209 199.209 158 197 158H45C42.7909 158 41 156.209 41 154V129Z" fill="#0F1521"/>
<path d="M45 125V126H197V125V124H45V125ZM201 129H200V154H201H202V129H201ZM197 158V157H45V158V159H197V158ZM41 154H42V129H41H40V154H41ZM45 158V157C43.3431 157 42 155.657 42 154H41H40C40 156.761 42.2386 159 45 159V158ZM201 154H200C200 155.657 198.657 157 197 157V158V159C199.761 159 202 156.761 202 154H201ZM197 125V126C198.657 126 200 127.343 200 129H201H202C202 126.239 199.761 124 197 124V125ZM45 125V124C42.2386 124 40 126.239 40 129H41H42C42 127.343 43.3431 126 45 126V125Z" fill="#00B4FF" mask="url(#path-8-inside-3_28_277)"/>
<path d="M96.1702 149V141.076L97.4442 141.104L93.9022 145.444L93.5662 145.024H100.062V146.984H92.5022L91.5502 145.15L96.5482 139.116H98.4662V149H96.1702ZM110.61 148.258L105.57 143.218L106.914 141.902L111.954 146.942L110.61 148.258ZM106.914 148.3L105.598 146.942L110.624 141.902L111.954 143.246L106.914 148.3ZM117.8 149L117.338 147.852L120.194 144.73C120.352 144.553 120.525 144.352 120.712 144.128C120.898 143.904 121.08 143.675 121.258 143.442C121.435 143.199 121.575 142.966 121.678 142.742C121.79 142.518 121.846 142.313 121.846 142.126C121.846 141.939 121.804 141.776 121.72 141.636C121.636 141.496 121.514 141.389 121.356 141.314C121.197 141.23 120.996 141.188 120.754 141.188C120.539 141.188 120.334 141.244 120.138 141.356C119.942 141.459 119.755 141.622 119.578 141.846C119.41 142.07 119.251 142.345 119.102 142.672L117.338 141.72C117.534 141.179 117.809 140.703 118.164 140.292C118.528 139.872 118.952 139.55 119.438 139.326C119.923 139.093 120.441 138.976 120.992 138.976C121.57 138.985 122.093 139.111 122.56 139.354C123.026 139.587 123.395 139.919 123.666 140.348C123.946 140.768 124.086 141.263 124.086 141.832C124.086 142.028 124.062 142.233 124.016 142.448C123.969 142.663 123.899 142.887 123.806 143.12C123.712 143.344 123.586 143.587 123.428 143.848C123.278 144.1 123.096 144.366 122.882 144.646C122.667 144.926 122.415 145.225 122.126 145.542L119.9 147.964L119.62 146.9H124.52V149H117.8ZM130.066 144.45V142.63H136.912V144.45H130.066ZM130.066 147.488V145.682H136.912V147.488H130.066Z" fill="white"/>
<path d="M146.521 149.042C145.849 149.042 145.238 148.916 144.687 148.664C144.146 148.403 143.712 148.053 143.385 147.614C143.058 147.175 142.895 146.681 142.895 146.13C142.895 145.766 142.942 145.439 143.035 145.15C143.128 144.851 143.268 144.59 143.455 144.366C143.651 144.133 143.884 143.937 144.155 143.778C144.435 143.61 144.752 143.475 145.107 143.372L144.939 143.932C144.678 143.829 144.44 143.703 144.225 143.554C144.01 143.405 143.828 143.237 143.679 143.05C143.53 142.854 143.413 142.644 143.329 142.42C143.254 142.196 143.217 141.963 143.217 141.72C143.217 141.197 143.362 140.735 143.651 140.334C143.95 139.933 144.346 139.62 144.841 139.396C145.345 139.163 145.905 139.046 146.521 139.046C147.128 139.046 147.678 139.163 148.173 139.396C148.677 139.62 149.078 139.933 149.377 140.334C149.676 140.735 149.825 141.197 149.825 141.72C149.825 141.963 149.788 142.196 149.713 142.42C149.638 142.644 149.526 142.849 149.377 143.036C149.228 143.213 149.046 143.381 148.831 143.54C148.616 143.689 148.369 143.82 148.089 143.932L147.963 143.428C148.28 143.512 148.574 143.633 148.845 143.792C149.116 143.941 149.349 144.133 149.545 144.366C149.741 144.59 149.89 144.851 149.993 145.15C150.105 145.439 150.161 145.766 150.161 146.13C150.161 146.69 149.998 147.189 149.671 147.628C149.344 148.067 148.906 148.412 148.355 148.664C147.804 148.916 147.193 149.042 146.521 149.042ZM146.521 147.166C146.782 147.166 147.016 147.115 147.221 147.012C147.426 146.909 147.59 146.769 147.711 146.592C147.832 146.415 147.893 146.209 147.893 145.976C147.893 145.733 147.832 145.523 147.711 145.346C147.599 145.159 147.436 145.015 147.221 144.912C147.016 144.8 146.782 144.744 146.521 144.744C146.26 144.744 146.026 144.8 145.821 144.912C145.616 145.015 145.452 145.159 145.331 145.346C145.21 145.523 145.149 145.733 145.149 145.976C145.149 146.2 145.21 146.401 145.331 146.578C145.452 146.755 145.616 146.9 145.821 147.012C146.026 147.115 146.26 147.166 146.521 147.166ZM146.521 142.854C146.745 142.854 146.946 142.812 147.123 142.728C147.31 142.635 147.454 142.513 147.557 142.364C147.66 142.205 147.711 142.023 147.711 141.818C147.711 141.613 147.66 141.431 147.557 141.272C147.454 141.113 147.31 140.987 147.123 140.894C146.946 140.801 146.745 140.754 146.521 140.754C146.288 140.754 146.078 140.801 145.891 140.894C145.714 140.987 145.574 141.113 145.471 141.272C145.368 141.431 145.317 141.613 145.317 141.818C145.317 142.023 145.368 142.205 145.471 142.364C145.574 142.513 145.714 142.635 145.891 142.728C146.078 142.812 146.288 142.854 146.521 142.854Z" fill="#F59E0B"/>
<mask id="path-11-inside-4_28_277" fill="white">
<path d="M41 170C41 167.791 42.7909 166 45 166H197C199.209 166 201 167.791 201 170V195C201 197.209 199.209 199 197 199H45C42.7909 199 41 197.209 41 195V170Z"/>
</mask>
<path d="M41 170C41 167.791 42.7909 166 45 166H197C199.209 166 201 167.791 201 170V195C201 197.209 199.209 199 197 199H45C42.7909 199 41 197.209 41 195V170Z" fill="#0F1521"/>
<path d="M45 166V167H197V166V165H45V166ZM201 170H200V195H201H202V170H201ZM197 199V198H45V199V200H197V199ZM41 195H42V170H41H40V195H41ZM45 199V198C43.3431 198 42 196.657 42 195H41H40C40 197.761 42.2386 200 45 200V199ZM201 195H200C200 196.657 198.657 198 197 198V199V200C199.761 200 202 197.761 202 195H201ZM197 166V167C198.657 167 200 168.343 200 170H201H202C202 167.239 199.761 165 197 165V166ZM45 166V165C42.2386 165 40 167.239 40 170H41H42C42 168.343 43.3431 167 45 167V166Z" fill="#00B4FF" mask="url(#path-11-inside-4_28_277)"/>
<path d="M92.301 190V182.076L93.575 182.104L90.033 186.444L89.697 186.024H96.193V187.984H88.633L87.681 186.15L92.679 180.116H94.597V190H92.301ZM106.741 189.258L101.701 184.218L103.045 182.902L108.085 187.942L106.741 189.258ZM103.045 189.3L101.729 187.942L106.755 182.902L108.085 184.246L103.045 189.3ZM117.122 190.14C116.329 190.14 115.634 189.977 115.036 189.65C114.448 189.314 113.912 188.74 113.426 187.928L115.134 186.822C115.34 187.149 115.55 187.41 115.764 187.606C115.988 187.802 116.217 187.947 116.45 188.04C116.693 188.124 116.945 188.166 117.206 188.166C117.468 188.166 117.706 188.11 117.92 187.998C118.144 187.877 118.322 187.709 118.452 187.494C118.592 187.279 118.662 187.037 118.662 186.766C118.662 186.477 118.602 186.234 118.48 186.038C118.368 185.833 118.2 185.679 117.976 185.576C117.762 185.473 117.5 185.422 117.192 185.422C117.052 185.422 116.903 185.441 116.744 185.478C116.586 185.506 116.418 185.548 116.24 185.604C116.063 185.66 115.881 185.735 115.694 185.828L115.176 184.442L117.556 181.852L118.2 182.202L114.112 182.118V180.116H120.132L120.566 180.984L117.332 184.456L116.772 183.798C116.847 183.761 116.968 183.728 117.136 183.7C117.314 183.663 117.482 183.644 117.64 183.644C118.079 183.644 118.49 183.723 118.872 183.882C119.255 184.041 119.596 184.26 119.894 184.54C120.193 184.82 120.426 185.151 120.594 185.534C120.762 185.907 120.846 186.309 120.846 186.738C120.846 187.391 120.678 187.975 120.342 188.488C120.016 188.992 119.568 189.393 118.998 189.692C118.438 189.991 117.813 190.14 117.122 190.14ZM126.798 185.45V183.63H133.644V185.45H126.798ZM126.798 188.488V186.682H133.644V188.488H126.798Z" fill="white"/>
<path d="M142.021 189.314V181.362L142.539 182.552L140.439 183.546L140.033 181.418L142.819 180.06H144.359V189.314H142.021ZM140.229 190V187.9H146.193V190H140.229ZM147.741 190L147.279 188.852L150.135 185.73C150.294 185.553 150.466 185.352 150.653 185.128C150.84 184.904 151.022 184.675 151.199 184.442C151.376 184.199 151.516 183.966 151.619 183.742C151.731 183.518 151.787 183.313 151.787 183.126C151.787 182.939 151.745 182.776 151.661 182.636C151.577 182.496 151.456 182.389 151.297 182.314C151.138 182.23 150.938 182.188 150.695 182.188C150.48 182.188 150.275 182.244 150.079 182.356C149.883 182.459 149.696 182.622 149.519 182.846C149.351 183.07 149.192 183.345 149.043 183.672L147.279 182.72C147.475 182.179 147.75 181.703 148.105 181.292C148.469 180.872 148.894 180.55 149.379 180.326C149.864 180.093 150.382 179.976 150.933 179.976C151.512 179.985 152.034 180.111 152.501 180.354C152.968 180.587 153.336 180.919 153.607 181.348C153.887 181.768 154.027 182.263 154.027 182.832C154.027 183.028 154.004 183.233 153.957 183.448C153.91 183.663 153.84 183.887 153.747 184.12C153.654 184.344 153.528 184.587 153.369 184.848C153.22 185.1 153.038 185.366 152.823 185.646C152.608 185.926 152.356 186.225 152.067 186.542L149.841 188.964L149.561 187.9H154.461V190H147.741Z" fill="#F59E0B"/>
<mask id="path-14-inside-5_28_277" fill="white">
<path d="M41 211C41 208.791 42.7909 207 45 207H197C199.209 207 201 208.791 201 211V236C201 238.209 199.209 240 197 240H45C42.7909 240 41 238.209 41 236V211Z"/>
</mask>
<path d="M41 211C41 208.791 42.7909 207 45 207H197C199.209 207 201 208.791 201 211V236C201 238.209 199.209 240 197 240H45C42.7909 240 41 238.209 41 236V211Z" fill="#0F1521"/>
<path d="M45 207V208H197V207V206H45V207ZM201 211H200V236H201H202V211H201ZM197 240V239H45V240V241H197V240ZM41 236H42V211H41H40V236H41ZM45 240V239C43.3431 239 42 237.657 42 236H41H40C40 238.761 42.2386 241 45 241V240ZM201 236H200C200 237.657 198.657 239 197 239V240V241C199.761 241 202 238.761 202 236H201ZM197 207V208C198.657 208 200 209.343 200 211H201H202C202 208.239 199.761 206 197 206V207ZM45 207V206C42.2386 206 40 208.239 40 211H41H42C42 209.343 43.3431 208 45 208V207Z" fill="#00B4FF" mask="url(#path-14-inside-5_28_277)"/>
<path d="M91.5833 231V223.076L92.8573 223.104L89.3153 227.444L88.9793 227.024H95.4753V228.984H87.9153L86.9633 227.15L91.9613 221.116H93.8793V231H91.5833ZM106.023 230.258L100.983 225.218L102.327 223.902L107.367 228.942L106.023 230.258ZM102.327 230.3L101.011 228.942L106.037 223.902L107.367 225.246L102.327 230.3ZM117.273 231V223.076L118.547 223.104L115.005 227.444L114.669 227.024H121.165V228.984H113.605L112.653 227.15L117.651 221.116H119.569V231H117.273ZM127.079 226.45V224.63H133.925V226.45H127.079ZM127.079 229.488V227.682H133.925V229.488H127.079Z" fill="white"/>
<path d="M142.302 230.314V222.362L142.82 223.552L140.72 224.546L140.314 222.418L143.1 221.06H144.64V230.314H142.302ZM140.51 231V228.9H146.474V231H140.51ZM151.311 231C150.807 231 150.331 230.911 149.883 230.734C149.445 230.547 149.062 230.295 148.735 229.978C148.409 229.651 148.147 229.273 147.951 228.844C147.765 228.415 147.671 227.953 147.671 227.458C147.671 227.113 147.709 226.781 147.783 226.464C147.858 226.137 147.961 225.811 148.091 225.484C148.231 225.148 148.395 224.807 148.581 224.462C148.777 224.107 148.992 223.734 149.225 223.342L150.597 221.046H152.795L152.851 221.186L150.947 224.182C150.705 224.574 150.495 224.943 150.317 225.288C150.14 225.624 149.981 225.96 149.841 226.296C149.701 226.632 149.561 226.987 149.421 227.36L148.973 226.394C149.067 226.067 149.216 225.769 149.421 225.498C149.627 225.218 149.865 224.98 150.135 224.784C150.415 224.579 150.705 224.425 151.003 224.322C151.302 224.21 151.596 224.154 151.885 224.154C152.436 224.154 152.94 224.303 153.397 224.602C153.864 224.891 154.237 225.279 154.517 225.764C154.797 226.249 154.937 226.781 154.937 227.36C154.937 228.051 154.779 228.671 154.461 229.222C154.153 229.773 153.724 230.207 153.173 230.524C152.632 230.841 152.011 231 151.311 231ZM151.339 229.04C151.638 229.04 151.899 228.975 152.123 228.844C152.357 228.713 152.539 228.531 152.669 228.298C152.8 228.055 152.865 227.78 152.865 227.472C152.865 227.211 152.795 226.968 152.655 226.744C152.525 226.511 152.343 226.324 152.109 226.184C151.885 226.035 151.633 225.96 151.353 225.96C151.055 225.96 150.784 226.03 150.541 226.17C150.308 226.301 150.126 226.483 149.995 226.716C149.865 226.94 149.799 227.192 149.799 227.472C149.799 227.771 149.865 228.041 149.995 228.284C150.126 228.517 150.308 228.704 150.541 228.844C150.775 228.975 151.041 229.04 151.339 229.04Z" fill="#F59E0B"/>
<mask id="path-17-inside-6_28_277" fill="white">
<path d="M41 252C41 249.791 42.7909 248 45 248H197C199.209 248 201 249.791 201 252V277C201 279.209 199.209 281 197 281H45C42.7909 281 41 279.209 41 277V252Z"/>
</mask>
<path d="M41 252C41 249.791 42.7909 248 45 248H197C199.209 248 201 249.791 201 252V277C201 279.209 199.209 281 197 281H45C42.7909 281 41 279.209 41 277V252Z" fill="#0F1521"/>
<path d="M45 248V249H197V248V247H45V248ZM201 252H200V277H201H202V252H201ZM197 281V280H45V281V282H197V281ZM41 277H42V252H41H40V277H41ZM45 281V280C43.3431 280 42 278.657 42 277H41H40C40 279.761 42.2386 282 45 282V281ZM201 277H200C200 278.657 198.657 280 197 280V281V282C199.761 282 202 279.761 202 277H201ZM197 248V249C198.657 249 200 250.343 200 252H201H202C202 249.239 199.761 247 197 247V248ZM45 248V247C42.2386 247 40 249.239 40 252H41H42C42 250.343 43.3431 249 45 249V248Z" fill="#00B4FF" mask="url(#path-17-inside-6_28_277)"/>
<path d="M91.4671 270V262.076L92.7411 262.104L89.1991 266.444L88.8631 266.024H95.3591V267.984H87.7991L86.8471 266.15L91.8451 260.116H93.7631V270H91.4671ZM105.907 269.258L100.867 264.218L102.211 262.902L107.251 267.942L105.907 269.258ZM102.211 269.3L100.895 267.942L105.921 262.902L107.251 264.246L102.211 269.3ZM116.219 270.098C115.481 270.098 114.809 269.949 114.203 269.65C113.605 269.351 113.111 268.922 112.719 268.362L113.993 266.962C114.375 267.382 114.73 267.671 115.057 267.83C115.383 267.979 115.747 268.054 116.149 268.054C116.447 268.054 116.713 267.993 116.947 267.872C117.18 267.751 117.362 267.583 117.493 267.368C117.633 267.144 117.703 266.897 117.703 266.626C117.703 266.346 117.633 266.099 117.493 265.884C117.362 265.66 117.18 265.483 116.947 265.352C116.723 265.221 116.461 265.156 116.163 265.156C115.948 265.156 115.747 265.175 115.561 265.212C115.374 265.249 115.173 265.315 114.959 265.408C114.753 265.492 114.506 265.618 114.217 265.786L113.209 264.442L113.811 260.116H119.439V262.118H114.945L115.561 261.334L115.099 264.442L114.259 264.162C114.436 264.003 114.651 263.863 114.903 263.742C115.164 263.621 115.444 263.523 115.743 263.448C116.041 263.364 116.34 263.322 116.639 263.322C117.255 263.322 117.805 263.467 118.291 263.756C118.785 264.036 119.177 264.428 119.467 264.932C119.756 265.436 119.901 266.015 119.901 266.668C119.901 267.312 119.737 267.895 119.411 268.418C119.084 268.931 118.645 269.342 118.095 269.65C117.544 269.949 116.919 270.098 116.219 270.098ZM126.033 265.45V263.63H132.879V265.45H126.033ZM126.033 268.488V266.682H132.879V268.488H126.033Z" fill="white"/>
<path d="M139.128 270L138.666 268.852L141.522 265.73C141.68 265.553 141.853 265.352 142.04 265.128C142.226 264.904 142.408 264.675 142.586 264.442C142.763 264.199 142.903 263.966 143.006 263.742C143.118 263.518 143.174 263.313 143.174 263.126C143.174 262.939 143.132 262.776 143.048 262.636C142.964 262.496 142.842 262.389 142.684 262.314C142.525 262.23 142.324 262.188 142.082 262.188C141.867 262.188 141.662 262.244 141.466 262.356C141.27 262.459 141.083 262.622 140.906 262.846C140.738 263.07 140.579 263.345 140.43 263.672L138.666 262.72C138.862 262.179 139.137 261.703 139.492 261.292C139.856 260.872 140.28 260.55 140.766 260.326C141.251 260.093 141.769 259.976 142.32 259.976C142.898 259.985 143.421 260.111 143.888 260.354C144.354 260.587 144.723 260.919 144.994 261.348C145.274 261.768 145.414 262.263 145.414 262.832C145.414 263.028 145.39 263.233 145.344 263.448C145.297 263.663 145.227 263.887 145.134 264.12C145.04 264.344 144.914 264.587 144.756 264.848C144.606 265.1 144.424 265.366 144.21 265.646C143.995 265.926 143.743 266.225 143.454 266.542L141.228 268.964L140.948 267.9H145.848V270H139.128ZM150.69 270.14C149.812 270.14 149.061 269.939 148.436 269.538C147.82 269.137 147.348 268.563 147.022 267.816C146.695 267.06 146.532 266.155 146.532 265.1C146.532 264.045 146.695 263.145 147.022 262.398C147.348 261.642 147.82 261.063 148.436 260.662C149.061 260.261 149.812 260.06 150.69 260.06C151.567 260.06 152.318 260.261 152.944 260.662C153.569 261.063 154.045 261.642 154.372 262.398C154.698 263.145 154.862 264.045 154.862 265.1C154.862 266.155 154.698 267.06 154.372 267.816C154.045 268.563 153.569 269.137 152.944 269.538C152.318 269.939 151.567 270.14 150.69 270.14ZM150.69 268.124C151.296 268.124 151.763 267.863 152.09 267.34C152.426 266.817 152.594 266.071 152.594 265.1C152.594 264.101 152.426 263.336 152.09 262.804C151.763 262.263 151.296 261.992 150.69 261.992C150.083 261.992 149.612 262.263 149.276 262.804C148.949 263.336 148.786 264.101 148.786 265.1C148.786 266.071 148.949 266.817 149.276 267.34C149.612 267.863 150.083 268.124 150.69 268.124Z" fill="#F59E0B"/>
<mask id="path-20-inside-7_28_277" fill="white">
<path d="M41 293C41 290.791 42.7909 289 45 289H197C199.209 289 201 290.791 201 293V318C201 320.209 199.209 322 197 322H45C42.7909 322 41 320.209 41 318V293Z"/>
</mask>
<path d="M41 293C41 290.791 42.7909 289 45 289H197C199.209 289 201 290.791 201 293V318C201 320.209 199.209 322 197 322H45C42.7909 322 41 320.209 41 318V293Z" fill="#0F1521"/>
<path d="M45 289V290H197V289V288H45V289ZM201 293H200V318H201H202V293H201ZM197 322V321H45V322V323H197V322ZM41 318H42V293H41H40V318H41ZM45 322V321C43.3431 321 42 319.657 42 318H41H40C40 320.761 42.2386 323 45 323V322ZM201 318H200C200 319.657 198.657 321 197 321V322V323C199.761 323 202 320.761 202 318H201ZM197 289V290C198.657 290 200 291.343 200 293H201H202C202 290.239 199.761 288 197 288V289ZM45 289V288C42.2386 288 40 290.239 40 293H41H42C42 291.343 43.3431 290 45 290V289Z" fill="#00B4FF" mask="url(#path-20-inside-7_28_277)"/>
<path d="M91.8089 311V303.076L93.0829 303.104L89.5409 307.444L89.2049 307.024H95.7009V308.984H88.1409L87.1889 307.15L92.1869 301.116H94.1049V311H91.8089ZM106.249 310.258L101.209 305.218L102.553 303.902L107.593 308.942L106.249 310.258ZM102.553 310.3L101.237 308.942L106.263 303.902L107.593 305.246L102.553 310.3ZM116.728 311C116.224 311 115.748 310.911 115.3 310.734C114.862 310.547 114.479 310.295 114.152 309.978C113.826 309.651 113.564 309.273 113.368 308.844C113.182 308.415 113.088 307.953 113.088 307.458C113.088 307.113 113.126 306.781 113.2 306.464C113.275 306.137 113.378 305.811 113.508 305.484C113.648 305.148 113.812 304.807 113.998 304.462C114.194 304.107 114.409 303.734 114.642 303.342L116.014 301.046H118.212L118.268 301.186L116.364 304.182C116.122 304.574 115.912 304.943 115.734 305.288C115.557 305.624 115.398 305.96 115.258 306.296C115.118 306.632 114.978 306.987 114.838 307.36L114.39 306.394C114.484 306.067 114.633 305.769 114.838 305.498C115.044 305.218 115.282 304.98 115.552 304.784C115.832 304.579 116.122 304.425 116.42 304.322C116.719 304.21 117.013 304.154 117.302 304.154C117.853 304.154 118.357 304.303 118.814 304.602C119.281 304.891 119.654 305.279 119.934 305.764C120.214 306.249 120.354 306.781 120.354 307.36C120.354 308.051 120.196 308.671 119.878 309.222C119.57 309.773 119.141 310.207 118.59 310.524C118.049 310.841 117.428 311 116.728 311ZM116.756 309.04C117.055 309.04 117.316 308.975 117.54 308.844C117.774 308.713 117.956 308.531 118.086 308.298C118.217 308.055 118.282 307.78 118.282 307.472C118.282 307.211 118.212 306.968 118.072 306.744C117.942 306.511 117.76 306.324 117.526 306.184C117.302 306.035 117.05 305.96 116.77 305.96C116.472 305.96 116.201 306.03 115.958 306.17C115.725 306.301 115.543 306.483 115.412 306.716C115.282 306.94 115.216 307.192 115.216 307.472C115.216 307.771 115.282 308.041 115.412 308.284C115.543 308.517 115.725 308.704 115.958 308.844C116.192 308.975 116.458 309.04 116.756 309.04ZM126.142 306.45V304.63H132.988V306.45H126.142ZM126.142 309.488V307.682H132.988V309.488H126.142Z" fill="white"/>
<path d="M139.237 311L138.775 309.852L141.631 306.73C141.79 306.553 141.962 306.352 142.149 306.128C142.336 305.904 142.518 305.675 142.695 305.442C142.872 305.199 143.012 304.966 143.115 304.742C143.227 304.518 143.283 304.313 143.283 304.126C143.283 303.939 143.241 303.776 143.157 303.636C143.073 303.496 142.952 303.389 142.793 303.314C142.634 303.23 142.434 303.188 142.191 303.188C141.976 303.188 141.771 303.244 141.575 303.356C141.379 303.459 141.192 303.622 141.015 303.846C140.847 304.07 140.688 304.345 140.539 304.672L138.775 303.72C138.971 303.179 139.246 302.703 139.601 302.292C139.965 301.872 140.39 301.55 140.875 301.326C141.36 301.093 141.878 300.976 142.429 300.976C143.008 300.985 143.53 301.111 143.997 301.354C144.464 301.587 144.832 301.919 145.103 302.348C145.383 302.768 145.523 303.263 145.523 303.832C145.523 304.028 145.5 304.233 145.453 304.448C145.406 304.663 145.336 304.887 145.243 305.12C145.15 305.344 145.024 305.587 144.865 305.848C144.716 306.1 144.534 306.366 144.319 306.646C144.104 306.926 143.852 307.225 143.563 307.542L141.337 309.964L141.057 308.9H145.957V311H139.237ZM150.694 311V303.076L151.968 303.104L148.426 307.444L148.09 307.024H154.586V308.984H147.026L146.074 307.15L151.072 301.116H152.99V311H150.694Z" fill="#F59E0B"/>
<mask id="path-23-inside-8_28_277" fill="white">
<path d="M41 334C41 331.791 42.7909 330 45 330H197C199.209 330 201 331.791 201 334V359C201 361.209 199.209 363 197 363H45C42.7909 363 41 361.209 41 359V334Z"/>
</mask>
<path d="M41 334C41 331.791 42.7909 330 45 330H197C199.209 330 201 331.791 201 334V359C201 361.209 199.209 363 197 363H45C42.7909 363 41 361.209 41 359V334Z" fill="#0F1521"/>
<path d="M45 330V331H197V330V329H45V330ZM201 334H200V359H201H202V334H201ZM197 363V362H45V363V364H197V363ZM41 359H42V334H41H40V359H41ZM45 363V362C43.3431 362 42 360.657 42 359H41H40C40 361.761 42.2386 364 45 364V363ZM201 359H200C200 360.657 198.657 362 197 362V363V364C199.761 364 202 361.761 202 359H201ZM197 330V331C198.657 331 200 332.343 200 334H201H202C202 331.239 199.761 329 197 329V330ZM45 330V329C42.2386 329 40 331.239 40 334H41H42C42 332.343 43.3431 331 45 331V330Z" fill="#00B4FF" mask="url(#path-23-inside-8_28_277)"/>
<path d="M92.301 352V344.076L93.575 344.104L90.033 348.444L89.697 348.024H96.193V349.984H88.633L87.681 348.15L92.679 342.116H94.597V352H92.301ZM106.741 351.258L101.701 346.218L103.045 344.902L108.085 349.942L106.741 351.258ZM103.045 351.3L101.729 349.942L106.755 344.902L108.085 346.246L103.045 351.3ZM114.28 352L118.2 343.068L118.872 344.188H113.748V342.116H120.132L120.356 343.25L116.66 352H114.28ZM126.265 347.45V345.63H133.111V347.45H126.265ZM126.265 350.488V348.682H133.111V350.488H126.265Z" fill="white"/>
<path d="M139.36 352L138.898 350.852L141.754 347.73C141.913 347.553 142.086 347.352 142.272 347.128C142.459 346.904 142.641 346.675 142.818 346.442C142.996 346.199 143.136 345.966 143.238 345.742C143.35 345.518 143.406 345.313 143.406 345.126C143.406 344.939 143.364 344.776 143.28 344.636C143.196 344.496 143.075 344.389 142.916 344.314C142.758 344.23 142.557 344.188 142.314 344.188C142.1 344.188 141.894 344.244 141.698 344.356C141.502 344.459 141.316 344.622 141.138 344.846C140.97 345.07 140.812 345.345 140.662 345.672L138.898 344.72C139.094 344.179 139.37 343.703 139.724 343.292C140.088 342.872 140.513 342.55 140.998 342.326C141.484 342.093 142.002 341.976 142.552 341.976C143.131 341.985 143.654 342.111 144.12 342.354C144.587 342.587 144.956 342.919 145.226 343.348C145.506 343.768 145.646 344.263 145.646 344.832C145.646 345.028 145.623 345.233 145.576 345.448C145.53 345.663 145.46 345.887 145.366 346.12C145.273 346.344 145.147 346.587 144.988 346.848C144.839 347.1 144.657 347.366 144.442 347.646C144.228 347.926 143.976 348.225 143.686 348.542L141.46 350.964L141.18 349.9H146.08V352H139.36ZM150.39 352.042C149.718 352.042 149.107 351.916 148.556 351.664C148.015 351.403 147.581 351.053 147.254 350.614C146.927 350.175 146.764 349.681 146.764 349.13C146.764 348.766 146.811 348.439 146.904 348.15C146.997 347.851 147.137 347.59 147.324 347.366C147.52 347.133 147.753 346.937 148.024 346.778C148.304 346.61 148.621 346.475 148.976 346.372L148.808 346.932C148.547 346.829 148.309 346.703 148.094 346.554C147.879 346.405 147.697 346.237 147.548 346.05C147.399 345.854 147.282 345.644 147.198 345.42C147.123 345.196 147.086 344.963 147.086 344.72C147.086 344.197 147.231 343.735 147.52 343.334C147.819 342.933 148.215 342.62 148.71 342.396C149.214 342.163 149.774 342.046 150.39 342.046C150.997 342.046 151.547 342.163 152.042 342.396C152.546 342.62 152.947 342.933 153.246 343.334C153.545 343.735 153.694 344.197 153.694 344.72C153.694 344.963 153.657 345.196 153.582 345.42C153.507 345.644 153.395 345.849 153.246 346.036C153.097 346.213 152.915 346.381 152.7 346.54C152.485 346.689 152.238 346.82 151.958 346.932L151.832 346.428C152.149 346.512 152.443 346.633 152.714 346.792C152.985 346.941 153.218 347.133 153.414 347.366C153.61 347.59 153.759 347.851 153.862 348.15C153.974 348.439 154.03 348.766 154.03 349.13C154.03 349.69 153.867 350.189 153.54 350.628C153.213 351.067 152.775 351.412 152.224 351.664C151.673 351.916 151.062 352.042 150.39 352.042ZM150.39 350.166C150.651 350.166 150.885 350.115 151.09 350.012C151.295 349.909 151.459 349.769 151.58 349.592C151.701 349.415 151.762 349.209 151.762 348.976C151.762 348.733 151.701 348.523 151.58 348.346C151.468 348.159 151.305 348.015 151.09 347.912C150.885 347.8 150.651 347.744 150.39 347.744C150.129 347.744 149.895 347.8 149.69 347.912C149.485 348.015 149.321 348.159 149.2 348.346C149.079 348.523 149.018 348.733 149.018 348.976C149.018 349.2 149.079 349.401 149.2 349.578C149.321 349.755 149.485 349.9 149.69 350.012C149.895 350.115 150.129 350.166 150.39 350.166ZM150.39 345.854C150.614 345.854 150.815 345.812 150.992 345.728C151.179 345.635 151.323 345.513 151.426 345.364C151.529 345.205 151.58 345.023 151.58 344.818C151.58 344.613 151.529 344.431 151.426 344.272C151.323 344.113 151.179 343.987 150.992 343.894C150.815 343.801 150.614 343.754 150.39 343.754C150.157 343.754 149.947 343.801 149.76 343.894C149.583 343.987 149.443 344.113 149.34 344.272C149.237 344.431 149.186 344.613 149.186 344.818C149.186 345.023 149.237 345.205 149.34 345.364C149.443 345.513 149.583 345.635 149.76 345.728C149.947 345.812 150.157 345.854 150.39 345.854Z" fill="#F59E0B"/>
<mask id="path-26-inside-9_28_277" fill="white">
<path d="M41 375C41 372.791 42.7909 371 45 371H197C199.209 371 201 372.791 201 375V400C201 402.209 199.209 404 197 404H45C42.7909 404 41 402.209 41 400V375Z"/>
</mask>
<path d="M41 375C41 372.791 42.7909 371 45 371H197C199.209 371 201 372.791 201 375V400C201 402.209 199.209 404 197 404H45C42.7909 404 41 402.209 41 400V375Z" fill="#0F1521"/>
<path d="M45 371V372H197V371V370H45V371ZM201 375H200V400H201H202V375H201ZM197 404V403H45V404V405H197V404ZM41 400H42V375H41H40V400H41ZM45 404V403C43.3431 403 42 401.657 42 400H41H40C40 402.761 42.2386 405 45 405V404ZM201 400H200C200 401.657 198.657 403 197 403V404V405C199.761 405 202 402.761 202 400H201ZM197 371V372C198.657 372 200 373.343 200 375H201H202C202 372.239 199.761 370 197 370V371ZM45 371V370C42.2386 370 40 372.239 40 375H41H42C42 373.343 43.3431 372 45 372V371Z" fill="#00B4FF" mask="url(#path-26-inside-9_28_277)"/>
<path d="M92.0344 393V385.076L93.3084 385.104L89.7664 389.444L89.4304 389.024H95.9264V390.984H88.3664L87.4144 389.15L92.4124 383.116H94.3304V393H92.0344ZM106.474 392.258L101.434 387.218L102.778 385.902L107.818 390.942L106.474 392.258ZM102.778 392.3L101.462 390.942L106.488 385.902L107.818 387.246L102.778 392.3ZM117.024 393.042C116.352 393.042 115.741 392.916 115.19 392.664C114.649 392.403 114.215 392.053 113.888 391.614C113.561 391.175 113.398 390.681 113.398 390.13C113.398 389.766 113.445 389.439 113.538 389.15C113.631 388.851 113.771 388.59 113.958 388.366C114.154 388.133 114.387 387.937 114.658 387.778C114.938 387.61 115.255 387.475 115.61 387.372L115.442 387.932C115.181 387.829 114.943 387.703 114.728 387.554C114.513 387.405 114.331 387.237 114.182 387.05C114.033 386.854 113.916 386.644 113.832 386.42C113.757 386.196 113.72 385.963 113.72 385.72C113.72 385.197 113.865 384.735 114.154 384.334C114.453 383.933 114.849 383.62 115.344 383.396C115.848 383.163 116.408 383.046 117.024 383.046C117.631 383.046 118.181 383.163 118.676 383.396C119.18 383.62 119.581 383.933 119.88 384.334C120.179 384.735 120.328 385.197 120.328 385.72C120.328 385.963 120.291 386.196 120.216 386.42C120.141 386.644 120.029 386.849 119.88 387.036C119.731 387.213 119.549 387.381 119.334 387.54C119.119 387.689 118.872 387.82 118.592 387.932L118.466 387.428C118.783 387.512 119.077 387.633 119.348 387.792C119.619 387.941 119.852 388.133 120.048 388.366C120.244 388.59 120.393 388.851 120.496 389.15C120.608 389.439 120.664 389.766 120.664 390.13C120.664 390.69 120.501 391.189 120.174 391.628C119.847 392.067 119.409 392.412 118.858 392.664C118.307 392.916 117.696 393.042 117.024 393.042ZM117.024 391.166C117.285 391.166 117.519 391.115 117.724 391.012C117.929 390.909 118.093 390.769 118.214 390.592C118.335 390.415 118.396 390.209 118.396 389.976C118.396 389.733 118.335 389.523 118.214 389.346C118.102 389.159 117.939 389.015 117.724 388.912C117.519 388.8 117.285 388.744 117.024 388.744C116.763 388.744 116.529 388.8 116.324 388.912C116.119 389.015 115.955 389.159 115.834 389.346C115.713 389.523 115.652 389.733 115.652 389.976C115.652 390.2 115.713 390.401 115.834 390.578C115.955 390.755 116.119 390.9 116.324 391.012C116.529 391.115 116.763 391.166 117.024 391.166ZM117.024 386.854C117.248 386.854 117.449 386.812 117.626 386.728C117.813 386.635 117.957 386.513 118.06 386.364C118.163 386.205 118.214 386.023 118.214 385.818C118.214 385.613 118.163 385.431 118.06 385.272C117.957 385.113 117.813 384.987 117.626 384.894C117.449 384.801 117.248 384.754 117.024 384.754C116.791 384.754 116.581 384.801 116.394 384.894C116.217 384.987 116.077 385.113 115.974 385.272C115.871 385.431 115.82 385.613 115.82 385.818C115.82 386.023 115.871 386.205 115.974 386.364C116.077 386.513 116.217 386.635 116.394 386.728C116.581 386.812 116.791 386.854 117.024 386.854ZM126.641 388.45V386.63H133.487V388.45H126.641ZM126.641 391.488V389.682H133.487V391.488H126.641Z" fill="white"/>
<path d="M142.928 393.14C142.135 393.14 141.439 392.977 140.842 392.65C140.254 392.314 139.717 391.74 139.232 390.928L140.94 389.822C141.145 390.149 141.355 390.41 141.57 390.606C141.794 390.802 142.023 390.947 142.256 391.04C142.499 391.124 142.751 391.166 143.012 391.166C143.273 391.166 143.511 391.11 143.726 390.998C143.95 390.877 144.127 390.709 144.258 390.494C144.398 390.279 144.468 390.037 144.468 389.766C144.468 389.477 144.407 389.234 144.286 389.038C144.174 388.833 144.006 388.679 143.782 388.576C143.567 388.473 143.306 388.422 142.998 388.422C142.858 388.422 142.709 388.441 142.55 388.478C142.391 388.506 142.223 388.548 142.046 388.604C141.869 388.66 141.687 388.735 141.5 388.828L140.982 387.442L143.362 384.852L144.006 385.202L139.918 385.118V383.116H145.938L146.372 383.984L143.138 387.456L142.578 386.798C142.653 386.761 142.774 386.728 142.942 386.7C143.119 386.663 143.287 386.644 143.446 386.644C143.885 386.644 144.295 386.723 144.678 386.882C145.061 387.041 145.401 387.26 145.7 387.54C145.999 387.82 146.232 388.151 146.4 388.534C146.568 388.907 146.652 389.309 146.652 389.738C146.652 390.391 146.484 390.975 146.148 391.488C145.821 391.992 145.373 392.393 144.804 392.692C144.244 392.991 143.619 393.14 142.928 393.14ZM148.008 393L147.546 391.852L150.402 388.73C150.56 388.553 150.733 388.352 150.92 388.128C151.106 387.904 151.288 387.675 151.466 387.442C151.643 387.199 151.783 386.966 151.886 386.742C151.998 386.518 152.054 386.313 152.054 386.126C152.054 385.939 152.012 385.776 151.928 385.636C151.844 385.496 151.722 385.389 151.564 385.314C151.405 385.23 151.204 385.188 150.962 385.188C150.747 385.188 150.542 385.244 150.346 385.356C150.15 385.459 149.963 385.622 149.786 385.846C149.618 386.07 149.459 386.345 149.31 386.672L147.546 385.72C147.742 385.179 148.017 384.703 148.372 384.292C148.736 383.872 149.16 383.55 149.646 383.326C150.131 383.093 150.649 382.976 151.2 382.976C151.778 382.985 152.301 383.111 152.768 383.354C153.234 383.587 153.603 383.919 153.874 384.348C154.154 384.768 154.294 385.263 154.294 385.832C154.294 386.028 154.27 386.233 154.224 386.448C154.177 386.663 154.107 386.887 154.014 387.12C153.92 387.344 153.794 387.587 153.636 387.848C153.486 388.1 153.304 388.366 153.09 388.646C152.875 388.926 152.623 389.225 152.334 389.542L150.108 391.964L149.828 390.9H154.728V393H148.008Z" fill="#F59E0B"/>
<mask id="path-29-inside-10_28_277" fill="white">
<path d="M41 416C41 413.791 42.7909 412 45 412H197C199.209 412 201 413.791 201 416V441C201 443.209 199.209 445 197 445H45C42.7909 445 41 443.209 41 441V416Z"/>
</mask>
<path d="M41 416C41 413.791 42.7909 412 45 412H197C199.209 412 201 413.791 201 416V441C201 443.209 199.209 445 197 445H45C42.7909 445 41 443.209 41 441V416Z" fill="#0F1521"/>
<path d="M45 412V413H197V412V411H45V412ZM201 416H200V441H201H202V416H201ZM197 445V444H45V445V446H197V445ZM41 441H42V416H41H40V441H41ZM45 445V444C43.3431 444 42 442.657 42 441H41H40C40 443.761 42.2386 446 45 446V445ZM201 441H200C200 442.657 198.657 444 197 444V445V446C199.761 446 202 443.761 202 441H201ZM197 412V413C198.657 413 200 414.343 200 416H201H202C202 413.239 199.761 411 197 411V412ZM45 412V411C42.2386 411 40 413.239 40 416H41H42C42 414.343 43.3431 413 45 413V412Z" fill="#00B4FF" mask="url(#path-29-inside-10_28_277)"/>
<path d="M91.9661 434V426.076L93.2401 426.104L89.6981 430.444L89.3621 430.024H95.8581V431.984H88.2981L87.3461 430.15L92.3441 424.116H94.2621V434H91.9661ZM106.406 433.258L101.366 428.218L102.71 426.902L107.75 431.942L106.406 433.258ZM102.71 433.3L101.394 431.942L106.42 426.902L107.75 428.246L102.71 433.3ZM115.682 434L115.626 433.86L118.692 427.672L119.098 428.512C119.004 428.848 118.855 429.151 118.65 429.422C118.444 429.693 118.197 429.931 117.908 430.136C117.628 430.332 117.334 430.486 117.026 430.598C116.718 430.701 116.424 430.752 116.144 430.752C115.612 430.752 115.122 430.607 114.674 430.318C114.226 430.029 113.866 429.641 113.596 429.156C113.325 428.671 113.19 428.143 113.19 427.574C113.19 426.902 113.348 426.295 113.666 425.754C113.992 425.203 114.431 424.769 114.982 424.452C115.532 424.125 116.153 423.962 116.844 423.962C117.348 423.962 117.819 424.051 118.258 424.228C118.696 424.405 119.079 424.653 119.406 424.97C119.742 425.278 120.003 425.637 120.19 426.048C120.376 426.459 120.47 426.893 120.47 427.35C120.47 427.686 120.442 428.017 120.386 428.344C120.33 428.661 120.241 428.988 120.12 429.324C119.998 429.66 119.854 430.01 119.686 430.374C119.527 430.738 119.34 431.135 119.126 431.564L117.894 434H115.682ZM116.718 428.876C117.007 428.876 117.264 428.811 117.488 428.68C117.712 428.549 117.884 428.377 118.006 428.162C118.136 427.938 118.202 427.691 118.202 427.42C118.202 427.131 118.136 426.874 118.006 426.65C117.884 426.417 117.712 426.235 117.488 426.104C117.273 425.973 117.021 425.908 116.732 425.908C116.452 425.908 116.204 425.973 115.99 426.104C115.784 426.225 115.616 426.403 115.486 426.636C115.364 426.86 115.304 427.121 115.304 427.42C115.304 427.672 115.364 427.91 115.486 428.134C115.616 428.349 115.789 428.526 116.004 428.666C116.218 428.806 116.456 428.876 116.718 428.876ZM126.272 429.45V427.63H133.118V429.45H126.272ZM126.272 432.488V430.682H133.118V432.488H126.272Z" fill="white"/>
<path d="M142.559 434.14C141.766 434.14 141.07 433.977 140.473 433.65C139.885 433.314 139.348 432.74 138.863 431.928L140.571 430.822C140.776 431.149 140.986 431.41 141.201 431.606C141.425 431.802 141.654 431.947 141.887 432.04C142.13 432.124 142.382 432.166 142.643 432.166C142.904 432.166 143.142 432.11 143.357 431.998C143.581 431.877 143.758 431.709 143.889 431.494C144.029 431.279 144.099 431.037 144.099 430.766C144.099 430.477 144.038 430.234 143.917 430.038C143.805 429.833 143.637 429.679 143.413 429.576C143.198 429.473 142.937 429.422 142.629 429.422C142.489 429.422 142.34 429.441 142.181 429.478C142.022 429.506 141.854 429.548 141.677 429.604C141.5 429.66 141.318 429.735 141.131 429.828L140.613 428.442L142.993 425.852L143.637 426.202L139.549 426.118V424.116H145.569L146.003 424.984L142.769 428.456L142.209 427.798C142.284 427.761 142.405 427.728 142.573 427.7C142.75 427.663 142.918 427.644 143.077 427.644C143.516 427.644 143.926 427.723 144.309 427.882C144.692 428.041 145.032 428.26 145.331 428.54C145.63 428.82 145.863 429.151 146.031 429.534C146.199 429.907 146.283 430.309 146.283 430.738C146.283 431.391 146.115 431.975 145.779 432.488C145.452 432.992 145.004 433.393 144.435 433.692C143.875 433.991 143.25 434.14 142.559 434.14ZM150.928 434C150.425 434 149.949 433.911 149.501 433.734C149.062 433.547 148.679 433.295 148.353 432.978C148.026 432.651 147.765 432.273 147.569 431.844C147.382 431.415 147.289 430.953 147.289 430.458C147.289 430.113 147.326 429.781 147.401 429.464C147.475 429.137 147.578 428.811 147.709 428.484C147.849 428.148 148.012 427.807 148.199 427.462C148.395 427.107 148.609 426.734 148.843 426.342L150.215 424.046H152.413L152.469 424.186L150.565 427.182C150.322 427.574 150.112 427.943 149.935 428.288C149.757 428.624 149.599 428.96 149.459 429.296C149.319 429.632 149.179 429.987 149.039 430.36L148.591 429.394C148.684 429.067 148.833 428.769 149.039 428.498C149.244 428.218 149.482 427.98 149.753 427.784C150.033 427.579 150.322 427.425 150.621 427.322C150.919 427.21 151.213 427.154 151.503 427.154C152.053 427.154 152.557 427.303 153.015 427.602C153.481 427.891 153.855 428.279 154.135 428.764C154.415 429.249 154.555 429.781 154.555 430.36C154.555 431.051 154.396 431.671 154.079 432.222C153.771 432.773 153.341 433.207 152.791 433.524C152.249 433.841 151.629 434 150.928 434ZM150.957 432.04C151.255 432.04 151.517 431.975 151.741 431.844C151.974 431.713 152.156 431.531 152.287 431.298C152.417 431.055 152.483 430.78 152.483 430.472C152.483 430.211 152.413 429.968 152.273 429.744C152.142 429.511 151.96 429.324 151.727 429.184C151.503 429.035 151.251 428.96 150.971 428.96C150.672 428.96 150.401 429.03 150.159 429.17C149.925 429.301 149.743 429.483 149.613 429.716C149.482 429.94 149.417 430.192 149.417 430.472C149.417 430.771 149.482 431.041 149.613 431.284C149.743 431.517 149.925 431.704 150.159 431.844C150.392 431.975 150.658 432.04 150.957 432.04Z" fill="#F59E0B"/>
<mask id="path-32-inside-11_28_277" fill="white">
<path d="M41 457C41 454.791 42.7909 453 45 453H197C199.209 453 201 454.791 201 457V482C201 484.209 199.209 486 197 486H45C42.7909 486 41 484.209 41 482V457Z"/>
</mask>
<path d="M41 457C41 454.791 42.7909 453 45 453H197C199.209 453 201 454.791 201 457V482C201 484.209 199.209 486 197 486H45C42.7909 486 41 484.209 41 482V457Z" fill="#0F1521"/>
<path d="M45 453V454H197V453V452H45V453ZM201 457H200V482H201H202V457H201ZM197 486V485H45V486V487H197V486ZM41 482H42V457H41H40V482H41ZM45 486V485C43.3431 485 42 483.657 42 482H41H40C40 484.761 42.2386 487 45 487V486ZM201 482H200C200 483.657 198.657 485 197 485V486V487C199.761 487 202 484.761 202 482H201ZM197 453V454C198.657 454 200 455.343 200 457H201H202C202 454.239 199.761 452 197 452V453ZM45 453V452C42.2386 452 40 454.239 40 457H41H42C42 455.343 43.3431 454 45 454V453Z" fill="#00B4FF" mask="url(#path-32-inside-11_28_277)"/>
<path d="M86.1897 475V467.076L87.4637 467.104L83.9217 471.444L83.5857 471.024H90.0817V472.984H82.5217L81.5697 471.15L86.5677 465.116H88.4857V475H86.1897ZM100.63 474.258L95.5896 469.218L96.9336 467.902L101.974 472.942L100.63 474.258ZM96.9336 474.3L95.6176 472.942L100.644 467.902L101.974 469.246L96.9336 474.3ZM109.947 474.314V466.362L110.465 467.552L108.365 468.546L107.959 466.418L110.745 465.06H112.285V474.314H109.947ZM108.155 475V472.9H114.119V475H108.155ZM119.559 475.14C118.681 475.14 117.93 474.939 117.305 474.538C116.689 474.137 116.217 473.563 115.891 472.816C115.564 472.06 115.401 471.155 115.401 470.1C115.401 469.045 115.564 468.145 115.891 467.398C116.217 466.642 116.689 466.063 117.305 465.662C117.93 465.261 118.681 465.06 119.559 465.06C120.436 465.06 121.187 465.261 121.813 465.662C122.438 466.063 122.914 466.642 123.241 467.398C123.567 468.145 123.731 469.045 123.731 470.1C123.731 471.155 123.567 472.06 123.241 472.816C122.914 473.563 122.438 474.137 121.813 474.538C121.187 474.939 120.436 475.14 119.559 475.14ZM119.559 473.124C120.165 473.124 120.632 472.863 120.959 472.34C121.295 471.817 121.463 471.071 121.463 470.1C121.463 469.101 121.295 468.336 120.959 467.804C120.632 467.263 120.165 466.992 119.559 466.992C118.952 466.992 118.481 467.263 118.145 467.804C117.818 468.336 117.655 469.101 117.655 470.1C117.655 471.071 117.818 471.817 118.145 472.34C118.481 472.863 118.952 473.124 119.559 473.124ZM129.71 470.45V468.63H136.556V470.45H129.71ZM129.71 473.488V471.682H136.556V473.488H129.71Z" fill="white"/>
<path d="M146.865 475V467.076L148.139 467.104L144.597 471.444L144.261 471.024H150.757V472.984H143.197L142.245 471.15L147.243 465.116H149.161V475H146.865ZM155.967 475.14C155.09 475.14 154.338 474.939 153.713 474.538C153.097 474.137 152.626 473.563 152.299 472.816C151.972 472.06 151.809 471.155 151.809 470.1C151.809 469.045 151.972 468.145 152.299 467.398C152.626 466.642 153.097 466.063 153.713 465.662C154.338 465.261 155.09 465.06 155.967 465.06C156.844 465.06 157.596 465.261 158.221 465.662C158.846 466.063 159.322 466.642 159.649 467.398C159.976 468.145 160.139 469.045 160.139 470.1C160.139 471.155 159.976 472.06 159.649 472.816C159.322 473.563 158.846 474.137 158.221 474.538C157.596 474.939 156.844 475.14 155.967 475.14ZM155.967 473.124C156.574 473.124 157.04 472.863 157.367 472.34C157.703 471.817 157.871 471.071 157.871 470.1C157.871 469.101 157.703 468.336 157.367 467.804C157.04 467.263 156.574 466.992 155.967 466.992C155.36 466.992 154.889 467.263 154.553 467.804C154.226 468.336 154.063 469.101 154.063 470.1C154.063 471.071 154.226 471.817 154.553 472.34C154.889 472.863 155.36 473.124 155.967 473.124Z" fill="#F59E0B"/>
</g>
<defs>
<filter id="filter0_d_28_277" x="0" y="0" width="242" height="530" filterUnits="userSpaceOnUse" color-interpolation-filters="sRGB">
<feFlood flood-opacity="0" result="BackgroundImageFix"/>
<feColorMatrix in="SourceAlpha" type="matrix" values="0 0 0 0 0 0 0 0 0 0 0 0 0 0 0 0 0 0 127 0" result="hardAlpha"/>
<feOffset/>
<feGaussianBlur stdDeviation="7.5"/>
<feComposite in2="hardAlpha" operator="out"/>
<feColorMatrix type="matrix" values="0 0 0 0 0 0 0 0 0 0.705882 0 0 0 0 1 0 0 0 0.2 0"/>
<feBlend mode="normal" in2="BackgroundImageFix" result="effect1_dropShadow_28_277"/>
<feBlend mode="normal" in="SourceGraphic" in2="effect1_dropShadow_28_277" result="shape"/>
</filter>
<linearGradient id="paint0_linear_28_277" x1="15" y1="15" x2="374.39" y2="167.381" gradientUnits="userSpaceOnUse">
<stop stop-color="#1A2332"/>
<stop offset="0.166667" stop-color="#18212F"/>
<stop offset="0.333333" stop-color="#161E2C"/>
<stop offset="0.5" stop-color="#141C29"/>
<stop offset="0.666667" stop-color="#131A27"/>
<stop offset="0.833333" stop-color="#111724"/>
<stop offset="1" stop-color="#0F1521"/>
</linearGradient>
</defs>
</svg>
