<svg width="242" height="530" viewBox="0 0 242 530" fill="none" xmlns="http://www.w3.org/2000/svg">
<g filter="url(#filter0_d_28_306)">
<mask id="path-1-inside-1_28_306" fill="white">
<path d="M15 25C15 19.4771 19.4772 15 25 15H217C222.523 15 227 19.4772 227 25V505C227 510.523 222.523 515 217 515H25C19.4772 515 15 510.523 15 505V25Z"/>
</mask>
<path d="M15 25C15 19.4771 19.4772 15 25 15H217C222.523 15 227 19.4772 227 25V505C227 510.523 222.523 515 217 515H25C19.4772 515 15 510.523 15 505V25Z" fill="url(#paint0_linear_28_306)" shape-rendering="crispEdges"/>
<path d="M25 15V17H217V15V13H25V15ZM227 25H225V505H227H229V25H227ZM217 515V513H25V515V517H217V515ZM15 505H17V25H15H13V505H15ZM25 515V513C20.5817 513 17 509.418 17 505H15H13C13 511.627 18.3726 517 25 517V515ZM227 505H225C225 509.418 221.418 513 217 513V515V517C223.627 517 229 511.627 229 505H227ZM217 15V17C221.418 17 225 20.5817 225 25H227H229C229 18.3726 223.627 13 217 13V15ZM25 15V13C18.3726 13 13 18.3726 13 25H15H17C17 20.5817 20.5817 17 25 17V15Z" fill="#00B4FF" mask="url(#path-1-inside-1_28_306)"/>
<path d="M41 39C41 33.4772 45.4772 29 51 29H191C196.523 29 201 33.4772 201 39V70C201 75.5228 196.523 80 191 80H51C45.4772 80 41 75.5228 41 70V39Z" fill="#00B4FF"/>
<path d="M59.4827 64V50.8H54.4907V47.2H68.6747V50.8H63.5627V64H59.4827ZM73.4666 64.216C72.3946 64.216 71.4346 63.936 70.5866 63.376C69.7546 62.8 69.0906 62.016 68.5946 61.024C68.0986 60.016 67.8506 58.88 67.8506 57.616C67.8506 56.32 68.0986 55.176 68.5946 54.184C69.0906 53.192 69.7706 52.416 70.6346 51.856C71.4986 51.28 72.4826 50.992 73.5866 50.992C74.1946 50.992 74.7466 51.08 75.2426 51.256C75.7546 51.432 76.2026 51.68 76.5866 52C76.9706 52.304 77.2986 52.664 77.5706 53.08C77.8426 53.48 78.0426 53.912 78.1706 54.376L77.3786 54.28V51.256H81.1946V64H77.3066V60.928L78.1706 60.904C78.0426 61.352 77.8346 61.776 77.5466 62.176C77.2586 62.576 76.9066 62.928 76.4906 63.232C76.0746 63.536 75.6106 63.776 75.0986 63.952C74.5866 64.128 74.0426 64.216 73.4666 64.216ZM74.5226 60.976C75.1146 60.976 75.6266 60.84 76.0586 60.568C76.4906 60.296 76.8266 59.912 77.0666 59.416C77.3066 58.904 77.4266 58.304 77.4266 57.616C77.4266 56.928 77.3066 56.336 77.0666 55.84C76.8266 55.328 76.4906 54.936 76.0586 54.664C75.6266 54.376 75.1146 54.232 74.5226 54.232C73.9466 54.232 73.4426 54.376 73.0106 54.664C72.5946 54.936 72.2666 55.328 72.0266 55.84C71.7866 56.336 71.6666 56.928 71.6666 57.616C71.6666 58.304 71.7866 58.904 72.0266 59.416C72.2666 59.912 72.5946 60.296 73.0106 60.568C73.4426 60.84 73.9466 60.976 74.5226 60.976ZM92.2389 64.264C91.6629 64.264 91.1109 64.184 90.5829 64.024C90.0549 63.864 89.5749 63.648 89.1429 63.376C88.7269 63.104 88.3749 62.792 88.0869 62.44C87.8149 62.072 87.6309 61.696 87.5349 61.312L88.3749 61.024L88.1589 63.976H84.5829V46.24H88.4469V54.304L87.6549 54.016C87.7509 53.6 87.9349 53.216 88.2069 52.864C88.4789 52.496 88.8229 52.176 89.2389 51.904C89.6549 51.616 90.1109 51.392 90.6069 51.232C91.1029 51.072 91.6149 50.992 92.1429 50.992C93.2469 50.992 94.2229 51.28 95.0709 51.856C95.9349 52.416 96.6149 53.2 97.1109 54.208C97.6069 55.2 97.8549 56.336 97.8549 57.616C97.8549 58.912 97.6069 60.064 97.1109 61.072C96.6309 62.064 95.9669 62.848 95.1189 63.424C94.2709 63.984 93.3109 64.264 92.2389 64.264ZM91.2309 61.024C91.8069 61.024 92.3109 60.88 92.7429 60.592C93.1749 60.304 93.5029 59.912 93.7269 59.416C93.9669 58.904 94.0869 58.304 94.0869 57.616C94.0869 56.944 93.9669 56.352 93.7269 55.84C93.5029 55.328 93.1749 54.936 92.7429 54.664C92.3109 54.392 91.8069 54.256 91.2309 54.256C90.6389 54.256 90.1269 54.392 89.6949 54.664C89.2629 54.936 88.9269 55.328 88.6869 55.84C88.4469 56.352 88.3269 56.944 88.3269 57.616C88.3269 58.304 88.4469 58.904 88.6869 59.416C88.9269 59.912 89.2629 60.304 89.6949 60.592C90.1269 60.88 90.6389 61.024 91.2309 61.024ZM100.404 64V46.24H104.244V64H100.404ZM112.138 64.216C111.066 64.216 110.106 63.936 109.258 63.376C108.426 62.8 107.762 62.016 107.266 61.024C106.77 60.016 106.522 58.88 106.522 57.616C106.522 56.32 106.77 55.176 107.266 54.184C107.762 53.192 108.442 52.416 109.306 51.856C110.17 51.28 111.154 50.992 112.258 50.992C112.866 50.992 113.418 51.08 113.914 51.256C114.426 51.432 114.874 51.68 115.258 52C115.642 52.304 115.97 52.664 116.242 53.08C116.514 53.48 116.714 53.912 116.842 54.376L116.05 54.28V51.256H119.866V64H115.978V60.928L116.842 60.904C116.714 61.352 116.506 61.776 116.218 62.176C115.93 62.576 115.578 62.928 115.162 63.232C114.746 63.536 114.282 63.776 113.77 63.952C113.258 64.128 112.714 64.216 112.138 64.216ZM113.194 60.976C113.786 60.976 114.298 60.84 114.73 60.568C115.162 60.296 115.498 59.912 115.738 59.416C115.978 58.904 116.098 58.304 116.098 57.616C116.098 56.928 115.978 56.336 115.738 55.84C115.498 55.328 115.162 54.936 114.73 54.664C114.298 54.376 113.786 54.232 113.194 54.232C112.618 54.232 112.114 54.376 111.682 54.664C111.266 54.936 110.938 55.328 110.698 55.84C110.458 56.336 110.338 56.928 110.338 57.616C110.338 58.304 110.458 58.904 110.698 59.416C110.938 59.912 111.266 60.296 111.682 60.568C112.114 60.84 112.618 60.976 113.194 60.976ZM135.766 64.264C134.662 64.264 133.678 63.984 132.814 63.424C131.966 62.848 131.294 62.064 130.798 61.072C130.302 60.064 130.054 58.92 130.054 57.64C130.054 56.36 130.302 55.224 130.798 54.232C131.294 53.224 131.974 52.432 132.838 51.856C133.702 51.28 134.694 50.992 135.814 50.992C136.39 50.992 136.942 51.08 137.47 51.256C137.998 51.432 138.478 51.672 138.91 51.976C139.342 52.28 139.694 52.632 139.966 53.032C140.238 53.416 140.398 53.816 140.446 54.232L139.534 54.448V46.24H143.398V64H139.822L139.606 61.096L140.374 61.216C140.326 61.616 140.166 62 139.894 62.368C139.638 62.736 139.302 63.064 138.886 63.352C138.47 63.624 137.99 63.84 137.446 64C136.918 64.176 136.358 64.264 135.766 64.264ZM136.75 61.072C137.342 61.072 137.854 60.928 138.286 60.64C138.718 60.352 139.046 59.952 139.27 59.44C139.51 58.928 139.63 58.328 139.63 57.64C139.63 56.936 139.51 56.328 139.27 55.816C139.046 55.304 138.718 54.904 138.286 54.616C137.854 54.328 137.342 54.184 136.75 54.184C136.158 54.184 135.646 54.328 135.214 54.616C134.798 54.904 134.47 55.304 134.23 55.816C133.99 56.328 133.87 56.936 133.87 57.64C133.87 58.328 133.99 58.928 134.23 59.44C134.47 59.952 134.798 60.352 135.214 60.64C135.646 60.928 136.158 61.072 136.75 61.072ZM152.717 64.24C151.309 64.24 150.085 63.96 149.045 63.4C148.005 62.824 147.197 62.048 146.621 61.072C146.045 60.08 145.757 58.952 145.757 57.688C145.757 56.712 145.917 55.816 146.237 55C146.557 54.184 147.005 53.48 147.581 52.888C148.157 52.28 148.837 51.816 149.621 51.496C150.421 51.16 151.293 50.992 152.237 50.992C153.133 50.992 153.949 51.152 154.685 51.472C155.437 51.792 156.085 52.24 156.629 52.816C157.173 53.392 157.589 54.072 157.877 54.856C158.165 55.64 158.293 56.496 158.261 57.424L158.237 58.456H148.085L147.533 56.296H155.117L154.709 56.752V56.272C154.677 55.872 154.549 55.52 154.325 55.216C154.117 54.896 153.837 54.648 153.485 54.472C153.133 54.296 152.733 54.208 152.285 54.208C151.661 54.208 151.125 54.336 150.677 54.592C150.245 54.832 149.917 55.192 149.693 55.672C149.469 56.136 149.357 56.712 149.357 57.4C149.357 58.104 149.501 58.72 149.789 59.248C150.093 59.76 150.525 60.16 151.085 60.448C151.661 60.736 152.341 60.88 153.125 60.88C153.669 60.88 154.149 60.8 154.565 60.64C154.997 60.48 155.461 60.208 155.957 59.824L157.757 62.368C157.261 62.8 156.733 63.152 156.173 63.424C155.613 63.696 155.037 63.896 154.445 64.024C153.869 64.168 153.293 64.24 152.717 64.24ZM160.732 64V46.24H164.572V64H160.732ZM180.748 64.168C179.484 64.168 178.332 63.912 177.292 63.4C176.268 62.888 175.42 62.152 174.748 61.192L176.932 58.792C177.588 59.512 178.196 60.008 178.756 60.28C179.316 60.536 179.94 60.664 180.628 60.664C181.14 60.664 181.596 60.56 181.996 60.352C182.396 60.144 182.708 59.856 182.932 59.488C183.172 59.104 183.292 58.68 183.292 58.216C183.292 57.736 183.172 57.312 182.932 56.944C182.708 56.56 182.396 56.256 181.996 56.032C181.612 55.808 181.164 55.696 180.652 55.696C180.284 55.696 179.94 55.728 179.62 55.792C179.3 55.856 178.956 55.968 178.588 56.128C178.236 56.272 177.812 56.488 177.316 56.776L175.588 54.472L176.62 47.056H186.268V50.488H178.564L179.62 49.144L178.828 54.472L177.388 53.992C177.692 53.72 178.06 53.48 178.492 53.272C178.94 53.064 179.42 52.896 179.932 52.768C180.444 52.624 180.956 52.552 181.468 52.552C182.524 52.552 183.468 52.8 184.3 53.296C185.148 53.776 185.82 54.448 186.316 55.312C186.812 56.176 187.06 57.168 187.06 58.288C187.06 59.392 186.78 60.392 186.22 61.288C185.66 62.168 184.908 62.872 183.964 63.4C183.02 63.912 181.948 64.168 180.748 64.168Z" fill="#0F1521"/>
<mask id="path-5-inside-2_28_306" fill="white">
<path d="M41 88C41 85.7909 42.7909 84 45 84H197C199.209 84 201 85.7909 201 88V113C201 115.209 199.209 117 197 117H45C42.7909 117 41 115.209 41 113V88Z"/>
</mask>
<path d="M41 88C41 85.7909 42.7909 84 45 84H197C199.209 84 201 85.7909 201 88V113C201 115.209 199.209 117 197 117H45C42.7909 117 41 115.209 41 113V88Z" fill="#0F1521"/>
<path d="M45 84V85H197V84V83H45V84ZM201 88H200V113H201H202V88H201ZM197 117V116H45V117V118H197V117ZM41 113H42V88H41H40V113H41ZM45 117V116C43.3431 116 42 114.657 42 113H41H40C40 115.761 42.2386 118 45 118V117ZM201 113H200C200 114.657 198.657 116 197 116V117V118C199.761 118 202 115.761 202 113H201ZM197 84V85C198.657 85 200 86.3431 200 88H201H202C202 85.2386 199.761 83 197 83V84ZM45 84V83C42.2386 83 40 85.2386 40 88H41H42C42 86.3431 43.3431 85 45 85V84Z" fill="#00B4FF" mask="url(#path-5-inside-2_28_306)"/>
<path d="M95.6287 108.098C94.8913 108.098 94.2193 107.949 93.6127 107.65C93.0153 107.351 92.5207 106.922 92.1287 106.362L93.4027 104.962C93.7853 105.382 94.14 105.671 94.4667 105.83C94.7933 105.979 95.1573 106.054 95.5587 106.054C95.8573 106.054 96.1233 105.993 96.3567 105.872C96.59 105.751 96.772 105.583 96.9027 105.368C97.0427 105.144 97.1127 104.897 97.1127 104.626C97.1127 104.346 97.0427 104.099 96.9027 103.884C96.772 103.66 96.59 103.483 96.3567 103.352C96.1327 103.221 95.8713 103.156 95.5727 103.156C95.358 103.156 95.1573 103.175 94.9707 103.212C94.784 103.249 94.5833 103.315 94.3687 103.408C94.1633 103.492 93.916 103.618 93.6267 103.786L92.6187 102.442L93.2207 98.116H98.8487V100.118H94.3547L94.9707 99.334L94.5087 102.442L93.6687 102.162C93.846 102.003 94.0607 101.863 94.3127 101.742C94.574 101.621 94.854 101.523 95.1527 101.448C95.4513 101.364 95.75 101.322 96.0487 101.322C96.6647 101.322 97.2153 101.467 97.7007 101.756C98.1953 102.036 98.5873 102.428 98.8767 102.932C99.166 103.436 99.3107 104.015 99.3107 104.668C99.3107 105.312 99.1473 105.895 98.8207 106.418C98.494 106.931 98.0553 107.342 97.5047 107.65C96.954 107.949 96.3287 108.098 95.6287 108.098ZM110.077 107.258L105.037 102.218L106.381 100.902L111.421 105.942L110.077 107.258ZM106.381 107.3L105.065 105.942L110.091 100.902L111.421 102.246L106.381 107.3ZM119.394 107.314V99.362L119.912 100.552L117.812 101.546L117.406 99.418L120.192 98.06H121.732V107.314H119.394ZM117.602 108V105.9H123.566V108H117.602ZM129.71 103.45V101.63H136.556V103.45H129.71ZM129.71 106.488V104.682H136.556V106.488H129.71Z" fill="white"/>
<path d="M145.927 108.098C145.19 108.098 144.518 107.949 143.911 107.65C143.314 107.351 142.819 106.922 142.427 106.362L143.701 104.962C144.084 105.382 144.439 105.671 144.765 105.83C145.092 105.979 145.456 106.054 145.857 106.054C146.156 106.054 146.422 105.993 146.655 105.872C146.889 105.751 147.071 105.583 147.201 105.368C147.341 105.144 147.411 104.897 147.411 104.626C147.411 104.346 147.341 104.099 147.201 103.884C147.071 103.66 146.889 103.483 146.655 103.352C146.431 103.221 146.17 103.156 145.871 103.156C145.657 103.156 145.456 103.175 145.269 103.212C145.083 103.249 144.882 103.315 144.667 103.408C144.462 103.492 144.215 103.618 143.925 103.786L142.917 102.442L143.519 98.116H149.147V100.118H144.653L145.269 99.334L144.807 102.442L143.967 102.162C144.145 102.003 144.359 101.863 144.611 101.742C144.873 101.621 145.153 101.523 145.451 101.448C145.75 101.364 146.049 101.322 146.347 101.322C146.963 101.322 147.514 101.467 147.999 101.756C148.494 102.036 148.886 102.428 149.175 102.932C149.465 103.436 149.609 104.015 149.609 104.668C149.609 105.312 149.446 105.895 149.119 106.418C148.793 106.931 148.354 107.342 147.803 107.65C147.253 107.949 146.627 108.098 145.927 108.098Z" fill="#F59E0B"/>
<mask id="path-8-inside-3_28_306" fill="white">
<path d="M41 129C41 126.791 42.7909 125 45 125H197C199.209 125 201 126.791 201 129V154C201 156.209 199.209 158 197 158H45C42.7909 158 41 156.209 41 154V129Z"/>
</mask>
<path d="M41 129C41 126.791 42.7909 125 45 125H197C199.209 125 201 126.791 201 129V154C201 156.209 199.209 158 197 158H45C42.7909 158 41 156.209 41 154V129Z" fill="#0F1521"/>
<path d="M45 125V126H197V125V124H45V125ZM201 129H200V154H201H202V129H201ZM197 158V157H45V158V159H197V158ZM41 154H42V129H41H40V154H41ZM45 158V157C43.3431 157 42 155.657 42 154H41H40C40 156.761 42.2386 159 45 159V158ZM201 154H200C200 155.657 198.657 157 197 157V158V159C199.761 159 202 156.761 202 154H201ZM197 125V126C198.657 126 200 127.343 200 129H201H202C202 126.239 199.761 124 197 124V125ZM45 125V124C42.2386 124 40 126.239 40 129H41H42C42 127.343 43.3431 126 45 126V125Z" fill="#00B4FF" mask="url(#path-8-inside-3_28_306)"/>
<path d="M91.24 149.098C90.5027 149.098 89.8307 148.949 89.224 148.65C88.6267 148.351 88.132 147.922 87.74 147.362L89.014 145.962C89.3967 146.382 89.7513 146.671 90.078 146.83C90.4047 146.979 90.7687 147.054 91.17 147.054C91.4687 147.054 91.7347 146.993 91.968 146.872C92.2013 146.751 92.3833 146.583 92.514 146.368C92.654 146.144 92.724 145.897 92.724 145.626C92.724 145.346 92.654 145.099 92.514 144.884C92.3833 144.66 92.2013 144.483 91.968 144.352C91.744 144.221 91.4827 144.156 91.184 144.156C90.9693 144.156 90.7687 144.175 90.582 144.212C90.3953 144.249 90.1947 144.315 89.98 144.408C89.7747 144.492 89.5273 144.618 89.238 144.786L88.23 143.442L88.832 139.116H94.46V141.118H89.966L90.582 140.334L90.12 143.442L89.28 143.162C89.4573 143.003 89.672 142.863 89.924 142.742C90.1853 142.621 90.4653 142.523 90.764 142.448C91.0627 142.364 91.3613 142.322 91.66 142.322C92.276 142.322 92.8267 142.467 93.312 142.756C93.8067 143.036 94.1987 143.428 94.488 143.932C94.7773 144.436 94.922 145.015 94.922 145.668C94.922 146.312 94.7587 146.895 94.432 147.418C94.1053 147.931 93.6667 148.342 93.116 148.65C92.5653 148.949 91.94 149.098 91.24 149.098ZM105.688 148.258L100.648 143.218L101.992 141.902L107.032 146.942L105.688 148.258ZM101.992 148.3L100.676 146.942L105.702 141.902L107.032 143.246L101.992 148.3ZM112.878 149L112.416 147.852L115.272 144.73C115.43 144.553 115.603 144.352 115.79 144.128C115.976 143.904 116.158 143.675 116.336 143.442C116.513 143.199 116.653 142.966 116.756 142.742C116.868 142.518 116.924 142.313 116.924 142.126C116.924 141.939 116.882 141.776 116.798 141.636C116.714 141.496 116.592 141.389 116.434 141.314C116.275 141.23 116.074 141.188 115.832 141.188C115.617 141.188 115.412 141.244 115.216 141.356C115.02 141.459 114.833 141.622 114.656 141.846C114.488 142.07 114.329 142.345 114.18 142.672L112.416 141.72C112.612 141.179 112.887 140.703 113.242 140.292C113.606 139.872 114.03 139.55 114.516 139.326C115.001 139.093 115.519 138.976 116.07 138.976C116.648 138.985 117.171 139.111 117.638 139.354C118.104 139.587 118.473 139.919 118.744 140.348C119.024 140.768 119.164 141.263 119.164 141.832C119.164 142.028 119.14 142.233 119.094 142.448C119.047 142.663 118.977 142.887 118.884 143.12C118.79 143.344 118.664 143.587 118.506 143.848C118.356 144.1 118.174 144.366 117.96 144.646C117.745 144.926 117.493 145.225 117.204 145.542L114.978 147.964L114.698 146.9H119.598V149H112.878ZM125.144 144.45V142.63H131.99V144.45H125.144ZM125.144 147.488V145.682H131.99V147.488H125.144Z" fill="white"/>
<path d="M140.367 148.314V140.362L140.885 141.552L138.785 142.546L138.379 140.418L141.165 139.06H142.705V148.314H140.367ZM138.575 149V146.9H144.539V149H138.575ZM149.979 149.14C149.101 149.14 148.35 148.939 147.725 148.538C147.109 148.137 146.637 147.563 146.311 146.816C145.984 146.06 145.821 145.155 145.821 144.1C145.821 143.045 145.984 142.145 146.311 141.398C146.637 140.642 147.109 140.063 147.725 139.662C148.35 139.261 149.101 139.06 149.979 139.06C150.856 139.06 151.607 139.261 152.233 139.662C152.858 140.063 153.334 140.642 153.661 141.398C153.987 142.145 154.151 143.045 154.151 144.1C154.151 145.155 153.987 146.06 153.661 146.816C153.334 147.563 152.858 148.137 152.233 148.538C151.607 148.939 150.856 149.14 149.979 149.14ZM149.979 147.124C150.585 147.124 151.052 146.863 151.379 146.34C151.715 145.817 151.883 145.071 151.883 144.1C151.883 143.101 151.715 142.336 151.379 141.804C151.052 141.263 150.585 140.992 149.979 140.992C149.372 140.992 148.901 141.263 148.565 141.804C148.238 142.336 148.075 143.101 148.075 144.1C148.075 145.071 148.238 145.817 148.565 146.34C148.901 146.863 149.372 147.124 149.979 147.124Z" fill="#F59E0B"/>
<mask id="path-11-inside-4_28_306" fill="white">
<path d="M41 170C41 167.791 42.7909 166 45 166H197C199.209 166 201 167.791 201 170V195C201 197.209 199.209 199 197 199H45C42.7909 199 41 197.209 41 195V170Z"/>
</mask>
<path d="M41 170C41 167.791 42.7909 166 45 166H197C199.209 166 201 167.791 201 170V195C201 197.209 199.209 199 197 199H45C42.7909 199 41 197.209 41 195V170Z" fill="#0F1521"/>
<path d="M45 166V167H197V166V165H45V166ZM201 170H200V195H201H202V170H201ZM197 199V198H45V199V200H197V199ZM41 195H42V170H41H40V195H41ZM45 199V198C43.3431 198 42 196.657 42 195H41H40C40 197.761 42.2386 200 45 200V199ZM201 195H200C200 196.657 198.657 198 197 198V199V200C199.761 200 202 197.761 202 195H201ZM197 166V167C198.657 167 200 168.343 200 170H201H202C202 167.239 199.761 165 197 165V166ZM45 166V165C42.2386 165 40 167.239 40 170H41H42C42 168.343 43.3431 167 45 167V166Z" fill="#00B4FF" mask="url(#path-11-inside-4_28_306)"/>
<path d="M91.4929 190.098C90.7556 190.098 90.0836 189.949 89.4769 189.65C88.8796 189.351 88.3849 188.922 87.9929 188.362L89.2669 186.962C89.6496 187.382 90.0043 187.671 90.3309 187.83C90.6576 187.979 91.0216 188.054 91.4229 188.054C91.7216 188.054 91.9876 187.993 92.2209 187.872C92.4543 187.751 92.6363 187.583 92.7669 187.368C92.9069 187.144 92.9769 186.897 92.9769 186.626C92.9769 186.346 92.9069 186.099 92.7669 185.884C92.6363 185.66 92.4543 185.483 92.2209 185.352C91.9969 185.221 91.7356 185.156 91.4369 185.156C91.2223 185.156 91.0216 185.175 90.8349 185.212C90.6483 185.249 90.4476 185.315 90.2329 185.408C90.0276 185.492 89.7803 185.618 89.4909 185.786L88.4829 184.442L89.0849 180.116H94.7129V182.118H90.2189L90.8349 181.334L90.3729 184.442L89.5329 184.162C89.7103 184.003 89.9249 183.863 90.1769 183.742C90.4383 183.621 90.7183 183.523 91.0169 183.448C91.3156 183.364 91.6143 183.322 91.9129 183.322C92.5289 183.322 93.0796 183.467 93.5649 183.756C94.0596 184.036 94.4516 184.428 94.7409 184.932C95.0303 185.436 95.1749 186.015 95.1749 186.668C95.1749 187.312 95.0116 187.895 94.6849 188.418C94.3583 188.931 93.9196 189.342 93.3689 189.65C92.8183 189.949 92.1929 190.098 91.4929 190.098ZM105.941 189.258L100.901 184.218L102.245 182.902L107.285 187.942L105.941 189.258ZM102.245 189.3L100.929 187.942L105.955 182.902L107.285 184.246L102.245 189.3ZM116.323 190.14C115.529 190.14 114.834 189.977 114.237 189.65C113.649 189.314 113.112 188.74 112.627 187.928L114.335 186.822C114.54 187.149 114.75 187.41 114.965 187.606C115.189 187.802 115.417 187.947 115.651 188.04C115.893 188.124 116.145 188.166 116.407 188.166C116.668 188.166 116.906 188.11 117.121 187.998C117.345 187.877 117.522 187.709 117.653 187.494C117.793 187.279 117.863 187.037 117.863 186.766C117.863 186.477 117.802 186.234 117.681 186.038C117.569 185.833 117.401 185.679 117.177 185.576C116.962 185.473 116.701 185.422 116.393 185.422C116.253 185.422 116.103 185.441 115.945 185.478C115.786 185.506 115.618 185.548 115.441 185.604C115.263 185.66 115.081 185.735 114.895 185.828L114.377 184.442L116.757 181.852L117.401 182.202L113.313 182.118V180.116H119.333L119.767 180.984L116.533 184.456L115.973 183.798C116.047 183.761 116.169 183.728 116.337 183.7C116.514 183.663 116.682 183.644 116.841 183.644C117.279 183.644 117.69 183.723 118.073 183.882C118.455 184.041 118.796 184.26 119.095 184.54C119.393 184.82 119.627 185.151 119.795 185.534C119.963 185.907 120.047 186.309 120.047 186.738C120.047 187.391 119.879 187.975 119.543 188.488C119.216 188.992 118.768 189.393 118.199 189.692C117.639 189.991 117.013 190.14 116.323 190.14ZM125.999 185.45V183.63H132.845V185.45H125.999ZM125.999 188.488V186.682H132.845V188.488H125.999Z" fill="white"/>
<path d="M141.222 189.314V181.362L141.74 182.552L139.64 183.546L139.234 181.418L142.02 180.06H143.56V189.314H141.222ZM139.43 190V187.9H145.394V190H139.43ZM150.063 190.098C149.326 190.098 148.654 189.949 148.047 189.65C147.45 189.351 146.955 188.922 146.563 188.362L147.837 186.962C148.22 187.382 148.575 187.671 148.901 187.83C149.228 187.979 149.592 188.054 149.993 188.054C150.292 188.054 150.558 187.993 150.791 187.872C151.025 187.751 151.207 187.583 151.337 187.368C151.477 187.144 151.547 186.897 151.547 186.626C151.547 186.346 151.477 186.099 151.337 185.884C151.207 185.66 151.025 185.483 150.791 185.352C150.567 185.221 150.306 185.156 150.007 185.156C149.793 185.156 149.592 185.175 149.405 185.212C149.219 185.249 149.018 185.315 148.803 185.408C148.598 185.492 148.351 185.618 148.061 185.786L147.053 184.442L147.655 180.116H153.283V182.118H148.789L149.405 181.334L148.943 184.442L148.103 184.162C148.281 184.003 148.495 183.863 148.747 183.742C149.009 183.621 149.289 183.523 149.587 183.448C149.886 183.364 150.185 183.322 150.483 183.322C151.099 183.322 151.65 183.467 152.135 183.756C152.63 184.036 153.022 184.428 153.311 184.932C153.601 185.436 153.745 186.015 153.745 186.668C153.745 187.312 153.582 187.895 153.255 188.418C152.929 188.931 152.49 189.342 151.939 189.65C151.389 189.949 150.763 190.098 150.063 190.098Z" fill="#F59E0B"/>
<mask id="path-14-inside-5_28_306" fill="white">
<path d="M41 211C41 208.791 42.7909 207 45 207H197C199.209 207 201 208.791 201 211V236C201 238.209 199.209 240 197 240H45C42.7909 240 41 238.209 41 236V211Z"/>
</mask>
<path d="M41 211C41 208.791 42.7909 207 45 207H197C199.209 207 201 208.791 201 211V236C201 238.209 199.209 240 197 240H45C42.7909 240 41 238.209 41 236V211Z" fill="#0F1521"/>
<path d="M45 207V208H197V207V206H45V207ZM201 211H200V236H201H202V211H201ZM197 240V239H45V240V241H197V240ZM41 236H42V211H41H40V236H41ZM45 240V239C43.3431 239 42 237.657 42 236H41H40C40 238.761 42.2386 241 45 241V240ZM201 236H200C200 237.657 198.657 239 197 239V240V241C199.761 241 202 238.761 202 236H201ZM197 207V208C198.657 208 200 209.343 200 211H201H202C202 208.239 199.761 206 197 206V207ZM45 207V206C42.2386 206 40 208.239 40 211H41H42C42 209.343 43.3431 208 45 208V207Z" fill="#00B4FF" mask="url(#path-14-inside-5_28_306)"/>
<path d="M90.5291 231.098C89.7917 231.098 89.1197 230.949 88.5131 230.65C87.9157 230.351 87.4211 229.922 87.0291 229.362L88.3031 227.962C88.6857 228.382 89.0404 228.671 89.3671 228.83C89.6937 228.979 90.0577 229.054 90.4591 229.054C90.7577 229.054 91.0237 228.993 91.2571 228.872C91.4904 228.751 91.6724 228.583 91.8031 228.368C91.9431 228.144 92.0131 227.897 92.0131 227.626C92.0131 227.346 91.9431 227.099 91.8031 226.884C91.6724 226.66 91.4904 226.483 91.2571 226.352C91.0331 226.221 90.7717 226.156 90.4731 226.156C90.2584 226.156 90.0577 226.175 89.8711 226.212C89.6844 226.249 89.4837 226.315 89.2691 226.408C89.0637 226.492 88.8164 226.618 88.5271 226.786L87.5191 225.442L88.1211 221.116H93.7491V223.118H89.2551L89.8711 222.334L89.4091 225.442L88.5691 225.162C88.7464 225.003 88.9611 224.863 89.2131 224.742C89.4744 224.621 89.7544 224.523 90.0531 224.448C90.3517 224.364 90.6504 224.322 90.9491 224.322C91.5651 224.322 92.1157 224.467 92.6011 224.756C93.0957 225.036 93.4877 225.428 93.7771 225.932C94.0664 226.436 94.2111 227.015 94.2111 227.668C94.2111 228.312 94.0477 228.895 93.7211 229.418C93.3944 229.931 92.9557 230.342 92.4051 230.65C91.8544 230.949 91.2291 231.098 90.5291 231.098ZM104.977 230.258L99.9373 225.218L101.281 223.902L106.321 228.942L104.977 230.258ZM101.281 230.3L99.9653 228.942L104.991 223.902L106.321 225.246L101.281 230.3ZM116.227 231V223.076L117.501 223.104L113.959 227.444L113.623 227.024H120.119V228.984H112.559L111.607 227.15L116.605 221.116H118.523V231H116.227ZM126.033 226.45V224.63H132.879V226.45H126.033ZM126.033 229.488V227.682H132.879V229.488H126.033Z" fill="white"/>
<path d="M139.128 231L138.666 229.852L141.522 226.73C141.68 226.553 141.853 226.352 142.04 226.128C142.226 225.904 142.408 225.675 142.586 225.442C142.763 225.199 142.903 224.966 143.006 224.742C143.118 224.518 143.174 224.313 143.174 224.126C143.174 223.939 143.132 223.776 143.048 223.636C142.964 223.496 142.842 223.389 142.684 223.314C142.525 223.23 142.324 223.188 142.082 223.188C141.867 223.188 141.662 223.244 141.466 223.356C141.27 223.459 141.083 223.622 140.906 223.846C140.738 224.07 140.579 224.345 140.43 224.672L138.666 223.72C138.862 223.179 139.137 222.703 139.492 222.292C139.856 221.872 140.28 221.55 140.766 221.326C141.251 221.093 141.769 220.976 142.32 220.976C142.898 220.985 143.421 221.111 143.888 221.354C144.354 221.587 144.723 221.919 144.994 222.348C145.274 222.768 145.414 223.263 145.414 223.832C145.414 224.028 145.39 224.233 145.344 224.448C145.297 224.663 145.227 224.887 145.134 225.12C145.04 225.344 144.914 225.587 144.756 225.848C144.606 226.1 144.424 226.366 144.21 226.646C143.995 226.926 143.743 227.225 143.454 227.542L141.228 229.964L140.948 228.9H145.848V231H139.128ZM150.69 231.14C149.812 231.14 149.061 230.939 148.436 230.538C147.82 230.137 147.348 229.563 147.022 228.816C146.695 228.06 146.532 227.155 146.532 226.1C146.532 225.045 146.695 224.145 147.022 223.398C147.348 222.642 147.82 222.063 148.436 221.662C149.061 221.261 149.812 221.06 150.69 221.06C151.567 221.06 152.318 221.261 152.944 221.662C153.569 222.063 154.045 222.642 154.372 223.398C154.698 224.145 154.862 225.045 154.862 226.1C154.862 227.155 154.698 228.06 154.372 228.816C154.045 229.563 153.569 230.137 152.944 230.538C152.318 230.939 151.567 231.14 150.69 231.14ZM150.69 229.124C151.296 229.124 151.763 228.863 152.09 228.34C152.426 227.817 152.594 227.071 152.594 226.1C152.594 225.101 152.426 224.336 152.09 223.804C151.763 223.263 151.296 222.992 150.69 222.992C150.083 222.992 149.612 223.263 149.276 223.804C148.949 224.336 148.786 225.101 148.786 226.1C148.786 227.071 148.949 227.817 149.276 228.34C149.612 228.863 150.083 229.124 150.69 229.124Z" fill="#F59E0B"/>
<mask id="path-17-inside-6_28_306" fill="white">
<path d="M41 252C41 249.791 42.7909 248 45 248H197C199.209 248 201 249.791 201 252V277C201 279.209 199.209 281 197 281H45C42.7909 281 41 279.209 41 277V252Z"/>
</mask>
<path d="M41 252C41 249.791 42.7909 248 45 248H197C199.209 248 201 249.791 201 252V277C201 279.209 199.209 281 197 281H45C42.7909 281 41 279.209 41 277V252Z" fill="#0F1521"/>
<path d="M45 248V249H197V248V247H45V248ZM201 252H200V277H201H202V252H201ZM197 281V280H45V281V282H197V281ZM41 277H42V252H41H40V277H41ZM45 281V280C43.3431 280 42 278.657 42 277H41H40C40 279.761 42.2386 282 45 282V281ZM201 277H200C200 278.657 198.657 280 197 280V281V282C199.761 282 202 279.761 202 277H201ZM197 248V249C198.657 249 200 250.343 200 252H201H202C202 249.239 199.761 247 197 247V248ZM45 248V247C42.2386 247 40 249.239 40 252H41H42C42 250.343 43.3431 249 45 249V248Z" fill="#00B4FF" mask="url(#path-17-inside-6_28_306)"/>
<path d="M91.5476 270.098C90.8103 270.098 90.1383 269.949 89.5316 269.65C88.9343 269.351 88.4396 268.922 88.0476 268.362L89.3216 266.962C89.7043 267.382 90.0589 267.671 90.3856 267.83C90.7123 267.979 91.0763 268.054 91.4776 268.054C91.7763 268.054 92.0423 267.993 92.2756 267.872C92.5089 267.751 92.6909 267.583 92.8216 267.368C92.9616 267.144 93.0316 266.897 93.0316 266.626C93.0316 266.346 92.9616 266.099 92.8216 265.884C92.6909 265.66 92.5089 265.483 92.2756 265.352C92.0516 265.221 91.7903 265.156 91.4916 265.156C91.2769 265.156 91.0763 265.175 90.8896 265.212C90.7029 265.249 90.5023 265.315 90.2876 265.408C90.0823 265.492 89.8349 265.618 89.5456 265.786L88.5376 264.442L89.1396 260.116H94.7676V262.118H90.2736L90.8896 261.334L90.4276 264.442L89.5876 264.162C89.7649 264.003 89.9796 263.863 90.2316 263.742C90.4929 263.621 90.7729 263.523 91.0716 263.448C91.3703 263.364 91.6689 263.322 91.9676 263.322C92.5836 263.322 93.1343 263.467 93.6196 263.756C94.1143 264.036 94.5063 264.428 94.7956 264.932C95.0849 265.436 95.2296 266.015 95.2296 266.668C95.2296 267.312 95.0663 267.895 94.7396 268.418C94.4129 268.931 93.9743 269.342 93.4236 269.65C92.8729 269.949 92.2476 270.098 91.5476 270.098ZM105.996 269.258L100.956 264.218L102.3 262.902L107.34 267.942L105.996 269.258ZM102.3 269.3L100.984 267.942L106.01 262.902L107.34 264.246L102.3 269.3ZM116.307 270.098C115.57 270.098 114.898 269.949 114.291 269.65C113.694 269.351 113.199 268.922 112.807 268.362L114.081 266.962C114.464 267.382 114.819 267.671 115.145 267.83C115.472 267.979 115.836 268.054 116.237 268.054C116.536 268.054 116.802 267.993 117.035 267.872C117.269 267.751 117.451 267.583 117.581 267.368C117.721 267.144 117.791 266.897 117.791 266.626C117.791 266.346 117.721 266.099 117.581 265.884C117.451 265.66 117.269 265.483 117.035 265.352C116.811 265.221 116.55 265.156 116.251 265.156C116.037 265.156 115.836 265.175 115.649 265.212C115.463 265.249 115.262 265.315 115.047 265.408C114.842 265.492 114.595 265.618 114.305 265.786L113.297 264.442L113.899 260.116H119.527V262.118H115.033L115.649 261.334L115.187 264.442L114.347 264.162C114.525 264.003 114.739 263.863 114.991 263.742C115.253 263.621 115.533 263.523 115.831 263.448C116.13 263.364 116.429 263.322 116.727 263.322C117.343 263.322 117.894 263.467 118.379 263.756C118.874 264.036 119.266 264.428 119.555 264.932C119.845 265.436 119.989 266.015 119.989 266.668C119.989 267.312 119.826 267.895 119.499 268.418C119.173 268.931 118.734 269.342 118.183 269.65C117.633 269.949 117.007 270.098 116.307 270.098ZM126.122 265.45V263.63H132.968V265.45H126.122ZM126.122 268.488V266.682H132.968V268.488H126.122Z" fill="white"/>
<path d="M139.217 270L138.755 268.852L141.611 265.73C141.769 265.553 141.942 265.352 142.129 265.128C142.315 264.904 142.497 264.675 142.675 264.442C142.852 264.199 142.992 263.966 143.095 263.742C143.207 263.518 143.263 263.313 143.263 263.126C143.263 262.939 143.221 262.776 143.137 262.636C143.053 262.496 142.931 262.389 142.773 262.314C142.614 262.23 142.413 262.188 142.171 262.188C141.956 262.188 141.751 262.244 141.555 262.356C141.359 262.459 141.172 262.622 140.995 262.846C140.827 263.07 140.668 263.345 140.519 263.672L138.755 262.72C138.951 262.179 139.226 261.703 139.581 261.292C139.945 260.872 140.369 260.55 140.855 260.326C141.34 260.093 141.858 259.976 142.409 259.976C142.987 259.985 143.51 260.111 143.977 260.354C144.443 260.587 144.812 260.919 145.083 261.348C145.363 261.768 145.503 262.263 145.503 262.832C145.503 263.028 145.479 263.233 145.433 263.448C145.386 263.663 145.316 263.887 145.223 264.12C145.129 264.344 145.003 264.587 144.845 264.848C144.695 265.1 144.513 265.366 144.299 265.646C144.084 265.926 143.832 266.225 143.543 266.542L141.317 268.964L141.037 267.9H145.937V270H139.217ZM150.009 270.098C149.271 270.098 148.599 269.949 147.993 269.65C147.395 269.351 146.901 268.922 146.509 268.362L147.783 266.962C148.165 267.382 148.52 267.671 148.847 267.83C149.173 267.979 149.537 268.054 149.939 268.054C150.237 268.054 150.503 267.993 150.737 267.872C150.97 267.751 151.152 267.583 151.283 267.368C151.423 267.144 151.493 266.897 151.493 266.626C151.493 266.346 151.423 266.099 151.283 265.884C151.152 265.66 150.97 265.483 150.737 265.352C150.513 265.221 150.251 265.156 149.953 265.156C149.738 265.156 149.537 265.175 149.351 265.212C149.164 265.249 148.963 265.315 148.749 265.408C148.543 265.492 148.296 265.618 148.007 265.786L146.999 264.442L147.601 260.116H153.229V262.118H148.735L149.351 261.334L148.889 264.442L148.049 264.162C148.226 264.003 148.441 263.863 148.693 263.742C148.954 263.621 149.234 263.523 149.533 263.448C149.831 263.364 150.13 263.322 150.429 263.322C151.045 263.322 151.595 263.467 152.081 263.756C152.575 264.036 152.967 264.428 153.257 264.932C153.546 265.436 153.691 266.015 153.691 266.668C153.691 267.312 153.527 267.895 153.201 268.418C152.874 268.931 152.435 269.342 151.885 269.65C151.334 269.949 150.709 270.098 150.009 270.098Z" fill="#F59E0B"/>
<mask id="path-20-inside-7_28_306" fill="white">
<path d="M41 293C41 290.791 42.7909 289 45 289H197C199.209 289 201 290.791 201 293V318C201 320.209 199.209 322 197 322H45C42.7909 322 41 320.209 41 318V293Z"/>
</mask>
<path d="M41 293C41 290.791 42.7909 289 45 289H197C199.209 289 201 290.791 201 293V318C201 320.209 199.209 322 197 322H45C42.7909 322 41 320.209 41 318V293Z" fill="#0F1521"/>
<path d="M45 289V290H197V289V288H45V289ZM201 293H200V318H201H202V293H201ZM197 322V321H45V322V323H197V322ZM41 318H42V293H41H40V318H41ZM45 322V321C43.3431 321 42 319.657 42 318H41H40C40 320.761 42.2386 323 45 323V322ZM201 318H200C200 319.657 198.657 321 197 321V322V323C199.761 323 202 320.761 202 318H201ZM197 289V290C198.657 290 200 291.343 200 293H201H202C202 290.239 199.761 288 197 288V289ZM45 289V288C42.2386 288 40 290.239 40 293H41H42C42 291.343 43.3431 290 45 290V289Z" fill="#00B4FF" mask="url(#path-20-inside-7_28_306)"/>
<path d="M90.8093 311.098C90.072 311.098 89.4 310.949 88.7933 310.65C88.196 310.351 87.7013 309.922 87.3093 309.362L88.5833 307.962C88.966 308.382 89.3207 308.671 89.6473 308.83C89.974 308.979 90.338 309.054 90.7393 309.054C91.038 309.054 91.304 308.993 91.5373 308.872C91.7707 308.751 91.9527 308.583 92.0833 308.368C92.2233 308.144 92.2933 307.897 92.2933 307.626C92.2933 307.346 92.2233 307.099 92.0833 306.884C91.9527 306.66 91.7707 306.483 91.5373 306.352C91.3133 306.221 91.052 306.156 90.7533 306.156C90.5387 306.156 90.338 306.175 90.1513 306.212C89.9647 306.249 89.764 306.315 89.5493 306.408C89.344 306.492 89.0967 306.618 88.8073 306.786L87.7993 305.442L88.4013 301.116H94.0293V303.118H89.5353L90.1513 302.334L89.6893 305.442L88.8493 305.162C89.0267 305.003 89.2413 304.863 89.4933 304.742C89.7547 304.621 90.0347 304.523 90.3333 304.448C90.632 304.364 90.9307 304.322 91.2293 304.322C91.8453 304.322 92.396 304.467 92.8813 304.756C93.376 305.036 93.768 305.428 94.0573 305.932C94.3467 306.436 94.4913 307.015 94.4913 307.668C94.4913 308.312 94.328 308.895 94.0013 309.418C93.6747 309.931 93.236 310.342 92.6853 310.65C92.1347 310.949 91.5093 311.098 90.8093 311.098ZM105.258 310.258L100.218 305.218L101.562 303.902L106.602 308.942L105.258 310.258ZM101.562 310.3L100.246 308.942L105.272 303.902L106.602 305.246L101.562 310.3ZM115.737 311C115.233 311 114.757 310.911 114.309 310.734C113.87 310.547 113.488 310.295 113.161 309.978C112.834 309.651 112.573 309.273 112.377 308.844C112.19 308.415 112.097 307.953 112.097 307.458C112.097 307.113 112.134 306.781 112.209 306.464C112.284 306.137 112.386 305.811 112.517 305.484C112.657 305.148 112.82 304.807 113.007 304.462C113.203 304.107 113.418 303.734 113.651 303.342L115.023 301.046H117.221L117.277 301.186L115.373 304.182C115.13 304.574 114.92 304.943 114.743 305.288C114.566 305.624 114.407 305.96 114.267 306.296C114.127 306.632 113.987 306.987 113.847 307.36L113.399 306.394C113.492 306.067 113.642 305.769 113.847 305.498C114.052 305.218 114.29 304.98 114.561 304.784C114.841 304.579 115.13 304.425 115.429 304.322C115.728 304.21 116.022 304.154 116.311 304.154C116.862 304.154 117.366 304.303 117.823 304.602C118.29 304.891 118.663 305.279 118.943 305.764C119.223 306.249 119.363 306.781 119.363 307.36C119.363 308.051 119.204 308.671 118.887 309.222C118.579 309.773 118.15 310.207 117.599 310.524C117.058 310.841 116.437 311 115.737 311ZM115.765 309.04C116.064 309.04 116.325 308.975 116.549 308.844C116.782 308.713 116.964 308.531 117.095 308.298C117.226 308.055 117.291 307.78 117.291 307.472C117.291 307.211 117.221 306.968 117.081 306.744C116.95 306.511 116.768 306.324 116.535 306.184C116.311 306.035 116.059 305.96 115.779 305.96C115.48 305.96 115.21 306.03 114.967 306.17C114.734 306.301 114.552 306.483 114.421 306.716C114.29 306.94 114.225 307.192 114.225 307.472C114.225 307.771 114.29 308.041 114.421 308.284C114.552 308.517 114.734 308.704 114.967 308.844C115.2 308.975 115.466 309.04 115.765 309.04ZM125.151 306.45V304.63H131.997V306.45H125.151ZM125.151 309.488V307.682H131.997V309.488H125.151Z" fill="white"/>
<path d="M141.438 311.14C140.645 311.14 139.949 310.977 139.352 310.65C138.764 310.314 138.227 309.74 137.742 308.928L139.45 307.822C139.655 308.149 139.865 308.41 140.08 308.606C140.304 308.802 140.533 308.947 140.766 309.04C141.009 309.124 141.261 309.166 141.522 309.166C141.783 309.166 142.021 309.11 142.236 308.998C142.46 308.877 142.637 308.709 142.768 308.494C142.908 308.279 142.978 308.037 142.978 307.766C142.978 307.477 142.917 307.234 142.796 307.038C142.684 306.833 142.516 306.679 142.292 306.576C142.077 306.473 141.816 306.422 141.508 306.422C141.368 306.422 141.219 306.441 141.06 306.478C140.901 306.506 140.733 306.548 140.556 306.604C140.379 306.66 140.197 306.735 140.01 306.828L139.492 305.442L141.872 302.852L142.516 303.202L138.428 303.118V301.116H144.448L144.882 301.984L141.648 305.456L141.088 304.798C141.163 304.761 141.284 304.728 141.452 304.7C141.629 304.663 141.797 304.644 141.956 304.644C142.395 304.644 142.805 304.723 143.188 304.882C143.571 305.041 143.911 305.26 144.21 305.54C144.509 305.82 144.742 306.151 144.91 306.534C145.078 306.907 145.162 307.309 145.162 307.738C145.162 308.391 144.994 308.975 144.658 309.488C144.331 309.992 143.883 310.393 143.314 310.692C142.754 310.991 142.129 311.14 141.438 311.14ZM150.409 311.14C149.532 311.14 148.781 310.939 148.155 310.538C147.539 310.137 147.068 309.563 146.741 308.816C146.415 308.06 146.251 307.155 146.251 306.1C146.251 305.045 146.415 304.145 146.741 303.398C147.068 302.642 147.539 302.063 148.155 301.662C148.781 301.261 149.532 301.06 150.409 301.06C151.287 301.06 152.038 301.261 152.663 301.662C153.289 302.063 153.765 302.642 154.091 303.398C154.418 304.145 154.581 305.045 154.581 306.1C154.581 307.155 154.418 308.06 154.091 308.816C153.765 309.563 153.289 310.137 152.663 310.538C152.038 310.939 151.287 311.14 150.409 311.14ZM150.409 309.124C151.016 309.124 151.483 308.863 151.809 308.34C152.145 307.817 152.313 307.071 152.313 306.1C152.313 305.101 152.145 304.336 151.809 303.804C151.483 303.263 151.016 302.992 150.409 302.992C149.803 302.992 149.331 303.263 148.995 303.804C148.669 304.336 148.505 305.101 148.505 306.1C148.505 307.071 148.669 307.817 148.995 308.34C149.331 308.863 149.803 309.124 150.409 309.124Z" fill="#F59E0B"/>
<mask id="path-23-inside-8_28_306" fill="white">
<path d="M41 334C41 331.791 42.7909 330 45 330H197C199.209 330 201 331.791 201 334V359C201 361.209 199.209 363 197 363H45C42.7909 363 41 361.209 41 359V334Z"/>
</mask>
<path d="M41 334C41 331.791 42.7909 330 45 330H197C199.209 330 201 331.791 201 334V359C201 361.209 199.209 363 197 363H45C42.7909 363 41 361.209 41 359V334Z" fill="#0F1521"/>
<path d="M45 330V331H197V330V329H45V330ZM201 334H200V359H201H202V334H201ZM197 363V362H45V363V364H197V363ZM41 359H42V334H41H40V359H41ZM45 363V362C43.3431 362 42 360.657 42 359H41H40C40 361.761 42.2386 364 45 364V363ZM201 359H200C200 360.657 198.657 362 197 362V363V364C199.761 364 202 361.761 202 359H201ZM197 330V331C198.657 331 200 332.343 200 334H201H202C202 331.239 199.761 329 197 329V330ZM45 330V329C42.2386 329 40 331.239 40 334H41H42C42 332.343 43.3431 331 45 331V330Z" fill="#00B4FF" mask="url(#path-23-inside-8_28_306)"/>
<path d="M91.5476 352.098C90.8103 352.098 90.1383 351.949 89.5316 351.65C88.9343 351.351 88.4396 350.922 88.0476 350.362L89.3216 348.962C89.7043 349.382 90.0589 349.671 90.3856 349.83C90.7123 349.979 91.0763 350.054 91.4776 350.054C91.7763 350.054 92.0423 349.993 92.2756 349.872C92.5089 349.751 92.6909 349.583 92.8216 349.368C92.9616 349.144 93.0316 348.897 93.0316 348.626C93.0316 348.346 92.9616 348.099 92.8216 347.884C92.6909 347.66 92.5089 347.483 92.2756 347.352C92.0516 347.221 91.7903 347.156 91.4916 347.156C91.2769 347.156 91.0763 347.175 90.8896 347.212C90.7029 347.249 90.5023 347.315 90.2876 347.408C90.0823 347.492 89.8349 347.618 89.5456 347.786L88.5376 346.442L89.1396 342.116H94.7676V344.118H90.2736L90.8896 343.334L90.4276 346.442L89.5876 346.162C89.7649 346.003 89.9796 345.863 90.2316 345.742C90.4929 345.621 90.7729 345.523 91.0716 345.448C91.3703 345.364 91.6689 345.322 91.9676 345.322C92.5836 345.322 93.1343 345.467 93.6196 345.756C94.1143 346.036 94.5063 346.428 94.7956 346.932C95.0849 347.436 95.2296 348.015 95.2296 348.668C95.2296 349.312 95.0663 349.895 94.7396 350.418C94.4129 350.931 93.9743 351.342 93.4236 351.65C92.8729 351.949 92.2476 352.098 91.5476 352.098ZM105.996 351.258L100.956 346.218L102.3 344.902L107.34 349.942L105.996 351.258ZM102.3 351.3L100.984 349.942L106.01 344.902L107.34 346.246L102.3 351.3ZM113.535 352L117.455 343.068L118.127 344.188H113.003V342.116H119.387L119.611 343.25L115.915 352H113.535ZM125.52 347.45V345.63H132.366V347.45H125.52ZM125.52 350.488V348.682H132.366V350.488H125.52Z" fill="white"/>
<path d="M141.807 352.14C141.014 352.14 140.318 351.977 139.721 351.65C139.133 351.314 138.596 350.74 138.111 349.928L139.819 348.822C140.024 349.149 140.234 349.41 140.449 349.606C140.673 349.802 140.902 349.947 141.135 350.04C141.378 350.124 141.63 350.166 141.891 350.166C142.152 350.166 142.39 350.11 142.605 349.998C142.829 349.877 143.006 349.709 143.137 349.494C143.277 349.279 143.347 349.037 143.347 348.766C143.347 348.477 143.286 348.234 143.165 348.038C143.053 347.833 142.885 347.679 142.661 347.576C142.446 347.473 142.185 347.422 141.877 347.422C141.737 347.422 141.588 347.441 141.429 347.478C141.27 347.506 141.102 347.548 140.925 347.604C140.748 347.66 140.566 347.735 140.379 347.828L139.861 346.442L142.241 343.852L142.885 344.202L138.797 344.118V342.116H144.817L145.251 342.984L142.017 346.456L141.457 345.798C141.532 345.761 141.653 345.728 141.821 345.7C141.998 345.663 142.166 345.644 142.325 345.644C142.764 345.644 143.174 345.723 143.557 345.882C143.94 346.041 144.28 346.26 144.579 346.54C144.878 346.82 145.111 347.151 145.279 347.534C145.447 347.907 145.531 348.309 145.531 348.738C145.531 349.391 145.363 349.975 145.027 350.488C144.7 350.992 144.252 351.393 143.683 351.692C143.123 351.991 142.498 352.14 141.807 352.14ZM150.009 352.098C149.271 352.098 148.599 351.949 147.993 351.65C147.395 351.351 146.901 350.922 146.509 350.362L147.783 348.962C148.165 349.382 148.52 349.671 148.847 349.83C149.173 349.979 149.537 350.054 149.939 350.054C150.237 350.054 150.503 349.993 150.737 349.872C150.97 349.751 151.152 349.583 151.283 349.368C151.423 349.144 151.493 348.897 151.493 348.626C151.493 348.346 151.423 348.099 151.283 347.884C151.152 347.66 150.97 347.483 150.737 347.352C150.513 347.221 150.251 347.156 149.953 347.156C149.738 347.156 149.537 347.175 149.351 347.212C149.164 347.249 148.963 347.315 148.749 347.408C148.543 347.492 148.296 347.618 148.007 347.786L146.999 346.442L147.601 342.116H153.229V344.118H148.735L149.351 343.334L148.889 346.442L148.049 346.162C148.226 346.003 148.441 345.863 148.693 345.742C148.954 345.621 149.234 345.523 149.533 345.448C149.831 345.364 150.13 345.322 150.429 345.322C151.045 345.322 151.595 345.467 152.081 345.756C152.575 346.036 152.967 346.428 153.257 346.932C153.546 347.436 153.691 348.015 153.691 348.668C153.691 349.312 153.527 349.895 153.201 350.418C152.874 350.931 152.435 351.342 151.885 351.65C151.334 351.949 150.709 352.098 150.009 352.098Z" fill="#F59E0B"/>
<mask id="path-26-inside-9_28_306" fill="white">
<path d="M41 375C41 372.791 42.7909 371 45 371H197C199.209 371 201 372.791 201 375V400C201 402.209 199.209 404 197 404H45C42.7909 404 41 402.209 41 400V375Z"/>
</mask>
<path d="M41 375C41 372.791 42.7909 371 45 371H197C199.209 371 201 372.791 201 375V400C201 402.209 199.209 404 197 404H45C42.7909 404 41 402.209 41 400V375Z" fill="#0F1521"/>
<path d="M45 371V372H197V371V370H45V371ZM201 375H200V400H201H202V375H201ZM197 404V403H45V404V405H197V404ZM41 400H42V375H41H40V400H41ZM45 404V403C43.3431 403 42 401.657 42 400H41H40C40 402.761 42.2386 405 45 405V404ZM201 400H200C200 401.657 198.657 403 197 403V404V405C199.761 405 202 402.761 202 400H201ZM197 371V372C198.657 372 200 373.343 200 375H201H202C202 372.239 199.761 370 197 370V371ZM45 371V370C42.2386 370 40 372.239 40 375H41H42C42 373.343 43.3431 372 45 372V371Z" fill="#00B4FF" mask="url(#path-26-inside-9_28_306)"/>
<path d="M90.1736 393.098C89.4363 393.098 88.7643 392.949 88.1576 392.65C87.5603 392.351 87.0656 391.922 86.6736 391.362L87.9476 389.962C88.3303 390.382 88.6849 390.671 89.0116 390.83C89.3383 390.979 89.7023 391.054 90.1036 391.054C90.4023 391.054 90.6683 390.993 90.9016 390.872C91.1349 390.751 91.3169 390.583 91.4476 390.368C91.5876 390.144 91.6576 389.897 91.6576 389.626C91.6576 389.346 91.5876 389.099 91.4476 388.884C91.3169 388.66 91.1349 388.483 90.9016 388.352C90.6776 388.221 90.4163 388.156 90.1176 388.156C89.9029 388.156 89.7023 388.175 89.5156 388.212C89.3289 388.249 89.1283 388.315 88.9136 388.408C88.7083 388.492 88.4609 388.618 88.1716 388.786L87.1636 387.442L87.7656 383.116H93.3936V385.118H88.8996L89.5156 384.334L89.0536 387.442L88.2136 387.162C88.3909 387.003 88.6056 386.863 88.8576 386.742C89.1189 386.621 89.3989 386.523 89.6976 386.448C89.9963 386.364 90.2949 386.322 90.5936 386.322C91.2096 386.322 91.7603 386.467 92.2456 386.756C92.7403 387.036 93.1323 387.428 93.4216 387.932C93.7109 388.436 93.8556 389.015 93.8556 389.668C93.8556 390.312 93.6923 390.895 93.3656 391.418C93.0389 391.931 92.6003 392.342 92.0496 392.65C91.4989 392.949 90.8736 393.098 90.1736 393.098ZM104.622 392.258L99.5818 387.218L100.926 385.902L105.966 390.942L104.622 392.258ZM100.926 392.3L99.6098 390.942L104.636 385.902L105.966 387.246L100.926 392.3ZM115.171 393.042C114.499 393.042 113.888 392.916 113.337 392.664C112.796 392.403 112.362 392.053 112.035 391.614C111.709 391.175 111.545 390.681 111.545 390.13C111.545 389.766 111.592 389.439 111.685 389.15C111.779 388.851 111.919 388.59 112.105 388.366C112.301 388.133 112.535 387.937 112.805 387.778C113.085 387.61 113.403 387.475 113.757 387.372L113.589 387.932C113.328 387.829 113.09 387.703 112.875 387.554C112.661 387.405 112.479 387.237 112.329 387.05C112.18 386.854 112.063 386.644 111.979 386.42C111.905 386.196 111.867 385.963 111.867 385.72C111.867 385.197 112.012 384.735 112.301 384.334C112.6 383.933 112.997 383.62 113.491 383.396C113.995 383.163 114.555 383.046 115.171 383.046C115.778 383.046 116.329 383.163 116.823 383.396C117.327 383.62 117.729 383.933 118.027 384.334C118.326 384.735 118.475 385.197 118.475 385.72C118.475 385.963 118.438 386.196 118.363 386.42C118.289 386.644 118.177 386.849 118.027 387.036C117.878 387.213 117.696 387.381 117.481 387.54C117.267 387.689 117.019 387.82 116.739 387.932L116.613 387.428C116.931 387.512 117.225 387.633 117.495 387.792C117.766 387.941 117.999 388.133 118.195 388.366C118.391 388.59 118.541 388.851 118.643 389.15C118.755 389.439 118.811 389.766 118.811 390.13C118.811 390.69 118.648 391.189 118.321 391.628C117.995 392.067 117.556 392.412 117.005 392.664C116.455 392.916 115.843 393.042 115.171 393.042ZM115.171 391.166C115.433 391.166 115.666 391.115 115.871 391.012C116.077 390.909 116.24 390.769 116.361 390.592C116.483 390.415 116.543 390.209 116.543 389.976C116.543 389.733 116.483 389.523 116.361 389.346C116.249 389.159 116.086 389.015 115.871 388.912C115.666 388.8 115.433 388.744 115.171 388.744C114.91 388.744 114.677 388.8 114.471 388.912C114.266 389.015 114.103 389.159 113.981 389.346C113.86 389.523 113.799 389.733 113.799 389.976C113.799 390.2 113.86 390.401 113.981 390.578C114.103 390.755 114.266 390.9 114.471 391.012C114.677 391.115 114.91 391.166 115.171 391.166ZM115.171 386.854C115.395 386.854 115.596 386.812 115.773 386.728C115.96 386.635 116.105 386.513 116.207 386.364C116.31 386.205 116.361 386.023 116.361 385.818C116.361 385.613 116.31 385.431 116.207 385.272C116.105 385.113 115.96 384.987 115.773 384.894C115.596 384.801 115.395 384.754 115.171 384.754C114.938 384.754 114.728 384.801 114.541 384.894C114.364 384.987 114.224 385.113 114.121 385.272C114.019 385.431 113.967 385.613 113.967 385.818C113.967 386.023 114.019 386.205 114.121 386.364C114.224 386.513 114.364 386.635 114.541 386.728C114.728 386.812 114.938 386.854 115.171 386.854ZM124.789 388.45V386.63H131.635V388.45H124.789ZM124.789 391.488V389.682H131.635V391.488H124.789Z" fill="white"/>
<path d="M141.944 393V385.076L143.218 385.104L139.676 389.444L139.34 389.024H145.836V390.984H138.276L137.324 389.15L142.322 383.116H144.24V393H141.944ZM151.045 393.14C150.168 393.14 149.416 392.939 148.791 392.538C148.175 392.137 147.704 391.563 147.377 390.816C147.05 390.06 146.887 389.155 146.887 388.1C146.887 387.045 147.05 386.145 147.377 385.398C147.704 384.642 148.175 384.063 148.791 383.662C149.416 383.261 150.168 383.06 151.045 383.06C151.922 383.06 152.674 383.261 153.299 383.662C153.924 384.063 154.4 384.642 154.727 385.398C155.054 386.145 155.217 387.045 155.217 388.1C155.217 389.155 155.054 390.06 154.727 390.816C154.4 391.563 153.924 392.137 153.299 392.538C152.674 392.939 151.922 393.14 151.045 393.14ZM151.045 391.124C151.652 391.124 152.118 390.863 152.445 390.34C152.781 389.817 152.949 389.071 152.949 388.1C152.949 387.101 152.781 386.336 152.445 385.804C152.118 385.263 151.652 384.992 151.045 384.992C150.438 384.992 149.967 385.263 149.631 385.804C149.304 386.336 149.141 387.101 149.141 388.1C149.141 389.071 149.304 389.817 149.631 390.34C149.967 390.863 150.438 391.124 151.045 391.124Z" fill="#F59E0B"/>
<mask id="path-29-inside-10_28_306" fill="white">
<path d="M41 416C41 413.791 42.7909 412 45 412H197C199.209 412 201 413.791 201 416V441C201 443.209 199.209 445 197 445H45C42.7909 445 41 443.209 41 441V416Z"/>
</mask>
<path d="M41 416C41 413.791 42.7909 412 45 412H197C199.209 412 201 413.791 201 416V441C201 443.209 199.209 445 197 445H45C42.7909 445 41 443.209 41 441V416Z" fill="#0F1521"/>
<path d="M45 412V413H197V412V411H45V412ZM201 416H200V441H201H202V416H201ZM197 445V444H45V445V446H197V445ZM41 441H42V416H41H40V441H41ZM45 445V444C43.3431 444 42 442.657 42 441H41H40C40 443.761 42.2386 446 45 446V445ZM201 441H200C200 442.657 198.657 444 197 444V445V446C199.761 446 202 443.761 202 441H201ZM197 412V413C198.657 413 200 414.343 200 416H201H202C202 413.239 199.761 411 197 411V412ZM45 412V411C42.2386 411 40 413.239 40 416H41H42C42 414.343 43.3431 413 45 413V412Z" fill="#00B4FF" mask="url(#path-29-inside-10_28_306)"/>
<path d="M90.8777 434.098C90.1404 434.098 89.4684 433.949 88.8617 433.65C88.2644 433.351 87.7697 432.922 87.3777 432.362L88.6517 430.962C89.0344 431.382 89.389 431.671 89.7157 431.83C90.0424 431.979 90.4064 432.054 90.8077 432.054C91.1064 432.054 91.3724 431.993 91.6057 431.872C91.839 431.751 92.021 431.583 92.1517 431.368C92.2917 431.144 92.3617 430.897 92.3617 430.626C92.3617 430.346 92.2917 430.099 92.1517 429.884C92.021 429.66 91.839 429.483 91.6057 429.352C91.3817 429.221 91.1204 429.156 90.8217 429.156C90.607 429.156 90.4064 429.175 90.2197 429.212C90.033 429.249 89.8324 429.315 89.6177 429.408C89.4124 429.492 89.165 429.618 88.8757 429.786L87.8677 428.442L88.4697 424.116H94.0977V426.118H89.6037L90.2197 425.334L89.7577 428.442L88.9177 428.162C89.095 428.003 89.3097 427.863 89.5617 427.742C89.823 427.621 90.103 427.523 90.4017 427.448C90.7004 427.364 90.999 427.322 91.2977 427.322C91.9137 427.322 92.4644 427.467 92.9497 427.756C93.4444 428.036 93.8364 428.428 94.1257 428.932C94.415 429.436 94.5597 430.015 94.5597 430.668C94.5597 431.312 94.3964 431.895 94.0697 432.418C93.743 432.931 93.3044 433.342 92.7537 433.65C92.203 433.949 91.5777 434.098 90.8777 434.098ZM105.326 433.258L100.286 428.218L101.63 426.902L106.67 431.942L105.326 433.258ZM101.63 433.3L100.314 431.942L105.34 426.902L106.67 428.246L101.63 433.3ZM114.601 434L114.545 433.86L117.611 427.672L118.017 428.512C117.924 428.848 117.775 429.151 117.569 429.422C117.364 429.693 117.117 429.931 116.827 430.136C116.547 430.332 116.253 430.486 115.945 430.598C115.637 430.701 115.343 430.752 115.063 430.752C114.531 430.752 114.041 430.607 113.593 430.318C113.145 430.029 112.786 429.641 112.515 429.156C112.245 428.671 112.109 428.143 112.109 427.574C112.109 426.902 112.268 426.295 112.585 425.754C112.912 425.203 113.351 424.769 113.901 424.452C114.452 424.125 115.073 423.962 115.763 423.962C116.267 423.962 116.739 424.051 117.177 424.228C117.616 424.405 117.999 424.653 118.325 424.97C118.661 425.278 118.923 425.637 119.109 426.048C119.296 426.459 119.389 426.893 119.389 427.35C119.389 427.686 119.361 428.017 119.305 428.344C119.249 428.661 119.161 428.988 119.039 429.324C118.918 429.66 118.773 430.01 118.605 430.374C118.447 430.738 118.26 431.135 118.045 431.564L116.813 434H114.601ZM115.637 428.876C115.927 428.876 116.183 428.811 116.407 428.68C116.631 428.549 116.804 428.377 116.925 428.162C117.056 427.938 117.121 427.691 117.121 427.42C117.121 427.131 117.056 426.874 116.925 426.65C116.804 426.417 116.631 426.235 116.407 426.104C116.193 425.973 115.941 425.908 115.651 425.908C115.371 425.908 115.124 425.973 114.909 426.104C114.704 426.225 114.536 426.403 114.405 426.636C114.284 426.86 114.223 427.121 114.223 427.42C114.223 427.672 114.284 427.91 114.405 428.134C114.536 428.349 114.709 428.526 114.923 428.666C115.138 428.806 115.376 428.876 115.637 428.876ZM125.192 429.45V427.63H132.038V429.45H125.192ZM125.192 432.488V430.682H132.038V432.488H125.192Z" fill="white"/>
<path d="M142.347 434V426.076L143.621 426.104L140.079 430.444L139.743 430.024H146.239V431.984H138.679L137.727 430.15L142.725 424.116H144.643V434H142.347ZM150.678 434.098C149.941 434.098 149.269 433.949 148.662 433.65C148.065 433.351 147.57 432.922 147.178 432.362L148.452 430.962C148.835 431.382 149.19 431.671 149.516 431.83C149.843 431.979 150.207 432.054 150.608 432.054C150.907 432.054 151.173 431.993 151.406 431.872C151.64 431.751 151.822 431.583 151.952 431.368C152.092 431.144 152.162 430.897 152.162 430.626C152.162 430.346 152.092 430.099 151.952 429.884C151.822 429.66 151.64 429.483 151.406 429.352C151.182 429.221 150.921 429.156 150.622 429.156C150.408 429.156 150.207 429.175 150.02 429.212C149.834 429.249 149.633 429.315 149.418 429.408C149.213 429.492 148.966 429.618 148.676 429.786L147.668 428.442L148.27 424.116H153.898V426.118H149.404L150.02 425.334L149.558 428.442L148.718 428.162C148.896 428.003 149.11 427.863 149.362 427.742C149.624 427.621 149.904 427.523 150.202 427.448C150.501 427.364 150.8 427.322 151.098 427.322C151.714 427.322 152.265 427.467 152.75 427.756C153.245 428.036 153.637 428.428 153.926 428.932C154.216 429.436 154.36 430.015 154.36 430.668C154.36 431.312 154.197 431.895 153.87 432.418C153.544 432.931 153.105 433.342 152.554 433.65C152.004 433.949 151.378 434.098 150.678 434.098Z" fill="#F59E0B"/>
<mask id="path-32-inside-11_28_306" fill="white">
<path d="M41 457C41 454.791 42.7909 453 45 453H197C199.209 453 201 454.791 201 457V482C201 484.209 199.209 486 197 486H45C42.7909 486 41 484.209 41 482V457Z"/>
</mask>
<path d="M41 457C41 454.791 42.7909 453 45 453H197C199.209 453 201 454.791 201 457V482C201 484.209 199.209 486 197 486H45C42.7909 486 41 484.209 41 482V457Z" fill="#0F1521"/>
<path d="M45 453V454H197V453V452H45V453ZM201 457H200V482H201H202V457H201ZM197 486V485H45V486V487H197V486ZM41 482H42V457H41H40V482H41ZM45 486V485C43.3431 485 42 483.657 42 482H41H40C40 484.761 42.2386 487 45 487V486ZM201 482H200C200 483.657 198.657 485 197 485V486V487C199.761 487 202 484.761 202 482H201ZM197 453V454C198.657 454 200 455.343 200 457H201H202C202 454.239 199.761 452 197 452V453ZM45 453V452C42.2386 452 40 454.239 40 457H41H42C42 455.343 43.3431 454 45 454V453Z" fill="#00B4FF" mask="url(#path-32-inside-11_28_306)"/>
<path d="M86.1814 475.098C85.4441 475.098 84.7721 474.949 84.1654 474.65C83.5681 474.351 83.0734 473.922 82.6814 473.362L83.9554 471.962C84.3381 472.382 84.6927 472.671 85.0194 472.83C85.3461 472.979 85.7101 473.054 86.1114 473.054C86.4101 473.054 86.6761 472.993 86.9094 472.872C87.1427 472.751 87.3247 472.583 87.4554 472.368C87.5954 472.144 87.6654 471.897 87.6654 471.626C87.6654 471.346 87.5954 471.099 87.4554 470.884C87.3247 470.66 87.1427 470.483 86.9094 470.352C86.6854 470.221 86.4241 470.156 86.1254 470.156C85.9107 470.156 85.7101 470.175 85.5234 470.212C85.3367 470.249 85.1361 470.315 84.9214 470.408C84.7161 470.492 84.4687 470.618 84.1794 470.786L83.1714 469.442L83.7734 465.116H89.4014V467.118H84.9074L85.5234 466.334L85.0614 469.442L84.2214 469.162C84.3987 469.003 84.6134 468.863 84.8654 468.742C85.1267 468.621 85.4067 468.523 85.7054 468.448C86.0041 468.364 86.3027 468.322 86.6014 468.322C87.2174 468.322 87.7681 468.467 88.2534 468.756C88.7481 469.036 89.1401 469.428 89.4294 469.932C89.7187 470.436 89.8634 471.015 89.8634 471.668C89.8634 472.312 89.7001 472.895 89.3734 473.418C89.0467 473.931 88.6081 474.342 88.0574 474.65C87.5067 474.949 86.8814 475.098 86.1814 475.098ZM100.63 474.258L95.5896 469.218L96.9336 467.902L101.974 472.942L100.63 474.258ZM96.9336 474.3L95.6176 472.942L100.644 467.902L101.974 469.246L96.9336 474.3ZM109.947 474.314V466.362L110.465 467.552L108.365 468.546L107.959 466.418L110.745 465.06H112.285V474.314H109.947ZM108.155 475V472.9H114.119V475H108.155ZM119.559 475.14C118.681 475.14 117.93 474.939 117.305 474.538C116.689 474.137 116.217 473.563 115.891 472.816C115.564 472.06 115.401 471.155 115.401 470.1C115.401 469.045 115.564 468.145 115.891 467.398C116.217 466.642 116.689 466.063 117.305 465.662C117.93 465.261 118.681 465.06 119.559 465.06C120.436 465.06 121.187 465.261 121.813 465.662C122.438 466.063 122.914 466.642 123.241 467.398C123.567 468.145 123.731 469.045 123.731 470.1C123.731 471.155 123.567 472.06 123.241 472.816C122.914 473.563 122.438 474.137 121.813 474.538C121.187 474.939 120.436 475.14 119.559 475.14ZM119.559 473.124C120.165 473.124 120.632 472.863 120.959 472.34C121.295 471.817 121.463 471.071 121.463 470.1C121.463 469.101 121.295 468.336 120.959 467.804C120.632 467.263 120.165 466.992 119.559 466.992C118.952 466.992 118.481 467.263 118.145 467.804C117.818 468.336 117.655 469.101 117.655 470.1C117.655 471.071 117.818 471.817 118.145 472.34C118.481 472.863 118.952 473.124 119.559 473.124ZM129.71 470.45V468.63H136.556V470.45H129.71ZM129.71 473.488V471.682H136.556V473.488H129.71Z" fill="white"/>
<path d="M145.927 475.098C145.19 475.098 144.518 474.949 143.911 474.65C143.314 474.351 142.819 473.922 142.427 473.362L143.701 471.962C144.084 472.382 144.439 472.671 144.765 472.83C145.092 472.979 145.456 473.054 145.857 473.054C146.156 473.054 146.422 472.993 146.655 472.872C146.889 472.751 147.071 472.583 147.201 472.368C147.341 472.144 147.411 471.897 147.411 471.626C147.411 471.346 147.341 471.099 147.201 470.884C147.071 470.66 146.889 470.483 146.655 470.352C146.431 470.221 146.17 470.156 145.871 470.156C145.657 470.156 145.456 470.175 145.269 470.212C145.083 470.249 144.882 470.315 144.667 470.408C144.462 470.492 144.215 470.618 143.925 470.786L142.917 469.442L143.519 465.116H149.147V467.118H144.653L145.269 466.334L144.807 469.442L143.967 469.162C144.145 469.003 144.359 468.863 144.611 468.742C144.873 468.621 145.153 468.523 145.451 468.448C145.75 468.364 146.049 468.322 146.347 468.322C146.963 468.322 147.514 468.467 147.999 468.756C148.494 469.036 148.886 469.428 149.175 469.932C149.465 470.436 149.609 471.015 149.609 471.668C149.609 472.312 149.446 472.895 149.119 473.418C148.793 473.931 148.354 474.342 147.803 474.65C147.253 474.949 146.627 475.098 145.927 475.098ZM155.037 475.14C154.16 475.14 153.409 474.939 152.783 474.538C152.167 474.137 151.696 473.563 151.369 472.816C151.043 472.06 150.879 471.155 150.879 470.1C150.879 469.045 151.043 468.145 151.369 467.398C151.696 466.642 152.167 466.063 152.783 465.662C153.409 465.261 154.16 465.06 155.037 465.06C155.915 465.06 156.666 465.261 157.291 465.662C157.917 466.063 158.393 466.642 158.719 467.398C159.046 468.145 159.209 469.045 159.209 470.1C159.209 471.155 159.046 472.06 158.719 472.816C158.393 473.563 157.917 474.137 157.291 474.538C156.666 474.939 155.915 475.14 155.037 475.14ZM155.037 473.124C155.644 473.124 156.111 472.863 156.437 472.34C156.773 471.817 156.941 471.071 156.941 470.1C156.941 469.101 156.773 468.336 156.437 467.804C156.111 467.263 155.644 466.992 155.037 466.992C154.431 466.992 153.959 467.263 153.623 467.804C153.297 468.336 153.133 469.101 153.133 470.1C153.133 471.071 153.297 471.817 153.623 472.34C153.959 472.863 154.431 473.124 155.037 473.124Z" fill="#F59E0B"/>
</g>
<defs>
<filter id="filter0_d_28_306" x="0" y="0" width="242" height="530" filterUnits="userSpaceOnUse" color-interpolation-filters="sRGB">
<feFlood flood-opacity="0" result="BackgroundImageFix"/>
<feColorMatrix in="SourceAlpha" type="matrix" values="0 0 0 0 0 0 0 0 0 0 0 0 0 0 0 0 0 0 127 0" result="hardAlpha"/>
<feOffset/>
<feGaussianBlur stdDeviation="7.5"/>
<feComposite in2="hardAlpha" operator="out"/>
<feColorMatrix type="matrix" values="0 0 0 0 0 0 0 0 0 0.705882 0 0 0 0 1 0 0 0 0.2 0"/>
<feBlend mode="normal" in2="BackgroundImageFix" result="effect1_dropShadow_28_306"/>
<feBlend mode="normal" in="SourceGraphic" in2="effect1_dropShadow_28_306" result="shape"/>
</filter>
<linearGradient id="paint0_linear_28_306" x1="15" y1="15" x2="374.39" y2="167.381" gradientUnits="userSpaceOnUse">
<stop stop-color="#1A2332"/>
<stop offset="0.166667" stop-color="#18212F"/>
<stop offset="0.333333" stop-color="#161E2C"/>
<stop offset="0.5" stop-color="#141C29"/>
<stop offset="0.666667" stop-color="#131A27"/>
<stop offset="0.833333" stop-color="#111724"/>
<stop offset="1" stop-color="#0F1521"/>
</linearGradient>
</defs>
</svg>
