<svg width="242" height="530" viewBox="0 0 242 530" fill="none" xmlns="http://www.w3.org/2000/svg">
<g filter="url(#filter0_d_29_334)">
<mask id="path-1-inside-1_29_334" fill="white">
<path d="M15 25C15 19.4771 19.4772 15 25 15H217C222.523 15 227 19.4772 227 25V505C227 510.523 222.523 515 217 515H25C19.4772 515 15 510.523 15 505V25Z"/>
</mask>
<path d="M15 25C15 19.4771 19.4772 15 25 15H217C222.523 15 227 19.4772 227 25V505C227 510.523 222.523 515 217 515H25C19.4772 515 15 510.523 15 505V25Z" fill="url(#paint0_linear_29_334)" shape-rendering="crispEdges"/>
<path d="M25 15V17H217V15V13H25V15ZM227 25H225V505H227H229V25H227ZM217 515V513H25V515V517H217V515ZM15 505H17V25H15H13V505H15ZM25 515V513C20.5817 513 17 509.418 17 505H15H13C13 511.627 18.3726 517 25 517V515ZM227 505H225C225 509.418 221.418 513 217 513V515V517C223.627 517 229 511.627 229 505H227ZM217 15V17C221.418 17 225 20.5817 225 25H227H229C229 18.3726 223.627 13 217 13V15ZM25 15V13C18.3726 13 13 18.3726 13 25H15H17C17 20.5817 20.5817 17 25 17V15Z" fill="#00B4FF" mask="url(#path-1-inside-1_29_334)"/>
<path d="M41 39C41 33.4772 45.4772 29 51 29H191C196.523 29 201 33.4772 201 39V70C201 75.5228 196.523 80 191 80H51C45.4772 80 41 75.5228 41 70V39Z" fill="#00B4FF"/>
<path d="M59.6819 64V50.8H54.6899V47.2H68.8739V50.8H63.7619V64H59.6819ZM73.6658 64.216C72.5938 64.216 71.6338 63.936 70.7858 63.376C69.9538 62.8 69.2898 62.016 68.7938 61.024C68.2978 60.016 68.0498 58.88 68.0498 57.616C68.0498 56.32 68.2978 55.176 68.7938 54.184C69.2898 53.192 69.9698 52.416 70.8338 51.856C71.6978 51.28 72.6818 50.992 73.7858 50.992C74.3938 50.992 74.9458 51.08 75.4418 51.256C75.9538 51.432 76.4018 51.68 76.7858 52C77.1698 52.304 77.4978 52.664 77.7698 53.08C78.0418 53.48 78.2418 53.912 78.3698 54.376L77.5778 54.28V51.256H81.3938V64H77.5058V60.928L78.3698 60.904C78.2418 61.352 78.0338 61.776 77.7458 62.176C77.4578 62.576 77.1058 62.928 76.6898 63.232C76.2738 63.536 75.8098 63.776 75.2978 63.952C74.7858 64.128 74.2418 64.216 73.6658 64.216ZM74.7218 60.976C75.3138 60.976 75.8258 60.84 76.2578 60.568C76.6898 60.296 77.0258 59.912 77.2658 59.416C77.5058 58.904 77.6258 58.304 77.6258 57.616C77.6258 56.928 77.5058 56.336 77.2658 55.84C77.0258 55.328 76.6898 54.936 76.2578 54.664C75.8258 54.376 75.3138 54.232 74.7218 54.232C74.1458 54.232 73.6418 54.376 73.2098 54.664C72.7938 54.936 72.4658 55.328 72.2258 55.84C71.9858 56.336 71.8658 56.928 71.8658 57.616C71.8658 58.304 71.9858 58.904 72.2258 59.416C72.4658 59.912 72.7938 60.296 73.2098 60.568C73.6418 60.84 74.1458 60.976 74.7218 60.976ZM92.4381 64.264C91.8621 64.264 91.3101 64.184 90.7821 64.024C90.2541 63.864 89.7741 63.648 89.3421 63.376C88.9261 63.104 88.5741 62.792 88.2861 62.44C88.0141 62.072 87.8301 61.696 87.7341 61.312L88.5741 61.024L88.3581 63.976H84.7821V46.24H88.6461V54.304L87.8541 54.016C87.9501 53.6 88.1341 53.216 88.4061 52.864C88.6781 52.496 89.0221 52.176 89.4381 51.904C89.8541 51.616 90.3101 51.392 90.8061 51.232C91.3021 51.072 91.8141 50.992 92.3421 50.992C93.4461 50.992 94.4221 51.28 95.2701 51.856C96.1341 52.416 96.8141 53.2 97.3101 54.208C97.8061 55.2 98.0541 56.336 98.0541 57.616C98.0541 58.912 97.8061 60.064 97.3101 61.072C96.8301 62.064 96.1661 62.848 95.3181 63.424C94.4701 63.984 93.5101 64.264 92.4381 64.264ZM91.4301 61.024C92.0061 61.024 92.5101 60.88 92.9421 60.592C93.3741 60.304 93.7021 59.912 93.9261 59.416C94.1661 58.904 94.2861 58.304 94.2861 57.616C94.2861 56.944 94.1661 56.352 93.9261 55.84C93.7021 55.328 93.3741 54.936 92.9421 54.664C92.5101 54.392 92.0061 54.256 91.4301 54.256C90.8381 54.256 90.3261 54.392 89.8941 54.664C89.4621 54.936 89.1261 55.328 88.8861 55.84C88.6461 56.352 88.5261 56.944 88.5261 57.616C88.5261 58.304 88.6461 58.904 88.8861 59.416C89.1261 59.912 89.4621 60.304 89.8941 60.592C90.3261 60.88 90.8381 61.024 91.4301 61.024ZM100.603 64V46.24H104.443V64H100.603ZM112.338 64.216C111.266 64.216 110.306 63.936 109.458 63.376C108.626 62.8 107.962 62.016 107.466 61.024C106.97 60.016 106.722 58.88 106.722 57.616C106.722 56.32 106.97 55.176 107.466 54.184C107.962 53.192 108.642 52.416 109.506 51.856C110.37 51.28 111.354 50.992 112.458 50.992C113.066 50.992 113.618 51.08 114.114 51.256C114.626 51.432 115.074 51.68 115.458 52C115.842 52.304 116.17 52.664 116.442 53.08C116.714 53.48 116.914 53.912 117.042 54.376L116.25 54.28V51.256H120.066V64H116.178V60.928L117.042 60.904C116.914 61.352 116.706 61.776 116.418 62.176C116.13 62.576 115.778 62.928 115.362 63.232C114.946 63.536 114.482 63.776 113.97 63.952C113.458 64.128 112.914 64.216 112.338 64.216ZM113.394 60.976C113.986 60.976 114.498 60.84 114.93 60.568C115.362 60.296 115.698 59.912 115.938 59.416C116.178 58.904 116.298 58.304 116.298 57.616C116.298 56.928 116.178 56.336 115.938 55.84C115.698 55.328 115.362 54.936 114.93 54.664C114.498 54.376 113.986 54.232 113.394 54.232C112.818 54.232 112.314 54.376 111.882 54.664C111.466 54.936 111.138 55.328 110.898 55.84C110.658 56.336 110.538 56.928 110.538 57.616C110.538 58.304 110.658 58.904 110.898 59.416C111.138 59.912 111.466 60.296 111.882 60.568C112.314 60.84 112.818 60.976 113.394 60.976ZM135.966 64.264C134.862 64.264 133.878 63.984 133.014 63.424C132.166 62.848 131.494 62.064 130.998 61.072C130.502 60.064 130.254 58.92 130.254 57.64C130.254 56.36 130.502 55.224 130.998 54.232C131.494 53.224 132.174 52.432 133.038 51.856C133.902 51.28 134.894 50.992 136.014 50.992C136.59 50.992 137.142 51.08 137.67 51.256C138.198 51.432 138.678 51.672 139.11 51.976C139.542 52.28 139.894 52.632 140.166 53.032C140.438 53.416 140.598 53.816 140.646 54.232L139.734 54.448V46.24H143.598V64H140.022L139.806 61.096L140.574 61.216C140.526 61.616 140.366 62 140.094 62.368C139.838 62.736 139.502 63.064 139.086 63.352C138.67 63.624 138.19 63.84 137.646 64C137.118 64.176 136.558 64.264 135.966 64.264ZM136.95 61.072C137.542 61.072 138.054 60.928 138.486 60.64C138.918 60.352 139.246 59.952 139.47 59.44C139.71 58.928 139.83 58.328 139.83 57.64C139.83 56.936 139.71 56.328 139.47 55.816C139.246 55.304 138.918 54.904 138.486 54.616C138.054 54.328 137.542 54.184 136.95 54.184C136.358 54.184 135.846 54.328 135.414 54.616C134.998 54.904 134.67 55.304 134.43 55.816C134.19 56.328 134.07 56.936 134.07 57.64C134.07 58.328 134.19 58.928 134.43 59.44C134.67 59.952 134.998 60.352 135.414 60.64C135.846 60.928 136.358 61.072 136.95 61.072ZM152.917 64.24C151.509 64.24 150.285 63.96 149.245 63.4C148.205 62.824 147.397 62.048 146.821 61.072C146.245 60.08 145.957 58.952 145.957 57.688C145.957 56.712 146.117 55.816 146.437 55C146.757 54.184 147.205 53.48 147.781 52.888C148.357 52.28 149.037 51.816 149.821 51.496C150.621 51.16 151.493 50.992 152.437 50.992C153.333 50.992 154.149 51.152 154.885 51.472C155.637 51.792 156.285 52.24 156.829 52.816C157.373 53.392 157.789 54.072 158.077 54.856C158.365 55.64 158.493 56.496 158.461 57.424L158.437 58.456H148.285L147.733 56.296H155.317L154.909 56.752V56.272C154.877 55.872 154.749 55.52 154.525 55.216C154.317 54.896 154.037 54.648 153.685 54.472C153.333 54.296 152.933 54.208 152.485 54.208C151.861 54.208 151.325 54.336 150.877 54.592C150.445 54.832 150.117 55.192 149.893 55.672C149.669 56.136 149.557 56.712 149.557 57.4C149.557 58.104 149.701 58.72 149.989 59.248C150.293 59.76 150.725 60.16 151.285 60.448C151.861 60.736 152.541 60.88 153.325 60.88C153.869 60.88 154.349 60.8 154.765 60.64C155.197 60.48 155.661 60.208 156.157 59.824L157.957 62.368C157.461 62.8 156.933 63.152 156.373 63.424C155.813 63.696 155.237 63.896 154.645 64.024C154.069 64.168 153.493 64.24 152.917 64.24ZM160.931 64V46.24H164.771V64H160.931ZM181.236 64C180.372 64 179.556 63.848 178.788 63.544C178.036 63.224 177.38 62.792 176.82 62.248C176.26 61.688 175.812 61.04 175.476 60.304C175.156 59.568 174.996 58.776 174.996 57.928C174.996 57.336 175.06 56.768 175.188 56.224C175.316 55.664 175.492 55.104 175.716 54.544C175.956 53.968 176.236 53.384 176.556 52.792C176.892 52.184 177.26 51.544 177.66 50.872L180.012 46.936H183.78L183.876 47.176L180.612 52.312C180.196 52.984 179.836 53.616 179.532 54.208C179.228 54.784 178.956 55.36 178.716 55.936C178.476 56.512 178.236 57.12 177.996 57.76L177.228 56.104C177.388 55.544 177.644 55.032 177.996 54.568C178.348 54.088 178.756 53.68 179.22 53.344C179.7 52.992 180.196 52.728 180.708 52.552C181.22 52.36 181.724 52.264 182.22 52.264C183.164 52.264 184.028 52.52 184.812 53.032C185.612 53.528 186.252 54.192 186.732 55.024C187.212 55.856 187.452 56.768 187.452 57.76C187.452 58.944 187.18 60.008 186.636 60.952C186.108 61.896 185.372 62.64 184.428 63.184C183.5 63.728 182.436 64 181.236 64ZM181.284 60.64C181.796 60.64 182.244 60.528 182.628 60.304C183.028 60.08 183.34 59.768 183.564 59.368C183.788 58.952 183.9 58.48 183.9 57.952C183.9 57.504 183.78 57.088 183.54 56.704C183.316 56.304 183.004 55.984 182.604 55.744C182.22 55.488 181.788 55.36 181.308 55.36C180.796 55.36 180.332 55.48 179.916 55.72C179.516 55.944 179.204 56.256 178.98 56.656C178.756 57.04 178.644 57.472 178.644 57.952C178.644 58.464 178.756 58.928 178.98 59.344C179.204 59.744 179.516 60.064 179.916 60.304C180.316 60.528 180.772 60.64 181.284 60.64Z" fill="#0F1521"/>
<mask id="path-5-inside-2_29_334" fill="white">
<path d="M41 88C41 85.7909 42.7909 84 45 84H197C199.209 84 201 85.7909 201 88V113C201 115.209 199.209 117 197 117H45C42.7909 117 41 115.209 41 113V88Z"/>
</mask>
<path d="M41 88C41 85.7909 42.7909 84 45 84H197C199.209 84 201 85.7909 201 88V113C201 115.209 199.209 117 197 117H45C42.7909 117 41 115.209 41 113V88Z" fill="#0F1521"/>
<path d="M45 84V85H197V84V83H45V84ZM201 88H200V113H201H202V88H201ZM197 117V116H45V117V118H197V117ZM41 113H42V88H41H40V113H41ZM45 117V116C43.3431 116 42 114.657 42 113H41H40C40 115.761 42.2386 118 45 118V117ZM201 113H200C200 114.657 198.657 116 197 116V117V118C199.761 118 202 115.761 202 113H201ZM197 84V85C198.657 85 200 86.3431 200 88H201H202C202 85.2386 199.761 83 197 83V84ZM45 84V83C42.2386 83 40 85.2386 40 88H41H42C42 86.3431 43.3431 85 45 85V84Z" fill="#00B4FF" mask="url(#path-5-inside-2_29_334)"/>
<path d="M96.0291 108C95.5251 108 95.0491 107.911 94.6011 107.734C94.1624 107.547 93.7798 107.295 93.4531 106.978C93.1264 106.651 92.8651 106.273 92.6691 105.844C92.4824 105.415 92.3891 104.953 92.3891 104.458C92.3891 104.113 92.4264 103.781 92.5011 103.464C92.5758 103.137 92.6784 102.811 92.8091 102.484C92.9491 102.148 93.1124 101.807 93.2991 101.462C93.4951 101.107 93.7098 100.734 93.9431 100.342L95.3151 98.046H97.5131L97.5691 98.186L95.6651 101.182C95.4224 101.574 95.2124 101.943 95.0351 102.288C94.8578 102.624 94.6991 102.96 94.5591 103.296C94.4191 103.632 94.2791 103.987 94.1391 104.36L93.6911 103.394C93.7844 103.067 93.9338 102.769 94.1391 102.498C94.3444 102.218 94.5824 101.98 94.8531 101.784C95.1331 101.579 95.4224 101.425 95.7211 101.322C96.0198 101.21 96.3138 101.154 96.6031 101.154C97.1538 101.154 97.6578 101.303 98.1151 101.602C98.5818 101.891 98.9551 102.279 99.2351 102.764C99.5151 103.249 99.6551 103.781 99.6551 104.36C99.6551 105.051 99.4964 105.671 99.1791 106.222C98.8711 106.773 98.4418 107.207 97.8911 107.524C97.3498 107.841 96.7291 108 96.0291 108ZM96.0571 106.04C96.3558 106.04 96.6171 105.975 96.8411 105.844C97.0744 105.713 97.2564 105.531 97.3871 105.298C97.5178 105.055 97.5831 104.78 97.5831 104.472C97.5831 104.211 97.5131 103.968 97.3731 103.744C97.2424 103.511 97.0604 103.324 96.8271 103.184C96.6031 103.035 96.3511 102.96 96.0711 102.96C95.7724 102.96 95.5018 103.03 95.2591 103.17C95.0258 103.301 94.8438 103.483 94.7131 103.716C94.5824 103.94 94.5171 104.192 94.5171 104.472C94.5171 104.771 94.5824 105.041 94.7131 105.284C94.8438 105.517 95.0258 105.704 95.2591 105.844C95.4924 105.975 95.7584 106.04 96.0571 106.04ZM110.077 107.258L105.037 102.218L106.381 100.902L111.421 105.942L110.077 107.258ZM106.381 107.3L105.065 105.942L110.091 100.902L111.421 102.246L106.381 107.3ZM119.394 107.314V99.362L119.912 100.552L117.812 101.546L117.406 99.418L120.192 98.06H121.732V107.314H119.394ZM117.602 108V105.9H123.566V108H117.602ZM129.71 103.45V101.63H136.556V103.45H129.71ZM129.71 106.488V104.682H136.556V106.488H129.71Z" fill="white"/>
<path d="M146.095 108C145.591 108 145.115 107.911 144.667 107.734C144.229 107.547 143.846 107.295 143.519 106.978C143.193 106.651 142.931 106.273 142.735 105.844C142.549 105.415 142.455 104.953 142.455 104.458C142.455 104.113 142.493 103.781 142.567 103.464C142.642 103.137 142.745 102.811 142.875 102.484C143.015 102.148 143.179 101.807 143.365 101.462C143.561 101.107 143.776 100.734 144.009 100.342L145.381 98.046H147.579L147.635 98.186L145.731 101.182C145.489 101.574 145.279 101.943 145.101 102.288C144.924 102.624 144.765 102.96 144.625 103.296C144.485 103.632 144.345 103.987 144.205 104.36L143.757 103.394C143.851 103.067 144 102.769 144.205 102.498C144.411 102.218 144.649 101.98 144.919 101.784C145.199 101.579 145.489 101.425 145.787 101.322C146.086 101.21 146.38 101.154 146.669 101.154C147.22 101.154 147.724 101.303 148.181 101.602C148.648 101.891 149.021 102.279 149.301 102.764C149.581 103.249 149.721 103.781 149.721 104.36C149.721 105.051 149.563 105.671 149.245 106.222C148.937 106.773 148.508 107.207 147.957 107.524C147.416 107.841 146.795 108 146.095 108ZM146.123 106.04C146.422 106.04 146.683 105.975 146.907 105.844C147.141 105.713 147.323 105.531 147.453 105.298C147.584 105.055 147.649 104.78 147.649 104.472C147.649 104.211 147.579 103.968 147.439 103.744C147.309 103.511 147.127 103.324 146.893 103.184C146.669 103.035 146.417 102.96 146.137 102.96C145.839 102.96 145.568 103.03 145.325 103.17C145.092 103.301 144.91 103.483 144.779 103.716C144.649 103.94 144.583 104.192 144.583 104.472C144.583 104.771 144.649 105.041 144.779 105.284C144.91 105.517 145.092 105.704 145.325 105.844C145.559 105.975 145.825 106.04 146.123 106.04Z" fill="#F59E0B"/>
<mask id="path-8-inside-3_29_334" fill="white">
<path d="M41 129C41 126.791 42.7909 125 45 125H197C199.209 125 201 126.791 201 129V154C201 156.209 199.209 158 197 158H45C42.7909 158 41 156.209 41 154V129Z"/>
</mask>
<path d="M41 129C41 126.791 42.7909 125 45 125H197C199.209 125 201 126.791 201 129V154C201 156.209 199.209 158 197 158H45C42.7909 158 41 156.209 41 154V129Z" fill="#0F1521"/>
<path d="M45 125V126H197V125V124H45V125ZM201 129H200V154H201H202V129H201ZM197 158V157H45V158V159H197V158ZM41 154H42V129H41H40V154H41ZM45 158V157C43.3431 157 42 155.657 42 154H41H40C40 156.761 42.2386 159 45 159V158ZM201 154H200C200 155.657 198.657 157 197 157V158V159C199.761 159 202 156.761 202 154H201ZM197 125V126C198.657 126 200 127.343 200 129H201H202C202 126.239 199.761 124 197 124V125ZM45 125V124C42.2386 124 40 126.239 40 129H41H42C42 127.343 43.3431 126 45 126V125Z" fill="#00B4FF" mask="url(#path-8-inside-3_29_334)"/>
<path d="M92.4129 149C91.9089 149 91.4329 148.911 90.9849 148.734C90.5462 148.547 90.1635 148.295 89.8369 147.978C89.5102 147.651 89.2489 147.273 89.0529 146.844C88.8662 146.415 88.7729 145.953 88.7729 145.458C88.7729 145.113 88.8102 144.781 88.8849 144.464C88.9595 144.137 89.0622 143.811 89.1929 143.484C89.3329 143.148 89.4962 142.807 89.6829 142.462C89.8789 142.107 90.0935 141.734 90.3269 141.342L91.6989 139.046H93.8969L93.9529 139.186L92.0489 142.182C91.8062 142.574 91.5962 142.943 91.4189 143.288C91.2415 143.624 91.0829 143.96 90.9429 144.296C90.8029 144.632 90.6629 144.987 90.5229 145.36L90.0749 144.394C90.1682 144.067 90.3175 143.769 90.5229 143.498C90.7282 143.218 90.9662 142.98 91.2369 142.784C91.5169 142.579 91.8062 142.425 92.1049 142.322C92.4035 142.21 92.6975 142.154 92.9869 142.154C93.5375 142.154 94.0415 142.303 94.4989 142.602C94.9655 142.891 95.3389 143.279 95.6189 143.764C95.8989 144.249 96.0389 144.781 96.0389 145.36C96.0389 146.051 95.8802 146.671 95.5629 147.222C95.2549 147.773 94.8255 148.207 94.2749 148.524C93.7335 148.841 93.1129 149 92.4129 149ZM92.4409 147.04C92.7395 147.04 93.0009 146.975 93.2249 146.844C93.4582 146.713 93.6402 146.531 93.7709 146.298C93.9015 146.055 93.9669 145.78 93.9669 145.472C93.9669 145.211 93.8969 144.968 93.7569 144.744C93.6262 144.511 93.4442 144.324 93.2109 144.184C92.9869 144.035 92.7349 143.96 92.4549 143.96C92.1562 143.96 91.8855 144.03 91.6429 144.17C91.4095 144.301 91.2275 144.483 91.0969 144.716C90.9662 144.94 90.9009 145.192 90.9009 145.472C90.9009 145.771 90.9662 146.041 91.0969 146.284C91.2275 146.517 91.4095 146.704 91.6429 146.844C91.8762 146.975 92.1422 147.04 92.4409 147.04ZM106.461 148.258L101.421 143.218L102.765 141.902L107.805 146.942L106.461 148.258ZM102.765 148.3L101.449 146.942L106.475 141.902L107.805 143.246L102.765 148.3ZM113.65 149L113.188 147.852L116.044 144.73C116.203 144.553 116.376 144.352 116.562 144.128C116.749 143.904 116.931 143.675 117.108 143.442C117.286 143.199 117.426 142.966 117.528 142.742C117.64 142.518 117.696 142.313 117.696 142.126C117.696 141.939 117.654 141.776 117.57 141.636C117.486 141.496 117.365 141.389 117.206 141.314C117.048 141.23 116.847 141.188 116.604 141.188C116.39 141.188 116.184 141.244 115.988 141.356C115.792 141.459 115.606 141.622 115.428 141.846C115.26 142.07 115.102 142.345 114.952 142.672L113.188 141.72C113.384 141.179 113.66 140.703 114.014 140.292C114.378 139.872 114.803 139.55 115.288 139.326C115.774 139.093 116.292 138.976 116.842 138.976C117.421 138.985 117.944 139.111 118.41 139.354C118.877 139.587 119.246 139.919 119.516 140.348C119.796 140.768 119.936 141.263 119.936 141.832C119.936 142.028 119.913 142.233 119.866 142.448C119.82 142.663 119.75 142.887 119.656 143.12C119.563 143.344 119.437 143.587 119.278 143.848C119.129 144.1 118.947 144.366 118.732 144.646C118.518 144.926 118.266 145.225 117.976 145.542L115.75 147.964L115.47 146.9H120.37V149H113.65ZM125.917 144.45V142.63H132.763V144.45H125.917ZM125.917 147.488V145.682H132.763V147.488H125.917Z" fill="white"/>
<path d="M141.14 148.314V140.362L141.658 141.552L139.558 142.546L139.152 140.418L141.938 139.06H143.478V148.314H141.14ZM139.348 149V146.9H145.312V149H139.348ZM146.859 149L146.397 147.852L149.253 144.73C149.412 144.553 149.585 144.352 149.771 144.128C149.958 143.904 150.14 143.675 150.317 143.442C150.495 143.199 150.635 142.966 150.737 142.742C150.849 142.518 150.905 142.313 150.905 142.126C150.905 141.939 150.863 141.776 150.779 141.636C150.695 141.496 150.574 141.389 150.415 141.314C150.257 141.23 150.056 141.188 149.813 141.188C149.599 141.188 149.393 141.244 149.197 141.356C149.001 141.459 148.815 141.622 148.637 141.846C148.469 142.07 148.311 142.345 148.161 142.672L146.397 141.72C146.593 141.179 146.869 140.703 147.223 140.292C147.587 139.872 148.012 139.55 148.497 139.326C148.983 139.093 149.501 138.976 150.051 138.976C150.63 138.985 151.153 139.111 151.619 139.354C152.086 139.587 152.455 139.919 152.725 140.348C153.005 140.768 153.145 141.263 153.145 141.832C153.145 142.028 153.122 142.233 153.075 142.448C153.029 142.663 152.959 142.887 152.865 143.12C152.772 143.344 152.646 143.587 152.487 143.848C152.338 144.1 152.156 144.366 151.941 144.646C151.727 144.926 151.475 145.225 151.185 145.542L148.959 147.964L148.679 146.9H153.579V149H146.859Z" fill="#F59E0B"/>
<mask id="path-11-inside-4_29_334" fill="white">
<path d="M41 170C41 167.791 42.7909 166 45 166H197C199.209 166 201 167.791 201 170V195C201 197.209 199.209 199 197 199H45C42.7909 199 41 197.209 41 195V170Z"/>
</mask>
<path d="M41 170C41 167.791 42.7909 166 45 166H197C199.209 166 201 167.791 201 170V195C201 197.209 199.209 199 197 199H45C42.7909 199 41 197.209 41 195V170Z" fill="#0F1521"/>
<path d="M45 166V167H197V166V165H45V166ZM201 170H200V195H201H202V170H201ZM197 199V198H45V199V200H197V199ZM41 195H42V170H41H40V195H41ZM45 199V198C43.3431 198 42 196.657 42 195H41H40C40 197.761 42.2386 200 45 200V199ZM201 195H200C200 196.657 198.657 198 197 198V199V200C199.761 200 202 197.761 202 195H201ZM197 166V167C198.657 167 200 168.343 200 170H201H202C202 167.239 199.761 165 197 165V166ZM45 166V165C42.2386 165 40 167.239 40 170H41H42C42 168.343 43.3431 167 45 167V166Z" fill="#00B4FF" mask="url(#path-11-inside-4_29_334)"/>
<path d="M91.7566 190C91.2526 190 90.7766 189.911 90.3286 189.734C89.89 189.547 89.5073 189.295 89.1806 188.978C88.854 188.651 88.5926 188.273 88.3966 187.844C88.21 187.415 88.1166 186.953 88.1166 186.458C88.1166 186.113 88.154 185.781 88.2286 185.464C88.3033 185.137 88.406 184.811 88.5366 184.484C88.6766 184.148 88.84 183.807 89.0266 183.462C89.2226 183.107 89.4373 182.734 89.6706 182.342L91.0426 180.046H93.2406L93.2966 180.186L91.3926 183.182C91.15 183.574 90.94 183.943 90.7626 184.288C90.5853 184.624 90.4266 184.96 90.2866 185.296C90.1466 185.632 90.0066 185.987 89.8666 186.36L89.4186 185.394C89.512 185.067 89.6613 184.769 89.8666 184.498C90.072 184.218 90.31 183.98 90.5806 183.784C90.8606 183.579 91.15 183.425 91.4486 183.322C91.7473 183.21 92.0413 183.154 92.3306 183.154C92.8813 183.154 93.3853 183.303 93.8426 183.602C94.3093 183.891 94.6826 184.279 94.9626 184.764C95.2426 185.249 95.3826 185.781 95.3826 186.36C95.3826 187.051 95.224 187.671 94.9066 188.222C94.5986 188.773 94.1693 189.207 93.6186 189.524C93.0773 189.841 92.4566 190 91.7566 190ZM91.7846 188.04C92.0833 188.04 92.3446 187.975 92.5686 187.844C92.802 187.713 92.984 187.531 93.1146 187.298C93.2453 187.055 93.3106 186.78 93.3106 186.472C93.3106 186.211 93.2406 185.968 93.1006 185.744C92.97 185.511 92.788 185.324 92.5546 185.184C92.3306 185.035 92.0786 184.96 91.7986 184.96C91.5 184.96 91.2293 185.03 90.9866 185.17C90.7533 185.301 90.5713 185.483 90.4406 185.716C90.31 185.94 90.2446 186.192 90.2446 186.472C90.2446 186.771 90.31 187.041 90.4406 187.284C90.5713 187.517 90.7533 187.704 90.9866 187.844C91.22 187.975 91.486 188.04 91.7846 188.04ZM105.804 189.258L100.764 184.218L102.108 182.902L107.148 187.942L105.804 189.258ZM102.108 189.3L100.792 187.942L105.818 182.902L107.148 184.246L102.108 189.3ZM116.186 190.14C115.393 190.14 114.697 189.977 114.1 189.65C113.512 189.314 112.975 188.74 112.49 187.928L114.198 186.822C114.403 187.149 114.613 187.41 114.828 187.606C115.052 187.802 115.281 187.947 115.514 188.04C115.757 188.124 116.009 188.166 116.27 188.166C116.531 188.166 116.769 188.11 116.984 187.998C117.208 187.877 117.385 187.709 117.516 187.494C117.656 187.279 117.726 187.037 117.726 186.766C117.726 186.477 117.665 186.234 117.544 186.038C117.432 185.833 117.264 185.679 117.04 185.576C116.825 185.473 116.564 185.422 116.256 185.422C116.116 185.422 115.967 185.441 115.808 185.478C115.649 185.506 115.481 185.548 115.304 185.604C115.127 185.66 114.945 185.735 114.758 185.828L114.24 184.442L116.62 181.852L117.264 182.202L113.176 182.118V180.116H119.196L119.63 180.984L116.396 184.456L115.836 183.798C115.911 183.761 116.032 183.728 116.2 183.7C116.377 183.663 116.545 183.644 116.704 183.644C117.143 183.644 117.553 183.723 117.936 183.882C118.319 184.041 118.659 184.26 118.958 184.54C119.257 184.82 119.49 185.151 119.658 185.534C119.826 185.907 119.91 186.309 119.91 186.738C119.91 187.391 119.742 187.975 119.406 188.488C119.079 188.992 118.631 189.393 118.062 189.692C117.502 189.991 116.877 190.14 116.186 190.14ZM125.862 185.45V183.63H132.708V185.45H125.862ZM125.862 188.488V186.682H132.708V188.488H125.862Z" fill="white"/>
<path d="M141.085 189.314V181.362L141.603 182.552L139.503 183.546L139.097 181.418L141.883 180.06H143.423V189.314H141.085ZM139.293 190V187.9H145.257V190H139.293ZM150.165 190.042C149.493 190.042 148.881 189.916 148.331 189.664C147.789 189.403 147.355 189.053 147.029 188.614C146.702 188.175 146.539 187.681 146.539 187.13C146.539 186.766 146.585 186.439 146.679 186.15C146.772 185.851 146.912 185.59 147.099 185.366C147.295 185.133 147.528 184.937 147.799 184.778C148.079 184.61 148.396 184.475 148.751 184.372L148.583 184.932C148.321 184.829 148.083 184.703 147.869 184.554C147.654 184.405 147.472 184.237 147.323 184.05C147.173 183.854 147.057 183.644 146.973 183.42C146.898 183.196 146.861 182.963 146.861 182.72C146.861 182.197 147.005 181.735 147.295 181.334C147.593 180.933 147.99 180.62 148.485 180.396C148.989 180.163 149.549 180.046 150.165 180.046C150.771 180.046 151.322 180.163 151.817 180.396C152.321 180.62 152.722 180.933 153.021 181.334C153.319 181.735 153.469 182.197 153.469 182.72C153.469 182.963 153.431 183.196 153.357 183.42C153.282 183.644 153.17 183.849 153.021 184.036C152.871 184.213 152.689 184.381 152.475 184.54C152.26 184.689 152.013 184.82 151.733 184.932L151.607 184.428C151.924 184.512 152.218 184.633 152.489 184.792C152.759 184.941 152.993 185.133 153.189 185.366C153.385 185.59 153.534 185.851 153.637 186.15C153.749 186.439 153.805 186.766 153.805 187.13C153.805 187.69 153.641 188.189 153.315 188.628C152.988 189.067 152.549 189.412 151.999 189.664C151.448 189.916 150.837 190.042 150.165 190.042ZM150.165 188.166C150.426 188.166 150.659 188.115 150.865 188.012C151.07 187.909 151.233 187.769 151.355 187.592C151.476 187.415 151.537 187.209 151.537 186.976C151.537 186.733 151.476 186.523 151.355 186.346C151.243 186.159 151.079 186.015 150.865 185.912C150.659 185.8 150.426 185.744 150.165 185.744C149.903 185.744 149.67 185.8 149.465 185.912C149.259 186.015 149.096 186.159 148.975 186.346C148.853 186.523 148.793 186.733 148.793 186.976C148.793 187.2 148.853 187.401 148.975 187.578C149.096 187.755 149.259 187.9 149.465 188.012C149.67 188.115 149.903 188.166 150.165 188.166ZM150.165 183.854C150.389 183.854 150.589 183.812 150.767 183.728C150.953 183.635 151.098 183.513 151.201 183.364C151.303 183.205 151.355 183.023 151.355 182.818C151.355 182.613 151.303 182.431 151.201 182.272C151.098 182.113 150.953 181.987 150.767 181.894C150.589 181.801 150.389 181.754 150.165 181.754C149.931 181.754 149.721 181.801 149.535 181.894C149.357 181.987 149.217 182.113 149.115 182.272C149.012 182.431 148.961 182.613 148.961 182.818C148.961 183.023 149.012 183.205 149.115 183.364C149.217 183.513 149.357 183.635 149.535 183.728C149.721 183.812 149.931 183.854 150.165 183.854Z" fill="#F59E0B"/>
<mask id="path-14-inside-5_29_334" fill="white">
<path d="M41 211C41 208.791 42.7909 207 45 207H197C199.209 207 201 208.791 201 211V236C201 238.209 199.209 240 197 240H45C42.7909 240 41 238.209 41 236V211Z"/>
</mask>
<path d="M41 211C41 208.791 42.7909 207 45 207H197C199.209 207 201 208.791 201 211V236C201 238.209 199.209 240 197 240H45C42.7909 240 41 238.209 41 236V211Z" fill="#0F1521"/>
<path d="M45 207V208H197V207V206H45V207ZM201 211H200V236H201H202V211H201ZM197 240V239H45V240V241H197V240ZM41 236H42V211H41H40V236H41ZM45 240V239C43.3431 239 42 237.657 42 236H41H40C40 238.761 42.2386 241 45 241V240ZM201 236H200C200 237.657 198.657 239 197 239V240V241C199.761 241 202 238.761 202 236H201ZM197 207V208C198.657 208 200 209.343 200 211H201H202C202 208.239 199.761 206 197 206V207ZM45 207V206C42.2386 206 40 208.239 40 211H41H42C42 209.343 43.3431 208 45 208V207Z" fill="#00B4FF" mask="url(#path-14-inside-5_29_334)"/>
<path d="M91.0389 231C90.5349 231 90.0589 230.911 89.6109 230.734C89.1722 230.547 88.7895 230.295 88.4629 229.978C88.1362 229.651 87.8749 229.273 87.6789 228.844C87.4922 228.415 87.3989 227.953 87.3989 227.458C87.3989 227.113 87.4362 226.781 87.5109 226.464C87.5855 226.137 87.6882 225.811 87.8189 225.484C87.9589 225.148 88.1222 224.807 88.3089 224.462C88.5049 224.107 88.7195 223.734 88.9529 223.342L90.3249 221.046H92.5229L92.5789 221.186L90.6749 224.182C90.4322 224.574 90.2222 224.943 90.0449 225.288C89.8675 225.624 89.7089 225.96 89.5689 226.296C89.4289 226.632 89.2889 226.987 89.1489 227.36L88.7009 226.394C88.7942 226.067 88.9435 225.769 89.1489 225.498C89.3542 225.218 89.5922 224.98 89.8629 224.784C90.1429 224.579 90.4322 224.425 90.7309 224.322C91.0295 224.21 91.3235 224.154 91.6129 224.154C92.1635 224.154 92.6675 224.303 93.1249 224.602C93.5915 224.891 93.9649 225.279 94.2449 225.764C94.5249 226.249 94.6649 226.781 94.6649 227.36C94.6649 228.051 94.5062 228.671 94.1889 229.222C93.8809 229.773 93.4515 230.207 92.9009 230.524C92.3595 230.841 91.7389 231 91.0389 231ZM91.0669 229.04C91.3655 229.04 91.6269 228.975 91.8509 228.844C92.0842 228.713 92.2662 228.531 92.3969 228.298C92.5275 228.055 92.5929 227.78 92.5929 227.472C92.5929 227.211 92.5229 226.968 92.3829 226.744C92.2522 226.511 92.0702 226.324 91.8369 226.184C91.6129 226.035 91.3609 225.96 91.0809 225.96C90.7822 225.96 90.5115 226.03 90.2689 226.17C90.0355 226.301 89.8535 226.483 89.7229 226.716C89.5922 226.94 89.5269 227.192 89.5269 227.472C89.5269 227.771 89.5922 228.041 89.7229 228.284C89.8535 228.517 90.0355 228.704 90.2689 228.844C90.5022 228.975 90.7682 229.04 91.0669 229.04ZM105.087 230.258L100.047 225.218L101.391 223.902L106.431 228.942L105.087 230.258ZM101.391 230.3L100.075 228.942L105.101 223.902L106.431 225.246L101.391 230.3ZM116.336 231V223.076L117.61 223.104L114.068 227.444L113.732 227.024H120.228V228.984H112.668L111.716 227.15L116.714 221.116H118.632V231H116.336ZM126.142 226.45V224.63H132.988V226.45H126.142ZM126.142 229.488V227.682H132.988V229.488H126.142Z" fill="white"/>
<path d="M139.237 231L138.775 229.852L141.631 226.73C141.79 226.553 141.962 226.352 142.149 226.128C142.336 225.904 142.518 225.675 142.695 225.442C142.872 225.199 143.012 224.966 143.115 224.742C143.227 224.518 143.283 224.313 143.283 224.126C143.283 223.939 143.241 223.776 143.157 223.636C143.073 223.496 142.952 223.389 142.793 223.314C142.634 223.23 142.434 223.188 142.191 223.188C141.976 223.188 141.771 223.244 141.575 223.356C141.379 223.459 141.192 223.622 141.015 223.846C140.847 224.07 140.688 224.345 140.539 224.672L138.775 223.72C138.971 223.179 139.246 222.703 139.601 222.292C139.965 221.872 140.39 221.55 140.875 221.326C141.36 221.093 141.878 220.976 142.429 220.976C143.008 220.985 143.53 221.111 143.997 221.354C144.464 221.587 144.832 221.919 145.103 222.348C145.383 222.768 145.523 223.263 145.523 223.832C145.523 224.028 145.5 224.233 145.453 224.448C145.406 224.663 145.336 224.887 145.243 225.12C145.15 225.344 145.024 225.587 144.865 225.848C144.716 226.1 144.534 226.366 144.319 226.646C144.104 226.926 143.852 227.225 143.563 227.542L141.337 229.964L141.057 228.9H145.957V231H139.237ZM150.694 231V223.076L151.968 223.104L148.426 227.444L148.09 227.024H154.586V228.984H147.026L146.074 227.15L151.072 221.116H152.99V231H150.694Z" fill="#F59E0B"/>
<mask id="path-17-inside-6_29_334" fill="white">
<path d="M41 252C41 249.791 42.7909 248 45 248H197C199.209 248 201 249.791 201 252V277C201 279.209 199.209 281 197 281H45C42.7909 281 41 279.209 41 277V252Z"/>
</mask>
<path d="M41 252C41 249.791 42.7909 248 45 248H197C199.209 248 201 249.791 201 252V277C201 279.209 199.209 281 197 281H45C42.7909 281 41 279.209 41 277V252Z" fill="#0F1521"/>
<path d="M45 248V249H197V248V247H45V248ZM201 252H200V277H201H202V252H201ZM197 281V280H45V281V282H197V281ZM41 277H42V252H41H40V277H41ZM45 281V280C43.3431 280 42 278.657 42 277H41H40C40 279.761 42.2386 282 45 282V281ZM201 277H200C200 278.657 198.657 280 197 280V281V282C199.761 282 202 279.761 202 277H201ZM197 248V249C198.657 249 200 250.343 200 252H201H202C202 249.239 199.761 247 197 247V248ZM45 248V247C42.2386 247 40 249.239 40 252H41H42C42 250.343 43.3431 249 45 249V248Z" fill="#00B4FF" mask="url(#path-17-inside-6_29_334)"/>
<path d="M90.9773 270C90.4733 270 89.9973 269.911 89.5493 269.734C89.1107 269.547 88.728 269.295 88.4013 268.978C88.0747 268.651 87.8133 268.273 87.6173 267.844C87.4307 267.415 87.3373 266.953 87.3373 266.458C87.3373 266.113 87.3747 265.781 87.4493 265.464C87.524 265.137 87.6267 264.811 87.7573 264.484C87.8973 264.148 88.0607 263.807 88.2473 263.462C88.4433 263.107 88.658 262.734 88.8913 262.342L90.2633 260.046H92.4613L92.5173 260.186L90.6133 263.182C90.3707 263.574 90.1607 263.943 89.9833 264.288C89.806 264.624 89.6473 264.96 89.5073 265.296C89.3673 265.632 89.2273 265.987 89.0873 266.36L88.6393 265.394C88.7327 265.067 88.882 264.769 89.0873 264.498C89.2927 264.218 89.5307 263.98 89.8013 263.784C90.0813 263.579 90.3707 263.425 90.6693 263.322C90.968 263.21 91.262 263.154 91.5513 263.154C92.102 263.154 92.606 263.303 93.0633 263.602C93.53 263.891 93.9033 264.279 94.1833 264.764C94.4633 265.249 94.6033 265.781 94.6033 266.36C94.6033 267.051 94.4447 267.671 94.1273 268.222C93.8193 268.773 93.39 269.207 92.8393 269.524C92.298 269.841 91.6773 270 90.9773 270ZM91.0053 268.04C91.304 268.04 91.5653 267.975 91.7893 267.844C92.0227 267.713 92.2047 267.531 92.3353 267.298C92.466 267.055 92.5313 266.78 92.5313 266.472C92.5313 266.211 92.4613 265.968 92.3213 265.744C92.1907 265.511 92.0087 265.324 91.7753 265.184C91.5513 265.035 91.2993 264.96 91.0193 264.96C90.7207 264.96 90.45 265.03 90.2073 265.17C89.974 265.301 89.792 265.483 89.6613 265.716C89.5307 265.94 89.4653 266.192 89.4653 266.472C89.4653 266.771 89.5307 267.041 89.6613 267.284C89.792 267.517 89.974 267.704 90.2073 267.844C90.4407 267.975 90.7067 268.04 91.0053 268.04ZM105.025 269.258L99.9851 264.218L101.329 262.902L106.369 267.942L105.025 269.258ZM101.329 269.3L100.013 267.942L105.039 262.902L106.369 264.246L101.329 269.3ZM115.337 270.098C114.599 270.098 113.927 269.949 113.321 269.65C112.723 269.351 112.229 268.922 111.837 268.362L113.111 266.962C113.493 267.382 113.848 267.671 114.175 267.83C114.501 267.979 114.865 268.054 115.267 268.054C115.565 268.054 115.831 267.993 116.065 267.872C116.298 267.751 116.48 267.583 116.611 267.368C116.751 267.144 116.821 266.897 116.821 266.626C116.821 266.346 116.751 266.099 116.611 265.884C116.48 265.66 116.298 265.483 116.065 265.352C115.841 265.221 115.579 265.156 115.281 265.156C115.066 265.156 114.865 265.175 114.679 265.212C114.492 265.249 114.291 265.315 114.077 265.408C113.871 265.492 113.624 265.618 113.335 265.786L112.327 264.442L112.929 260.116H118.557V262.118H114.063L114.679 261.334L114.217 264.442L113.377 264.162C113.554 264.003 113.769 263.863 114.021 263.742C114.282 263.621 114.562 263.523 114.861 263.448C115.159 263.364 115.458 263.322 115.757 263.322C116.373 263.322 116.923 263.467 117.409 263.756C117.903 264.036 118.295 264.428 118.585 264.932C118.874 265.436 119.019 266.015 119.019 266.668C119.019 267.312 118.855 267.895 118.529 268.418C118.202 268.931 117.763 269.342 117.213 269.65C116.662 269.949 116.037 270.098 115.337 270.098ZM125.151 265.45V263.63H131.997V265.45H125.151ZM125.151 268.488V266.682H131.997V268.488H125.151Z" fill="white"/>
<path d="M141.438 270.14C140.645 270.14 139.949 269.977 139.352 269.65C138.764 269.314 138.227 268.74 137.742 267.928L139.45 266.822C139.655 267.149 139.865 267.41 140.08 267.606C140.304 267.802 140.533 267.947 140.766 268.04C141.009 268.124 141.261 268.166 141.522 268.166C141.783 268.166 142.021 268.11 142.236 267.998C142.46 267.877 142.637 267.709 142.768 267.494C142.908 267.279 142.978 267.037 142.978 266.766C142.978 266.477 142.917 266.234 142.796 266.038C142.684 265.833 142.516 265.679 142.292 265.576C142.077 265.473 141.816 265.422 141.508 265.422C141.368 265.422 141.219 265.441 141.06 265.478C140.901 265.506 140.733 265.548 140.556 265.604C140.379 265.66 140.197 265.735 140.01 265.828L139.492 264.442L141.872 261.852L142.516 262.202L138.428 262.118V260.116H144.448L144.882 260.984L141.648 264.456L141.088 263.798C141.163 263.761 141.284 263.728 141.452 263.7C141.629 263.663 141.797 263.644 141.956 263.644C142.395 263.644 142.805 263.723 143.188 263.882C143.571 264.041 143.911 264.26 144.21 264.54C144.509 264.82 144.742 265.151 144.91 265.534C145.078 265.907 145.162 266.309 145.162 266.738C145.162 267.391 144.994 267.975 144.658 268.488C144.331 268.992 143.883 269.393 143.314 269.692C142.754 269.991 142.129 270.14 141.438 270.14ZM150.409 270.14C149.532 270.14 148.781 269.939 148.155 269.538C147.539 269.137 147.068 268.563 146.741 267.816C146.415 267.06 146.251 266.155 146.251 265.1C146.251 264.045 146.415 263.145 146.741 262.398C147.068 261.642 147.539 261.063 148.155 260.662C148.781 260.261 149.532 260.06 150.409 260.06C151.287 260.06 152.038 260.261 152.663 260.662C153.289 261.063 153.765 261.642 154.091 262.398C154.418 263.145 154.581 264.045 154.581 265.1C154.581 266.155 154.418 267.06 154.091 267.816C153.765 268.563 153.289 269.137 152.663 269.538C152.038 269.939 151.287 270.14 150.409 270.14ZM150.409 268.124C151.016 268.124 151.483 267.863 151.809 267.34C152.145 266.817 152.313 266.071 152.313 265.1C152.313 264.101 152.145 263.336 151.809 262.804C151.483 262.263 151.016 261.992 150.409 261.992C149.803 261.992 149.331 262.263 148.995 262.804C148.669 263.336 148.505 264.101 148.505 265.1C148.505 266.071 148.669 266.817 148.995 267.34C149.331 267.863 149.803 268.124 150.409 268.124Z" fill="#F59E0B"/>
<mask id="path-20-inside-7_29_334" fill="white">
<path d="M41 293C41 290.791 42.7909 289 45 289H197C199.209 289 201 290.791 201 293V318C201 320.209 199.209 322 197 322H45C42.7909 322 41 320.209 41 318V293Z"/>
</mask>
<path d="M41 293C41 290.791 42.7909 289 45 289H197C199.209 289 201 290.791 201 293V318C201 320.209 199.209 322 197 322H45C42.7909 322 41 320.209 41 318V293Z" fill="#0F1521"/>
<path d="M45 289V290H197V289V288H45V289ZM201 293H200V318H201H202V293H201ZM197 322V321H45V322V323H197V322ZM41 318H42V293H41H40V318H41ZM45 322V321C43.3431 321 42 319.657 42 318H41H40C40 320.761 42.2386 323 45 323V322ZM201 318H200C200 319.657 198.657 321 197 321V322V323C199.761 323 202 320.761 202 318H201ZM197 289V290C198.657 290 200 291.343 200 293H201H202C202 290.239 199.761 288 197 288V289ZM45 289V288C42.2386 288 40 290.239 40 293H41H42C42 291.343 43.3431 290 45 290V289Z" fill="#00B4FF" mask="url(#path-20-inside-7_29_334)"/>
<path d="M91.7635 311C91.2595 311 90.7835 310.911 90.3355 310.734C89.8968 310.547 89.5141 310.295 89.1875 309.978C88.8608 309.651 88.5995 309.273 88.4035 308.844C88.2168 308.415 88.1235 307.953 88.1235 307.458C88.1235 307.113 88.1608 306.781 88.2355 306.464C88.3101 306.137 88.4128 305.811 88.5435 305.484C88.6835 305.148 88.8468 304.807 89.0335 304.462C89.2295 304.107 89.4441 303.734 89.6775 303.342L91.0495 301.046H93.2475L93.3035 301.186L91.3995 304.182C91.1568 304.574 90.9468 304.943 90.7695 305.288C90.5921 305.624 90.4335 305.96 90.2935 306.296C90.1535 306.632 90.0135 306.987 89.8735 307.36L89.4255 306.394C89.5188 306.067 89.6681 305.769 89.8735 305.498C90.0788 305.218 90.3168 304.98 90.5875 304.784C90.8675 304.579 91.1568 304.425 91.4555 304.322C91.7541 304.21 92.0481 304.154 92.3375 304.154C92.8881 304.154 93.3921 304.303 93.8495 304.602C94.3161 304.891 94.6895 305.279 94.9695 305.764C95.2495 306.249 95.3895 306.781 95.3895 307.36C95.3895 308.051 95.2308 308.671 94.9135 309.222C94.6055 309.773 94.1761 310.207 93.6255 310.524C93.0841 310.841 92.4635 311 91.7635 311ZM91.7915 309.04C92.0901 309.04 92.3515 308.975 92.5755 308.844C92.8088 308.713 92.9908 308.531 93.1215 308.298C93.2521 308.055 93.3175 307.78 93.3175 307.472C93.3175 307.211 93.2475 306.968 93.1075 306.744C92.9768 306.511 92.7948 306.324 92.5615 306.184C92.3375 306.035 92.0855 305.96 91.8055 305.96C91.5068 305.96 91.2361 306.03 90.9935 306.17C90.7601 306.301 90.5781 306.483 90.4475 306.716C90.3168 306.94 90.2515 307.192 90.2515 307.472C90.2515 307.771 90.3168 308.041 90.4475 308.284C90.5781 308.517 90.7601 308.704 90.9935 308.844C91.2268 308.975 91.4928 309.04 91.7915 309.04ZM105.811 310.258L100.771 305.218L102.115 303.902L107.155 308.942L105.811 310.258ZM102.115 310.3L100.799 308.942L105.825 303.902L107.155 305.246L102.115 310.3ZM116.291 311C115.787 311 115.311 310.911 114.863 310.734C114.424 310.547 114.041 310.295 113.715 309.978C113.388 309.651 113.127 309.273 112.931 308.844C112.744 308.415 112.651 307.953 112.651 307.458C112.651 307.113 112.688 306.781 112.763 306.464C112.837 306.137 112.94 305.811 113.071 305.484C113.211 305.148 113.374 304.807 113.561 304.462C113.757 304.107 113.971 303.734 114.205 303.342L115.577 301.046H117.775L117.831 301.186L115.927 304.182C115.684 304.574 115.474 304.943 115.297 305.288C115.119 305.624 114.961 305.96 114.821 306.296C114.681 306.632 114.541 306.987 114.401 307.36L113.953 306.394C114.046 306.067 114.195 305.769 114.401 305.498C114.606 305.218 114.844 304.98 115.115 304.784C115.395 304.579 115.684 304.425 115.983 304.322C116.281 304.21 116.575 304.154 116.865 304.154C117.415 304.154 117.919 304.303 118.377 304.602C118.843 304.891 119.217 305.279 119.497 305.764C119.777 306.249 119.917 306.781 119.917 307.36C119.917 308.051 119.758 308.671 119.441 309.222C119.133 309.773 118.703 310.207 118.153 310.524C117.611 310.841 116.991 311 116.291 311ZM116.319 309.04C116.617 309.04 116.879 308.975 117.103 308.844C117.336 308.713 117.518 308.531 117.649 308.298C117.779 308.055 117.845 307.78 117.845 307.472C117.845 307.211 117.775 306.968 117.635 306.744C117.504 306.511 117.322 306.324 117.089 306.184C116.865 306.035 116.613 305.96 116.333 305.96C116.034 305.96 115.763 306.03 115.521 306.17C115.287 306.301 115.105 306.483 114.975 306.716C114.844 306.94 114.779 307.192 114.779 307.472C114.779 307.771 114.844 308.041 114.975 308.284C115.105 308.517 115.287 308.704 115.521 308.844C115.754 308.975 116.02 309.04 116.319 309.04ZM125.705 306.45V304.63H132.551V306.45H125.705ZM125.705 309.488V307.682H132.551V309.488H125.705Z" fill="white"/>
<path d="M141.992 311.14C141.198 311.14 140.503 310.977 139.906 310.65C139.318 310.314 138.781 309.74 138.296 308.928L140.004 307.822C140.209 308.149 140.419 308.41 140.634 308.606C140.858 308.802 141.086 308.947 141.32 309.04C141.562 309.124 141.814 309.166 142.076 309.166C142.337 309.166 142.575 309.11 142.79 308.998C143.014 308.877 143.191 308.709 143.322 308.494C143.462 308.279 143.532 308.037 143.532 307.766C143.532 307.477 143.471 307.234 143.35 307.038C143.238 306.833 143.07 306.679 142.846 306.576C142.631 306.473 142.37 306.422 142.062 306.422C141.922 306.422 141.772 306.441 141.614 306.478C141.455 306.506 141.287 306.548 141.11 306.604C140.932 306.66 140.75 306.735 140.564 306.828L140.046 305.442L142.426 302.852L143.07 303.202L138.982 303.118V301.116H145.002L145.436 301.984L142.202 305.456L141.642 304.798C141.716 304.761 141.838 304.728 142.006 304.7C142.183 304.663 142.351 304.644 142.51 304.644C142.948 304.644 143.359 304.723 143.742 304.882C144.124 305.041 144.465 305.26 144.764 305.54C145.062 305.82 145.296 306.151 145.464 306.534C145.632 306.907 145.716 307.309 145.716 307.738C145.716 308.391 145.548 308.975 145.212 309.488C144.885 309.992 144.437 310.393 143.868 310.692C143.308 310.991 142.682 311.14 141.992 311.14ZM150.361 311C149.857 311 149.381 310.911 148.933 310.734C148.494 310.547 148.112 310.295 147.785 309.978C147.458 309.651 147.197 309.273 147.001 308.844C146.814 308.415 146.721 307.953 146.721 307.458C146.721 307.113 146.758 306.781 146.833 306.464C146.908 306.137 147.01 305.811 147.141 305.484C147.281 305.148 147.444 304.807 147.631 304.462C147.827 304.107 148.042 303.734 148.275 303.342L149.647 301.046H151.845L151.901 301.186L149.997 304.182C149.754 304.574 149.544 304.943 149.367 305.288C149.19 305.624 149.031 305.96 148.891 306.296C148.751 306.632 148.611 306.987 148.471 307.36L148.023 306.394C148.116 306.067 148.266 305.769 148.471 305.498C148.676 305.218 148.914 304.98 149.185 304.784C149.465 304.579 149.754 304.425 150.053 304.322C150.352 304.21 150.646 304.154 150.935 304.154C151.486 304.154 151.99 304.303 152.447 304.602C152.914 304.891 153.287 305.279 153.567 305.764C153.847 306.249 153.987 306.781 153.987 307.36C153.987 308.051 153.828 308.671 153.511 309.222C153.203 309.773 152.774 310.207 152.223 310.524C151.682 310.841 151.061 311 150.361 311ZM150.389 309.04C150.688 309.04 150.949 308.975 151.173 308.844C151.406 308.713 151.588 308.531 151.719 308.298C151.85 308.055 151.915 307.78 151.915 307.472C151.915 307.211 151.845 306.968 151.705 306.744C151.574 306.511 151.392 306.324 151.159 306.184C150.935 306.035 150.683 305.96 150.403 305.96C150.104 305.96 149.834 306.03 149.591 306.17C149.358 306.301 149.176 306.483 149.045 306.716C148.914 306.94 148.849 307.192 148.849 307.472C148.849 307.771 148.914 308.041 149.045 308.284C149.176 308.517 149.358 308.704 149.591 308.844C149.824 308.975 150.09 309.04 150.389 309.04Z" fill="#F59E0B"/>
<mask id="path-23-inside-8_29_334" fill="white">
<path d="M41 334C41 331.791 42.7909 330 45 330H197C199.209 330 201 331.791 201 334V359C201 361.209 199.209 363 197 363H45C42.7909 363 41 361.209 41 359V334Z"/>
</mask>
<path d="M41 334C41 331.791 42.7909 330 45 330H197C199.209 330 201 331.791 201 334V359C201 361.209 199.209 363 197 363H45C42.7909 363 41 361.209 41 359V334Z" fill="#0F1521"/>
<path d="M45 330V331H197V330V329H45V330ZM201 334H200V359H201H202V334H201ZM197 363V362H45V363V364H197V363ZM41 359H42V334H41H40V359H41ZM45 363V362C43.3431 362 42 360.657 42 359H41H40C40 361.761 42.2386 364 45 364V363ZM201 359H200C200 360.657 198.657 362 197 362V363V364C199.761 364 202 361.761 202 359H201ZM197 330V331C198.657 331 200 332.343 200 334H201H202C202 331.239 199.761 329 197 329V330ZM45 330V329C42.2386 329 40 331.239 40 334H41H42C42 332.343 43.3431 331 45 331V330Z" fill="#00B4FF" mask="url(#path-23-inside-8_29_334)"/>
<path d="M91.8045 352C91.3005 352 90.8245 351.911 90.3765 351.734C89.9378 351.547 89.5551 351.295 89.2285 350.978C88.9018 350.651 88.6405 350.273 88.4445 349.844C88.2578 349.415 88.1645 348.953 88.1645 348.458C88.1645 348.113 88.2018 347.781 88.2765 347.464C88.3511 347.137 88.4538 346.811 88.5845 346.484C88.7245 346.148 88.8878 345.807 89.0745 345.462C89.2705 345.107 89.4851 344.734 89.7185 344.342L91.0905 342.046H93.2885L93.3445 342.186L91.4405 345.182C91.1978 345.574 90.9878 345.943 90.8105 346.288C90.6331 346.624 90.4745 346.96 90.3345 347.296C90.1945 347.632 90.0545 347.987 89.9145 348.36L89.4665 347.394C89.5598 347.067 89.7091 346.769 89.9145 346.498C90.1198 346.218 90.3578 345.98 90.6285 345.784C90.9085 345.579 91.1978 345.425 91.4965 345.322C91.7951 345.21 92.0891 345.154 92.3785 345.154C92.9291 345.154 93.4331 345.303 93.8905 345.602C94.3571 345.891 94.7305 346.279 95.0105 346.764C95.2905 347.249 95.4305 347.781 95.4305 348.36C95.4305 349.051 95.2718 349.671 94.9545 350.222C94.6465 350.773 94.2171 351.207 93.6665 351.524C93.1251 351.841 92.5045 352 91.8045 352ZM91.8325 350.04C92.1311 350.04 92.3925 349.975 92.6165 349.844C92.8498 349.713 93.0318 349.531 93.1625 349.298C93.2931 349.055 93.3585 348.78 93.3585 348.472C93.3585 348.211 93.2885 347.968 93.1485 347.744C93.0178 347.511 92.8358 347.324 92.6025 347.184C92.3785 347.035 92.1265 346.96 91.8465 346.96C91.5478 346.96 91.2771 347.03 91.0345 347.17C90.8011 347.301 90.6191 347.483 90.4885 347.716C90.3578 347.94 90.2925 348.192 90.2925 348.472C90.2925 348.771 90.3578 349.041 90.4885 349.284C90.6191 349.517 90.8011 349.704 91.0345 349.844C91.2678 349.975 91.5338 350.04 91.8325 350.04ZM105.852 351.258L100.812 346.218L102.156 344.902L107.196 349.942L105.852 351.258ZM102.156 351.3L100.84 349.942L105.866 344.902L107.196 346.246L102.156 351.3ZM113.392 352L117.312 343.068L117.984 344.188H112.86V342.116H119.244L119.468 343.25L115.772 352H113.392ZM125.376 347.45V345.63H132.222V347.45H125.376ZM125.376 350.488V348.682H132.222V350.488H125.376Z" fill="white"/>
<path d="M142.532 352V344.076L143.806 344.104L140.264 348.444L139.928 348.024H146.424V349.984H138.864L137.912 348.15L142.91 342.116H144.828V352H142.532ZM147.468 352L147.006 350.852L149.862 347.73C150.02 347.553 150.193 347.352 150.38 347.128C150.566 346.904 150.748 346.675 150.926 346.442C151.103 346.199 151.243 345.966 151.346 345.742C151.458 345.518 151.514 345.313 151.514 345.126C151.514 344.939 151.472 344.776 151.388 344.636C151.304 344.496 151.182 344.389 151.024 344.314C150.865 344.23 150.664 344.188 150.422 344.188C150.207 344.188 150.002 344.244 149.806 344.356C149.61 344.459 149.423 344.622 149.246 344.846C149.078 345.07 148.919 345.345 148.77 345.672L147.006 344.72C147.202 344.179 147.477 343.703 147.832 343.292C148.196 342.872 148.62 342.55 149.106 342.326C149.591 342.093 150.109 341.976 150.66 341.976C151.238 341.985 151.761 342.111 152.228 342.354C152.694 342.587 153.063 342.919 153.334 343.348C153.614 343.768 153.754 344.263 153.754 344.832C153.754 345.028 153.73 345.233 153.684 345.448C153.637 345.663 153.567 345.887 153.474 346.12C153.38 346.344 153.254 346.587 153.096 346.848C152.946 347.1 152.764 347.366 152.55 347.646C152.335 347.926 152.083 348.225 151.794 348.542L149.568 350.964L149.288 349.9H154.188V352H147.468Z" fill="#F59E0B"/>
<mask id="path-26-inside-9_29_334" fill="white">
<path d="M41 375C41 372.791 42.7909 371 45 371H197C199.209 371 201 372.791 201 375V400C201 402.209 199.209 404 197 404H45C42.7909 404 41 402.209 41 400V375Z"/>
</mask>
<path d="M41 375C41 372.791 42.7909 371 45 371H197C199.209 371 201 372.791 201 375V400C201 402.209 199.209 404 197 404H45C42.7909 404 41 402.209 41 400V375Z" fill="#0F1521"/>
<path d="M45 371V372H197V371V370H45V371ZM201 375H200V400H201H202V375H201ZM197 404V403H45V404V405H197V404ZM41 400H42V375H41H40V400H41ZM45 404V403C43.3431 403 42 401.657 42 400H41H40C40 402.761 42.2386 405 45 405V404ZM201 400H200C200 401.657 198.657 403 197 403V404V405C199.761 405 202 402.761 202 400H201ZM197 371V372C198.657 372 200 373.343 200 375H201H202C202 372.239 199.761 370 197 370V371ZM45 371V370C42.2386 370 40 372.239 40 375H41H42C42 373.343 43.3431 372 45 372V371Z" fill="#00B4FF" mask="url(#path-26-inside-9_29_334)"/>
<path d="M90.991 393C90.487 393 90.011 392.911 89.563 392.734C89.1243 392.547 88.7417 392.295 88.415 391.978C88.0883 391.651 87.827 391.273 87.631 390.844C87.4443 390.415 87.351 389.953 87.351 389.458C87.351 389.113 87.3883 388.781 87.463 388.464C87.5377 388.137 87.6403 387.811 87.771 387.484C87.911 387.148 88.0743 386.807 88.261 386.462C88.457 386.107 88.6717 385.734 88.905 385.342L90.277 383.046H92.475L92.531 383.186L90.627 386.182C90.3843 386.574 90.1743 386.943 89.997 387.288C89.8197 387.624 89.661 387.96 89.521 388.296C89.381 388.632 89.241 388.987 89.101 389.36L88.653 388.394C88.7463 388.067 88.8957 387.769 89.101 387.498C89.3063 387.218 89.5443 386.98 89.815 386.784C90.095 386.579 90.3843 386.425 90.683 386.322C90.9817 386.21 91.2757 386.154 91.565 386.154C92.1157 386.154 92.6197 386.303 93.077 386.602C93.5437 386.891 93.917 387.279 94.197 387.764C94.477 388.249 94.617 388.781 94.617 389.36C94.617 390.051 94.4583 390.671 94.141 391.222C93.833 391.773 93.4037 392.207 92.853 392.524C92.3117 392.841 91.691 393 90.991 393ZM91.019 391.04C91.3177 391.04 91.579 390.975 91.803 390.844C92.0363 390.713 92.2183 390.531 92.349 390.298C92.4797 390.055 92.545 389.78 92.545 389.472C92.545 389.211 92.475 388.968 92.335 388.744C92.2043 388.511 92.0223 388.324 91.789 388.184C91.565 388.035 91.313 387.96 91.033 387.96C90.7343 387.96 90.4637 388.03 90.221 388.17C89.9877 388.301 89.8057 388.483 89.675 388.716C89.5443 388.94 89.479 389.192 89.479 389.472C89.479 389.771 89.5443 390.041 89.675 390.284C89.8057 390.517 89.9877 390.704 90.221 390.844C90.4543 390.975 90.7203 391.04 91.019 391.04ZM105.039 392.258L99.9988 387.218L101.343 385.902L106.383 390.942L105.039 392.258ZM101.343 392.3L100.027 390.942L105.053 385.902L106.383 387.246L101.343 392.3ZM115.588 393.042C114.916 393.042 114.305 392.916 113.754 392.664C113.213 392.403 112.779 392.053 112.452 391.614C112.126 391.175 111.962 390.681 111.962 390.13C111.962 389.766 112.009 389.439 112.102 389.15C112.196 388.851 112.336 388.59 112.522 388.366C112.718 388.133 112.952 387.937 113.222 387.778C113.502 387.61 113.82 387.475 114.174 387.372L114.006 387.932C113.745 387.829 113.507 387.703 113.292 387.554C113.078 387.405 112.896 387.237 112.746 387.05C112.597 386.854 112.48 386.644 112.396 386.42C112.322 386.196 112.284 385.963 112.284 385.72C112.284 385.197 112.429 384.735 112.718 384.334C113.017 383.933 113.414 383.62 113.908 383.396C114.412 383.163 114.972 383.046 115.588 383.046C116.195 383.046 116.746 383.163 117.24 383.396C117.744 383.62 118.146 383.933 118.444 384.334C118.743 384.735 118.892 385.197 118.892 385.72C118.892 385.963 118.855 386.196 118.78 386.42C118.706 386.644 118.594 386.849 118.444 387.036C118.295 387.213 118.113 387.381 117.898 387.54C117.684 387.689 117.436 387.82 117.156 387.932L117.03 387.428C117.348 387.512 117.642 387.633 117.912 387.792C118.183 387.941 118.416 388.133 118.612 388.366C118.808 388.59 118.958 388.851 119.06 389.15C119.172 389.439 119.228 389.766 119.228 390.13C119.228 390.69 119.065 391.189 118.738 391.628C118.412 392.067 117.973 392.412 117.422 392.664C116.872 392.916 116.26 393.042 115.588 393.042ZM115.588 391.166C115.85 391.166 116.083 391.115 116.288 391.012C116.494 390.909 116.657 390.769 116.778 390.592C116.9 390.415 116.96 390.209 116.96 389.976C116.96 389.733 116.9 389.523 116.778 389.346C116.666 389.159 116.503 389.015 116.288 388.912C116.083 388.8 115.85 388.744 115.588 388.744C115.327 388.744 115.094 388.8 114.888 388.912C114.683 389.015 114.52 389.159 114.398 389.346C114.277 389.523 114.216 389.733 114.216 389.976C114.216 390.2 114.277 390.401 114.398 390.578C114.52 390.755 114.683 390.9 114.888 391.012C115.094 391.115 115.327 391.166 115.588 391.166ZM115.588 386.854C115.812 386.854 116.013 386.812 116.19 386.728C116.377 386.635 116.522 386.513 116.624 386.364C116.727 386.205 116.778 386.023 116.778 385.818C116.778 385.613 116.727 385.431 116.624 385.272C116.522 385.113 116.377 384.987 116.19 384.894C116.013 384.801 115.812 384.754 115.588 384.754C115.355 384.754 115.145 384.801 114.958 384.894C114.781 384.987 114.641 385.113 114.538 385.272C114.436 385.431 114.384 385.613 114.384 385.818C114.384 386.023 114.436 386.205 114.538 386.364C114.641 386.513 114.781 386.635 114.958 386.728C115.145 386.812 115.355 386.854 115.588 386.854ZM125.206 388.45V386.63H132.052V388.45H125.206ZM125.206 391.488V389.682H132.052V391.488H125.206Z" fill="white"/>
<path d="M142.361 393V385.076L143.635 385.104L140.093 389.444L139.757 389.024H146.253V390.984H138.693L137.741 389.15L142.739 383.116H144.657V393H142.361ZM150.93 393.042C150.258 393.042 149.647 392.916 149.096 392.664C148.555 392.403 148.121 392.053 147.794 391.614C147.467 391.175 147.304 390.681 147.304 390.13C147.304 389.766 147.351 389.439 147.444 389.15C147.537 388.851 147.677 388.59 147.864 388.366C148.06 388.133 148.293 387.937 148.564 387.778C148.844 387.61 149.161 387.475 149.516 387.372L149.348 387.932C149.087 387.829 148.849 387.703 148.634 387.554C148.419 387.405 148.237 387.237 148.088 387.05C147.939 386.854 147.822 386.644 147.738 386.42C147.663 386.196 147.626 385.963 147.626 385.72C147.626 385.197 147.771 384.735 148.06 384.334C148.359 383.933 148.755 383.62 149.25 383.396C149.754 383.163 150.314 383.046 150.93 383.046C151.537 383.046 152.087 383.163 152.582 383.396C153.086 383.62 153.487 383.933 153.786 384.334C154.085 384.735 154.234 385.197 154.234 385.72C154.234 385.963 154.197 386.196 154.122 386.42C154.047 386.644 153.935 386.849 153.786 387.036C153.637 387.213 153.455 387.381 153.24 387.54C153.025 387.689 152.778 387.82 152.498 387.932L152.372 387.428C152.689 387.512 152.983 387.633 153.254 387.792C153.525 387.941 153.758 388.133 153.954 388.366C154.15 388.59 154.299 388.851 154.402 389.15C154.514 389.439 154.57 389.766 154.57 390.13C154.57 390.69 154.407 391.189 154.08 391.628C153.753 392.067 153.315 392.412 152.764 392.664C152.213 392.916 151.602 393.042 150.93 393.042ZM150.93 391.166C151.191 391.166 151.425 391.115 151.63 391.012C151.835 390.909 151.999 390.769 152.12 390.592C152.241 390.415 152.302 390.209 152.302 389.976C152.302 389.733 152.241 389.523 152.12 389.346C152.008 389.159 151.845 389.015 151.63 388.912C151.425 388.8 151.191 388.744 150.93 388.744C150.669 388.744 150.435 388.8 150.23 388.912C150.025 389.015 149.861 389.159 149.74 389.346C149.619 389.523 149.558 389.733 149.558 389.976C149.558 390.2 149.619 390.401 149.74 390.578C149.861 390.755 150.025 390.9 150.23 391.012C150.435 391.115 150.669 391.166 150.93 391.166ZM150.93 386.854C151.154 386.854 151.355 386.812 151.532 386.728C151.719 386.635 151.863 386.513 151.966 386.364C152.069 386.205 152.12 386.023 152.12 385.818C152.12 385.613 152.069 385.431 151.966 385.272C151.863 385.113 151.719 384.987 151.532 384.894C151.355 384.801 151.154 384.754 150.93 384.754C150.697 384.754 150.487 384.801 150.3 384.894C150.123 384.987 149.983 385.113 149.88 385.272C149.777 385.431 149.726 385.613 149.726 385.818C149.726 386.023 149.777 386.205 149.88 386.364C149.983 386.513 150.123 386.635 150.3 386.728C150.487 386.812 150.697 386.854 150.93 386.854Z" fill="#F59E0B"/>
<mask id="path-29-inside-10_29_334" fill="white">
<path d="M41 416C41 413.791 42.7909 412 45 412H197C199.209 412 201 413.791 201 416V441C201 443.209 199.209 445 197 445H45C42.7909 445 41 443.209 41 441V416Z"/>
</mask>
<path d="M41 416C41 413.791 42.7909 412 45 412H197C199.209 412 201 413.791 201 416V441C201 443.209 199.209 445 197 445H45C42.7909 445 41 443.209 41 441V416Z" fill="#0F1521"/>
<path d="M45 412V413H197V412V411H45V412ZM201 416H200V441H201H202V416H201ZM197 445V444H45V445V446H197V445ZM41 441H42V416H41H40V441H41ZM45 445V444C43.3431 444 42 442.657 42 441H41H40C40 443.761 42.2386 446 45 446V445ZM201 441H200C200 442.657 198.657 444 197 444V445V446C199.761 446 202 443.761 202 441H201ZM197 412V413C198.657 413 200 414.343 200 416H201H202C202 413.239 199.761 411 197 411V412ZM45 412V411C42.2386 411 40 413.239 40 416H41H42C42 414.343 43.3431 413 45 413V412Z" fill="#00B4FF" mask="url(#path-29-inside-10_29_334)"/>
<path d="M91.1619 434C90.6579 434 90.1819 433.911 89.7339 433.734C89.2952 433.547 88.9126 433.295 88.5859 432.978C88.2592 432.651 87.9979 432.273 87.8019 431.844C87.6152 431.415 87.5219 430.953 87.5219 430.458C87.5219 430.113 87.5592 429.781 87.6339 429.464C87.7086 429.137 87.8112 428.811 87.9419 428.484C88.0819 428.148 88.2452 427.807 88.4319 427.462C88.6279 427.107 88.8426 426.734 89.0759 426.342L90.4479 424.046H92.6459L92.7019 424.186L90.7979 427.182C90.5552 427.574 90.3452 427.943 90.1679 428.288C89.9906 428.624 89.8319 428.96 89.6919 429.296C89.5519 429.632 89.4119 429.987 89.2719 430.36L88.8239 429.394C88.9172 429.067 89.0666 428.769 89.2719 428.498C89.4772 428.218 89.7152 427.98 89.9859 427.784C90.2659 427.579 90.5552 427.425 90.8539 427.322C91.1526 427.21 91.4466 427.154 91.7359 427.154C92.2866 427.154 92.7906 427.303 93.2479 427.602C93.7146 427.891 94.0879 428.279 94.3679 428.764C94.6479 429.249 94.7879 429.781 94.7879 430.36C94.7879 431.051 94.6292 431.671 94.3119 432.222C94.0039 432.773 93.5746 433.207 93.0239 433.524C92.4826 433.841 91.8619 434 91.1619 434ZM91.1899 432.04C91.4886 432.04 91.7499 431.975 91.9739 431.844C92.2072 431.713 92.3892 431.531 92.5199 431.298C92.6506 431.055 92.7159 430.78 92.7159 430.472C92.7159 430.211 92.6459 429.968 92.5059 429.744C92.3752 429.511 92.1932 429.324 91.9599 429.184C91.7359 429.035 91.4839 428.96 91.2039 428.96C90.9052 428.96 90.6346 429.03 90.3919 429.17C90.1586 429.301 89.9766 429.483 89.8459 429.716C89.7152 429.94 89.6499 430.192 89.6499 430.472C89.6499 430.771 89.7152 431.041 89.8459 431.284C89.9766 431.517 90.1586 431.704 90.3919 431.844C90.6252 431.975 90.8912 432.04 91.1899 432.04ZM105.21 433.258L100.17 428.218L101.514 426.902L106.554 431.942L105.21 433.258ZM101.514 433.3L100.198 431.942L105.224 426.902L106.554 428.246L101.514 433.3ZM114.485 434L114.429 433.86L117.495 427.672L117.901 428.512C117.808 428.848 117.659 429.151 117.453 429.422C117.248 429.693 117.001 429.931 116.711 430.136C116.431 430.332 116.137 430.486 115.829 430.598C115.521 430.701 115.227 430.752 114.947 430.752C114.415 430.752 113.925 430.607 113.477 430.318C113.029 430.029 112.67 429.641 112.399 429.156C112.129 428.671 111.993 428.143 111.993 427.574C111.993 426.902 112.152 426.295 112.469 425.754C112.796 425.203 113.235 424.769 113.785 424.452C114.336 424.125 114.957 423.962 115.647 423.962C116.151 423.962 116.623 424.051 117.061 424.228C117.5 424.405 117.883 424.653 118.209 424.97C118.545 425.278 118.807 425.637 118.993 426.048C119.18 426.459 119.273 426.893 119.273 427.35C119.273 427.686 119.245 428.017 119.189 428.344C119.133 428.661 119.045 428.988 118.923 429.324C118.802 429.66 118.657 430.01 118.489 430.374C118.331 430.738 118.144 431.135 117.929 431.564L116.697 434H114.485ZM115.521 428.876C115.811 428.876 116.067 428.811 116.291 428.68C116.515 428.549 116.688 428.377 116.809 428.162C116.94 427.938 117.005 427.691 117.005 427.42C117.005 427.131 116.94 426.874 116.809 426.65C116.688 426.417 116.515 426.235 116.291 426.104C116.077 425.973 115.825 425.908 115.535 425.908C115.255 425.908 115.008 425.973 114.793 426.104C114.588 426.225 114.42 426.403 114.289 426.636C114.168 426.86 114.107 427.121 114.107 427.42C114.107 427.672 114.168 427.91 114.289 428.134C114.42 428.349 114.593 428.526 114.807 428.666C115.022 428.806 115.26 428.876 115.521 428.876ZM125.076 429.45V427.63H131.922V429.45H125.076ZM125.076 432.488V430.682H131.922V432.488H125.076Z" fill="white"/>
<path d="M141.293 434.098C140.555 434.098 139.883 433.949 139.277 433.65C138.679 433.351 138.185 432.922 137.793 432.362L139.067 430.962C139.449 431.382 139.804 431.671 140.131 431.83C140.457 431.979 140.821 432.054 141.223 432.054C141.521 432.054 141.787 431.993 142.021 431.872C142.254 431.751 142.436 431.583 142.567 431.368C142.707 431.144 142.777 430.897 142.777 430.626C142.777 430.346 142.707 430.099 142.567 429.884C142.436 429.66 142.254 429.483 142.021 429.352C141.797 429.221 141.535 429.156 141.237 429.156C141.022 429.156 140.821 429.175 140.635 429.212C140.448 429.249 140.247 429.315 140.033 429.408C139.827 429.492 139.58 429.618 139.291 429.786L138.283 428.442L138.885 424.116H144.513V426.118H140.019L140.635 425.334L140.173 428.442L139.333 428.162C139.51 428.003 139.725 427.863 139.977 427.742C140.238 427.621 140.518 427.523 140.817 427.448C141.115 427.364 141.414 427.322 141.713 427.322C142.329 427.322 142.879 427.467 143.365 427.756C143.859 428.036 144.251 428.428 144.541 428.932C144.83 429.436 144.975 430.015 144.975 430.668C144.975 431.312 144.811 431.895 144.485 432.418C144.158 432.931 143.719 433.342 143.169 433.65C142.618 433.949 141.993 434.098 141.293 434.098ZM150.571 434V426.076L151.845 426.104L148.303 430.444L147.967 430.024H154.463V431.984H146.903L145.951 430.15L150.949 424.116H152.867V434H150.571Z" fill="#F59E0B"/>
<mask id="path-32-inside-11_29_334" fill="white">
<path d="M41 457C41 454.791 42.7909 453 45 453H197C199.209 453 201 454.791 201 457V482C201 484.209 199.209 486 197 486H45C42.7909 486 41 484.209 41 482V457Z"/>
</mask>
<path d="M41 457C41 454.791 42.7909 453 45 453H197C199.209 453 201 454.791 201 457V482C201 484.209 199.209 486 197 486H45C42.7909 486 41 484.209 41 482V457Z" fill="#0F1521"/>
<path d="M45 453V454H197V453V452H45V453ZM201 457H200V482H201H202V457H201ZM197 486V485H45V486V487H197V486ZM41 482H42V457H41H40V482H41ZM45 486V485C43.3431 485 42 483.657 42 482H41H40C40 484.761 42.2386 487 45 487V486ZM201 482H200C200 483.657 198.657 485 197 485V486V487C199.761 487 202 484.761 202 482H201ZM197 453V454C198.657 454 200 455.343 200 457H201H202C202 454.239 199.761 452 197 452V453ZM45 453V452C42.2386 452 40 454.239 40 457H41H42C42 455.343 43.3431 454 45 454V453Z" fill="#00B4FF" mask="url(#path-32-inside-11_29_334)"/>
<path d="M86.5818 475C86.0778 475 85.6018 474.911 85.1538 474.734C84.7152 474.547 84.3325 474.295 84.0058 473.978C83.6792 473.651 83.4178 473.273 83.2218 472.844C83.0352 472.415 82.9418 471.953 82.9418 471.458C82.9418 471.113 82.9792 470.781 83.0538 470.464C83.1285 470.137 83.2312 469.811 83.3618 469.484C83.5018 469.148 83.6652 468.807 83.8518 468.462C84.0478 468.107 84.2625 467.734 84.4958 467.342L85.8678 465.046H88.0658L88.1218 465.186L86.2178 468.182C85.9752 468.574 85.7652 468.943 85.5878 469.288C85.4105 469.624 85.2518 469.96 85.1118 470.296C84.9718 470.632 84.8318 470.987 84.6918 471.36L84.2438 470.394C84.3372 470.067 84.4865 469.769 84.6918 469.498C84.8972 469.218 85.1352 468.98 85.4058 468.784C85.6858 468.579 85.9752 468.425 86.2738 468.322C86.5725 468.21 86.8665 468.154 87.1558 468.154C87.7065 468.154 88.2105 468.303 88.6678 468.602C89.1345 468.891 89.5078 469.279 89.7878 469.764C90.0678 470.249 90.2078 470.781 90.2078 471.36C90.2078 472.051 90.0492 472.671 89.7318 473.222C89.4238 473.773 88.9945 474.207 88.4438 474.524C87.9025 474.841 87.2818 475 86.5818 475ZM86.6098 473.04C86.9085 473.04 87.1698 472.975 87.3938 472.844C87.6272 472.713 87.8092 472.531 87.9398 472.298C88.0705 472.055 88.1358 471.78 88.1358 471.472C88.1358 471.211 88.0658 470.968 87.9258 470.744C87.7952 470.511 87.6132 470.324 87.3798 470.184C87.1558 470.035 86.9038 469.96 86.6238 469.96C86.3252 469.96 86.0545 470.03 85.8118 470.17C85.5785 470.301 85.3965 470.483 85.2658 470.716C85.1352 470.94 85.0698 471.192 85.0698 471.472C85.0698 471.771 85.1352 472.041 85.2658 472.284C85.3965 472.517 85.5785 472.704 85.8118 472.844C86.0452 472.975 86.3112 473.04 86.6098 473.04ZM100.63 474.258L95.5896 469.218L96.9336 467.902L101.974 472.942L100.63 474.258ZM96.9336 474.3L95.6176 472.942L100.644 467.902L101.974 469.246L96.9336 474.3ZM109.947 474.314V466.362L110.465 467.552L108.365 468.546L107.959 466.418L110.745 465.06H112.285V474.314H109.947ZM108.155 475V472.9H114.119V475H108.155ZM119.559 475.14C118.681 475.14 117.93 474.939 117.305 474.538C116.689 474.137 116.217 473.563 115.891 472.816C115.564 472.06 115.401 471.155 115.401 470.1C115.401 469.045 115.564 468.145 115.891 467.398C116.217 466.642 116.689 466.063 117.305 465.662C117.93 465.261 118.681 465.06 119.559 465.06C120.436 465.06 121.187 465.261 121.813 465.662C122.438 466.063 122.914 466.642 123.241 467.398C123.567 468.145 123.731 469.045 123.731 470.1C123.731 471.155 123.567 472.06 123.241 472.816C122.914 473.563 122.438 474.137 121.813 474.538C121.187 474.939 120.436 475.14 119.559 475.14ZM119.559 473.124C120.165 473.124 120.632 472.863 120.959 472.34C121.295 471.817 121.463 471.071 121.463 470.1C121.463 469.101 121.295 468.336 120.959 467.804C120.632 467.263 120.165 466.992 119.559 466.992C118.952 466.992 118.481 467.263 118.145 467.804C117.818 468.336 117.655 469.101 117.655 470.1C117.655 471.071 117.818 471.817 118.145 472.34C118.481 472.863 118.952 473.124 119.559 473.124ZM129.71 470.45V468.63H136.556V470.45H129.71ZM129.71 473.488V471.682H136.556V473.488H129.71Z" fill="white"/>
<path d="M146.095 475C145.591 475 145.115 474.911 144.667 474.734C144.229 474.547 143.846 474.295 143.519 473.978C143.193 473.651 142.931 473.273 142.735 472.844C142.549 472.415 142.455 471.953 142.455 471.458C142.455 471.113 142.493 470.781 142.567 470.464C142.642 470.137 142.745 469.811 142.875 469.484C143.015 469.148 143.179 468.807 143.365 468.462C143.561 468.107 143.776 467.734 144.009 467.342L145.381 465.046H147.579L147.635 465.186L145.731 468.182C145.489 468.574 145.279 468.943 145.101 469.288C144.924 469.624 144.765 469.96 144.625 470.296C144.485 470.632 144.345 470.987 144.205 471.36L143.757 470.394C143.851 470.067 144 469.769 144.205 469.498C144.411 469.218 144.649 468.98 144.919 468.784C145.199 468.579 145.489 468.425 145.787 468.322C146.086 468.21 146.38 468.154 146.669 468.154C147.22 468.154 147.724 468.303 148.181 468.602C148.648 468.891 149.021 469.279 149.301 469.764C149.581 470.249 149.721 470.781 149.721 471.36C149.721 472.051 149.563 472.671 149.245 473.222C148.937 473.773 148.508 474.207 147.957 474.524C147.416 474.841 146.795 475 146.095 475ZM146.123 473.04C146.422 473.04 146.683 472.975 146.907 472.844C147.141 472.713 147.323 472.531 147.453 472.298C147.584 472.055 147.649 471.78 147.649 471.472C147.649 471.211 147.579 470.968 147.439 470.744C147.309 470.511 147.127 470.324 146.893 470.184C146.669 470.035 146.417 469.96 146.137 469.96C145.839 469.96 145.568 470.03 145.325 470.17C145.092 470.301 144.91 470.483 144.779 470.716C144.649 470.94 144.583 471.192 144.583 471.472C144.583 471.771 144.649 472.041 144.779 472.284C144.91 472.517 145.092 472.704 145.325 472.844C145.559 472.975 145.825 473.04 146.123 473.04ZM154.805 475.14C153.928 475.14 153.176 474.939 152.551 474.538C151.935 474.137 151.464 473.563 151.137 472.816C150.81 472.06 150.647 471.155 150.647 470.1C150.647 469.045 150.81 468.145 151.137 467.398C151.464 466.642 151.935 466.063 152.551 465.662C153.176 465.261 153.928 465.06 154.805 465.06C155.682 465.06 156.434 465.261 157.059 465.662C157.684 466.063 158.16 466.642 158.487 467.398C158.814 468.145 158.977 469.045 158.977 470.1C158.977 471.155 158.814 472.06 158.487 472.816C158.16 473.563 157.684 474.137 157.059 474.538C156.434 474.939 155.682 475.14 154.805 475.14ZM154.805 473.124C155.412 473.124 155.878 472.863 156.205 472.34C156.541 471.817 156.709 471.071 156.709 470.1C156.709 469.101 156.541 468.336 156.205 467.804C155.878 467.263 155.412 466.992 154.805 466.992C154.198 466.992 153.727 467.263 153.391 467.804C153.064 468.336 152.901 469.101 152.901 470.1C152.901 471.071 153.064 471.817 153.391 472.34C153.727 472.863 154.198 473.124 154.805 473.124Z" fill="#F59E0B"/>
</g>
<defs>
<filter id="filter0_d_29_334" x="0" y="0" width="242" height="530" filterUnits="userSpaceOnUse" color-interpolation-filters="sRGB">
<feFlood flood-opacity="0" result="BackgroundImageFix"/>
<feColorMatrix in="SourceAlpha" type="matrix" values="0 0 0 0 0 0 0 0 0 0 0 0 0 0 0 0 0 0 127 0" result="hardAlpha"/>
<feOffset/>
<feGaussianBlur stdDeviation="7.5"/>
<feComposite in2="hardAlpha" operator="out"/>
<feColorMatrix type="matrix" values="0 0 0 0 0 0 0 0 0 0.705882 0 0 0 0 1 0 0 0 0.2 0"/>
<feBlend mode="normal" in2="BackgroundImageFix" result="effect1_dropShadow_29_334"/>
<feBlend mode="normal" in="SourceGraphic" in2="effect1_dropShadow_29_334" result="shape"/>
</filter>
<linearGradient id="paint0_linear_29_334" x1="15" y1="15" x2="374.39" y2="167.381" gradientUnits="userSpaceOnUse">
<stop stop-color="#1A2332"/>
<stop offset="0.166667" stop-color="#18212F"/>
<stop offset="0.333333" stop-color="#161E2C"/>
<stop offset="0.5" stop-color="#141C29"/>
<stop offset="0.666667" stop-color="#131A27"/>
<stop offset="0.833333" stop-color="#111724"/>
<stop offset="1" stop-color="#0F1521"/>
</linearGradient>
</defs>
</svg>
