<svg width="242" height="530" viewBox="0 0 242 530" fill="none" xmlns="http://www.w3.org/2000/svg">
<g filter="url(#filter0_d_29_362)">
<mask id="path-1-inside-1_29_362" fill="white">
<path d="M15 25C15 19.4771 19.4772 15 25 15H217C222.523 15 227 19.4772 227 25V505C227 510.523 222.523 515 217 515H25C19.4772 515 15 510.523 15 505V25Z"/>
</mask>
<path d="M15 25C15 19.4771 19.4772 15 25 15H217C222.523 15 227 19.4772 227 25V505C227 510.523 222.523 515 217 515H25C19.4772 515 15 510.523 15 505V25Z" fill="url(#paint0_linear_29_362)" shape-rendering="crispEdges"/>
<path d="M25 15V17H217V15V13H25V15ZM227 25H225V505H227H229V25H227ZM217 515V513H25V515V517H217V515ZM15 505H17V25H15H13V505H15ZM25 515V513C20.5817 513 17 509.418 17 505H15H13C13 511.627 18.3726 517 25 517V515ZM227 505H225C225 509.418 221.418 513 217 513V515V517C223.627 517 229 511.627 229 505H227ZM217 15V17C221.418 17 225 20.5817 225 25H227H229C229 18.3726 223.627 13 217 13V15ZM25 15V13C18.3726 13 13 18.3726 13 25H15H17C17 20.5817 20.5817 17 25 17V15Z" fill="#00B4FF" mask="url(#path-1-inside-1_29_362)"/>
<path d="M41 39C41 33.4772 45.4772 29 51 29H191C196.523 29 201 33.4772 201 39V70C201 75.5228 196.523 80 191 80H51C45.4772 80 41 75.5228 41 70V39Z" fill="#00B4FF"/>
<path d="M59.9983 64V50.8H55.0063V47.2H69.1903V50.8H64.0783V64H59.9983ZM73.9822 64.216C72.9102 64.216 71.9502 63.936 71.1022 63.376C70.2702 62.8 69.6062 62.016 69.1102 61.024C68.6142 60.016 68.3662 58.88 68.3662 57.616C68.3662 56.32 68.6142 55.176 69.1102 54.184C69.6062 53.192 70.2862 52.416 71.1502 51.856C72.0142 51.28 72.9982 50.992 74.1022 50.992C74.7102 50.992 75.2622 51.08 75.7582 51.256C76.2702 51.432 76.7182 51.68 77.1022 52C77.4862 52.304 77.8142 52.664 78.0862 53.08C78.3582 53.48 78.5582 53.912 78.6862 54.376L77.8942 54.28V51.256H81.7102V64H77.8222V60.928L78.6862 60.904C78.5582 61.352 78.3502 61.776 78.0622 62.176C77.7742 62.576 77.4222 62.928 77.0062 63.232C76.5902 63.536 76.1262 63.776 75.6142 63.952C75.1022 64.128 74.5582 64.216 73.9822 64.216ZM75.0382 60.976C75.6302 60.976 76.1422 60.84 76.5742 60.568C77.0062 60.296 77.3422 59.912 77.5822 59.416C77.8222 58.904 77.9422 58.304 77.9422 57.616C77.9422 56.928 77.8222 56.336 77.5822 55.84C77.3422 55.328 77.0062 54.936 76.5742 54.664C76.1422 54.376 75.6302 54.232 75.0382 54.232C74.4622 54.232 73.9582 54.376 73.5262 54.664C73.1102 54.936 72.7822 55.328 72.5422 55.84C72.3022 56.336 72.1822 56.928 72.1822 57.616C72.1822 58.304 72.3022 58.904 72.5422 59.416C72.7822 59.912 73.1102 60.296 73.5262 60.568C73.9582 60.84 74.4622 60.976 75.0382 60.976ZM92.7545 64.264C92.1785 64.264 91.6265 64.184 91.0985 64.024C90.5705 63.864 90.0905 63.648 89.6585 63.376C89.2425 63.104 88.8905 62.792 88.6025 62.44C88.3305 62.072 88.1465 61.696 88.0505 61.312L88.8905 61.024L88.6745 63.976H85.0985V46.24H88.9625V54.304L88.1705 54.016C88.2665 53.6 88.4505 53.216 88.7225 52.864C88.9945 52.496 89.3385 52.176 89.7545 51.904C90.1705 51.616 90.6265 51.392 91.1225 51.232C91.6185 51.072 92.1305 50.992 92.6585 50.992C93.7625 50.992 94.7385 51.28 95.5865 51.856C96.4505 52.416 97.1305 53.2 97.6265 54.208C98.1225 55.2 98.3705 56.336 98.3705 57.616C98.3705 58.912 98.1225 60.064 97.6265 61.072C97.1465 62.064 96.4825 62.848 95.6345 63.424C94.7865 63.984 93.8265 64.264 92.7545 64.264ZM91.7465 61.024C92.3225 61.024 92.8265 60.88 93.2585 60.592C93.6905 60.304 94.0185 59.912 94.2425 59.416C94.4825 58.904 94.6025 58.304 94.6025 57.616C94.6025 56.944 94.4825 56.352 94.2425 55.84C94.0185 55.328 93.6905 54.936 93.2585 54.664C92.8265 54.392 92.3225 54.256 91.7465 54.256C91.1545 54.256 90.6425 54.392 90.2105 54.664C89.7785 54.936 89.4425 55.328 89.2025 55.84C88.9625 56.352 88.8425 56.944 88.8425 57.616C88.8425 58.304 88.9625 58.904 89.2025 59.416C89.4425 59.912 89.7785 60.304 90.2105 60.592C90.6425 60.88 91.1545 61.024 91.7465 61.024ZM100.919 64V46.24H104.759V64H100.919ZM112.654 64.216C111.582 64.216 110.622 63.936 109.774 63.376C108.942 62.8 108.278 62.016 107.782 61.024C107.286 60.016 107.038 58.88 107.038 57.616C107.038 56.32 107.286 55.176 107.782 54.184C108.278 53.192 108.958 52.416 109.822 51.856C110.686 51.28 111.67 50.992 112.774 50.992C113.382 50.992 113.934 51.08 114.43 51.256C114.942 51.432 115.39 51.68 115.774 52C116.158 52.304 116.486 52.664 116.758 53.08C117.03 53.48 117.23 53.912 117.358 54.376L116.566 54.28V51.256H120.382V64H116.494V60.928L117.358 60.904C117.23 61.352 117.022 61.776 116.734 62.176C116.446 62.576 116.094 62.928 115.678 63.232C115.262 63.536 114.798 63.776 114.286 63.952C113.774 64.128 113.23 64.216 112.654 64.216ZM113.71 60.976C114.302 60.976 114.814 60.84 115.246 60.568C115.678 60.296 116.014 59.912 116.254 59.416C116.494 58.904 116.614 58.304 116.614 57.616C116.614 56.928 116.494 56.336 116.254 55.84C116.014 55.328 115.678 54.936 115.246 54.664C114.814 54.376 114.302 54.232 113.71 54.232C113.134 54.232 112.63 54.376 112.198 54.664C111.782 54.936 111.454 55.328 111.214 55.84C110.974 56.336 110.854 56.928 110.854 57.616C110.854 58.304 110.974 58.904 111.214 59.416C111.454 59.912 111.782 60.296 112.198 60.568C112.63 60.84 113.134 60.976 113.71 60.976ZM136.282 64.264C135.178 64.264 134.194 63.984 133.33 63.424C132.482 62.848 131.81 62.064 131.314 61.072C130.818 60.064 130.57 58.92 130.57 57.64C130.57 56.36 130.818 55.224 131.314 54.232C131.81 53.224 132.49 52.432 133.354 51.856C134.218 51.28 135.21 50.992 136.33 50.992C136.906 50.992 137.458 51.08 137.986 51.256C138.514 51.432 138.994 51.672 139.426 51.976C139.858 52.28 140.21 52.632 140.482 53.032C140.754 53.416 140.914 53.816 140.962 54.232L140.05 54.448V46.24H143.914V64H140.338L140.122 61.096L140.89 61.216C140.842 61.616 140.682 62 140.41 62.368C140.154 62.736 139.818 63.064 139.402 63.352C138.986 63.624 138.506 63.84 137.962 64C137.434 64.176 136.874 64.264 136.282 64.264ZM137.266 61.072C137.858 61.072 138.37 60.928 138.802 60.64C139.234 60.352 139.562 59.952 139.786 59.44C140.026 58.928 140.146 58.328 140.146 57.64C140.146 56.936 140.026 56.328 139.786 55.816C139.562 55.304 139.234 54.904 138.802 54.616C138.37 54.328 137.858 54.184 137.266 54.184C136.674 54.184 136.162 54.328 135.73 54.616C135.314 54.904 134.986 55.304 134.746 55.816C134.506 56.328 134.386 56.936 134.386 57.64C134.386 58.328 134.506 58.928 134.746 59.44C134.986 59.952 135.314 60.352 135.73 60.64C136.162 60.928 136.674 61.072 137.266 61.072ZM153.233 64.24C151.825 64.24 150.601 63.96 149.561 63.4C148.521 62.824 147.713 62.048 147.137 61.072C146.561 60.08 146.273 58.952 146.273 57.688C146.273 56.712 146.433 55.816 146.753 55C147.073 54.184 147.521 53.48 148.097 52.888C148.673 52.28 149.353 51.816 150.137 51.496C150.937 51.16 151.809 50.992 152.753 50.992C153.649 50.992 154.465 51.152 155.201 51.472C155.953 51.792 156.601 52.24 157.145 52.816C157.689 53.392 158.105 54.072 158.393 54.856C158.681 55.64 158.809 56.496 158.777 57.424L158.753 58.456H148.601L148.049 56.296H155.633L155.225 56.752V56.272C155.193 55.872 155.065 55.52 154.841 55.216C154.633 54.896 154.353 54.648 154.001 54.472C153.649 54.296 153.249 54.208 152.801 54.208C152.177 54.208 151.641 54.336 151.193 54.592C150.761 54.832 150.433 55.192 150.209 55.672C149.985 56.136 149.873 56.712 149.873 57.4C149.873 58.104 150.017 58.72 150.305 59.248C150.609 59.76 151.041 60.16 151.601 60.448C152.177 60.736 152.857 60.88 153.641 60.88C154.185 60.88 154.665 60.8 155.081 60.64C155.513 60.48 155.977 60.208 156.473 59.824L158.273 62.368C157.777 62.8 157.249 63.152 156.689 63.424C156.129 63.696 155.553 63.896 154.961 64.024C154.385 64.168 153.809 64.24 153.233 64.24ZM161.248 64V46.24H165.088V64H161.248ZM176.512 64L183.232 48.688L184.384 50.608H175.6V47.056H186.544L186.928 49L180.592 64H176.512Z" fill="#0F1521"/>
<mask id="path-5-inside-2_29_362" fill="white">
<path d="M41 88C41 85.7909 42.7909 84 45 84H197C199.209 84 201 85.7909 201 88V113C201 115.209 199.209 117 197 117H45C42.7909 117 41 115.209 41 113V88Z"/>
</mask>
<path d="M41 88C41 85.7909 42.7909 84 45 84H197C199.209 84 201 85.7909 201 88V113C201 115.209 199.209 117 197 117H45C42.7909 117 41 115.209 41 113V88Z" fill="#0F1521"/>
<path d="M45 84V85H197V84V83H45V84ZM201 88H200V113H201H202V88H201ZM197 117V116H45V117V118H197V117ZM41 113H42V88H41H40V113H41ZM45 117V116C43.3431 116 42 114.657 42 113H41H40C40 115.761 42.2386 118 45 118V117ZM201 113H200C200 114.657 198.657 116 197 116V117V118C199.761 118 202 115.761 202 113H201ZM197 84V85C198.657 85 200 86.3431 200 88H201H202C202 85.2386 199.761 83 197 83V84ZM45 84V83C42.2386 83 40 85.2386 40 88H41H42C42 86.3431 43.3431 85 45 85V84Z" fill="#00B4FF" mask="url(#path-5-inside-2_29_362)"/>
<path d="M93.4582 108L97.3782 99.068L98.0502 100.188H92.9262V98.116H99.3102L99.5342 99.25L95.8382 108H93.4582ZM110.077 107.258L105.037 102.218L106.381 100.902L111.421 105.942L110.077 107.258ZM106.381 107.3L105.065 105.942L110.091 100.902L111.421 102.246L106.381 107.3ZM119.394 107.314V99.362L119.912 100.552L117.812 101.546L117.406 99.418L120.192 98.06H121.732V107.314H119.394ZM117.602 108V105.9H123.566V108H117.602ZM129.71 103.45V101.63H136.556V103.45H129.71ZM129.71 106.488V104.682H136.556V106.488H129.71Z" fill="white"/>
<path d="M143.155 108L147.075 99.068L147.747 100.188H142.623V98.116H149.007L149.231 99.25L145.535 108H143.155Z" fill="#F59E0B"/>
<mask id="path-8-inside-3_29_362" fill="white">
<path d="M41 129C41 126.791 42.7909 125 45 125H197C199.209 125 201 126.791 201 129V154C201 156.209 199.209 158 197 158H45C42.7909 158 41 156.209 41 154V129Z"/>
</mask>
<path d="M41 129C41 126.791 42.7909 125 45 125H197C199.209 125 201 126.791 201 129V154C201 156.209 199.209 158 197 158H45C42.7909 158 41 156.209 41 154V129Z" fill="#0F1521"/>
<path d="M45 125V126H197V125V124H45V125ZM201 129H200V154H201H202V129H201ZM197 158V157H45V158V159H197V158ZM41 154H42V129H41H40V154H41ZM45 158V157C43.3431 157 42 155.657 42 154H41H40C40 156.761 42.2386 159 45 159V158ZM201 154H200C200 155.657 198.657 157 197 157V158V159C199.761 159 202 156.761 202 154H201ZM197 125V126C198.657 126 200 127.343 200 129H201H202C202 126.239 199.761 124 197 124V125ZM45 125V124C42.2386 124 40 126.239 40 129H41H42C42 127.343 43.3431 126 45 126V125Z" fill="#00B4FF" mask="url(#path-8-inside-3_29_362)"/>
<path d="M88.8576 149L92.7776 140.068L93.4496 141.188H88.3256V139.116H94.7096L94.9336 140.25L91.2376 149H88.8576ZM105.476 148.258L100.436 143.218L101.78 141.902L106.82 146.942L105.476 148.258ZM101.78 148.3L100.464 146.942L105.49 141.902L106.82 143.246L101.78 148.3ZM112.666 149L112.204 147.852L115.06 144.73C115.219 144.553 115.391 144.352 115.578 144.128C115.765 143.904 115.947 143.675 116.124 143.442C116.301 143.199 116.441 142.966 116.544 142.742C116.656 142.518 116.712 142.313 116.712 142.126C116.712 141.939 116.67 141.776 116.586 141.636C116.502 141.496 116.381 141.389 116.222 141.314C116.063 141.23 115.863 141.188 115.62 141.188C115.405 141.188 115.2 141.244 115.004 141.356C114.808 141.459 114.621 141.622 114.444 141.846C114.276 142.07 114.117 142.345 113.968 142.672L112.204 141.72C112.4 141.179 112.675 140.703 113.03 140.292C113.394 139.872 113.819 139.55 114.304 139.326C114.789 139.093 115.307 138.976 115.858 138.976C116.437 138.985 116.959 139.111 117.426 139.354C117.893 139.587 118.261 139.919 118.532 140.348C118.812 140.768 118.952 141.263 118.952 141.832C118.952 142.028 118.929 142.233 118.882 142.448C118.835 142.663 118.765 142.887 118.672 143.12C118.579 143.344 118.453 143.587 118.294 143.848C118.145 144.1 117.963 144.366 117.748 144.646C117.533 144.926 117.281 145.225 116.992 145.542L114.766 147.964L114.486 146.9H119.386V149H112.666ZM124.932 144.45V142.63H131.778V144.45H124.932ZM124.932 147.488V145.682H131.778V147.488H124.932Z" fill="white"/>
<path d="M140.155 148.314V140.362L140.673 141.552L138.573 142.546L138.167 140.418L140.953 139.06H142.493V148.314H140.155ZM138.363 149V146.9H144.327V149H138.363ZM149.935 149V141.076L151.209 141.104L147.667 145.444L147.331 145.024H153.827V146.984H146.267L145.315 145.15L150.313 139.116H152.231V149H149.935Z" fill="#F59E0B"/>
<mask id="path-11-inside-4_29_362" fill="white">
<path d="M41 170C41 167.791 42.7909 166 45 166H197C199.209 166 201 167.791 201 170V195C201 197.209 199.209 199 197 199H45C42.7909 199 41 197.209 41 195V170Z"/>
</mask>
<path d="M41 170C41 167.791 42.7909 166 45 166H197C199.209 166 201 167.791 201 170V195C201 197.209 199.209 199 197 199H45C42.7909 199 41 197.209 41 195V170Z" fill="#0F1521"/>
<path d="M45 166V167H197V166V165H45V166ZM201 170H200V195H201H202V170H201ZM197 199V198H45V199V200H197V199ZM41 195H42V170H41H40V195H41ZM45 199V198C43.3431 198 42 196.657 42 195H41H40C40 197.761 42.2386 200 45 200V199ZM201 195H200C200 196.657 198.657 198 197 198V199V200C199.761 200 202 197.761 202 195H201ZM197 166V167C198.657 167 200 168.343 200 170H201H202C202 167.239 199.761 165 197 165V166ZM45 166V165C42.2386 165 40 167.239 40 170H41H42C42 168.343 43.3431 167 45 167V166Z" fill="#00B4FF" mask="url(#path-11-inside-4_29_362)"/>
<path d="M89.3567 190L93.2767 181.068L93.9487 182.188H88.8247V180.116H95.2087L95.4327 181.25L91.7367 190H89.3567ZM105.975 189.258L100.935 184.218L102.279 182.902L107.319 187.942L105.975 189.258ZM102.279 189.3L100.963 187.942L105.989 182.902L107.319 184.246L102.279 189.3ZM116.357 190.14C115.564 190.14 114.868 189.977 114.271 189.65C113.683 189.314 113.146 188.74 112.661 187.928L114.369 186.822C114.574 187.149 114.784 187.41 114.999 187.606C115.223 187.802 115.452 187.947 115.685 188.04C115.928 188.124 116.18 188.166 116.441 188.166C116.702 188.166 116.94 188.11 117.155 187.998C117.379 187.877 117.556 187.709 117.687 187.494C117.827 187.279 117.897 187.037 117.897 186.766C117.897 186.477 117.836 186.234 117.715 186.038C117.603 185.833 117.435 185.679 117.211 185.576C116.996 185.473 116.735 185.422 116.427 185.422C116.287 185.422 116.138 185.441 115.979 185.478C115.82 185.506 115.652 185.548 115.475 185.604C115.298 185.66 115.116 185.735 114.929 185.828L114.411 184.442L116.791 181.852L117.435 182.202L113.347 182.118V180.116H119.367L119.801 180.984L116.567 184.456L116.007 183.798C116.082 183.761 116.203 183.728 116.371 183.7C116.548 183.663 116.716 183.644 116.875 183.644C117.314 183.644 117.724 183.723 118.107 183.882C118.49 184.041 118.83 184.26 119.129 184.54C119.428 184.82 119.661 185.151 119.829 185.534C119.997 185.907 120.081 186.309 120.081 186.738C120.081 187.391 119.913 187.975 119.577 188.488C119.25 188.992 118.802 189.393 118.233 189.692C117.673 189.991 117.048 190.14 116.357 190.14ZM126.033 185.45V183.63H132.879V185.45H126.033ZM126.033 188.488V186.682H132.879V188.488H126.033Z" fill="white"/>
<path d="M139.128 190L138.666 188.852L141.522 185.73C141.68 185.553 141.853 185.352 142.04 185.128C142.226 184.904 142.408 184.675 142.586 184.442C142.763 184.199 142.903 183.966 143.006 183.742C143.118 183.518 143.174 183.313 143.174 183.126C143.174 182.939 143.132 182.776 143.048 182.636C142.964 182.496 142.842 182.389 142.684 182.314C142.525 182.23 142.324 182.188 142.082 182.188C141.867 182.188 141.662 182.244 141.466 182.356C141.27 182.459 141.083 182.622 140.906 182.846C140.738 183.07 140.579 183.345 140.43 183.672L138.666 182.72C138.862 182.179 139.137 181.703 139.492 181.292C139.856 180.872 140.28 180.55 140.766 180.326C141.251 180.093 141.769 179.976 142.32 179.976C142.898 179.985 143.421 180.111 143.888 180.354C144.354 180.587 144.723 180.919 144.994 181.348C145.274 181.768 145.414 182.263 145.414 182.832C145.414 183.028 145.39 183.233 145.344 183.448C145.297 183.663 145.227 183.887 145.134 184.12C145.04 184.344 144.914 184.587 144.756 184.848C144.606 185.1 144.424 185.366 144.21 185.646C143.995 185.926 143.743 186.225 143.454 186.542L141.228 188.964L140.948 187.9H145.848V190H139.128ZM148.926 189.314V181.362L149.444 182.552L147.344 183.546L146.938 181.418L149.724 180.06H151.264V189.314H148.926ZM147.134 190V187.9H153.098V190H147.134Z" fill="#F59E0B"/>
<mask id="path-14-inside-5_29_362" fill="white">
<path d="M41 211C41 208.791 42.7909 207 45 207H197C199.209 207 201 208.791 201 211V236C201 238.209 199.209 240 197 240H45C42.7909 240 41 238.209 41 236V211Z"/>
</mask>
<path d="M41 211C41 208.791 42.7909 207 45 207H197C199.209 207 201 208.791 201 211V236C201 238.209 199.209 240 197 240H45C42.7909 240 41 238.209 41 236V211Z" fill="#0F1521"/>
<path d="M45 207V208H197V207V206H45V207ZM201 211H200V236H201H202V211H201ZM197 240V239H45V240V241H197V240ZM41 236H42V211H41H40V236H41ZM45 240V239C43.3431 239 42 237.657 42 236H41H40C40 238.761 42.2386 241 45 241V240ZM201 236H200C200 237.657 198.657 239 197 239V240V241C199.761 241 202 238.761 202 236H201ZM197 207V208C198.657 208 200 209.343 200 211H201H202C202 208.239 199.761 206 197 206V207ZM45 207V206C42.2386 206 40 208.239 40 211H41H42C42 209.343 43.3431 208 45 208V207Z" fill="#00B4FF" mask="url(#path-14-inside-5_29_362)"/>
<path d="M88.591 231L92.511 222.068L93.183 223.188H88.059V221.116H94.443L94.667 222.25L90.971 231H88.591ZM105.21 230.258L100.17 225.218L101.514 223.902L106.554 228.942L105.21 230.258ZM101.514 230.3L100.198 228.942L105.224 223.902L106.554 225.246L101.514 230.3ZM116.459 231V223.076L117.733 223.104L114.191 227.444L113.855 227.024H120.351V228.984H112.791L111.839 227.15L116.837 221.116H118.755V231H116.459ZM126.265 226.45V224.63H133.111V226.45H126.265ZM126.265 229.488V227.682H133.111V229.488H126.265Z" fill="white"/>
<path d="M139.36 231L138.898 229.852L141.754 226.73C141.913 226.553 142.086 226.352 142.272 226.128C142.459 225.904 142.641 225.675 142.818 225.442C142.996 225.199 143.136 224.966 143.238 224.742C143.35 224.518 143.406 224.313 143.406 224.126C143.406 223.939 143.364 223.776 143.28 223.636C143.196 223.496 143.075 223.389 142.916 223.314C142.758 223.23 142.557 223.188 142.314 223.188C142.1 223.188 141.894 223.244 141.698 223.356C141.502 223.459 141.316 223.622 141.138 223.846C140.97 224.07 140.812 224.345 140.662 224.672L138.898 223.72C139.094 223.179 139.37 222.703 139.724 222.292C140.088 221.872 140.513 221.55 140.998 221.326C141.484 221.093 142.002 220.976 142.552 220.976C143.131 220.985 143.654 221.111 144.12 221.354C144.587 221.587 144.956 221.919 145.226 222.348C145.506 222.768 145.646 223.263 145.646 223.832C145.646 224.028 145.623 224.233 145.576 224.448C145.53 224.663 145.46 224.887 145.366 225.12C145.273 225.344 145.147 225.587 144.988 225.848C144.839 226.1 144.657 226.366 144.442 226.646C144.228 226.926 143.976 227.225 143.686 227.542L141.46 229.964L141.18 228.9H146.08V231H139.36ZM150.39 231.042C149.718 231.042 149.107 230.916 148.556 230.664C148.015 230.403 147.581 230.053 147.254 229.614C146.927 229.175 146.764 228.681 146.764 228.13C146.764 227.766 146.811 227.439 146.904 227.15C146.997 226.851 147.137 226.59 147.324 226.366C147.52 226.133 147.753 225.937 148.024 225.778C148.304 225.61 148.621 225.475 148.976 225.372L148.808 225.932C148.547 225.829 148.309 225.703 148.094 225.554C147.879 225.405 147.697 225.237 147.548 225.05C147.399 224.854 147.282 224.644 147.198 224.42C147.123 224.196 147.086 223.963 147.086 223.72C147.086 223.197 147.231 222.735 147.52 222.334C147.819 221.933 148.215 221.62 148.71 221.396C149.214 221.163 149.774 221.046 150.39 221.046C150.997 221.046 151.547 221.163 152.042 221.396C152.546 221.62 152.947 221.933 153.246 222.334C153.545 222.735 153.694 223.197 153.694 223.72C153.694 223.963 153.657 224.196 153.582 224.42C153.507 224.644 153.395 224.849 153.246 225.036C153.097 225.213 152.915 225.381 152.7 225.54C152.485 225.689 152.238 225.82 151.958 225.932L151.832 225.428C152.149 225.512 152.443 225.633 152.714 225.792C152.985 225.941 153.218 226.133 153.414 226.366C153.61 226.59 153.759 226.851 153.862 227.15C153.974 227.439 154.03 227.766 154.03 228.13C154.03 228.69 153.867 229.189 153.54 229.628C153.213 230.067 152.775 230.412 152.224 230.664C151.673 230.916 151.062 231.042 150.39 231.042ZM150.39 229.166C150.651 229.166 150.885 229.115 151.09 229.012C151.295 228.909 151.459 228.769 151.58 228.592C151.701 228.415 151.762 228.209 151.762 227.976C151.762 227.733 151.701 227.523 151.58 227.346C151.468 227.159 151.305 227.015 151.09 226.912C150.885 226.8 150.651 226.744 150.39 226.744C150.129 226.744 149.895 226.8 149.69 226.912C149.485 227.015 149.321 227.159 149.2 227.346C149.079 227.523 149.018 227.733 149.018 227.976C149.018 228.2 149.079 228.401 149.2 228.578C149.321 228.755 149.485 228.9 149.69 229.012C149.895 229.115 150.129 229.166 150.39 229.166ZM150.39 224.854C150.614 224.854 150.815 224.812 150.992 224.728C151.179 224.635 151.323 224.513 151.426 224.364C151.529 224.205 151.58 224.023 151.58 223.818C151.58 223.613 151.529 223.431 151.426 223.272C151.323 223.113 151.179 222.987 150.992 222.894C150.815 222.801 150.614 222.754 150.39 222.754C150.157 222.754 149.947 222.801 149.76 222.894C149.583 222.987 149.443 223.113 149.34 223.272C149.237 223.431 149.186 223.613 149.186 223.818C149.186 224.023 149.237 224.205 149.34 224.364C149.443 224.513 149.583 224.635 149.76 224.728C149.947 224.812 150.157 224.854 150.39 224.854Z" fill="#F59E0B"/>
<mask id="path-17-inside-6_29_362" fill="white">
<path d="M41 252C41 249.791 42.7909 248 45 248H197C199.209 248 201 249.791 201 252V277C201 279.209 199.209 281 197 281H45C42.7909 281 41 279.209 41 277V252Z"/>
</mask>
<path d="M41 252C41 249.791 42.7909 248 45 248H197C199.209 248 201 249.791 201 252V277C201 279.209 199.209 281 197 281H45C42.7909 281 41 279.209 41 277V252Z" fill="#0F1521"/>
<path d="M45 248V249H197V248V247H45V248ZM201 252H200V277H201H202V252H201ZM197 281V280H45V281V282H197V281ZM41 277H42V252H41H40V277H41ZM45 281V280C43.3431 280 42 278.657 42 277H41H40C40 279.761 42.2386 282 45 282V281ZM201 277H200C200 278.657 198.657 280 197 280V281V282C199.761 282 202 279.761 202 277H201ZM197 248V249C198.657 249 200 250.343 200 252H201H202C202 249.239 199.761 247 197 247V248ZM45 248V247C42.2386 247 40 249.239 40 252H41H42C42 250.343 43.3431 249 45 249V248Z" fill="#00B4FF" mask="url(#path-17-inside-6_29_362)"/>
<path d="M88.7756 270L92.6956 261.068L93.3676 262.188H88.2436V260.116H94.6276L94.8516 261.25L91.1556 270H88.7756ZM105.394 269.258L100.354 264.218L101.698 262.902L106.738 267.942L105.394 269.258ZM101.698 269.3L100.382 267.942L105.408 262.902L106.738 264.246L101.698 269.3ZM115.706 270.098C114.968 270.098 114.296 269.949 113.69 269.65C113.092 269.351 112.598 268.922 112.206 268.362L113.48 266.962C113.862 267.382 114.217 267.671 114.544 267.83C114.87 267.979 115.234 268.054 115.636 268.054C115.934 268.054 116.2 267.993 116.434 267.872C116.667 267.751 116.849 267.583 116.98 267.368C117.12 267.144 117.19 266.897 117.19 266.626C117.19 266.346 117.12 266.099 116.98 265.884C116.849 265.66 116.667 265.483 116.434 265.352C116.21 265.221 115.948 265.156 115.65 265.156C115.435 265.156 115.234 265.175 115.048 265.212C114.861 265.249 114.66 265.315 114.446 265.408C114.24 265.492 113.993 265.618 113.704 265.786L112.696 264.442L113.298 260.116H118.926V262.118H114.432L115.048 261.334L114.586 264.442L113.746 264.162C113.923 264.003 114.138 263.863 114.39 263.742C114.651 263.621 114.931 263.523 115.23 263.448C115.528 263.364 115.827 263.322 116.126 263.322C116.742 263.322 117.292 263.467 117.778 263.756C118.272 264.036 118.664 264.428 118.954 264.932C119.243 265.436 119.388 266.015 119.388 266.668C119.388 267.312 119.224 267.895 118.898 268.418C118.571 268.931 118.132 269.342 117.582 269.65C117.031 269.949 116.406 270.098 115.706 270.098ZM125.52 265.45V263.63H132.366V265.45H125.52ZM125.52 268.488V266.682H132.366V268.488H125.52Z" fill="white"/>
<path d="M141.807 270.14C141.014 270.14 140.318 269.977 139.721 269.65C139.133 269.314 138.596 268.74 138.111 267.928L139.819 266.822C140.024 267.149 140.234 267.41 140.449 267.606C140.673 267.802 140.902 267.947 141.135 268.04C141.378 268.124 141.63 268.166 141.891 268.166C142.152 268.166 142.39 268.11 142.605 267.998C142.829 267.877 143.006 267.709 143.137 267.494C143.277 267.279 143.347 267.037 143.347 266.766C143.347 266.477 143.286 266.234 143.165 266.038C143.053 265.833 142.885 265.679 142.661 265.576C142.446 265.473 142.185 265.422 141.877 265.422C141.737 265.422 141.588 265.441 141.429 265.478C141.27 265.506 141.102 265.548 140.925 265.604C140.748 265.66 140.566 265.735 140.379 265.828L139.861 264.442L142.241 261.852L142.885 262.202L138.797 262.118V260.116H144.817L145.251 260.984L142.017 264.456L141.457 263.798C141.532 263.761 141.653 263.728 141.821 263.7C141.998 263.663 142.166 263.644 142.325 263.644C142.764 263.644 143.174 263.723 143.557 263.882C143.94 264.041 144.28 264.26 144.579 264.54C144.878 264.82 145.111 265.151 145.279 265.534C145.447 265.907 145.531 266.309 145.531 266.738C145.531 267.391 145.363 267.975 145.027 268.488C144.7 268.992 144.252 269.393 143.683 269.692C143.123 269.991 142.498 270.14 141.807 270.14ZM150.009 270.098C149.271 270.098 148.599 269.949 147.993 269.65C147.395 269.351 146.901 268.922 146.509 268.362L147.783 266.962C148.165 267.382 148.52 267.671 148.847 267.83C149.173 267.979 149.537 268.054 149.939 268.054C150.237 268.054 150.503 267.993 150.737 267.872C150.97 267.751 151.152 267.583 151.283 267.368C151.423 267.144 151.493 266.897 151.493 266.626C151.493 266.346 151.423 266.099 151.283 265.884C151.152 265.66 150.97 265.483 150.737 265.352C150.513 265.221 150.251 265.156 149.953 265.156C149.738 265.156 149.537 265.175 149.351 265.212C149.164 265.249 148.963 265.315 148.749 265.408C148.543 265.492 148.296 265.618 148.007 265.786L146.999 264.442L147.601 260.116H153.229V262.118H148.735L149.351 261.334L148.889 264.442L148.049 264.162C148.226 264.003 148.441 263.863 148.693 263.742C148.954 263.621 149.234 263.523 149.533 263.448C149.831 263.364 150.13 263.322 150.429 263.322C151.045 263.322 151.595 263.467 152.081 263.756C152.575 264.036 152.967 264.428 153.257 264.932C153.546 265.436 153.691 266.015 153.691 266.668C153.691 267.312 153.527 267.895 153.201 268.418C152.874 268.931 152.435 269.342 151.885 269.65C151.334 269.949 150.709 270.098 150.009 270.098Z" fill="#F59E0B"/>
<mask id="path-20-inside-7_29_362" fill="white">
<path d="M41 293C41 290.791 42.7909 289 45 289H197C199.209 289 201 290.791 201 293V318C201 320.209 199.209 322 197 322H45C42.7909 322 41 320.209 41 318V293Z"/>
</mask>
<path d="M41 293C41 290.791 42.7909 289 45 289H197C199.209 289 201 290.791 201 293V318C201 320.209 199.209 322 197 322H45C42.7909 322 41 320.209 41 318V293Z" fill="#0F1521"/>
<path d="M45 289V290H197V289V288H45V289ZM201 293H200V318H201H202V293H201ZM197 322V321H45V322V323H197V322ZM41 318H42V293H41H40V318H41ZM45 322V321C43.3431 321 42 319.657 42 318H41H40C40 320.761 42.2386 323 45 323V322ZM201 318H200C200 319.657 198.657 321 197 321V322V323C199.761 323 202 320.761 202 318H201ZM197 289V290C198.657 290 200 291.343 200 293H201H202C202 290.239 199.761 288 197 288V289ZM45 289V288C42.2386 288 40 290.239 40 293H41H42C42 291.343 43.3431 290 45 290V289Z" fill="#00B4FF" mask="url(#path-20-inside-7_29_362)"/>
<path d="M88.8645 311L92.7845 302.068L93.4565 303.188H88.3325V301.116H94.7165L94.9405 302.25L91.2445 311H88.8645ZM105.483 310.258L100.443 305.218L101.787 303.902L106.827 308.942L105.483 310.258ZM101.787 310.3L100.471 308.942L105.497 303.902L106.827 305.246L101.787 310.3ZM115.963 311C115.459 311 114.983 310.911 114.535 310.734C114.096 310.547 113.713 310.295 113.387 309.978C113.06 309.651 112.799 309.273 112.603 308.844C112.416 308.415 112.323 307.953 112.323 307.458C112.323 307.113 112.36 306.781 112.435 306.464C112.509 306.137 112.612 305.811 112.743 305.484C112.883 305.148 113.046 304.807 113.233 304.462C113.429 304.107 113.643 303.734 113.877 303.342L115.249 301.046H117.447L117.503 301.186L115.599 304.182C115.356 304.574 115.146 304.943 114.969 305.288C114.791 305.624 114.633 305.96 114.493 306.296C114.353 306.632 114.213 306.987 114.073 307.36L113.625 306.394C113.718 306.067 113.867 305.769 114.073 305.498C114.278 305.218 114.516 304.98 114.787 304.784C115.067 304.579 115.356 304.425 115.655 304.322C115.953 304.21 116.247 304.154 116.537 304.154C117.087 304.154 117.591 304.303 118.049 304.602C118.515 304.891 118.889 305.279 119.169 305.764C119.449 306.249 119.589 306.781 119.589 307.36C119.589 308.051 119.43 308.671 119.113 309.222C118.805 309.773 118.375 310.207 117.825 310.524C117.283 310.841 116.663 311 115.963 311ZM115.991 309.04C116.289 309.04 116.551 308.975 116.775 308.844C117.008 308.713 117.19 308.531 117.321 308.298C117.451 308.055 117.517 307.78 117.517 307.472C117.517 307.211 117.447 306.968 117.307 306.744C117.176 306.511 116.994 306.324 116.761 306.184C116.537 306.035 116.285 305.96 116.005 305.96C115.706 305.96 115.435 306.03 115.193 306.17C114.959 306.301 114.777 306.483 114.647 306.716C114.516 306.94 114.451 307.192 114.451 307.472C114.451 307.771 114.516 308.041 114.647 308.284C114.777 308.517 114.959 308.704 115.193 308.844C115.426 308.975 115.692 309.04 115.991 309.04ZM125.376 306.45V304.63H132.222V306.45H125.376ZM125.376 309.488V307.682H132.222V309.488H125.376Z" fill="white"/>
<path d="M142.532 311V303.076L143.806 303.104L140.264 307.444L139.928 307.024H146.424V308.984H138.864L137.912 307.15L142.91 301.116H144.828V311H142.532ZM147.468 311L147.006 309.852L149.862 306.73C150.02 306.553 150.193 306.352 150.38 306.128C150.566 305.904 150.748 305.675 150.926 305.442C151.103 305.199 151.243 304.966 151.346 304.742C151.458 304.518 151.514 304.313 151.514 304.126C151.514 303.939 151.472 303.776 151.388 303.636C151.304 303.496 151.182 303.389 151.024 303.314C150.865 303.23 150.664 303.188 150.422 303.188C150.207 303.188 150.002 303.244 149.806 303.356C149.61 303.459 149.423 303.622 149.246 303.846C149.078 304.07 148.919 304.345 148.77 304.672L147.006 303.72C147.202 303.179 147.477 302.703 147.832 302.292C148.196 301.872 148.62 301.55 149.106 301.326C149.591 301.093 150.109 300.976 150.66 300.976C151.238 300.985 151.761 301.111 152.228 301.354C152.694 301.587 153.063 301.919 153.334 302.348C153.614 302.768 153.754 303.263 153.754 303.832C153.754 304.028 153.73 304.233 153.684 304.448C153.637 304.663 153.567 304.887 153.474 305.12C153.38 305.344 153.254 305.587 153.096 305.848C152.946 306.1 152.764 306.366 152.55 306.646C152.335 306.926 152.083 307.225 151.794 307.542L149.568 309.964L149.288 308.9H154.188V311H147.468Z" fill="#F59E0B"/>
<mask id="path-23-inside-8_29_362" fill="white">
<path d="M41 334C41 331.791 42.7909 330 45 330H197C199.209 330 201 331.791 201 334V359C201 361.209 199.209 363 197 363H45C42.7909 363 41 361.209 41 359V334Z"/>
</mask>
<path d="M41 334C41 331.791 42.7909 330 45 330H197C199.209 330 201 331.791 201 334V359C201 361.209 199.209 363 197 363H45C42.7909 363 41 361.209 41 359V334Z" fill="#0F1521"/>
<path d="M45 330V331H197V330V329H45V330ZM201 334H200V359H201H202V334H201ZM197 363V362H45V363V364H197V363ZM41 359H42V334H41H40V359H41ZM45 363V362C43.3431 362 42 360.657 42 359H41H40C40 361.761 42.2386 364 45 364V363ZM201 359H200C200 360.657 198.657 362 197 362V363V364C199.761 364 202 361.761 202 359H201ZM197 330V331C198.657 331 200 332.343 200 334H201H202C202 331.239 199.761 329 197 329V330ZM45 330V329C42.2386 329 40 331.239 40 334H41H42C42 332.343 43.3431 331 45 331V330Z" fill="#00B4FF" mask="url(#path-23-inside-8_29_362)"/>
<path d="M88.7073 352L92.6273 343.068L93.2993 344.188H88.1753V342.116H94.5593L94.7833 343.25L91.0873 352H88.7073ZM105.326 351.258L100.286 346.218L101.63 344.902L106.67 349.942L105.326 351.258ZM101.63 351.3L100.314 349.942L105.34 344.902L106.67 346.246L101.63 351.3ZM112.865 352L116.785 343.068L117.457 344.188H112.333V342.116H118.717L118.941 343.25L115.245 352H112.865ZM124.85 347.45V345.63H131.696V347.45H124.85ZM124.85 350.488V348.682H131.696V350.488H124.85Z" fill="white"/>
<path d="M142.005 352V344.076L143.279 344.104L139.737 348.444L139.401 348.024H145.897V349.984H138.337L137.385 348.15L142.383 342.116H144.301V352H142.005ZM149.301 352L149.245 351.86L152.311 345.672L152.717 346.512C152.623 346.848 152.474 347.151 152.269 347.422C152.063 347.693 151.816 347.931 151.527 348.136C151.247 348.332 150.953 348.486 150.645 348.598C150.337 348.701 150.043 348.752 149.763 348.752C149.231 348.752 148.741 348.607 148.293 348.318C147.845 348.029 147.485 347.641 147.215 347.156C146.944 346.671 146.809 346.143 146.809 345.574C146.809 344.902 146.967 344.295 147.285 343.754C147.611 343.203 148.05 342.769 148.601 342.452C149.151 342.125 149.772 341.962 150.463 341.962C150.967 341.962 151.438 342.051 151.877 342.228C152.315 342.405 152.698 342.653 153.025 342.97C153.361 343.278 153.622 343.637 153.809 344.048C153.995 344.459 154.089 344.893 154.089 345.35C154.089 345.686 154.061 346.017 154.005 346.344C153.949 346.661 153.86 346.988 153.739 347.324C153.617 347.66 153.473 348.01 153.305 348.374C153.146 348.738 152.959 349.135 152.745 349.564L151.513 352H149.301ZM150.337 346.876C150.626 346.876 150.883 346.811 151.107 346.68C151.331 346.549 151.503 346.377 151.625 346.162C151.755 345.938 151.821 345.691 151.821 345.42C151.821 345.131 151.755 344.874 151.625 344.65C151.503 344.417 151.331 344.235 151.107 344.104C150.892 343.973 150.64 343.908 150.351 343.908C150.071 343.908 149.823 343.973 149.609 344.104C149.403 344.225 149.235 344.403 149.105 344.636C148.983 344.86 148.923 345.121 148.923 345.42C148.923 345.672 148.983 345.91 149.105 346.134C149.235 346.349 149.408 346.526 149.623 346.666C149.837 346.806 150.075 346.876 150.337 346.876Z" fill="#F59E0B"/>
<mask id="path-26-inside-9_29_362" fill="white">
<path d="M41 375C41 372.791 42.7909 371 45 371H197C199.209 371 201 372.791 201 375V400C201 402.209 199.209 404 197 404H45C42.7909 404 41 402.209 41 400V375Z"/>
</mask>
<path d="M41 375C41 372.791 42.7909 371 45 371H197C199.209 371 201 372.791 201 375V400C201 402.209 199.209 404 197 404H45C42.7909 404 41 402.209 41 400V375Z" fill="#0F1521"/>
<path d="M45 371V372H197V371V370H45V371ZM201 375H200V400H201H202V375H201ZM197 404V403H45V404V405H197V404ZM41 400H42V375H41H40V400H41ZM45 404V403C43.3431 403 42 401.657 42 400H41H40C40 402.761 42.2386 405 45 405V404ZM201 400H200C200 401.657 198.657 403 197 403V404V405C199.761 405 202 402.761 202 400H201ZM197 371V372C198.657 372 200 373.343 200 375H201H202C202 372.239 199.761 370 197 370V371ZM45 371V370C42.2386 370 40 372.239 40 375H41H42C42 373.343 43.3431 372 45 372V371Z" fill="#00B4FF" mask="url(#path-26-inside-9_29_362)"/>
<path d="M88.8371 393L92.7571 384.068L93.4291 385.188H88.3051V383.116H94.6891L94.9131 384.25L91.2171 393H88.8371ZM105.456 392.258L100.416 387.218L101.76 385.902L106.8 390.942L105.456 392.258ZM101.76 392.3L100.444 390.942L105.47 385.902L106.8 387.246L101.76 392.3ZM116.005 393.042C115.333 393.042 114.722 392.916 114.171 392.664C113.63 392.403 113.196 392.053 112.869 391.614C112.543 391.175 112.379 390.681 112.379 390.13C112.379 389.766 112.426 389.439 112.519 389.15C112.613 388.851 112.753 388.59 112.939 388.366C113.135 388.133 113.369 387.937 113.639 387.778C113.919 387.61 114.237 387.475 114.591 387.372L114.423 387.932C114.162 387.829 113.924 387.703 113.709 387.554C113.495 387.405 113.313 387.237 113.163 387.05C113.014 386.854 112.897 386.644 112.813 386.42C112.739 386.196 112.701 385.963 112.701 385.72C112.701 385.197 112.846 384.735 113.135 384.334C113.434 383.933 113.831 383.62 114.325 383.396C114.829 383.163 115.389 383.046 116.005 383.046C116.612 383.046 117.163 383.163 117.657 383.396C118.161 383.62 118.563 383.933 118.861 384.334C119.16 384.735 119.309 385.197 119.309 385.72C119.309 385.963 119.272 386.196 119.197 386.42C119.123 386.644 119.011 386.849 118.861 387.036C118.712 387.213 118.53 387.381 118.315 387.54C118.101 387.689 117.853 387.82 117.573 387.932L117.447 387.428C117.765 387.512 118.059 387.633 118.329 387.792C118.6 387.941 118.833 388.133 119.029 388.366C119.225 388.59 119.375 388.851 119.477 389.15C119.589 389.439 119.645 389.766 119.645 390.13C119.645 390.69 119.482 391.189 119.155 391.628C118.829 392.067 118.39 392.412 117.839 392.664C117.289 392.916 116.677 393.042 116.005 393.042ZM116.005 391.166C116.267 391.166 116.5 391.115 116.705 391.012C116.911 390.909 117.074 390.769 117.195 390.592C117.317 390.415 117.377 390.209 117.377 389.976C117.377 389.733 117.317 389.523 117.195 389.346C117.083 389.159 116.92 389.015 116.705 388.912C116.5 388.8 116.267 388.744 116.005 388.744C115.744 388.744 115.511 388.8 115.305 388.912C115.1 389.015 114.937 389.159 114.815 389.346C114.694 389.523 114.633 389.733 114.633 389.976C114.633 390.2 114.694 390.401 114.815 390.578C114.937 390.755 115.1 390.9 115.305 391.012C115.511 391.115 115.744 391.166 116.005 391.166ZM116.005 386.854C116.229 386.854 116.43 386.812 116.607 386.728C116.794 386.635 116.939 386.513 117.041 386.364C117.144 386.205 117.195 386.023 117.195 385.818C117.195 385.613 117.144 385.431 117.041 385.272C116.939 385.113 116.794 384.987 116.607 384.894C116.43 384.801 116.229 384.754 116.005 384.754C115.772 384.754 115.562 384.801 115.375 384.894C115.198 384.987 115.058 385.113 114.955 385.272C114.853 385.431 114.801 385.613 114.801 385.818C114.801 386.023 114.853 386.205 114.955 386.364C115.058 386.513 115.198 386.635 115.375 386.728C115.562 386.812 115.772 386.854 116.005 386.854ZM125.623 388.45V386.63H132.469V388.45H125.623ZM125.623 391.488V389.682H132.469V391.488H125.623Z" fill="white"/>
<path d="M141.84 393.098C141.102 393.098 140.43 392.949 139.824 392.65C139.226 392.351 138.732 391.922 138.34 391.362L139.614 389.962C139.996 390.382 140.351 390.671 140.678 390.83C141.004 390.979 141.368 391.054 141.77 391.054C142.068 391.054 142.334 390.993 142.568 390.872C142.801 390.751 142.983 390.583 143.114 390.368C143.254 390.144 143.324 389.897 143.324 389.626C143.324 389.346 143.254 389.099 143.114 388.884C142.983 388.66 142.801 388.483 142.568 388.352C142.344 388.221 142.082 388.156 141.784 388.156C141.569 388.156 141.368 388.175 141.182 388.212C140.995 388.249 140.794 388.315 140.58 388.408C140.374 388.492 140.127 388.618 139.838 388.786L138.83 387.442L139.432 383.116H145.06V385.118H140.566L141.182 384.334L140.72 387.442L139.88 387.162C140.057 387.003 140.272 386.863 140.524 386.742C140.785 386.621 141.065 386.523 141.364 386.448C141.662 386.364 141.961 386.322 142.26 386.322C142.876 386.322 143.426 386.467 143.912 386.756C144.406 387.036 144.798 387.428 145.088 387.932C145.377 388.436 145.522 389.015 145.522 389.668C145.522 390.312 145.358 390.895 145.032 391.418C144.705 391.931 144.266 392.342 143.716 392.65C143.165 392.949 142.54 393.098 141.84 393.098ZM150.347 393C149.843 393 149.367 392.911 148.919 392.734C148.481 392.547 148.098 392.295 147.771 391.978C147.445 391.651 147.183 391.273 146.987 390.844C146.801 390.415 146.707 389.953 146.707 389.458C146.707 389.113 146.745 388.781 146.819 388.464C146.894 388.137 146.997 387.811 147.127 387.484C147.267 387.148 147.431 386.807 147.617 386.462C147.813 386.107 148.028 385.734 148.261 385.342L149.633 383.046H151.831L151.887 383.186L149.983 386.182C149.741 386.574 149.531 386.943 149.353 387.288C149.176 387.624 149.017 387.96 148.877 388.296C148.737 388.632 148.597 388.987 148.457 389.36L148.009 388.394C148.103 388.067 148.252 387.769 148.457 387.498C148.663 387.218 148.901 386.98 149.171 386.784C149.451 386.579 149.741 386.425 150.039 386.322C150.338 386.21 150.632 386.154 150.921 386.154C151.472 386.154 151.976 386.303 152.433 386.602C152.9 386.891 153.273 387.279 153.553 387.764C153.833 388.249 153.973 388.781 153.973 389.36C153.973 390.051 153.815 390.671 153.497 391.222C153.189 391.773 152.76 392.207 152.209 392.524C151.668 392.841 151.047 393 150.347 393ZM150.375 391.04C150.674 391.04 150.935 390.975 151.159 390.844C151.393 390.713 151.575 390.531 151.705 390.298C151.836 390.055 151.901 389.78 151.901 389.472C151.901 389.211 151.831 388.968 151.691 388.744C151.561 388.511 151.379 388.324 151.145 388.184C150.921 388.035 150.669 387.96 150.389 387.96C150.091 387.96 149.82 388.03 149.577 388.17C149.344 388.301 149.162 388.483 149.031 388.716C148.901 388.94 148.835 389.192 148.835 389.472C148.835 389.771 148.901 390.041 149.031 390.284C149.162 390.517 149.344 390.704 149.577 390.844C149.811 390.975 150.077 391.04 150.375 391.04Z" fill="#F59E0B"/>
<mask id="path-29-inside-10_29_362" fill="white">
<path d="M41 416C41 413.791 42.7909 412 45 412H197C199.209 412 201 413.791 201 416V441C201 443.209 199.209 445 197 445H45C42.7909 445 41 443.209 41 441V416Z"/>
</mask>
<path d="M41 416C41 413.791 42.7909 412 45 412H197C199.209 412 201 413.791 201 416V441C201 443.209 199.209 445 197 445H45C42.7909 445 41 443.209 41 441V416Z" fill="#0F1521"/>
<path d="M45 412V413H197V412V411H45V412ZM201 416H200V441H201H202V416H201ZM197 445V444H45V445V446H197V445ZM41 441H42V416H41H40V441H41ZM45 445V444C43.3431 444 42 442.657 42 441H41H40C40 443.761 42.2386 446 45 446V445ZM201 441H200C200 442.657 198.657 444 197 444V445V446C199.761 446 202 443.761 202 441H201ZM197 412V413C198.657 413 200 414.343 200 416H201H202C202 413.239 199.761 411 197 411V412ZM45 412V411C42.2386 411 40 413.239 40 416H41H42C42 414.343 43.3431 413 45 413V412Z" fill="#00B4FF" mask="url(#path-29-inside-10_29_362)"/>
<path d="M89.0217 434L92.9417 425.068L93.6137 426.188H88.4897V424.116H94.8737L95.0977 425.25L91.4017 434H89.0217ZM105.64 433.258L100.6 428.218L101.944 426.902L106.984 431.942L105.64 433.258ZM101.944 433.3L100.628 431.942L105.654 426.902L106.984 428.246L101.944 433.3ZM114.916 434L114.86 433.86L117.926 427.672L118.332 428.512C118.239 428.848 118.089 429.151 117.884 429.422C117.679 429.693 117.431 429.931 117.142 430.136C116.862 430.332 116.568 430.486 116.26 430.598C115.952 430.701 115.658 430.752 115.378 430.752C114.846 430.752 114.356 430.607 113.908 430.318C113.46 430.029 113.101 429.641 112.83 429.156C112.559 428.671 112.424 428.143 112.424 427.574C112.424 426.902 112.583 426.295 112.9 425.754C113.227 425.203 113.665 424.769 114.216 424.452C114.767 424.125 115.387 423.962 116.078 423.962C116.582 423.962 117.053 424.051 117.492 424.228C117.931 424.405 118.313 424.653 118.64 424.97C118.976 425.278 119.237 425.637 119.424 426.048C119.611 426.459 119.704 426.893 119.704 427.35C119.704 427.686 119.676 428.017 119.62 428.344C119.564 428.661 119.475 428.988 119.354 429.324C119.233 429.66 119.088 430.01 118.92 430.374C118.761 430.738 118.575 431.135 118.36 431.564L117.128 434H114.916ZM115.952 428.876C116.241 428.876 116.498 428.811 116.722 428.68C116.946 428.549 117.119 428.377 117.24 428.162C117.371 427.938 117.436 427.691 117.436 427.42C117.436 427.131 117.371 426.874 117.24 426.65C117.119 426.417 116.946 426.235 116.722 426.104C116.507 425.973 116.255 425.908 115.966 425.908C115.686 425.908 115.439 425.973 115.224 426.104C115.019 426.225 114.851 426.403 114.72 426.636C114.599 426.86 114.538 427.121 114.538 427.42C114.538 427.672 114.599 427.91 114.72 428.134C114.851 428.349 115.023 428.526 115.238 428.666C115.453 428.806 115.691 428.876 115.952 428.876ZM125.506 429.45V427.63H132.352V429.45H125.506ZM125.506 432.488V430.682H132.352V432.488H125.506Z" fill="white"/>
<path d="M141.891 434C141.387 434 140.911 433.911 140.463 433.734C140.025 433.547 139.642 433.295 139.315 432.978C138.989 432.651 138.727 432.273 138.531 431.844C138.345 431.415 138.251 430.953 138.251 430.458C138.251 430.113 138.289 429.781 138.363 429.464C138.438 429.137 138.541 428.811 138.671 428.484C138.811 428.148 138.975 427.807 139.161 427.462C139.357 427.107 139.572 426.734 139.805 426.342L141.177 424.046H143.375L143.431 424.186L141.527 427.182C141.285 427.574 141.075 427.943 140.897 428.288C140.72 428.624 140.561 428.96 140.421 429.296C140.281 429.632 140.141 429.987 140.001 430.36L139.553 429.394C139.647 429.067 139.796 428.769 140.001 428.498C140.207 428.218 140.445 427.98 140.715 427.784C140.995 427.579 141.285 427.425 141.583 427.322C141.882 427.21 142.176 427.154 142.465 427.154C143.016 427.154 143.52 427.303 143.977 427.602C144.444 427.891 144.817 428.279 145.097 428.764C145.377 429.249 145.517 429.781 145.517 430.36C145.517 431.051 145.359 431.671 145.041 432.222C144.733 432.773 144.304 433.207 143.753 433.524C143.212 433.841 142.591 434 141.891 434ZM141.919 432.04C142.218 432.04 142.479 431.975 142.703 431.844C142.937 431.713 143.119 431.531 143.249 431.298C143.38 431.055 143.445 430.78 143.445 430.472C143.445 430.211 143.375 429.968 143.235 429.744C143.105 429.511 142.923 429.324 142.689 429.184C142.465 429.035 142.213 428.96 141.933 428.96C141.635 428.96 141.364 429.03 141.121 429.17C140.888 429.301 140.706 429.483 140.575 429.716C140.445 429.94 140.379 430.192 140.379 430.472C140.379 430.771 140.445 431.041 140.575 431.284C140.706 431.517 140.888 431.704 141.121 431.844C141.355 431.975 141.621 432.04 141.919 432.04ZM149.901 434.14C149.107 434.14 148.412 433.977 147.815 433.65C147.227 433.314 146.69 432.74 146.205 431.928L147.913 430.822C148.118 431.149 148.328 431.41 148.543 431.606C148.767 431.802 148.995 431.947 149.229 432.04C149.471 432.124 149.723 432.166 149.985 432.166C150.246 432.166 150.484 432.11 150.699 431.998C150.923 431.877 151.1 431.709 151.231 431.494C151.371 431.279 151.441 431.037 151.441 430.766C151.441 430.477 151.38 430.234 151.259 430.038C151.147 429.833 150.979 429.679 150.755 429.576C150.54 429.473 150.279 429.422 149.971 429.422C149.831 429.422 149.681 429.441 149.523 429.478C149.364 429.506 149.196 429.548 149.019 429.604C148.841 429.66 148.659 429.735 148.473 429.828L147.955 428.442L150.335 425.852L150.979 426.202L146.891 426.118V424.116H152.911L153.345 424.984L150.111 428.456L149.551 427.798C149.625 427.761 149.747 427.728 149.915 427.7C150.092 427.663 150.26 427.644 150.419 427.644C150.857 427.644 151.268 427.723 151.651 427.882C152.033 428.041 152.374 428.26 152.673 428.54C152.971 428.82 153.205 429.151 153.373 429.534C153.541 429.907 153.625 430.309 153.625 430.738C153.625 431.391 153.457 431.975 153.121 432.488C152.794 432.992 152.346 433.393 151.777 433.692C151.217 433.991 150.591 434.14 149.901 434.14Z" fill="#F59E0B"/>
<mask id="path-32-inside-11_29_362" fill="white">
<path d="M41 457C41 454.791 42.7909 453 45 453H197C199.209 453 201 454.791 201 457V482C201 484.209 199.209 486 197 486H45C42.7909 486 41 484.209 41 482V457Z"/>
</mask>
<path d="M41 457C41 454.791 42.7909 453 45 453H197C199.209 453 201 454.791 201 457V482C201 484.209 199.209 486 197 486H45C42.7909 486 41 484.209 41 482V457Z" fill="#0F1521"/>
<path d="M45 453V454H197V453V452H45V453ZM201 457H200V482H201H202V457H201ZM197 486V485H45V486V487H197V486ZM41 482H42V457H41H40V482H41ZM45 486V485C43.3431 485 42 483.657 42 482H41H40C40 484.761 42.2386 487 45 487V486ZM201 482H200C200 483.657 198.657 485 197 485V486V487C199.761 487 202 484.761 202 482H201ZM197 453V454C198.657 454 200 455.343 200 457H201H202C202 454.239 199.761 452 197 452V453ZM45 453V452C42.2386 452 40 454.239 40 457H41H42C42 455.343 43.3431 454 45 454V453Z" fill="#00B4FF" mask="url(#path-32-inside-11_29_362)"/>
<path d="M84.011 475L87.931 466.068L88.603 467.188H83.479V465.116H89.863L90.087 466.25L86.391 475H84.011ZM100.63 474.258L95.5896 469.218L96.9336 467.902L101.974 472.942L100.63 474.258ZM96.9336 474.3L95.6176 472.942L100.644 467.902L101.974 469.246L96.9336 474.3ZM109.947 474.314V466.362L110.465 467.552L108.365 468.546L107.959 466.418L110.745 465.06H112.285V474.314H109.947ZM108.155 475V472.9H114.119V475H108.155ZM119.559 475.14C118.681 475.14 117.93 474.939 117.305 474.538C116.689 474.137 116.217 473.563 115.891 472.816C115.564 472.06 115.401 471.155 115.401 470.1C115.401 469.045 115.564 468.145 115.891 467.398C116.217 466.642 116.689 466.063 117.305 465.662C117.93 465.261 118.681 465.06 119.559 465.06C120.436 465.06 121.187 465.261 121.813 465.662C122.438 466.063 122.914 466.642 123.241 467.398C123.567 468.145 123.731 469.045 123.731 470.1C123.731 471.155 123.567 472.06 123.241 472.816C122.914 473.563 122.438 474.137 121.813 474.538C121.187 474.939 120.436 475.14 119.559 475.14ZM119.559 473.124C120.165 473.124 120.632 472.863 120.959 472.34C121.295 471.817 121.463 471.071 121.463 470.1C121.463 469.101 121.295 468.336 120.959 467.804C120.632 467.263 120.165 466.992 119.559 466.992C118.952 466.992 118.481 467.263 118.145 467.804C117.818 468.336 117.655 469.101 117.655 470.1C117.655 471.071 117.818 471.817 118.145 472.34C118.481 472.863 118.952 473.124 119.559 473.124ZM129.71 470.45V468.63H136.556V470.45H129.71ZM129.71 473.488V471.682H136.556V473.488H129.71Z" fill="white"/>
<path d="M143.155 475L147.075 466.068L147.747 467.188H142.623V465.116H149.007L149.231 466.25L145.535 475H143.155ZM154.436 475.14C153.558 475.14 152.807 474.939 152.182 474.538C151.566 474.137 151.094 473.563 150.768 472.816C150.441 472.06 150.278 471.155 150.278 470.1C150.278 469.045 150.441 468.145 150.768 467.398C151.094 466.642 151.566 466.063 152.182 465.662C152.807 465.261 153.558 465.06 154.436 465.06C155.313 465.06 156.064 465.261 156.69 465.662C157.315 466.063 157.791 466.642 158.118 467.398C158.444 468.145 158.608 469.045 158.608 470.1C158.608 471.155 158.444 472.06 158.118 472.816C157.791 473.563 157.315 474.137 156.69 474.538C156.064 474.939 155.313 475.14 154.436 475.14ZM154.436 473.124C155.042 473.124 155.509 472.863 155.836 472.34C156.172 471.817 156.34 471.071 156.34 470.1C156.34 469.101 156.172 468.336 155.836 467.804C155.509 467.263 155.042 466.992 154.436 466.992C153.829 466.992 153.358 467.263 153.022 467.804C152.695 468.336 152.532 469.101 152.532 470.1C152.532 471.071 152.695 471.817 153.022 472.34C153.358 472.863 153.829 473.124 154.436 473.124Z" fill="#F59E0B"/>
</g>
<defs>
<filter id="filter0_d_29_362" x="0" y="0" width="242" height="530" filterUnits="userSpaceOnUse" color-interpolation-filters="sRGB">
<feFlood flood-opacity="0" result="BackgroundImageFix"/>
<feColorMatrix in="SourceAlpha" type="matrix" values="0 0 0 0 0 0 0 0 0 0 0 0 0 0 0 0 0 0 127 0" result="hardAlpha"/>
<feOffset/>
<feGaussianBlur stdDeviation="7.5"/>
<feComposite in2="hardAlpha" operator="out"/>
<feColorMatrix type="matrix" values="0 0 0 0 0 0 0 0 0 0.705882 0 0 0 0 1 0 0 0 0.2 0"/>
<feBlend mode="normal" in2="BackgroundImageFix" result="effect1_dropShadow_29_362"/>
<feBlend mode="normal" in="SourceGraphic" in2="effect1_dropShadow_29_362" result="shape"/>
</filter>
<linearGradient id="paint0_linear_29_362" x1="15" y1="15" x2="374.39" y2="167.381" gradientUnits="userSpaceOnUse">
<stop stop-color="#1A2332"/>
<stop offset="0.166667" stop-color="#18212F"/>
<stop offset="0.333333" stop-color="#161E2C"/>
<stop offset="0.5" stop-color="#141C29"/>
<stop offset="0.666667" stop-color="#131A27"/>
<stop offset="0.833333" stop-color="#111724"/>
<stop offset="1" stop-color="#0F1521"/>
</linearGradient>
</defs>
</svg>
