<svg width="242" height="530" viewBox="0 0 242 530" fill="none" xmlns="http://www.w3.org/2000/svg">
<g filter="url(#filter0_d_29_390)">
<mask id="path-1-inside-1_29_390" fill="white">
<path d="M15 25C15 19.4771 19.4772 15 25 15H217C222.523 15 227 19.4772 227 25V505C227 510.523 222.523 515 217 515H25C19.4772 515 15 510.523 15 505V25Z"/>
</mask>
<path d="M15 25C15 19.4771 19.4772 15 25 15H217C222.523 15 227 19.4772 227 25V505C227 510.523 222.523 515 217 515H25C19.4772 515 15 510.523 15 505V25Z" fill="url(#paint0_linear_29_390)" shape-rendering="crispEdges"/>
<path d="M25 15V17H217V15V13H25V15ZM227 25H225V505H227H229V25H227ZM217 515V513H25V515V517H217V515ZM15 505H17V25H15H13V505H15ZM25 515V513C20.5817 513 17 509.418 17 505H15H13C13 511.627 18.3726 517 25 517V515ZM227 505H225C225 509.418 221.418 513 217 513V515V517C223.627 517 229 511.627 229 505H227ZM217 15V17C221.418 17 225 20.5817 225 25H227H229C229 18.3726 223.627 13 217 13V15ZM25 15V13C18.3726 13 13 18.3726 13 25H15H17C17 20.5817 20.5817 17 25 17V15Z" fill="#00B4FF" mask="url(#path-1-inside-1_29_390)"/>
<path d="M41 39C41 33.4772 45.4772 29 51 29H191C196.523 29 201 33.4772 201 39V70C201 75.5228 196.523 80 191 80H51C45.4772 80 41 75.5228 41 70V39Z" fill="#00B4FF"/>
<path d="M59.4475 64V50.8H54.4555V47.2H68.6395V50.8H63.5275V64H59.4475ZM73.4314 64.216C72.3594 64.216 71.3994 63.936 70.5514 63.376C69.7194 62.8 69.0554 62.016 68.5594 61.024C68.0634 60.016 67.8154 58.88 67.8154 57.616C67.8154 56.32 68.0634 55.176 68.5594 54.184C69.0554 53.192 69.7354 52.416 70.5994 51.856C71.4634 51.28 72.4474 50.992 73.5514 50.992C74.1594 50.992 74.7114 51.08 75.2074 51.256C75.7194 51.432 76.1674 51.68 76.5514 52C76.9354 52.304 77.2634 52.664 77.5354 53.08C77.8074 53.48 78.0074 53.912 78.1354 54.376L77.3434 54.28V51.256H81.1594V64H77.2714V60.928L78.1354 60.904C78.0074 61.352 77.7994 61.776 77.5114 62.176C77.2234 62.576 76.8714 62.928 76.4554 63.232C76.0394 63.536 75.5754 63.776 75.0634 63.952C74.5514 64.128 74.0074 64.216 73.4314 64.216ZM74.4874 60.976C75.0794 60.976 75.5914 60.84 76.0234 60.568C76.4554 60.296 76.7914 59.912 77.0314 59.416C77.2714 58.904 77.3914 58.304 77.3914 57.616C77.3914 56.928 77.2714 56.336 77.0314 55.84C76.7914 55.328 76.4554 54.936 76.0234 54.664C75.5914 54.376 75.0794 54.232 74.4874 54.232C73.9114 54.232 73.4074 54.376 72.9754 54.664C72.5594 54.936 72.2314 55.328 71.9914 55.84C71.7514 56.336 71.6314 56.928 71.6314 57.616C71.6314 58.304 71.7514 58.904 71.9914 59.416C72.2314 59.912 72.5594 60.296 72.9754 60.568C73.4074 60.84 73.9114 60.976 74.4874 60.976ZM92.2038 64.264C91.6278 64.264 91.0758 64.184 90.5478 64.024C90.0198 63.864 89.5398 63.648 89.1078 63.376C88.6918 63.104 88.3398 62.792 88.0518 62.44C87.7798 62.072 87.5958 61.696 87.4998 61.312L88.3398 61.024L88.1238 63.976H84.5478V46.24H88.4118V54.304L87.6198 54.016C87.7158 53.6 87.8998 53.216 88.1718 52.864C88.4438 52.496 88.7878 52.176 89.2038 51.904C89.6198 51.616 90.0758 51.392 90.5718 51.232C91.0678 51.072 91.5798 50.992 92.1078 50.992C93.2118 50.992 94.1878 51.28 95.0358 51.856C95.8998 52.416 96.5798 53.2 97.0758 54.208C97.5718 55.2 97.8198 56.336 97.8198 57.616C97.8198 58.912 97.5718 60.064 97.0758 61.072C96.5958 62.064 95.9318 62.848 95.0838 63.424C94.2358 63.984 93.2758 64.264 92.2038 64.264ZM91.1958 61.024C91.7718 61.024 92.2758 60.88 92.7078 60.592C93.1398 60.304 93.4678 59.912 93.6918 59.416C93.9318 58.904 94.0518 58.304 94.0518 57.616C94.0518 56.944 93.9318 56.352 93.6918 55.84C93.4678 55.328 93.1398 54.936 92.7078 54.664C92.2758 54.392 91.7718 54.256 91.1958 54.256C90.6038 54.256 90.0918 54.392 89.6598 54.664C89.2278 54.936 88.8918 55.328 88.6518 55.84C88.4118 56.352 88.2918 56.944 88.2918 57.616C88.2918 58.304 88.4118 58.904 88.6518 59.416C88.8918 59.912 89.2278 60.304 89.6598 60.592C90.0918 60.88 90.6038 61.024 91.1958 61.024ZM100.369 64V46.24H104.209V64H100.369ZM112.103 64.216C111.031 64.216 110.071 63.936 109.223 63.376C108.391 62.8 107.727 62.016 107.231 61.024C106.735 60.016 106.487 58.88 106.487 57.616C106.487 56.32 106.735 55.176 107.231 54.184C107.727 53.192 108.407 52.416 109.271 51.856C110.135 51.28 111.119 50.992 112.223 50.992C112.831 50.992 113.383 51.08 113.879 51.256C114.391 51.432 114.839 51.68 115.223 52C115.607 52.304 115.935 52.664 116.207 53.08C116.479 53.48 116.679 53.912 116.807 54.376L116.015 54.28V51.256H119.831V64H115.943V60.928L116.807 60.904C116.679 61.352 116.471 61.776 116.183 62.176C115.895 62.576 115.543 62.928 115.127 63.232C114.711 63.536 114.247 63.776 113.735 63.952C113.223 64.128 112.679 64.216 112.103 64.216ZM113.159 60.976C113.751 60.976 114.263 60.84 114.695 60.568C115.127 60.296 115.463 59.912 115.703 59.416C115.943 58.904 116.063 58.304 116.063 57.616C116.063 56.928 115.943 56.336 115.703 55.84C115.463 55.328 115.127 54.936 114.695 54.664C114.263 54.376 113.751 54.232 113.159 54.232C112.583 54.232 112.079 54.376 111.647 54.664C111.231 54.936 110.903 55.328 110.663 55.84C110.423 56.336 110.303 56.928 110.303 57.616C110.303 58.304 110.423 58.904 110.663 59.416C110.903 59.912 111.231 60.296 111.647 60.568C112.079 60.84 112.583 60.976 113.159 60.976ZM135.731 64.264C134.627 64.264 133.643 63.984 132.779 63.424C131.931 62.848 131.259 62.064 130.763 61.072C130.267 60.064 130.019 58.92 130.019 57.64C130.019 56.36 130.267 55.224 130.763 54.232C131.259 53.224 131.939 52.432 132.803 51.856C133.667 51.28 134.659 50.992 135.779 50.992C136.355 50.992 136.907 51.08 137.435 51.256C137.963 51.432 138.443 51.672 138.875 51.976C139.307 52.28 139.659 52.632 139.931 53.032C140.203 53.416 140.363 53.816 140.411 54.232L139.499 54.448V46.24H143.363V64H139.787L139.571 61.096L140.339 61.216C140.291 61.616 140.131 62 139.859 62.368C139.603 62.736 139.267 63.064 138.851 63.352C138.435 63.624 137.955 63.84 137.411 64C136.883 64.176 136.323 64.264 135.731 64.264ZM136.715 61.072C137.307 61.072 137.819 60.928 138.251 60.64C138.683 60.352 139.011 59.952 139.235 59.44C139.475 58.928 139.595 58.328 139.595 57.64C139.595 56.936 139.475 56.328 139.235 55.816C139.011 55.304 138.683 54.904 138.251 54.616C137.819 54.328 137.307 54.184 136.715 54.184C136.123 54.184 135.611 54.328 135.179 54.616C134.763 54.904 134.435 55.304 134.195 55.816C133.955 56.328 133.835 56.936 133.835 57.64C133.835 58.328 133.955 58.928 134.195 59.44C134.435 59.952 134.763 60.352 135.179 60.64C135.611 60.928 136.123 61.072 136.715 61.072ZM152.682 64.24C151.274 64.24 150.05 63.96 149.01 63.4C147.97 62.824 147.162 62.048 146.586 61.072C146.01 60.08 145.722 58.952 145.722 57.688C145.722 56.712 145.882 55.816 146.202 55C146.522 54.184 146.97 53.48 147.546 52.888C148.122 52.28 148.802 51.816 149.586 51.496C150.386 51.16 151.258 50.992 152.202 50.992C153.098 50.992 153.914 51.152 154.65 51.472C155.402 51.792 156.05 52.24 156.594 52.816C157.138 53.392 157.554 54.072 157.842 54.856C158.13 55.64 158.258 56.496 158.226 57.424L158.202 58.456H148.05L147.498 56.296H155.082L154.674 56.752V56.272C154.642 55.872 154.514 55.52 154.29 55.216C154.082 54.896 153.802 54.648 153.45 54.472C153.098 54.296 152.698 54.208 152.25 54.208C151.626 54.208 151.09 54.336 150.642 54.592C150.21 54.832 149.882 55.192 149.658 55.672C149.434 56.136 149.322 56.712 149.322 57.4C149.322 58.104 149.466 58.72 149.754 59.248C150.058 59.76 150.49 60.16 151.05 60.448C151.626 60.736 152.306 60.88 153.09 60.88C153.634 60.88 154.114 60.8 154.53 60.64C154.962 60.48 155.426 60.208 155.922 59.824L157.722 62.368C157.226 62.8 156.698 63.152 156.138 63.424C155.578 63.696 155.002 63.896 154.41 64.024C153.834 64.168 153.258 64.24 152.682 64.24ZM160.697 64V46.24H164.537V64H160.697ZM181.121 64.072C179.969 64.072 178.921 63.856 177.977 63.424C177.049 62.976 176.305 62.376 175.745 61.624C175.185 60.872 174.905 60.024 174.905 59.08C174.905 58.456 174.985 57.896 175.145 57.4C175.305 56.888 175.545 56.44 175.865 56.056C176.201 55.656 176.601 55.32 177.065 55.048C177.545 54.76 178.089 54.528 178.697 54.352L178.409 55.312C177.961 55.136 177.553 54.92 177.185 54.664C176.817 54.408 176.505 54.12 176.249 53.8C175.993 53.464 175.793 53.104 175.649 52.72C175.521 52.336 175.457 51.936 175.457 51.52C175.457 50.624 175.705 49.832 176.201 49.144C176.713 48.456 177.393 47.92 178.241 47.536C179.105 47.136 180.065 46.936 181.121 46.936C182.161 46.936 183.105 47.136 183.953 47.536C184.817 47.92 185.505 48.456 186.017 49.144C186.529 49.832 186.785 50.624 186.785 51.52C186.785 51.936 186.721 52.336 186.593 52.72C186.465 53.104 186.273 53.456 186.017 53.776C185.761 54.08 185.449 54.368 185.081 54.64C184.713 54.896 184.289 55.12 183.809 55.312L183.593 54.448C184.137 54.592 184.641 54.8 185.105 55.072C185.569 55.328 185.969 55.656 186.305 56.056C186.641 56.44 186.897 56.888 187.073 57.4C187.265 57.896 187.361 58.456 187.361 59.08C187.361 60.04 187.081 60.896 186.521 61.648C185.961 62.4 185.209 62.992 184.265 63.424C183.321 63.856 182.273 64.072 181.121 64.072ZM181.121 60.856C181.569 60.856 181.969 60.768 182.321 60.592C182.673 60.416 182.953 60.176 183.161 59.872C183.369 59.568 183.473 59.216 183.473 58.816C183.473 58.4 183.369 58.04 183.161 57.736C182.969 57.416 182.689 57.168 182.321 56.992C181.969 56.8 181.569 56.704 181.121 56.704C180.673 56.704 180.273 56.8 179.921 56.992C179.569 57.168 179.289 57.416 179.081 57.736C178.873 58.04 178.769 58.4 178.769 58.816C178.769 59.2 178.873 59.544 179.081 59.848C179.289 60.152 179.569 60.4 179.921 60.592C180.273 60.768 180.673 60.856 181.121 60.856ZM181.121 53.464C181.505 53.464 181.849 53.392 182.153 53.248C182.473 53.088 182.721 52.88 182.897 52.624C183.073 52.352 183.161 52.04 183.161 51.688C183.161 51.336 183.073 51.024 182.897 50.752C182.721 50.48 182.473 50.264 182.153 50.104C181.849 49.944 181.505 49.864 181.121 49.864C180.721 49.864 180.361 49.944 180.041 50.104C179.737 50.264 179.497 50.48 179.321 50.752C179.145 51.024 179.057 51.336 179.057 51.688C179.057 52.04 179.145 52.352 179.321 52.624C179.497 52.88 179.737 53.088 180.041 53.248C180.361 53.392 180.721 53.464 181.121 53.464Z" fill="#0F1521"/>
<mask id="path-5-inside-2_29_390" fill="white">
<path d="M41 88C41 85.7909 42.7909 84 45 84H197C199.209 84 201 85.7909 201 88V113C201 115.209 199.209 117 197 117H45C42.7909 117 41 115.209 41 113V88Z"/>
</mask>
<path d="M41 88C41 85.7909 42.7909 84 45 84H197C199.209 84 201 85.7909 201 88V113C201 115.209 199.209 117 197 117H45C42.7909 117 41 115.209 41 113V88Z" fill="#0F1521"/>
<path d="M45 84V85H197V84V83H45V84ZM201 88H200V113H201H202V88H201ZM197 117V116H45V117V118H197V117ZM41 113H42V88H41H40V113H41ZM45 117V116C43.3431 116 42 114.657 42 113H41H40C40 115.761 42.2386 118 45 118V117ZM201 113H200C200 114.657 198.657 116 197 116V117V118C199.761 118 202 115.761 202 113H201ZM197 84V85C198.657 85 200 86.3431 200 88H201H202C202 85.2386 199.761 83 197 83V84ZM45 84V83C42.2386 83 40 85.2386 40 88H41H42C42 86.3431 43.3431 85 45 85V84Z" fill="#00B4FF" mask="url(#path-5-inside-2_29_390)"/>
<path d="M95.8256 108.042C95.1536 108.042 94.5423 107.916 93.9916 107.664C93.4503 107.403 93.0163 107.053 92.6896 106.614C92.363 106.175 92.1996 105.681 92.1996 105.13C92.1996 104.766 92.2463 104.439 92.3396 104.15C92.433 103.851 92.573 103.59 92.7596 103.366C92.9556 103.133 93.189 102.937 93.4596 102.778C93.7396 102.61 94.057 102.475 94.4116 102.372L94.2436 102.932C93.9823 102.829 93.7443 102.703 93.5296 102.554C93.315 102.405 93.133 102.237 92.9836 102.05C92.8343 101.854 92.7176 101.644 92.6336 101.42C92.559 101.196 92.5216 100.963 92.5216 100.72C92.5216 100.197 92.6663 99.7353 92.9556 99.334C93.2543 98.9327 93.651 98.62 94.1456 98.396C94.6496 98.1627 95.2096 98.046 95.8256 98.046C96.4323 98.046 96.983 98.1627 97.4776 98.396C97.9816 98.62 98.383 98.9327 98.6816 99.334C98.9803 99.7353 99.1296 100.197 99.1296 100.72C99.1296 100.963 99.0923 101.196 99.0176 101.42C98.943 101.644 98.831 101.849 98.6816 102.036C98.5323 102.213 98.3503 102.381 98.1356 102.54C97.921 102.689 97.6736 102.82 97.3936 102.932L97.2676 102.428C97.585 102.512 97.879 102.633 98.1496 102.792C98.4203 102.941 98.6536 103.133 98.8496 103.366C99.0456 103.59 99.195 103.851 99.2976 104.15C99.4096 104.439 99.4656 104.766 99.4656 105.13C99.4656 105.69 99.3023 106.189 98.9756 106.628C98.649 107.067 98.2103 107.412 97.6596 107.664C97.109 107.916 96.4976 108.042 95.8256 108.042ZM95.8256 106.166C96.087 106.166 96.3203 106.115 96.5256 106.012C96.731 105.909 96.8943 105.769 97.0156 105.592C97.137 105.415 97.1976 105.209 97.1976 104.976C97.1976 104.733 97.137 104.523 97.0156 104.346C96.9036 104.159 96.7403 104.015 96.5256 103.912C96.3203 103.8 96.087 103.744 95.8256 103.744C95.5643 103.744 95.331 103.8 95.1256 103.912C94.9203 104.015 94.757 104.159 94.6356 104.346C94.5143 104.523 94.4536 104.733 94.4536 104.976C94.4536 105.2 94.5143 105.401 94.6356 105.578C94.757 105.755 94.9203 105.9 95.1256 106.012C95.331 106.115 95.5643 106.166 95.8256 106.166ZM95.8256 101.854C96.0496 101.854 96.2503 101.812 96.4276 101.728C96.6143 101.635 96.759 101.513 96.8616 101.364C96.9643 101.205 97.0156 101.023 97.0156 100.818C97.0156 100.613 96.9643 100.431 96.8616 100.272C96.759 100.113 96.6143 99.9873 96.4276 99.894C96.2503 99.8007 96.0496 99.754 95.8256 99.754C95.5923 99.754 95.3823 99.8007 95.1956 99.894C95.0183 99.9873 94.8783 100.113 94.7756 100.272C94.673 100.431 94.6216 100.613 94.6216 100.818C94.6216 101.023 94.673 101.205 94.7756 101.364C94.8783 101.513 95.0183 101.635 95.1956 101.728C95.3823 101.812 95.5923 101.854 95.8256 101.854ZM110.077 107.258L105.037 102.218L106.381 100.902L111.421 105.942L110.077 107.258ZM106.381 107.3L105.065 105.942L110.091 100.902L111.421 102.246L106.381 107.3ZM119.394 107.314V99.362L119.912 100.552L117.812 101.546L117.406 99.418L120.192 98.06H121.732V107.314H119.394ZM117.602 108V105.9H123.566V108H117.602ZM129.71 103.45V101.63H136.556V103.45H129.71ZM129.71 106.488V104.682H136.556V106.488H129.71Z" fill="white"/>
<path d="M146.165 108.042C145.493 108.042 144.882 107.916 144.331 107.664C143.79 107.403 143.356 107.053 143.029 106.614C142.703 106.175 142.539 105.681 142.539 105.13C142.539 104.766 142.586 104.439 142.679 104.15C142.773 103.851 142.913 103.59 143.099 103.366C143.295 103.133 143.529 102.937 143.799 102.778C144.079 102.61 144.397 102.475 144.751 102.372L144.583 102.932C144.322 102.829 144.084 102.703 143.869 102.554C143.655 102.405 143.473 102.237 143.323 102.05C143.174 101.854 143.057 101.644 142.973 101.42C142.899 101.196 142.861 100.963 142.861 100.72C142.861 100.197 143.006 99.7353 143.295 99.334C143.594 98.9327 143.991 98.62 144.485 98.396C144.989 98.1627 145.549 98.046 146.165 98.046C146.772 98.046 147.323 98.1627 147.817 98.396C148.321 98.62 148.723 98.9327 149.021 99.334C149.32 99.7353 149.469 100.197 149.469 100.72C149.469 100.963 149.432 101.196 149.357 101.42C149.283 101.644 149.171 101.849 149.021 102.036C148.872 102.213 148.69 102.381 148.475 102.54C148.261 102.689 148.013 102.82 147.733 102.932L147.607 102.428C147.925 102.512 148.219 102.633 148.489 102.792C148.76 102.941 148.993 103.133 149.189 103.366C149.385 103.59 149.535 103.851 149.637 104.15C149.749 104.439 149.805 104.766 149.805 105.13C149.805 105.69 149.642 106.189 149.315 106.628C148.989 107.067 148.55 107.412 147.999 107.664C147.449 107.916 146.837 108.042 146.165 108.042ZM146.165 106.166C146.427 106.166 146.66 106.115 146.865 106.012C147.071 105.909 147.234 105.769 147.355 105.592C147.477 105.415 147.537 105.209 147.537 104.976C147.537 104.733 147.477 104.523 147.355 104.346C147.243 104.159 147.08 104.015 146.865 103.912C146.66 103.8 146.427 103.744 146.165 103.744C145.904 103.744 145.671 103.8 145.465 103.912C145.26 104.015 145.097 104.159 144.975 104.346C144.854 104.523 144.793 104.733 144.793 104.976C144.793 105.2 144.854 105.401 144.975 105.578C145.097 105.755 145.26 105.9 145.465 106.012C145.671 106.115 145.904 106.166 146.165 106.166ZM146.165 101.854C146.389 101.854 146.59 101.812 146.767 101.728C146.954 101.635 147.099 101.513 147.201 101.364C147.304 101.205 147.355 101.023 147.355 100.818C147.355 100.613 147.304 100.431 147.201 100.272C147.099 100.113 146.954 99.9873 146.767 99.894C146.59 99.8007 146.389 99.754 146.165 99.754C145.932 99.754 145.722 99.8007 145.535 99.894C145.358 99.9873 145.218 100.113 145.115 100.272C145.013 100.431 144.961 100.613 144.961 100.818C144.961 101.023 145.013 101.205 145.115 101.364C145.218 101.513 145.358 101.635 145.535 101.728C145.722 101.812 145.932 101.854 146.165 101.854Z" fill="#F59E0B"/>
<mask id="path-8-inside-3_29_390" fill="white">
<path d="M41 129C41 126.791 42.7909 125 45 125H197C199.209 125 201 126.791 201 129V154C201 156.209 199.209 158 197 158H45C42.7909 158 41 156.209 41 154V129Z"/>
</mask>
<path d="M41 129C41 126.791 42.7909 125 45 125H197C199.209 125 201 126.791 201 129V154C201 156.209 199.209 158 197 158H45C42.7909 158 41 156.209 41 154V129Z" fill="#0F1521"/>
<path d="M45 125V126H197V125V124H45V125ZM201 129H200V154H201H202V129H201ZM197 158V157H45V158V159H197V158ZM41 154H42V129H41H40V154H41ZM45 158V157C43.3431 157 42 155.657 42 154H41H40C40 156.761 42.2386 159 45 159V158ZM201 154H200C200 155.657 198.657 157 197 157V158V159C199.761 159 202 156.761 202 154H201ZM197 125V126C198.657 126 200 127.343 200 129H201H202C202 126.239 199.761 124 197 124V125ZM45 125V124C42.2386 124 40 126.239 40 129H41H42C42 127.343 43.3431 126 45 126V125Z" fill="#00B4FF" mask="url(#path-8-inside-3_29_390)"/>
<path d="M92.1274 149.042C91.4554 149.042 90.8441 148.916 90.2934 148.664C89.7521 148.403 89.3181 148.053 88.9914 147.614C88.6647 147.175 88.5014 146.681 88.5014 146.13C88.5014 145.766 88.5481 145.439 88.6414 145.15C88.7347 144.851 88.8747 144.59 89.0614 144.366C89.2574 144.133 89.4907 143.937 89.7614 143.778C90.0414 143.61 90.3587 143.475 90.7134 143.372L90.5454 143.932C90.2841 143.829 90.0461 143.703 89.8314 143.554C89.6167 143.405 89.4347 143.237 89.2854 143.05C89.1361 142.854 89.0194 142.644 88.9354 142.42C88.8607 142.196 88.8234 141.963 88.8234 141.72C88.8234 141.197 88.9681 140.735 89.2574 140.334C89.5561 139.933 89.9527 139.62 90.4474 139.396C90.9514 139.163 91.5114 139.046 92.1274 139.046C92.7341 139.046 93.2847 139.163 93.7794 139.396C94.2834 139.62 94.6847 139.933 94.9834 140.334C95.2821 140.735 95.4314 141.197 95.4314 141.72C95.4314 141.963 95.3941 142.196 95.3194 142.42C95.2447 142.644 95.1327 142.849 94.9834 143.036C94.8341 143.213 94.6521 143.381 94.4374 143.54C94.2227 143.689 93.9754 143.82 93.6954 143.932L93.5694 143.428C93.8867 143.512 94.1807 143.633 94.4514 143.792C94.7221 143.941 94.9554 144.133 95.1514 144.366C95.3474 144.59 95.4967 144.851 95.5994 145.15C95.7114 145.439 95.7674 145.766 95.7674 146.13C95.7674 146.69 95.6041 147.189 95.2774 147.628C94.9507 148.067 94.5121 148.412 93.9614 148.664C93.4107 148.916 92.7994 149.042 92.1274 149.042ZM92.1274 147.166C92.3887 147.166 92.6221 147.115 92.8274 147.012C93.0327 146.909 93.1961 146.769 93.3174 146.592C93.4387 146.415 93.4994 146.209 93.4994 145.976C93.4994 145.733 93.4387 145.523 93.3174 145.346C93.2054 145.159 93.0421 145.015 92.8274 144.912C92.6221 144.8 92.3887 144.744 92.1274 144.744C91.8661 144.744 91.6327 144.8 91.4274 144.912C91.2221 145.015 91.0587 145.159 90.9374 145.346C90.8161 145.523 90.7554 145.733 90.7554 145.976C90.7554 146.2 90.8161 146.401 90.9374 146.578C91.0587 146.755 91.2221 146.9 91.4274 147.012C91.6327 147.115 91.8661 147.166 92.1274 147.166ZM92.1274 142.854C92.3514 142.854 92.5521 142.812 92.7294 142.728C92.9161 142.635 93.0607 142.513 93.1634 142.364C93.2661 142.205 93.3174 142.023 93.3174 141.818C93.3174 141.613 93.2661 141.431 93.1634 141.272C93.0607 141.113 92.9161 140.987 92.7294 140.894C92.5521 140.801 92.3514 140.754 92.1274 140.754C91.8941 140.754 91.6841 140.801 91.4974 140.894C91.3201 140.987 91.1801 141.113 91.0774 141.272C90.9747 141.431 90.9234 141.613 90.9234 141.818C90.9234 142.023 90.9747 142.205 91.0774 142.364C91.1801 142.513 91.3201 142.635 91.4974 142.728C91.6841 142.812 91.8941 142.854 92.1274 142.854ZM106.379 148.258L101.339 143.218L102.683 141.902L107.723 146.942L106.379 148.258ZM102.683 148.3L101.367 146.942L106.393 141.902L107.723 143.246L102.683 148.3ZM113.568 149L113.106 147.852L115.962 144.73C116.121 144.553 116.294 144.352 116.48 144.128C116.667 143.904 116.849 143.675 117.026 143.442C117.204 143.199 117.344 142.966 117.446 142.742C117.558 142.518 117.614 142.313 117.614 142.126C117.614 141.939 117.572 141.776 117.488 141.636C117.404 141.496 117.283 141.389 117.124 141.314C116.966 141.23 116.765 141.188 116.522 141.188C116.308 141.188 116.102 141.244 115.906 141.356C115.71 141.459 115.524 141.622 115.346 141.846C115.178 142.07 115.02 142.345 114.87 142.672L113.106 141.72C113.302 141.179 113.578 140.703 113.932 140.292C114.296 139.872 114.721 139.55 115.206 139.326C115.692 139.093 116.21 138.976 116.76 138.976C117.339 138.985 117.862 139.111 118.328 139.354C118.795 139.587 119.164 139.919 119.434 140.348C119.714 140.768 119.854 141.263 119.854 141.832C119.854 142.028 119.831 142.233 119.784 142.448C119.738 142.663 119.668 142.887 119.574 143.12C119.481 143.344 119.355 143.587 119.196 143.848C119.047 144.1 118.865 144.366 118.65 144.646C118.436 144.926 118.184 145.225 117.894 145.542L115.668 147.964L115.388 146.9H120.288V149H113.568ZM125.834 144.45V142.63H132.68V144.45H125.834ZM125.834 147.488V145.682H132.68V147.488H125.834Z" fill="white"/>
<path d="M141.058 148.314V140.362L141.576 141.552L139.476 142.546L139.07 140.418L141.856 139.06H143.396V148.314H141.058ZM139.266 149V146.9H145.23V149H139.266ZM150.067 149C149.563 149 149.087 148.911 148.639 148.734C148.201 148.547 147.818 148.295 147.491 147.978C147.165 147.651 146.903 147.273 146.707 146.844C146.521 146.415 146.427 145.953 146.427 145.458C146.427 145.113 146.465 144.781 146.539 144.464C146.614 144.137 146.717 143.811 146.847 143.484C146.987 143.148 147.151 142.807 147.337 142.462C147.533 142.107 147.748 141.734 147.981 141.342L149.353 139.046H151.551L151.607 139.186L149.703 142.182C149.461 142.574 149.251 142.943 149.073 143.288C148.896 143.624 148.737 143.96 148.597 144.296C148.457 144.632 148.317 144.987 148.177 145.36L147.729 144.394C147.823 144.067 147.972 143.769 148.177 143.498C148.383 143.218 148.621 142.98 148.891 142.784C149.171 142.579 149.461 142.425 149.759 142.322C150.058 142.21 150.352 142.154 150.641 142.154C151.192 142.154 151.696 142.303 152.153 142.602C152.62 142.891 152.993 143.279 153.273 143.764C153.553 144.249 153.693 144.781 153.693 145.36C153.693 146.051 153.535 146.671 153.217 147.222C152.909 147.773 152.48 148.207 151.929 148.524C151.388 148.841 150.767 149 150.067 149ZM150.095 147.04C150.394 147.04 150.655 146.975 150.879 146.844C151.113 146.713 151.295 146.531 151.425 146.298C151.556 146.055 151.621 145.78 151.621 145.472C151.621 145.211 151.551 144.968 151.411 144.744C151.281 144.511 151.099 144.324 150.865 144.184C150.641 144.035 150.389 143.96 150.109 143.96C149.811 143.96 149.54 144.03 149.297 144.17C149.064 144.301 148.882 144.483 148.751 144.716C148.621 144.94 148.555 145.192 148.555 145.472C148.555 145.771 148.621 146.041 148.751 146.284C148.882 146.517 149.064 146.704 149.297 146.844C149.531 146.975 149.797 147.04 150.095 147.04Z" fill="#F59E0B"/>
<mask id="path-11-inside-4_29_390" fill="white">
<path d="M41 170C41 167.791 42.7909 166 45 166H197C199.209 166 201 167.791 201 170V195C201 197.209 199.209 199 197 199H45C42.7909 199 41 197.209 41 195V170Z"/>
</mask>
<path d="M41 170C41 167.791 42.7909 166 45 166H197C199.209 166 201 167.791 201 170V195C201 197.209 199.209 199 197 199H45C42.7909 199 41 197.209 41 195V170Z" fill="#0F1521"/>
<path d="M45 166V167H197V166V165H45V166ZM201 170H200V195H201H202V170H201ZM197 199V198H45V199V200H197V199ZM41 195H42V170H41H40V195H41ZM45 199V198C43.3431 198 42 196.657 42 195H41H40C40 197.761 42.2386 200 45 200V199ZM201 195H200C200 196.657 198.657 198 197 198V199V200C199.761 200 202 197.761 202 195H201ZM197 166V167C198.657 167 200 168.343 200 170H201H202C202 167.239 199.761 165 197 165V166ZM45 166V165C42.2386 165 40 167.239 40 170H41H42C42 168.343 43.3431 167 45 167V166Z" fill="#00B4FF" mask="url(#path-11-inside-4_29_390)"/>
<path d="M91.4712 190.042C90.7992 190.042 90.1878 189.916 89.6372 189.664C89.0958 189.403 88.6618 189.053 88.3352 188.614C88.0085 188.175 87.8452 187.681 87.8452 187.13C87.8452 186.766 87.8918 186.439 87.9852 186.15C88.0785 185.851 88.2185 185.59 88.4052 185.366C88.6012 185.133 88.8345 184.937 89.1052 184.778C89.3852 184.61 89.7025 184.475 90.0572 184.372L89.8892 184.932C89.6278 184.829 89.3898 184.703 89.1752 184.554C88.9605 184.405 88.7785 184.237 88.6292 184.05C88.4798 183.854 88.3632 183.644 88.2792 183.42C88.2045 183.196 88.1672 182.963 88.1672 182.72C88.1672 182.197 88.3118 181.735 88.6012 181.334C88.8998 180.933 89.2965 180.62 89.7912 180.396C90.2952 180.163 90.8552 180.046 91.4712 180.046C92.0778 180.046 92.6285 180.163 93.1232 180.396C93.6272 180.62 94.0285 180.933 94.3272 181.334C94.6258 181.735 94.7752 182.197 94.7752 182.72C94.7752 182.963 94.7378 183.196 94.6632 183.42C94.5885 183.644 94.4765 183.849 94.3272 184.036C94.1778 184.213 93.9958 184.381 93.7812 184.54C93.5665 184.689 93.3192 184.82 93.0392 184.932L92.9132 184.428C93.2305 184.512 93.5245 184.633 93.7952 184.792C94.0658 184.941 94.2992 185.133 94.4952 185.366C94.6912 185.59 94.8405 185.851 94.9432 186.15C95.0552 186.439 95.1112 186.766 95.1112 187.13C95.1112 187.69 94.9478 188.189 94.6212 188.628C94.2945 189.067 93.8558 189.412 93.3052 189.664C92.7545 189.916 92.1432 190.042 91.4712 190.042ZM91.4712 188.166C91.7325 188.166 91.9658 188.115 92.1712 188.012C92.3765 187.909 92.5398 187.769 92.6612 187.592C92.7825 187.415 92.8432 187.209 92.8432 186.976C92.8432 186.733 92.7825 186.523 92.6612 186.346C92.5492 186.159 92.3858 186.015 92.1712 185.912C91.9658 185.8 91.7325 185.744 91.4712 185.744C91.2098 185.744 90.9765 185.8 90.7712 185.912C90.5658 186.015 90.4025 186.159 90.2812 186.346C90.1598 186.523 90.0992 186.733 90.0992 186.976C90.0992 187.2 90.1598 187.401 90.2812 187.578C90.4025 187.755 90.5658 187.9 90.7712 188.012C90.9765 188.115 91.2098 188.166 91.4712 188.166ZM91.4712 183.854C91.6952 183.854 91.8958 183.812 92.0732 183.728C92.2598 183.635 92.4045 183.513 92.5072 183.364C92.6098 183.205 92.6612 183.023 92.6612 182.818C92.6612 182.613 92.6098 182.431 92.5072 182.272C92.4045 182.113 92.2598 181.987 92.0732 181.894C91.8958 181.801 91.6952 181.754 91.4712 181.754C91.2378 181.754 91.0278 181.801 90.8412 181.894C90.6638 181.987 90.5238 182.113 90.4212 182.272C90.3185 182.431 90.2672 182.613 90.2672 182.818C90.2672 183.023 90.3185 183.205 90.4212 183.364C90.5238 183.513 90.6638 183.635 90.8412 183.728C91.0278 183.812 91.2378 183.854 91.4712 183.854ZM105.722 189.258L100.682 184.218L102.026 182.902L107.066 187.942L105.722 189.258ZM102.026 189.3L100.71 187.942L105.736 182.902L107.066 184.246L102.026 189.3ZM116.104 190.14C115.311 190.14 114.615 189.977 114.018 189.65C113.43 189.314 112.893 188.74 112.408 187.928L114.116 186.822C114.321 187.149 114.531 187.41 114.746 187.606C114.97 187.802 115.199 187.947 115.432 188.04C115.675 188.124 115.927 188.166 116.188 188.166C116.449 188.166 116.687 188.11 116.902 187.998C117.126 187.877 117.303 187.709 117.434 187.494C117.574 187.279 117.644 187.037 117.644 186.766C117.644 186.477 117.583 186.234 117.462 186.038C117.35 185.833 117.182 185.679 116.958 185.576C116.743 185.473 116.482 185.422 116.174 185.422C116.034 185.422 115.885 185.441 115.726 185.478C115.567 185.506 115.399 185.548 115.222 185.604C115.045 185.66 114.863 185.735 114.676 185.828L114.158 184.442L116.538 181.852L117.182 182.202L113.094 182.118V180.116H119.114L119.548 180.984L116.314 184.456L115.754 183.798C115.829 183.761 115.95 183.728 116.118 183.7C116.295 183.663 116.463 183.644 116.622 183.644C117.061 183.644 117.471 183.723 117.854 183.882C118.237 184.041 118.577 184.26 118.876 184.54C119.175 184.82 119.408 185.151 119.576 185.534C119.744 185.907 119.828 186.309 119.828 186.738C119.828 187.391 119.66 187.975 119.324 188.488C118.997 188.992 118.549 189.393 117.98 189.692C117.42 189.991 116.795 190.14 116.104 190.14ZM125.78 185.45V183.63H132.626V185.45H125.78ZM125.78 188.488V186.682H132.626V188.488H125.78Z" fill="white"/>
<path d="M138.875 190L138.413 188.852L141.269 185.73C141.427 185.553 141.6 185.352 141.787 185.128C141.973 184.904 142.155 184.675 142.333 184.442C142.51 184.199 142.65 183.966 142.753 183.742C142.865 183.518 142.921 183.313 142.921 183.126C142.921 182.939 142.879 182.776 142.795 182.636C142.711 182.496 142.589 182.389 142.431 182.314C142.272 182.23 142.071 182.188 141.829 182.188C141.614 182.188 141.409 182.244 141.213 182.356C141.017 182.459 140.83 182.622 140.653 182.846C140.485 183.07 140.326 183.345 140.177 183.672L138.413 182.72C138.609 182.179 138.884 181.703 139.239 181.292C139.603 180.872 140.027 180.55 140.513 180.326C140.998 180.093 141.516 179.976 142.067 179.976C142.645 179.985 143.168 180.111 143.635 180.354C144.101 180.587 144.47 180.919 144.741 181.348C145.021 181.768 145.161 182.263 145.161 182.832C145.161 183.028 145.137 183.233 145.091 183.448C145.044 183.663 144.974 183.887 144.881 184.12C144.787 184.344 144.661 184.587 144.503 184.848C144.353 185.1 144.171 185.366 143.957 185.646C143.742 185.926 143.49 186.225 143.201 186.542L140.975 188.964L140.695 187.9H145.595V190H138.875ZM150.331 190V182.076L151.605 182.104L148.063 186.444L147.727 186.024H154.223V187.984H146.663L145.711 186.15L150.709 180.116H152.627V190H150.331Z" fill="#F59E0B"/>
<mask id="path-14-inside-5_29_390" fill="white">
<path d="M41 211C41 208.791 42.7909 207 45 207H197C199.209 207 201 208.791 201 211V236C201 238.209 199.209 240 197 240H45C42.7909 240 41 238.209 41 236V211Z"/>
</mask>
<path d="M41 211C41 208.791 42.7909 207 45 207H197C199.209 207 201 208.791 201 211V236C201 238.209 199.209 240 197 240H45C42.7909 240 41 238.209 41 236V211Z" fill="#0F1521"/>
<path d="M45 207V208H197V207V206H45V207ZM201 211H200V236H201H202V211H201ZM197 240V239H45V240V241H197V240ZM41 236H42V211H41H40V236H41ZM45 240V239C43.3431 239 42 237.657 42 236H41H40C40 238.761 42.2386 241 45 241V240ZM201 236H200C200 237.657 198.657 239 197 239V240V241C199.761 241 202 238.761 202 236H201ZM197 207V208C198.657 208 200 209.343 200 211H201H202C202 208.239 199.761 206 197 206V207ZM45 207V206C42.2386 206 40 208.239 40 211H41H42C42 209.343 43.3431 208 45 208V207Z" fill="#00B4FF" mask="url(#path-14-inside-5_29_390)"/>
<path d="M91.3344 231.042C90.6624 231.042 90.0511 230.916 89.5004 230.664C88.9591 230.403 88.5251 230.053 88.1984 229.614C87.8718 229.175 87.7084 228.681 87.7084 228.13C87.7084 227.766 87.7551 227.439 87.8484 227.15C87.9418 226.851 88.0818 226.59 88.2684 226.366C88.4644 226.133 88.6978 225.937 88.9684 225.778C89.2484 225.61 89.5658 225.475 89.9204 225.372L89.7524 225.932C89.4911 225.829 89.2531 225.703 89.0384 225.554C88.8238 225.405 88.6418 225.237 88.4924 225.05C88.3431 224.854 88.2264 224.644 88.1424 224.42C88.0678 224.196 88.0304 223.963 88.0304 223.72C88.0304 223.197 88.1751 222.735 88.4644 222.334C88.7631 221.933 89.1598 221.62 89.6544 221.396C90.1584 221.163 90.7184 221.046 91.3344 221.046C91.9411 221.046 92.4918 221.163 92.9864 221.396C93.4904 221.62 93.8918 221.933 94.1904 222.334C94.4891 222.735 94.6384 223.197 94.6384 223.72C94.6384 223.963 94.6011 224.196 94.5264 224.42C94.4518 224.644 94.3398 224.849 94.1904 225.036C94.0411 225.213 93.8591 225.381 93.6444 225.54C93.4298 225.689 93.1824 225.82 92.9024 225.932L92.7764 225.428C93.0938 225.512 93.3878 225.633 93.6584 225.792C93.9291 225.941 94.1624 226.133 94.3584 226.366C94.5544 226.59 94.7038 226.851 94.8064 227.15C94.9184 227.439 94.9744 227.766 94.9744 228.13C94.9744 228.69 94.8111 229.189 94.4844 229.628C94.1578 230.067 93.7191 230.412 93.1684 230.664C92.6178 230.916 92.0064 231.042 91.3344 231.042ZM91.3344 229.166C91.5958 229.166 91.8291 229.115 92.0344 229.012C92.2398 228.909 92.4031 228.769 92.5244 228.592C92.6458 228.415 92.7064 228.209 92.7064 227.976C92.7064 227.733 92.6458 227.523 92.5244 227.346C92.4124 227.159 92.2491 227.015 92.0344 226.912C91.8291 226.8 91.5958 226.744 91.3344 226.744C91.0731 226.744 90.8398 226.8 90.6344 226.912C90.4291 227.015 90.2658 227.159 90.1444 227.346C90.0231 227.523 89.9624 227.733 89.9624 227.976C89.9624 228.2 90.0231 228.401 90.1444 228.578C90.2658 228.755 90.4291 228.9 90.6344 229.012C90.8398 229.115 91.0731 229.166 91.3344 229.166ZM91.3344 224.854C91.5584 224.854 91.7591 224.812 91.9364 224.728C92.1231 224.635 92.2678 224.513 92.3704 224.364C92.4731 224.205 92.5244 224.023 92.5244 223.818C92.5244 223.613 92.4731 223.431 92.3704 223.272C92.2678 223.113 92.1231 222.987 91.9364 222.894C91.7591 222.801 91.5584 222.754 91.3344 222.754C91.1011 222.754 90.8911 222.801 90.7044 222.894C90.5271 222.987 90.3871 223.113 90.2844 223.272C90.1818 223.431 90.1304 223.613 90.1304 223.818C90.1304 224.023 90.1818 224.205 90.2844 224.364C90.3871 224.513 90.5271 224.635 90.7044 224.728C90.8911 224.812 91.1011 224.854 91.3344 224.854ZM105.586 230.258L100.546 225.218L101.89 223.902L106.93 228.942L105.586 230.258ZM101.89 230.3L100.574 228.942L105.6 223.902L106.93 225.246L101.89 230.3ZM116.835 231V223.076L118.109 223.104L114.567 227.444L114.231 227.024H120.727V228.984H113.167L112.215 227.15L117.213 221.116H119.131V231H116.835ZM126.641 226.45V224.63H133.487V226.45H126.641ZM126.641 229.488V227.682H133.487V229.488H126.641Z" fill="white"/>
<path d="M142.928 231.14C142.135 231.14 141.439 230.977 140.842 230.65C140.254 230.314 139.717 229.74 139.232 228.928L140.94 227.822C141.145 228.149 141.355 228.41 141.57 228.606C141.794 228.802 142.023 228.947 142.256 229.04C142.499 229.124 142.751 229.166 143.012 229.166C143.273 229.166 143.511 229.11 143.726 228.998C143.95 228.877 144.127 228.709 144.258 228.494C144.398 228.279 144.468 228.037 144.468 227.766C144.468 227.477 144.407 227.234 144.286 227.038C144.174 226.833 144.006 226.679 143.782 226.576C143.567 226.473 143.306 226.422 142.998 226.422C142.858 226.422 142.709 226.441 142.55 226.478C142.391 226.506 142.223 226.548 142.046 226.604C141.869 226.66 141.687 226.735 141.5 226.828L140.982 225.442L143.362 222.852L144.006 223.202L139.918 223.118V221.116H145.938L146.372 221.984L143.138 225.456L142.578 224.798C142.653 224.761 142.774 224.728 142.942 224.7C143.119 224.663 143.287 224.644 143.446 224.644C143.885 224.644 144.295 224.723 144.678 224.882C145.061 225.041 145.401 225.26 145.7 225.54C145.999 225.82 146.232 226.151 146.4 226.534C146.568 226.907 146.652 227.309 146.652 227.738C146.652 228.391 146.484 228.975 146.148 229.488C145.821 229.992 145.373 230.393 144.804 230.692C144.244 230.991 143.619 231.14 142.928 231.14ZM148.008 231L147.546 229.852L150.402 226.73C150.56 226.553 150.733 226.352 150.92 226.128C151.106 225.904 151.288 225.675 151.466 225.442C151.643 225.199 151.783 224.966 151.886 224.742C151.998 224.518 152.054 224.313 152.054 224.126C152.054 223.939 152.012 223.776 151.928 223.636C151.844 223.496 151.722 223.389 151.564 223.314C151.405 223.23 151.204 223.188 150.962 223.188C150.747 223.188 150.542 223.244 150.346 223.356C150.15 223.459 149.963 223.622 149.786 223.846C149.618 224.07 149.459 224.345 149.31 224.672L147.546 223.72C147.742 223.179 148.017 222.703 148.372 222.292C148.736 221.872 149.16 221.55 149.646 221.326C150.131 221.093 150.649 220.976 151.2 220.976C151.778 220.985 152.301 221.111 152.768 221.354C153.234 221.587 153.603 221.919 153.874 222.348C154.154 222.768 154.294 223.263 154.294 223.832C154.294 224.028 154.27 224.233 154.224 224.448C154.177 224.663 154.107 224.887 154.014 225.12C153.92 225.344 153.794 225.587 153.636 225.848C153.486 226.1 153.304 226.366 153.09 226.646C152.875 226.926 152.623 227.225 152.334 227.542L150.108 229.964L149.828 228.9H154.728V231H148.008Z" fill="#F59E0B"/>
<mask id="path-17-inside-6_29_390" fill="white">
<path d="M41 252C41 249.791 42.7909 248 45 248H197C199.209 248 201 249.791 201 252V277C201 279.209 199.209 281 197 281H45C42.7909 281 41 279.209 41 277V252Z"/>
</mask>
<path d="M41 252C41 249.791 42.7909 248 45 248H197C199.209 248 201 249.791 201 252V277C201 279.209 199.209 281 197 281H45C42.7909 281 41 279.209 41 277V252Z" fill="#0F1521"/>
<path d="M45 248V249H197V248V247H45V248ZM201 252H200V277H201H202V252H201ZM197 281V280H45V281V282H197V281ZM41 277H42V252H41H40V277H41ZM45 281V280C43.3431 280 42 278.657 42 277H41H40C40 279.761 42.2386 282 45 282V281ZM201 277H200C200 278.657 198.657 280 197 280V281V282C199.761 282 202 279.761 202 277H201ZM197 248V249C198.657 249 200 250.343 200 252H201H202C202 249.239 199.761 247 197 247V248ZM45 248V247C42.2386 247 40 249.239 40 252H41H42C42 250.343 43.3431 249 45 249V248Z" fill="#00B4FF" mask="url(#path-17-inside-6_29_390)"/>
<path d="M90.4116 270.042C89.7396 270.042 89.1283 269.916 88.5776 269.664C88.0363 269.403 87.6023 269.053 87.2756 268.614C86.9489 268.175 86.7856 267.681 86.7856 267.13C86.7856 266.766 86.8323 266.439 86.9256 266.15C87.0189 265.851 87.1589 265.59 87.3456 265.366C87.5416 265.133 87.7749 264.937 88.0456 264.778C88.3256 264.61 88.6429 264.475 88.9976 264.372L88.8296 264.932C88.5683 264.829 88.3303 264.703 88.1156 264.554C87.9009 264.405 87.7189 264.237 87.5696 264.05C87.4203 263.854 87.3036 263.644 87.2196 263.42C87.1449 263.196 87.1076 262.963 87.1076 262.72C87.1076 262.197 87.2523 261.735 87.5416 261.334C87.8403 260.933 88.2369 260.62 88.7316 260.396C89.2356 260.163 89.7956 260.046 90.4116 260.046C91.0183 260.046 91.5689 260.163 92.0636 260.396C92.5676 260.62 92.9689 260.933 93.2676 261.334C93.5663 261.735 93.7156 262.197 93.7156 262.72C93.7156 262.963 93.6783 263.196 93.6036 263.42C93.5289 263.644 93.4169 263.849 93.2676 264.036C93.1183 264.213 92.9363 264.381 92.7216 264.54C92.5069 264.689 92.2596 264.82 91.9796 264.932L91.8536 264.428C92.1709 264.512 92.4649 264.633 92.7356 264.792C93.0063 264.941 93.2396 265.133 93.4356 265.366C93.6316 265.59 93.7809 265.851 93.8836 266.15C93.9956 266.439 94.0516 266.766 94.0516 267.13C94.0516 267.69 93.8883 268.189 93.5616 268.628C93.2349 269.067 92.7963 269.412 92.2456 269.664C91.6949 269.916 91.0836 270.042 90.4116 270.042ZM90.4116 268.166C90.6729 268.166 90.9063 268.115 91.1116 268.012C91.3169 267.909 91.4803 267.769 91.6016 267.592C91.7229 267.415 91.7836 267.209 91.7836 266.976C91.7836 266.733 91.7229 266.523 91.6016 266.346C91.4896 266.159 91.3263 266.015 91.1116 265.912C90.9063 265.8 90.6729 265.744 90.4116 265.744C90.1503 265.744 89.9169 265.8 89.7116 265.912C89.5063 266.015 89.3429 266.159 89.2216 266.346C89.1003 266.523 89.0396 266.733 89.0396 266.976C89.0396 267.2 89.1003 267.401 89.2216 267.578C89.3429 267.755 89.5063 267.9 89.7116 268.012C89.9169 268.115 90.1503 268.166 90.4116 268.166ZM90.4116 263.854C90.6356 263.854 90.8363 263.812 91.0136 263.728C91.2003 263.635 91.3449 263.513 91.4476 263.364C91.5503 263.205 91.6016 263.023 91.6016 262.818C91.6016 262.613 91.5503 262.431 91.4476 262.272C91.3449 262.113 91.2003 261.987 91.0136 261.894C90.8363 261.801 90.6356 261.754 90.4116 261.754C90.1783 261.754 89.9683 261.801 89.7816 261.894C89.6043 261.987 89.4643 262.113 89.3616 262.272C89.2589 262.431 89.2076 262.613 89.2076 262.818C89.2076 263.023 89.2589 263.205 89.3616 263.364C89.4643 263.513 89.6043 263.635 89.7816 263.728C89.9683 263.812 90.1783 263.854 90.4116 263.854ZM104.663 269.258L99.6228 264.218L100.967 262.902L106.007 267.942L104.663 269.258ZM100.967 269.3L99.6508 267.942L104.677 262.902L106.007 264.246L100.967 269.3ZM114.974 270.098C114.237 270.098 113.565 269.949 112.958 269.65C112.361 269.351 111.866 268.922 111.474 268.362L112.748 266.962C113.131 267.382 113.486 267.671 113.812 267.83C114.139 267.979 114.503 268.054 114.904 268.054C115.203 268.054 115.469 267.993 115.702 267.872C115.936 267.751 116.118 267.583 116.248 267.368C116.388 267.144 116.458 266.897 116.458 266.626C116.458 266.346 116.388 266.099 116.248 265.884C116.118 265.66 115.936 265.483 115.702 265.352C115.478 265.221 115.217 265.156 114.918 265.156C114.704 265.156 114.503 265.175 114.316 265.212C114.13 265.249 113.929 265.315 113.714 265.408C113.509 265.492 113.262 265.618 112.972 265.786L111.964 264.442L112.566 260.116H118.194V262.118H113.7L114.316 261.334L113.854 264.442L113.014 264.162C113.192 264.003 113.406 263.863 113.658 263.742C113.92 263.621 114.2 263.523 114.498 263.448C114.797 263.364 115.096 263.322 115.394 263.322C116.01 263.322 116.561 263.467 117.046 263.756C117.541 264.036 117.933 264.428 118.222 264.932C118.512 265.436 118.656 266.015 118.656 266.668C118.656 267.312 118.493 267.895 118.166 268.418C117.84 268.931 117.401 269.342 116.85 269.65C116.3 269.949 115.674 270.098 114.974 270.098ZM124.789 265.45V263.63H131.635V265.45H124.789ZM124.789 268.488V266.682H131.635V268.488H124.789Z" fill="white"/>
<path d="M141.944 270V262.076L143.218 262.104L139.676 266.444L139.34 266.024H145.836V267.984H138.276L137.324 266.15L142.322 260.116H144.24V270H141.944ZM151.045 270.14C150.168 270.14 149.416 269.939 148.791 269.538C148.175 269.137 147.704 268.563 147.377 267.816C147.05 267.06 146.887 266.155 146.887 265.1C146.887 264.045 147.05 263.145 147.377 262.398C147.704 261.642 148.175 261.063 148.791 260.662C149.416 260.261 150.168 260.06 151.045 260.06C151.922 260.06 152.674 260.261 153.299 260.662C153.924 261.063 154.4 261.642 154.727 262.398C155.054 263.145 155.217 264.045 155.217 265.1C155.217 266.155 155.054 267.06 154.727 267.816C154.4 268.563 153.924 269.137 153.299 269.538C152.674 269.939 151.922 270.14 151.045 270.14ZM151.045 268.124C151.652 268.124 152.118 267.863 152.445 267.34C152.781 266.817 152.949 266.071 152.949 265.1C152.949 264.101 152.781 263.336 152.445 262.804C152.118 262.263 151.652 261.992 151.045 261.992C150.438 261.992 149.967 262.263 149.631 262.804C149.304 263.336 149.141 264.101 149.141 265.1C149.141 266.071 149.304 266.817 149.631 267.34C149.967 267.863 150.438 268.124 151.045 268.124Z" fill="#F59E0B"/>
<mask id="path-20-inside-7_29_390" fill="white">
<path d="M41 293C41 290.791 42.7909 289 45 289H197C199.209 289 201 290.791 201 293V318C201 320.209 199.209 322 197 322H45C42.7909 322 41 320.209 41 318V293Z"/>
</mask>
<path d="M41 293C41 290.791 42.7909 289 45 289H197C199.209 289 201 290.791 201 293V318C201 320.209 199.209 322 197 322H45C42.7909 322 41 320.209 41 318V293Z" fill="#0F1521"/>
<path d="M45 289V290H197V289V288H45V289ZM201 293H200V318H201H202V293H201ZM197 322V321H45V322V323H197V322ZM41 318H42V293H41H40V318H41ZM45 322V321C43.3431 321 42 319.657 42 318H41H40C40 320.761 42.2386 323 45 323V322ZM201 318H200C200 319.657 198.657 321 197 321V322V323C199.761 323 202 320.761 202 318H201ZM197 289V290C198.657 290 200 291.343 200 293H201H202C202 290.239 199.761 288 197 288V289ZM45 289V288C42.2386 288 40 290.239 40 293H41H42C42 291.343 43.3431 290 45 290V289Z" fill="#00B4FF" mask="url(#path-20-inside-7_29_390)"/>
<path d="M91.061 311.042C90.389 311.042 89.7777 310.916 89.227 310.664C88.6857 310.403 88.2517 310.053 87.925 309.614C87.5983 309.175 87.435 308.681 87.435 308.13C87.435 307.766 87.4817 307.439 87.575 307.15C87.6683 306.851 87.8083 306.59 87.995 306.366C88.191 306.133 88.4243 305.937 88.695 305.778C88.975 305.61 89.2923 305.475 89.647 305.372L89.479 305.932C89.2177 305.829 88.9797 305.703 88.765 305.554C88.5503 305.405 88.3683 305.237 88.219 305.05C88.0697 304.854 87.953 304.644 87.869 304.42C87.7943 304.196 87.757 303.963 87.757 303.72C87.757 303.197 87.9017 302.735 88.191 302.334C88.4897 301.933 88.8863 301.62 89.381 301.396C89.885 301.163 90.445 301.046 91.061 301.046C91.6677 301.046 92.2183 301.163 92.713 301.396C93.217 301.62 93.6183 301.933 93.917 302.334C94.2157 302.735 94.365 303.197 94.365 303.72C94.365 303.963 94.3277 304.196 94.253 304.42C94.1783 304.644 94.0663 304.849 93.917 305.036C93.7677 305.213 93.5857 305.381 93.371 305.54C93.1563 305.689 92.909 305.82 92.629 305.932L92.503 305.428C92.8203 305.512 93.1143 305.633 93.385 305.792C93.6557 305.941 93.889 306.133 94.085 306.366C94.281 306.59 94.4303 306.851 94.533 307.15C94.645 307.439 94.701 307.766 94.701 308.13C94.701 308.69 94.5377 309.189 94.211 309.628C93.8843 310.067 93.4457 310.412 92.895 310.664C92.3443 310.916 91.733 311.042 91.061 311.042ZM91.061 309.166C91.3223 309.166 91.5557 309.115 91.761 309.012C91.9663 308.909 92.1297 308.769 92.251 308.592C92.3723 308.415 92.433 308.209 92.433 307.976C92.433 307.733 92.3723 307.523 92.251 307.346C92.139 307.159 91.9757 307.015 91.761 306.912C91.5557 306.8 91.3223 306.744 91.061 306.744C90.7997 306.744 90.5663 306.8 90.361 306.912C90.1557 307.015 89.9923 307.159 89.871 307.346C89.7497 307.523 89.689 307.733 89.689 307.976C89.689 308.2 89.7497 308.401 89.871 308.578C89.9923 308.755 90.1557 308.9 90.361 309.012C90.5663 309.115 90.7997 309.166 91.061 309.166ZM91.061 304.854C91.285 304.854 91.4857 304.812 91.663 304.728C91.8497 304.635 91.9943 304.513 92.097 304.364C92.1997 304.205 92.251 304.023 92.251 303.818C92.251 303.613 92.1997 303.431 92.097 303.272C91.9943 303.113 91.8497 302.987 91.663 302.894C91.4857 302.801 91.285 302.754 91.061 302.754C90.8277 302.754 90.6177 302.801 90.431 302.894C90.2537 302.987 90.1137 303.113 90.011 303.272C89.9083 303.431 89.857 303.613 89.857 303.818C89.857 304.023 89.9083 304.205 90.011 304.364C90.1137 304.513 90.2537 304.635 90.431 304.728C90.6177 304.812 90.8277 304.854 91.061 304.854ZM105.312 310.258L100.272 305.218L101.616 303.902L106.656 308.942L105.312 310.258ZM101.616 310.3L100.3 308.942L105.326 303.902L106.656 305.246L101.616 310.3ZM115.792 311C115.288 311 114.812 310.911 114.364 310.734C113.925 310.547 113.542 310.295 113.216 309.978C112.889 309.651 112.628 309.273 112.432 308.844C112.245 308.415 112.152 307.953 112.152 307.458C112.152 307.113 112.189 306.781 112.264 306.464C112.338 306.137 112.441 305.811 112.572 305.484C112.712 305.148 112.875 304.807 113.062 304.462C113.258 304.107 113.472 303.734 113.706 303.342L115.078 301.046H117.276L117.332 301.186L115.428 304.182C115.185 304.574 114.975 304.943 114.798 305.288C114.62 305.624 114.462 305.96 114.322 306.296C114.182 306.632 114.042 306.987 113.902 307.36L113.454 306.394C113.547 306.067 113.696 305.769 113.902 305.498C114.107 305.218 114.345 304.98 114.616 304.784C114.896 304.579 115.185 304.425 115.484 304.322C115.782 304.21 116.076 304.154 116.366 304.154C116.916 304.154 117.42 304.303 117.878 304.602C118.344 304.891 118.718 305.279 118.998 305.764C119.278 306.249 119.418 306.781 119.418 307.36C119.418 308.051 119.259 308.671 118.942 309.222C118.634 309.773 118.204 310.207 117.654 310.524C117.112 310.841 116.492 311 115.792 311ZM115.82 309.04C116.118 309.04 116.38 308.975 116.604 308.844C116.837 308.713 117.019 308.531 117.15 308.298C117.28 308.055 117.346 307.78 117.346 307.472C117.346 307.211 117.276 306.968 117.136 306.744C117.005 306.511 116.823 306.324 116.59 306.184C116.366 306.035 116.114 305.96 115.834 305.96C115.535 305.96 115.264 306.03 115.022 306.17C114.788 306.301 114.606 306.483 114.476 306.716C114.345 306.94 114.28 307.192 114.28 307.472C114.28 307.771 114.345 308.041 114.476 308.284C114.606 308.517 114.788 308.704 115.022 308.844C115.255 308.975 115.521 309.04 115.82 309.04ZM125.206 306.45V304.63H132.052V306.45H125.206ZM125.206 309.488V307.682H132.052V309.488H125.206Z" fill="white"/>
<path d="M142.361 311V303.076L143.635 303.104L140.093 307.444L139.757 307.024H146.253V308.984H138.693L137.741 307.15L142.739 301.116H144.657V311H142.361ZM150.93 311.042C150.258 311.042 149.647 310.916 149.096 310.664C148.555 310.403 148.121 310.053 147.794 309.614C147.467 309.175 147.304 308.681 147.304 308.13C147.304 307.766 147.351 307.439 147.444 307.15C147.537 306.851 147.677 306.59 147.864 306.366C148.06 306.133 148.293 305.937 148.564 305.778C148.844 305.61 149.161 305.475 149.516 305.372L149.348 305.932C149.087 305.829 148.849 305.703 148.634 305.554C148.419 305.405 148.237 305.237 148.088 305.05C147.939 304.854 147.822 304.644 147.738 304.42C147.663 304.196 147.626 303.963 147.626 303.72C147.626 303.197 147.771 302.735 148.06 302.334C148.359 301.933 148.755 301.62 149.25 301.396C149.754 301.163 150.314 301.046 150.93 301.046C151.537 301.046 152.087 301.163 152.582 301.396C153.086 301.62 153.487 301.933 153.786 302.334C154.085 302.735 154.234 303.197 154.234 303.72C154.234 303.963 154.197 304.196 154.122 304.42C154.047 304.644 153.935 304.849 153.786 305.036C153.637 305.213 153.455 305.381 153.24 305.54C153.025 305.689 152.778 305.82 152.498 305.932L152.372 305.428C152.689 305.512 152.983 305.633 153.254 305.792C153.525 305.941 153.758 306.133 153.954 306.366C154.15 306.59 154.299 306.851 154.402 307.15C154.514 307.439 154.57 307.766 154.57 308.13C154.57 308.69 154.407 309.189 154.08 309.628C153.753 310.067 153.315 310.412 152.764 310.664C152.213 310.916 151.602 311.042 150.93 311.042ZM150.93 309.166C151.191 309.166 151.425 309.115 151.63 309.012C151.835 308.909 151.999 308.769 152.12 308.592C152.241 308.415 152.302 308.209 152.302 307.976C152.302 307.733 152.241 307.523 152.12 307.346C152.008 307.159 151.845 307.015 151.63 306.912C151.425 306.8 151.191 306.744 150.93 306.744C150.669 306.744 150.435 306.8 150.23 306.912C150.025 307.015 149.861 307.159 149.74 307.346C149.619 307.523 149.558 307.733 149.558 307.976C149.558 308.2 149.619 308.401 149.74 308.578C149.861 308.755 150.025 308.9 150.23 309.012C150.435 309.115 150.669 309.166 150.93 309.166ZM150.93 304.854C151.154 304.854 151.355 304.812 151.532 304.728C151.719 304.635 151.863 304.513 151.966 304.364C152.069 304.205 152.12 304.023 152.12 303.818C152.12 303.613 152.069 303.431 151.966 303.272C151.863 303.113 151.719 302.987 151.532 302.894C151.355 302.801 151.154 302.754 150.93 302.754C150.697 302.754 150.487 302.801 150.3 302.894C150.123 302.987 149.983 303.113 149.88 303.272C149.777 303.431 149.726 303.613 149.726 303.818C149.726 304.023 149.777 304.205 149.88 304.364C149.983 304.513 150.123 304.635 150.3 304.728C150.487 304.812 150.697 304.854 150.93 304.854Z" fill="#F59E0B"/>
<mask id="path-23-inside-8_29_390" fill="white">
<path d="M41 334C41 331.791 42.7909 330 45 330H197C199.209 330 201 331.791 201 334V359C201 361.209 199.209 363 197 363H45C42.7909 363 41 361.209 41 359V334Z"/>
</mask>
<path d="M41 334C41 331.791 42.7909 330 45 330H197C199.209 330 201 331.791 201 334V359C201 361.209 199.209 363 197 363H45C42.7909 363 41 361.209 41 359V334Z" fill="#0F1521"/>
<path d="M45 330V331H197V330V329H45V330ZM201 334H200V359H201H202V334H201ZM197 363V362H45V363V364H197V363ZM41 359H42V334H41H40V359H41ZM45 363V362C43.3431 362 42 360.657 42 359H41H40C40 361.761 42.2386 364 45 364V363ZM201 359H200C200 360.657 198.657 362 197 362V363V364C199.761 364 202 361.761 202 359H201ZM197 330V331C198.657 331 200 332.343 200 334H201H202C202 331.239 199.761 329 197 329V330ZM45 330V329C42.2386 329 40 331.239 40 334H41H42C42 332.343 43.3431 331 45 331V330Z" fill="#00B4FF" mask="url(#path-23-inside-8_29_390)"/>
<path d="M91.8471 352.042C91.1751 352.042 90.5638 351.916 90.0131 351.664C89.4718 351.403 89.0378 351.053 88.7111 350.614C88.3845 350.175 88.2211 349.681 88.2211 349.13C88.2211 348.766 88.2678 348.439 88.3611 348.15C88.4545 347.851 88.5945 347.59 88.7811 347.366C88.9771 347.133 89.2105 346.937 89.4811 346.778C89.7611 346.61 90.0785 346.475 90.4331 346.372L90.2651 346.932C90.0038 346.829 89.7658 346.703 89.5511 346.554C89.3365 346.405 89.1545 346.237 89.0051 346.05C88.8558 345.854 88.7391 345.644 88.6551 345.42C88.5805 345.196 88.5431 344.963 88.5431 344.72C88.5431 344.197 88.6878 343.735 88.9771 343.334C89.2758 342.933 89.6725 342.62 90.1671 342.396C90.6711 342.163 91.2311 342.046 91.8471 342.046C92.4538 342.046 93.0045 342.163 93.4991 342.396C94.0031 342.62 94.4045 342.933 94.7031 343.334C95.0018 343.735 95.1511 344.197 95.1511 344.72C95.1511 344.963 95.1138 345.196 95.0391 345.42C94.9645 345.644 94.8525 345.849 94.7031 346.036C94.5538 346.213 94.3718 346.381 94.1571 346.54C93.9425 346.689 93.6951 346.82 93.4151 346.932L93.2891 346.428C93.6065 346.512 93.9005 346.633 94.1711 346.792C94.4418 346.941 94.6751 347.133 94.8711 347.366C95.0671 347.59 95.2165 347.851 95.3191 348.15C95.4311 348.439 95.4871 348.766 95.4871 349.13C95.4871 349.69 95.3238 350.189 94.9971 350.628C94.6705 351.067 94.2318 351.412 93.6811 351.664C93.1305 351.916 92.5191 352.042 91.8471 352.042ZM91.8471 350.166C92.1085 350.166 92.3418 350.115 92.5471 350.012C92.7525 349.909 92.9158 349.769 93.0371 349.592C93.1585 349.415 93.2191 349.209 93.2191 348.976C93.2191 348.733 93.1585 348.523 93.0371 348.346C92.9251 348.159 92.7618 348.015 92.5471 347.912C92.3418 347.8 92.1085 347.744 91.8471 347.744C91.5858 347.744 91.3525 347.8 91.1471 347.912C90.9418 348.015 90.7785 348.159 90.6571 348.346C90.5358 348.523 90.4751 348.733 90.4751 348.976C90.4751 349.2 90.5358 349.401 90.6571 349.578C90.7785 349.755 90.9418 349.9 91.1471 350.012C91.3525 350.115 91.5858 350.166 91.8471 350.166ZM91.8471 345.854C92.0711 345.854 92.2718 345.812 92.4491 345.728C92.6358 345.635 92.7805 345.513 92.8831 345.364C92.9858 345.205 93.0371 345.023 93.0371 344.818C93.0371 344.613 92.9858 344.431 92.8831 344.272C92.7805 344.113 92.6358 343.987 92.4491 343.894C92.2718 343.801 92.0711 343.754 91.8471 343.754C91.6138 343.754 91.4038 343.801 91.2171 343.894C91.0398 343.987 90.8998 344.113 90.7971 344.272C90.6945 344.431 90.6431 344.613 90.6431 344.818C90.6431 345.023 90.6945 345.205 90.7971 345.364C90.8998 345.513 91.0398 345.635 91.2171 345.728C91.4038 345.812 91.6138 345.854 91.8471 345.854ZM106.098 351.258L101.058 346.218L102.402 344.902L107.442 349.942L106.098 351.258ZM102.402 351.3L101.086 349.942L106.112 344.902L107.442 346.246L102.402 351.3ZM113.638 352L117.558 343.068L118.23 344.188H113.106V342.116H119.49L119.714 343.25L116.018 352H113.638ZM125.623 347.45V345.63H132.469V347.45H125.623ZM125.623 350.488V348.682H132.469V350.488H125.623Z" fill="white"/>
<path d="M141.84 352.098C141.102 352.098 140.43 351.949 139.824 351.65C139.226 351.351 138.732 350.922 138.34 350.362L139.614 348.962C139.996 349.382 140.351 349.671 140.678 349.83C141.004 349.979 141.368 350.054 141.77 350.054C142.068 350.054 142.334 349.993 142.568 349.872C142.801 349.751 142.983 349.583 143.114 349.368C143.254 349.144 143.324 348.897 143.324 348.626C143.324 348.346 143.254 348.099 143.114 347.884C142.983 347.66 142.801 347.483 142.568 347.352C142.344 347.221 142.082 347.156 141.784 347.156C141.569 347.156 141.368 347.175 141.182 347.212C140.995 347.249 140.794 347.315 140.58 347.408C140.374 347.492 140.127 347.618 139.838 347.786L138.83 346.442L139.432 342.116H145.06V344.118H140.566L141.182 343.334L140.72 346.442L139.88 346.162C140.057 346.003 140.272 345.863 140.524 345.742C140.785 345.621 141.065 345.523 141.364 345.448C141.662 345.364 141.961 345.322 142.26 345.322C142.876 345.322 143.426 345.467 143.912 345.756C144.406 346.036 144.798 346.428 145.088 346.932C145.377 347.436 145.522 348.015 145.522 348.668C145.522 349.312 145.358 349.895 145.032 350.418C144.705 350.931 144.266 351.342 143.716 351.65C143.165 351.949 142.54 352.098 141.84 352.098ZM150.347 352C149.843 352 149.367 351.911 148.919 351.734C148.481 351.547 148.098 351.295 147.771 350.978C147.445 350.651 147.183 350.273 146.987 349.844C146.801 349.415 146.707 348.953 146.707 348.458C146.707 348.113 146.745 347.781 146.819 347.464C146.894 347.137 146.997 346.811 147.127 346.484C147.267 346.148 147.431 345.807 147.617 345.462C147.813 345.107 148.028 344.734 148.261 344.342L149.633 342.046H151.831L151.887 342.186L149.983 345.182C149.741 345.574 149.531 345.943 149.353 346.288C149.176 346.624 149.017 346.96 148.877 347.296C148.737 347.632 148.597 347.987 148.457 348.36L148.009 347.394C148.103 347.067 148.252 346.769 148.457 346.498C148.663 346.218 148.901 345.98 149.171 345.784C149.451 345.579 149.741 345.425 150.039 345.322C150.338 345.21 150.632 345.154 150.921 345.154C151.472 345.154 151.976 345.303 152.433 345.602C152.9 345.891 153.273 346.279 153.553 346.764C153.833 347.249 153.973 347.781 153.973 348.36C153.973 349.051 153.815 349.671 153.497 350.222C153.189 350.773 152.76 351.207 152.209 351.524C151.668 351.841 151.047 352 150.347 352ZM150.375 350.04C150.674 350.04 150.935 349.975 151.159 349.844C151.393 349.713 151.575 349.531 151.705 349.298C151.836 349.055 151.901 348.78 151.901 348.472C151.901 348.211 151.831 347.968 151.691 347.744C151.561 347.511 151.379 347.324 151.145 347.184C150.921 347.035 150.669 346.96 150.389 346.96C150.091 346.96 149.82 347.03 149.577 347.17C149.344 347.301 149.162 347.483 149.031 347.716C148.901 347.94 148.835 348.192 148.835 348.472C148.835 348.771 148.901 349.041 149.031 349.284C149.162 349.517 149.344 349.704 149.577 349.844C149.811 349.975 150.077 350.04 150.375 350.04Z" fill="#F59E0B"/>
<mask id="path-26-inside-9_29_390" fill="white">
<path d="M41 375C41 372.791 42.7909 371 45 371H197C199.209 371 201 372.791 201 375V400C201 402.209 199.209 404 197 404H45C42.7909 404 41 402.209 41 400V375Z"/>
</mask>
<path d="M41 375C41 372.791 42.7909 371 45 371H197C199.209 371 201 372.791 201 375V400C201 402.209 199.209 404 197 404H45C42.7909 404 41 402.209 41 400V375Z" fill="#0F1521"/>
<path d="M45 371V372H197V371V370H45V371ZM201 375H200V400H201H202V375H201ZM197 404V403H45V404V405H197V404ZM41 400H42V375H41H40V400H41ZM45 404V403C43.3431 403 42 401.657 42 400H41H40C40 402.761 42.2386 405 45 405V404ZM201 400H200C200 401.657 198.657 403 197 403V404V405C199.761 405 202 402.761 202 400H201ZM197 371V372C198.657 372 200 373.343 200 375H201H202C202 372.239 199.761 370 197 370V371ZM45 371V370C42.2386 370 40 372.239 40 375H41H42C42 373.343 43.3431 372 45 372V371Z" fill="#00B4FF" mask="url(#path-26-inside-9_29_390)"/>
<path d="M91.061 393.042C90.389 393.042 89.7777 392.916 89.227 392.664C88.6857 392.403 88.2517 392.053 87.925 391.614C87.5983 391.175 87.435 390.681 87.435 390.13C87.435 389.766 87.4817 389.439 87.575 389.15C87.6683 388.851 87.8083 388.59 87.995 388.366C88.191 388.133 88.4243 387.937 88.695 387.778C88.975 387.61 89.2923 387.475 89.647 387.372L89.479 387.932C89.2177 387.829 88.9797 387.703 88.765 387.554C88.5503 387.405 88.3683 387.237 88.219 387.05C88.0697 386.854 87.953 386.644 87.869 386.42C87.7943 386.196 87.757 385.963 87.757 385.72C87.757 385.197 87.9017 384.735 88.191 384.334C88.4897 383.933 88.8863 383.62 89.381 383.396C89.885 383.163 90.445 383.046 91.061 383.046C91.6677 383.046 92.2183 383.163 92.713 383.396C93.217 383.62 93.6183 383.933 93.917 384.334C94.2157 384.735 94.365 385.197 94.365 385.72C94.365 385.963 94.3277 386.196 94.253 386.42C94.1783 386.644 94.0663 386.849 93.917 387.036C93.7677 387.213 93.5857 387.381 93.371 387.54C93.1563 387.689 92.909 387.82 92.629 387.932L92.503 387.428C92.8203 387.512 93.1143 387.633 93.385 387.792C93.6557 387.941 93.889 388.133 94.085 388.366C94.281 388.59 94.4303 388.851 94.533 389.15C94.645 389.439 94.701 389.766 94.701 390.13C94.701 390.69 94.5377 391.189 94.211 391.628C93.8843 392.067 93.4457 392.412 92.895 392.664C92.3443 392.916 91.733 393.042 91.061 393.042ZM91.061 391.166C91.3223 391.166 91.5557 391.115 91.761 391.012C91.9663 390.909 92.1297 390.769 92.251 390.592C92.3723 390.415 92.433 390.209 92.433 389.976C92.433 389.733 92.3723 389.523 92.251 389.346C92.139 389.159 91.9757 389.015 91.761 388.912C91.5557 388.8 91.3223 388.744 91.061 388.744C90.7997 388.744 90.5663 388.8 90.361 388.912C90.1557 389.015 89.9923 389.159 89.871 389.346C89.7497 389.523 89.689 389.733 89.689 389.976C89.689 390.2 89.7497 390.401 89.871 390.578C89.9923 390.755 90.1557 390.9 90.361 391.012C90.5663 391.115 90.7997 391.166 91.061 391.166ZM91.061 386.854C91.285 386.854 91.4857 386.812 91.663 386.728C91.8497 386.635 91.9943 386.513 92.097 386.364C92.1997 386.205 92.251 386.023 92.251 385.818C92.251 385.613 92.1997 385.431 92.097 385.272C91.9943 385.113 91.8497 384.987 91.663 384.894C91.4857 384.801 91.285 384.754 91.061 384.754C90.8277 384.754 90.6177 384.801 90.431 384.894C90.2537 384.987 90.1137 385.113 90.011 385.272C89.9083 385.431 89.857 385.613 89.857 385.818C89.857 386.023 89.9083 386.205 90.011 386.364C90.1137 386.513 90.2537 386.635 90.431 386.728C90.6177 386.812 90.8277 386.854 91.061 386.854ZM105.312 392.258L100.272 387.218L101.616 385.902L106.656 390.942L105.312 392.258ZM101.616 392.3L100.3 390.942L105.326 385.902L106.656 387.246L101.616 392.3ZM115.862 393.042C115.19 393.042 114.578 392.916 114.028 392.664C113.486 392.403 113.052 392.053 112.726 391.614C112.399 391.175 112.236 390.681 112.236 390.13C112.236 389.766 112.282 389.439 112.376 389.15C112.469 388.851 112.609 388.59 112.796 388.366C112.992 388.133 113.225 387.937 113.496 387.778C113.776 387.61 114.093 387.475 114.448 387.372L114.28 387.932C114.018 387.829 113.78 387.703 113.566 387.554C113.351 387.405 113.169 387.237 113.02 387.05C112.87 386.854 112.754 386.644 112.67 386.42C112.595 386.196 112.558 385.963 112.558 385.72C112.558 385.197 112.702 384.735 112.992 384.334C113.29 383.933 113.687 383.62 114.182 383.396C114.686 383.163 115.246 383.046 115.862 383.046C116.468 383.046 117.019 383.163 117.514 383.396C118.018 383.62 118.419 383.933 118.718 384.334C119.016 384.735 119.166 385.197 119.166 385.72C119.166 385.963 119.128 386.196 119.054 386.42C118.979 386.644 118.867 386.849 118.718 387.036C118.568 387.213 118.386 387.381 118.172 387.54C117.957 387.689 117.71 387.82 117.43 387.932L117.304 387.428C117.621 387.512 117.915 387.633 118.186 387.792C118.456 387.941 118.69 388.133 118.886 388.366C119.082 388.59 119.231 388.851 119.334 389.15C119.446 389.439 119.502 389.766 119.502 390.13C119.502 390.69 119.338 391.189 119.012 391.628C118.685 392.067 118.246 392.412 117.696 392.664C117.145 392.916 116.534 393.042 115.862 393.042ZM115.862 391.166C116.123 391.166 116.356 391.115 116.562 391.012C116.767 390.909 116.93 390.769 117.052 390.592C117.173 390.415 117.234 390.209 117.234 389.976C117.234 389.733 117.173 389.523 117.052 389.346C116.94 389.159 116.776 389.015 116.562 388.912C116.356 388.8 116.123 388.744 115.862 388.744C115.6 388.744 115.367 388.8 115.162 388.912C114.956 389.015 114.793 389.159 114.672 389.346C114.55 389.523 114.49 389.733 114.49 389.976C114.49 390.2 114.55 390.401 114.672 390.578C114.793 390.755 114.956 390.9 115.162 391.012C115.367 391.115 115.6 391.166 115.862 391.166ZM115.862 386.854C116.086 386.854 116.286 386.812 116.464 386.728C116.65 386.635 116.795 386.513 116.898 386.364C117 386.205 117.052 386.023 117.052 385.818C117.052 385.613 117 385.431 116.898 385.272C116.795 385.113 116.65 384.987 116.464 384.894C116.286 384.801 116.086 384.754 115.862 384.754C115.628 384.754 115.418 384.801 115.232 384.894C115.054 384.987 114.914 385.113 114.812 385.272C114.709 385.431 114.658 385.613 114.658 385.818C114.658 386.023 114.709 386.205 114.812 386.364C114.914 386.513 115.054 386.635 115.232 386.728C115.418 386.812 115.628 386.854 115.862 386.854ZM125.479 388.45V386.63H132.325V388.45H125.479ZM125.479 391.488V389.682H132.325V391.488H125.479Z" fill="white"/>
<path d="M141.864 393C141.36 393 140.884 392.911 140.436 392.734C139.997 392.547 139.615 392.295 139.288 391.978C138.961 391.651 138.7 391.273 138.504 390.844C138.317 390.415 138.224 389.953 138.224 389.458C138.224 389.113 138.261 388.781 138.336 388.464C138.411 388.137 138.513 387.811 138.644 387.484C138.784 387.148 138.947 386.807 139.134 386.462C139.33 386.107 139.545 385.734 139.778 385.342L141.15 383.046H143.348L143.404 383.186L141.5 386.182C141.257 386.574 141.047 386.943 140.87 387.288C140.693 387.624 140.534 387.96 140.394 388.296C140.254 388.632 140.114 388.987 139.974 389.36L139.526 388.394C139.619 388.067 139.769 387.769 139.974 387.498C140.179 387.218 140.417 386.98 140.688 386.784C140.968 386.579 141.257 386.425 141.556 386.322C141.855 386.21 142.149 386.154 142.438 386.154C142.989 386.154 143.493 386.303 143.95 386.602C144.417 386.891 144.79 387.279 145.07 387.764C145.35 388.249 145.49 388.781 145.49 389.36C145.49 390.051 145.331 390.671 145.014 391.222C144.706 391.773 144.277 392.207 143.726 392.524C143.185 392.841 142.564 393 141.864 393ZM141.892 391.04C142.191 391.04 142.452 390.975 142.676 390.844C142.909 390.713 143.091 390.531 143.222 390.298C143.353 390.055 143.418 389.78 143.418 389.472C143.418 389.211 143.348 388.968 143.208 388.744C143.077 388.511 142.895 388.324 142.662 388.184C142.438 388.035 142.186 387.96 141.906 387.96C141.607 387.96 141.337 388.03 141.094 388.17C140.861 388.301 140.679 388.483 140.548 388.716C140.417 388.94 140.352 389.192 140.352 389.472C140.352 389.771 140.417 390.041 140.548 390.284C140.679 390.517 140.861 390.704 141.094 390.844C141.327 390.975 141.593 391.04 141.892 391.04ZM150.741 393V385.076L152.015 385.104L148.473 389.444L148.137 389.024H154.633V390.984H147.073L146.121 389.15L151.119 383.116H153.037V393H150.741Z" fill="#F59E0B"/>
<mask id="path-29-inside-10_29_390" fill="white">
<path d="M41 416C41 413.791 42.7909 412 45 412H197C199.209 412 201 413.791 201 416V441C201 443.209 199.209 445 197 445H45C42.7909 445 41 443.209 41 441V416Z"/>
</mask>
<path d="M41 416C41 413.791 42.7909 412 45 412H197C199.209 412 201 413.791 201 416V441C201 443.209 199.209 445 197 445H45C42.7909 445 41 443.209 41 441V416Z" fill="#0F1521"/>
<path d="M45 412V413H197V412V411H45V412ZM201 416H200V441H201H202V416H201ZM197 445V444H45V445V446H197V445ZM41 441H42V416H41H40V441H41ZM45 445V444C43.3431 444 42 442.657 42 441H41H40C40 443.761 42.2386 446 45 446V445ZM201 441H200C200 442.657 198.657 444 197 444V445V446C199.761 446 202 443.761 202 441H201ZM197 412V413C198.657 413 200 414.343 200 416H201H202C202 413.239 199.761 411 197 411V412ZM45 412V411C42.2386 411 40 413.239 40 416H41H42C42 414.343 43.3431 413 45 413V412Z" fill="#00B4FF" mask="url(#path-29-inside-10_29_390)"/>
<path d="M92.3325 434.042C91.6605 434.042 91.0492 433.916 90.4985 433.664C89.9572 433.403 89.5232 433.053 89.1965 432.614C88.8698 432.175 88.7065 431.681 88.7065 431.13C88.7065 430.766 88.7532 430.439 88.8465 430.15C88.9398 429.851 89.0798 429.59 89.2665 429.366C89.4625 429.133 89.6958 428.937 89.9665 428.778C90.2465 428.61 90.5638 428.475 90.9185 428.372L90.7505 428.932C90.4892 428.829 90.2512 428.703 90.0365 428.554C89.8218 428.405 89.6398 428.237 89.4905 428.05C89.3412 427.854 89.2245 427.644 89.1405 427.42C89.0658 427.196 89.0285 426.963 89.0285 426.72C89.0285 426.197 89.1732 425.735 89.4625 425.334C89.7612 424.933 90.1578 424.62 90.6525 424.396C91.1565 424.163 91.7165 424.046 92.3325 424.046C92.9392 424.046 93.4898 424.163 93.9845 424.396C94.4885 424.62 94.8898 424.933 95.1885 425.334C95.4872 425.735 95.6365 426.197 95.6365 426.72C95.6365 426.963 95.5992 427.196 95.5245 427.42C95.4498 427.644 95.3378 427.849 95.1885 428.036C95.0392 428.213 94.8572 428.381 94.6425 428.54C94.4278 428.689 94.1805 428.82 93.9005 428.932L93.7745 428.428C94.0918 428.512 94.3858 428.633 94.6565 428.792C94.9272 428.941 95.1605 429.133 95.3565 429.366C95.5525 429.59 95.7018 429.851 95.8045 430.15C95.9165 430.439 95.9725 430.766 95.9725 431.13C95.9725 431.69 95.8092 432.189 95.4825 432.628C95.1558 433.067 94.7172 433.412 94.1665 433.664C93.6158 433.916 93.0045 434.042 92.3325 434.042ZM92.3325 432.166C92.5938 432.166 92.8272 432.115 93.0325 432.012C93.2378 431.909 93.4012 431.769 93.5225 431.592C93.6438 431.415 93.7045 431.209 93.7045 430.976C93.7045 430.733 93.6438 430.523 93.5225 430.346C93.4105 430.159 93.2472 430.015 93.0325 429.912C92.8272 429.8 92.5938 429.744 92.3325 429.744C92.0712 429.744 91.8378 429.8 91.6325 429.912C91.4272 430.015 91.2638 430.159 91.1425 430.346C91.0212 430.523 90.9605 430.733 90.9605 430.976C90.9605 431.2 91.0212 431.401 91.1425 431.578C91.2638 431.755 91.4272 431.9 91.6325 432.012C91.8378 432.115 92.0712 432.166 92.3325 432.166ZM92.3325 427.854C92.5565 427.854 92.7572 427.812 92.9345 427.728C93.1212 427.635 93.2658 427.513 93.3685 427.364C93.4712 427.205 93.5225 427.023 93.5225 426.818C93.5225 426.613 93.4712 426.431 93.3685 426.272C93.2658 426.113 93.1212 425.987 92.9345 425.894C92.7572 425.801 92.5565 425.754 92.3325 425.754C92.0992 425.754 91.8892 425.801 91.7025 425.894C91.5252 425.987 91.3852 426.113 91.2825 426.272C91.1798 426.431 91.1285 426.613 91.1285 426.818C91.1285 427.023 91.1798 427.205 91.2825 427.364C91.3852 427.513 91.5252 427.635 91.7025 427.728C91.8892 427.812 92.0992 427.854 92.3325 427.854ZM106.584 433.258L101.544 428.218L102.888 426.902L107.928 431.942L106.584 433.258ZM102.888 433.3L101.572 431.942L106.598 426.902L107.928 428.246L102.888 433.3ZM115.859 434L115.803 433.86L118.869 427.672L119.275 428.512C119.182 428.848 119.033 429.151 118.827 429.422C118.622 429.693 118.375 429.931 118.085 430.136C117.805 430.332 117.511 430.486 117.203 430.598C116.895 430.701 116.601 430.752 116.321 430.752C115.789 430.752 115.299 430.607 114.851 430.318C114.403 430.029 114.044 429.641 113.773 429.156C113.503 428.671 113.367 428.143 113.367 427.574C113.367 426.902 113.526 426.295 113.843 425.754C114.17 425.203 114.609 424.769 115.159 424.452C115.71 424.125 116.331 423.962 117.021 423.962C117.525 423.962 117.997 424.051 118.435 424.228C118.874 424.405 119.257 424.653 119.583 424.97C119.919 425.278 120.181 425.637 120.367 426.048C120.554 426.459 120.647 426.893 120.647 427.35C120.647 427.686 120.619 428.017 120.563 428.344C120.507 428.661 120.419 428.988 120.297 429.324C120.176 429.66 120.031 430.01 119.863 430.374C119.705 430.738 119.518 431.135 119.303 431.564L118.071 434H115.859ZM116.895 428.876C117.185 428.876 117.441 428.811 117.665 428.68C117.889 428.549 118.062 428.377 118.183 428.162C118.314 427.938 118.379 427.691 118.379 427.42C118.379 427.131 118.314 426.874 118.183 426.65C118.062 426.417 117.889 426.235 117.665 426.104C117.451 425.973 117.199 425.908 116.909 425.908C116.629 425.908 116.382 425.973 116.167 426.104C115.962 426.225 115.794 426.403 115.663 426.636C115.542 426.86 115.481 427.121 115.481 427.42C115.481 427.672 115.542 427.91 115.663 428.134C115.794 428.349 115.967 428.526 116.181 428.666C116.396 428.806 116.634 428.876 116.895 428.876ZM126.45 429.45V427.63H133.296V429.45H126.45ZM126.45 432.488V430.682H133.296V432.488H126.45Z" fill="white"/>
<path d="M139.895 434L143.815 425.068L144.487 426.188H139.363V424.116H145.747L145.971 425.25L142.275 434H139.895ZM147.01 434L146.548 432.852L149.404 429.73C149.562 429.553 149.735 429.352 149.922 429.128C150.108 428.904 150.29 428.675 150.468 428.442C150.645 428.199 150.785 427.966 150.888 427.742C151 427.518 151.056 427.313 151.056 427.126C151.056 426.939 151.014 426.776 150.93 426.636C150.846 426.496 150.724 426.389 150.566 426.314C150.407 426.23 150.206 426.188 149.964 426.188C149.749 426.188 149.544 426.244 149.348 426.356C149.152 426.459 148.965 426.622 148.788 426.846C148.62 427.07 148.461 427.345 148.312 427.672L146.548 426.72C146.744 426.179 147.019 425.703 147.374 425.292C147.738 424.872 148.162 424.55 148.648 424.326C149.133 424.093 149.651 423.976 150.202 423.976C150.78 423.985 151.303 424.111 151.77 424.354C152.236 424.587 152.605 424.919 152.876 425.348C153.156 425.768 153.296 426.263 153.296 426.832C153.296 427.028 153.272 427.233 153.226 427.448C153.179 427.663 153.109 427.887 153.016 428.12C152.922 428.344 152.796 428.587 152.638 428.848C152.488 429.1 152.306 429.366 152.092 429.646C151.877 429.926 151.625 430.225 151.336 430.542L149.11 432.964L148.83 431.9H153.73V434H147.01Z" fill="#F59E0B"/>
<mask id="path-32-inside-11_29_390" fill="white">
<path d="M41 457C41 454.791 42.7909 453 45 453H197C199.209 453 201 454.791 201 457V482C201 484.209 199.209 486 197 486H45C42.7909 486 41 484.209 41 482V457Z"/>
</mask>
<path d="M41 457C41 454.791 42.7909 453 45 453H197C199.209 453 201 454.791 201 457V482C201 484.209 199.209 486 197 486H45C42.7909 486 41 484.209 41 482V457Z" fill="#0F1521"/>
<path d="M45 453V454H197V453V452H45V453ZM201 457H200V482H201H202V457H201ZM197 486V485H45V486V487H197V486ZM41 482H42V457H41H40V482H41ZM45 486V485C43.3431 485 42 483.657 42 482H41H40C40 484.761 42.2386 487 45 487V486ZM201 482H200C200 483.657 198.657 485 197 485V486V487C199.761 487 202 484.761 202 482H201ZM197 453V454C198.657 454 200 455.343 200 457H201H202C202 454.239 199.761 452 197 452V453ZM45 453V452C42.2386 452 40 454.239 40 457H41H42C42 455.343 43.3431 454 45 454V453Z" fill="#00B4FF" mask="url(#path-32-inside-11_29_390)"/>
<path d="M86.3784 475.042C85.7064 475.042 85.095 474.916 84.5444 474.664C84.003 474.403 83.569 474.053 83.2424 473.614C82.9157 473.175 82.7524 472.681 82.7524 472.13C82.7524 471.766 82.799 471.439 82.8924 471.15C82.9857 470.851 83.1257 470.59 83.3124 470.366C83.5084 470.133 83.7417 469.937 84.0124 469.778C84.2924 469.61 84.6097 469.475 84.9644 469.372L84.7964 469.932C84.535 469.829 84.297 469.703 84.0824 469.554C83.8677 469.405 83.6857 469.237 83.5364 469.05C83.387 468.854 83.2704 468.644 83.1864 468.42C83.1117 468.196 83.0744 467.963 83.0744 467.72C83.0744 467.197 83.219 466.735 83.5084 466.334C83.807 465.933 84.2037 465.62 84.6984 465.396C85.2024 465.163 85.7624 465.046 86.3784 465.046C86.985 465.046 87.5357 465.163 88.0304 465.396C88.5344 465.62 88.9357 465.933 89.2344 466.334C89.533 466.735 89.6824 467.197 89.6824 467.72C89.6824 467.963 89.645 468.196 89.5704 468.42C89.4957 468.644 89.3837 468.849 89.2344 469.036C89.085 469.213 88.903 469.381 88.6884 469.54C88.4737 469.689 88.2264 469.82 87.9464 469.932L87.8204 469.428C88.1377 469.512 88.4317 469.633 88.7024 469.792C88.973 469.941 89.2064 470.133 89.4024 470.366C89.5984 470.59 89.7477 470.851 89.8504 471.15C89.9624 471.439 90.0184 471.766 90.0184 472.13C90.0184 472.69 89.855 473.189 89.5284 473.628C89.2017 474.067 88.763 474.412 88.2124 474.664C87.6617 474.916 87.0504 475.042 86.3784 475.042ZM86.3784 473.166C86.6397 473.166 86.873 473.115 87.0784 473.012C87.2837 472.909 87.447 472.769 87.5684 472.592C87.6897 472.415 87.7504 472.209 87.7504 471.976C87.7504 471.733 87.6897 471.523 87.5684 471.346C87.4564 471.159 87.293 471.015 87.0784 470.912C86.873 470.8 86.6397 470.744 86.3784 470.744C86.117 470.744 85.8837 470.8 85.6784 470.912C85.473 471.015 85.3097 471.159 85.1884 471.346C85.067 471.523 85.0064 471.733 85.0064 471.976C85.0064 472.2 85.067 472.401 85.1884 472.578C85.3097 472.755 85.473 472.9 85.6784 473.012C85.8837 473.115 86.117 473.166 86.3784 473.166ZM86.3784 468.854C86.6024 468.854 86.803 468.812 86.9804 468.728C87.167 468.635 87.3117 468.513 87.4144 468.364C87.517 468.205 87.5684 468.023 87.5684 467.818C87.5684 467.613 87.517 467.431 87.4144 467.272C87.3117 467.113 87.167 466.987 86.9804 466.894C86.803 466.801 86.6024 466.754 86.3784 466.754C86.145 466.754 85.935 466.801 85.7484 466.894C85.571 466.987 85.431 467.113 85.3284 467.272C85.2257 467.431 85.1744 467.613 85.1744 467.818C85.1744 468.023 85.2257 468.205 85.3284 468.364C85.431 468.513 85.571 468.635 85.7484 468.728C85.935 468.812 86.145 468.854 86.3784 468.854ZM100.63 474.258L95.5896 469.218L96.9336 467.902L101.974 472.942L100.63 474.258ZM96.9336 474.3L95.6176 472.942L100.644 467.902L101.974 469.246L96.9336 474.3ZM109.947 474.314V466.362L110.465 467.552L108.365 468.546L107.959 466.418L110.745 465.06H112.285V474.314H109.947ZM108.155 475V472.9H114.119V475H108.155ZM119.559 475.14C118.681 475.14 117.93 474.939 117.305 474.538C116.689 474.137 116.217 473.563 115.891 472.816C115.564 472.06 115.401 471.155 115.401 470.1C115.401 469.045 115.564 468.145 115.891 467.398C116.217 466.642 116.689 466.063 117.305 465.662C117.93 465.261 118.681 465.06 119.559 465.06C120.436 465.06 121.187 465.261 121.813 465.662C122.438 466.063 122.914 466.642 123.241 467.398C123.567 468.145 123.731 469.045 123.731 470.1C123.731 471.155 123.567 472.06 123.241 472.816C122.914 473.563 122.438 474.137 121.813 474.538C121.187 474.939 120.436 475.14 119.559 475.14ZM119.559 473.124C120.165 473.124 120.632 472.863 120.959 472.34C121.295 471.817 121.463 471.071 121.463 470.1C121.463 469.101 121.295 468.336 120.959 467.804C120.632 467.263 120.165 466.992 119.559 466.992C118.952 466.992 118.481 467.263 118.145 467.804C117.818 468.336 117.655 469.101 117.655 470.1C117.655 471.071 117.818 471.817 118.145 472.34C118.481 472.863 118.952 473.124 119.559 473.124ZM129.71 470.45V468.63H136.556V470.45H129.71ZM129.71 473.488V471.682H136.556V473.488H129.71Z" fill="white"/>
<path d="M146.165 475.042C145.493 475.042 144.882 474.916 144.331 474.664C143.79 474.403 143.356 474.053 143.029 473.614C142.703 473.175 142.539 472.681 142.539 472.13C142.539 471.766 142.586 471.439 142.679 471.15C142.773 470.851 142.913 470.59 143.099 470.366C143.295 470.133 143.529 469.937 143.799 469.778C144.079 469.61 144.397 469.475 144.751 469.372L144.583 469.932C144.322 469.829 144.084 469.703 143.869 469.554C143.655 469.405 143.473 469.237 143.323 469.05C143.174 468.854 143.057 468.644 142.973 468.42C142.899 468.196 142.861 467.963 142.861 467.72C142.861 467.197 143.006 466.735 143.295 466.334C143.594 465.933 143.991 465.62 144.485 465.396C144.989 465.163 145.549 465.046 146.165 465.046C146.772 465.046 147.323 465.163 147.817 465.396C148.321 465.62 148.723 465.933 149.021 466.334C149.32 466.735 149.469 467.197 149.469 467.72C149.469 467.963 149.432 468.196 149.357 468.42C149.283 468.644 149.171 468.849 149.021 469.036C148.872 469.213 148.69 469.381 148.475 469.54C148.261 469.689 148.013 469.82 147.733 469.932L147.607 469.428C147.925 469.512 148.219 469.633 148.489 469.792C148.76 469.941 148.993 470.133 149.189 470.366C149.385 470.59 149.535 470.851 149.637 471.15C149.749 471.439 149.805 471.766 149.805 472.13C149.805 472.69 149.642 473.189 149.315 473.628C148.989 474.067 148.55 474.412 147.999 474.664C147.449 474.916 146.837 475.042 146.165 475.042ZM146.165 473.166C146.427 473.166 146.66 473.115 146.865 473.012C147.071 472.909 147.234 472.769 147.355 472.592C147.477 472.415 147.537 472.209 147.537 471.976C147.537 471.733 147.477 471.523 147.355 471.346C147.243 471.159 147.08 471.015 146.865 470.912C146.66 470.8 146.427 470.744 146.165 470.744C145.904 470.744 145.671 470.8 145.465 470.912C145.26 471.015 145.097 471.159 144.975 471.346C144.854 471.523 144.793 471.733 144.793 471.976C144.793 472.2 144.854 472.401 144.975 472.578C145.097 472.755 145.26 472.9 145.465 473.012C145.671 473.115 145.904 473.166 146.165 473.166ZM146.165 468.854C146.389 468.854 146.59 468.812 146.767 468.728C146.954 468.635 147.099 468.513 147.201 468.364C147.304 468.205 147.355 468.023 147.355 467.818C147.355 467.613 147.304 467.431 147.201 467.272C147.099 467.113 146.954 466.987 146.767 466.894C146.59 466.801 146.389 466.754 146.165 466.754C145.932 466.754 145.722 466.801 145.535 466.894C145.358 466.987 145.218 467.113 145.115 467.272C145.013 467.431 144.961 467.613 144.961 467.818C144.961 468.023 145.013 468.205 145.115 468.364C145.218 468.513 145.358 468.635 145.535 468.728C145.722 468.812 145.932 468.854 146.165 468.854ZM155.078 475.14C154.201 475.14 153.45 474.939 152.824 474.538C152.208 474.137 151.737 473.563 151.41 472.816C151.084 472.06 150.92 471.155 150.92 470.1C150.92 469.045 151.084 468.145 151.41 467.398C151.737 466.642 152.208 466.063 152.824 465.662C153.45 465.261 154.201 465.06 155.078 465.06C155.956 465.06 156.707 465.261 157.332 465.662C157.958 466.063 158.434 466.642 158.76 467.398C159.087 468.145 159.25 469.045 159.25 470.1C159.25 471.155 159.087 472.06 158.76 472.816C158.434 473.563 157.958 474.137 157.332 474.538C156.707 474.939 155.956 475.14 155.078 475.14ZM155.078 473.124C155.685 473.124 156.152 472.863 156.478 472.34C156.814 471.817 156.982 471.071 156.982 470.1C156.982 469.101 156.814 468.336 156.478 467.804C156.152 467.263 155.685 466.992 155.078 466.992C154.472 466.992 154 467.263 153.664 467.804C153.338 468.336 153.174 469.101 153.174 470.1C153.174 471.071 153.338 471.817 153.664 472.34C154 472.863 154.472 473.124 155.078 473.124Z" fill="#F59E0B"/>
</g>
<defs>
<filter id="filter0_d_29_390" x="0" y="0" width="242" height="530" filterUnits="userSpaceOnUse" color-interpolation-filters="sRGB">
<feFlood flood-opacity="0" result="BackgroundImageFix"/>
<feColorMatrix in="SourceAlpha" type="matrix" values="0 0 0 0 0 0 0 0 0 0 0 0 0 0 0 0 0 0 127 0" result="hardAlpha"/>
<feOffset/>
<feGaussianBlur stdDeviation="7.5"/>
<feComposite in2="hardAlpha" operator="out"/>
<feColorMatrix type="matrix" values="0 0 0 0 0 0 0 0 0 0.705882 0 0 0 0 1 0 0 0 0.2 0"/>
<feBlend mode="normal" in2="BackgroundImageFix" result="effect1_dropShadow_29_390"/>
<feBlend mode="normal" in="SourceGraphic" in2="effect1_dropShadow_29_390" result="shape"/>
</filter>
<linearGradient id="paint0_linear_29_390" x1="15" y1="15" x2="374.39" y2="167.381" gradientUnits="userSpaceOnUse">
<stop stop-color="#1A2332"/>
<stop offset="0.166667" stop-color="#18212F"/>
<stop offset="0.333333" stop-color="#161E2C"/>
<stop offset="0.5" stop-color="#141C29"/>
<stop offset="0.666667" stop-color="#131A27"/>
<stop offset="0.833333" stop-color="#111724"/>
<stop offset="1" stop-color="#0F1521"/>
</linearGradient>
</defs>
</svg>
