<svg width="32" height="32" viewBox="0 0 32 32" fill="none" xmlns="http://www.w3.org/2000/svg">
<g opacity="0.5">
<path d="M16.2894 2.66602H15.7028C14.9958 2.66602 14.3176 2.9469 13.8177 3.44687C13.3177 3.94685 13.0368 4.62496 13.0368 5.33203V5.57197C13.0363 6.03949 12.9129 6.49867 12.679 6.90343C12.445 7.3082 12.1087 7.64432 11.7038 7.87808L11.1306 8.21133C10.7253 8.44532 10.2656 8.56851 9.79761 8.56851C9.32962 8.56851 8.86988 8.44532 8.4646 8.21133L8.26465 8.10469C7.65288 7.75179 6.92609 7.65606 6.24381 7.8385C5.56153 8.02094 4.97952 8.46665 4.62553 9.07779L4.33227 9.58433C3.97938 10.1961 3.88364 10.9229 4.06608 11.6052C4.24852 12.2874 4.69423 12.8695 5.30537 13.2234L5.50532 13.3567C5.90826 13.5894 6.2433 13.9234 6.47715 14.3256C6.711 14.7278 6.83552 15.1843 6.83833 15.6495V16.3294C6.84019 16.7991 6.71789 17.2611 6.48381 17.6684C6.24972 18.0757 5.91217 18.4139 5.50532 18.6488L5.30537 18.7688C4.69423 19.1227 4.24852 19.7047 4.06608 20.387C3.88364 21.0693 3.97938 21.7961 4.33227 22.4079L4.62553 22.9144C4.97952 23.5255 5.56153 23.9713 6.24381 24.1537C6.92609 24.3361 7.65288 24.2404 8.26465 23.8875L8.4646 23.7809C8.86988 23.5469 9.32962 23.4237 9.79761 23.4237C10.2656 23.4237 10.7253 23.5469 11.1306 23.7809L11.7038 24.1141C12.1087 24.3479 12.445 24.684 12.679 25.0888C12.9129 25.4935 13.0363 25.9527 13.0368 26.4202V26.6602C13.0368 27.3672 13.3177 28.0453 13.8177 28.5453C14.3176 29.0453 14.9958 29.3262 15.7028 29.3262H16.2894C16.9964 29.3262 17.6745 29.0453 18.1745 28.5453C18.6745 28.0453 18.9554 27.3672 18.9554 26.6602V26.4202C18.9559 25.9527 19.0793 25.4935 19.3132 25.0888C19.5472 24.684 19.8835 24.3479 20.2884 24.1141L20.8616 23.7809C21.2669 23.5469 21.7266 23.4237 22.1946 23.4237C22.6626 23.4237 23.1223 23.5469 23.5276 23.7809L23.7275 23.8875C24.3393 24.2404 25.0661 24.3361 25.7484 24.1537C26.4307 23.9713 27.0127 23.5255 27.3667 22.9144L27.6599 22.3945C28.0128 21.7828 28.1085 21.056 27.9261 20.3737C27.7437 19.6914 27.298 19.1094 26.6868 18.7554L26.4869 18.6488C26.08 18.4139 25.7425 18.0757 25.5084 17.6684C25.2743 17.2611 25.152 16.7991 25.1539 16.3294V15.6628C25.152 15.1931 25.2743 14.7311 25.5084 14.3238C25.7425 13.9165 26.08 13.5783 26.4869 13.3434L26.6868 13.2234C27.298 12.8695 27.7437 12.2874 27.9261 11.6052C28.1085 10.9229 28.0128 10.1961 27.6599 9.58433L27.3667 9.07779C27.0127 8.46665 26.4307 8.02094 25.7484 7.8385C25.0661 7.65606 24.3393 7.75179 23.7275 8.10469L23.5276 8.21133C23.1223 8.44532 22.6626 8.56851 22.1946 8.56851C21.7266 8.56851 21.2669 8.44532 20.8616 8.21133L20.2884 7.87808C19.8835 7.64432 19.5472 7.3082 19.3132 6.90343C19.0793 6.49867 18.9559 6.03949 18.9554 5.57197V5.33203C18.9554 4.62496 18.6745 3.94685 18.1745 3.44687C17.6745 2.9469 16.9964 2.66602 16.2894 2.66602Z" stroke="#00B4FF" stroke-width="2.66602" stroke-linecap="round" stroke-linejoin="round"/>
<path d="M15.9961 19.9951C18.2047 19.9951 19.9951 18.2047 19.9951 15.9961C19.9951 13.7875 18.2047 11.9971 15.9961 11.9971C13.7875 11.9971 11.9971 13.7875 11.9971 15.9961C11.9971 18.2047 13.7875 19.9951 15.9961 19.9951Z" stroke="#00B4FF" stroke-width="2.66602" stroke-linecap="round" stroke-linejoin="round"/>
</g>
</svg>
