<svg width="242" height="530" viewBox="0 0 242 530" fill="none" xmlns="http://www.w3.org/2000/svg">
<g filter="url(#filter0_d_19_35)">
<mask id="path-1-inside-1_19_35" fill="white">
<path d="M15 25C15 19.4771 19.4772 15 25 15H217C222.523 15 227 19.4772 227 25V505C227 510.523 222.523 515 217 515H25C19.4772 515 15 510.523 15 505V25Z"/>
</mask>
<path d="M15 25C15 19.4771 19.4772 15 25 15H217C222.523 15 227 19.4772 227 25V505C227 510.523 222.523 515 217 515H25C19.4772 515 15 510.523 15 505V25Z" fill="url(#paint0_linear_19_35)" shape-rendering="crispEdges"/>
<path d="M25 15V17H217V15V13H25V15ZM227 25H225V505H227H229V25H227ZM217 515V513H25V515V517H217V515ZM15 505H17V25H15H13V505H15ZM25 515V513C20.5817 513 17 509.418 17 505H15H13C13 511.627 18.3726 517 25 517V515ZM227 505H225C225 509.418 221.418 513 217 513V515V517C223.627 517 229 511.627 229 505H227ZM217 15V17C221.418 17 225 20.5817 225 25H227H229C229 18.3726 223.627 13 217 13V15ZM25 15V13C18.3726 13 13 18.3726 13 25H15H17C17 20.5817 20.5817 17 25 17V15Z" fill="#00B4FF" mask="url(#path-1-inside-1_19_35)"/>
<path d="M41 39C41 33.4772 45.4772 29 51 29H191C196.523 29 201 33.4772 201 39V70C201 75.5228 196.523 80 191 80H51C45.4772 80 41 75.5228 41 70V39Z" fill="#00B4FF"/>
<path d="M60.0569 64V50.8H55.0649V47.2H69.2489V50.8H64.1369V64H60.0569ZM74.0408 64.216C72.9688 64.216 72.0088 63.936 71.1608 63.376C70.3288 62.8 69.6648 62.016 69.1688 61.024C68.6728 60.016 68.4248 58.88 68.4248 57.616C68.4248 56.32 68.6728 55.176 69.1688 54.184C69.6648 53.192 70.3448 52.416 71.2088 51.856C72.0728 51.28 73.0568 50.992 74.1608 50.992C74.7688 50.992 75.3208 51.08 75.8168 51.256C76.3288 51.432 76.7768 51.68 77.1608 52C77.5448 52.304 77.8728 52.664 78.1448 53.08C78.4168 53.48 78.6168 53.912 78.7448 54.376L77.9528 54.28V51.256H81.7688V64H77.8808V60.928L78.7448 60.904C78.6168 61.352 78.4088 61.776 78.1208 62.176C77.8328 62.576 77.4808 62.928 77.0648 63.232C76.6488 63.536 76.1848 63.776 75.6728 63.952C75.1608 64.128 74.6168 64.216 74.0408 64.216ZM75.0968 60.976C75.6888 60.976 76.2008 60.84 76.6328 60.568C77.0648 60.296 77.4008 59.912 77.6408 59.416C77.8808 58.904 78.0008 58.304 78.0008 57.616C78.0008 56.928 77.8808 56.336 77.6408 55.84C77.4008 55.328 77.0648 54.936 76.6328 54.664C76.2008 54.376 75.6888 54.232 75.0968 54.232C74.5208 54.232 74.0168 54.376 73.5848 54.664C73.1688 54.936 72.8408 55.328 72.6008 55.84C72.3608 56.336 72.2408 56.928 72.2408 57.616C72.2408 58.304 72.3608 58.904 72.6008 59.416C72.8408 59.912 73.1688 60.296 73.5848 60.568C74.0168 60.84 74.5208 60.976 75.0968 60.976ZM92.8131 64.264C92.2371 64.264 91.6851 64.184 91.1571 64.024C90.6291 63.864 90.1491 63.648 89.7171 63.376C89.3011 63.104 88.9491 62.792 88.6611 62.44C88.3891 62.072 88.2051 61.696 88.1091 61.312L88.9491 61.024L88.7331 63.976H85.1571V46.24H89.0211V54.304L88.2291 54.016C88.3251 53.6 88.5091 53.216 88.7811 52.864C89.0531 52.496 89.3971 52.176 89.8131 51.904C90.2291 51.616 90.6851 51.392 91.1811 51.232C91.6771 51.072 92.1891 50.992 92.7171 50.992C93.8211 50.992 94.7971 51.28 95.6451 51.856C96.5091 52.416 97.1891 53.2 97.6851 54.208C98.1811 55.2 98.4291 56.336 98.4291 57.616C98.4291 58.912 98.1811 60.064 97.6851 61.072C97.2051 62.064 96.5411 62.848 95.6931 63.424C94.8451 63.984 93.8851 64.264 92.8131 64.264ZM91.8051 61.024C92.3811 61.024 92.8851 60.88 93.3171 60.592C93.7491 60.304 94.0771 59.912 94.3011 59.416C94.5411 58.904 94.6611 58.304 94.6611 57.616C94.6611 56.944 94.5411 56.352 94.3011 55.84C94.0771 55.328 93.7491 54.936 93.3171 54.664C92.8851 54.392 92.3811 54.256 91.8051 54.256C91.2131 54.256 90.7011 54.392 90.2691 54.664C89.8371 54.936 89.5011 55.328 89.2611 55.84C89.0211 56.352 88.9011 56.944 88.9011 57.616C88.9011 58.304 89.0211 58.904 89.2611 59.416C89.5011 59.912 89.8371 60.304 90.2691 60.592C90.7011 60.88 91.2131 61.024 91.8051 61.024ZM100.978 64V46.24H104.818V64H100.978ZM112.713 64.216C111.641 64.216 110.681 63.936 109.833 63.376C109.001 62.8 108.337 62.016 107.841 61.024C107.345 60.016 107.097 58.88 107.097 57.616C107.097 56.32 107.345 55.176 107.841 54.184C108.337 53.192 109.017 52.416 109.881 51.856C110.745 51.28 111.729 50.992 112.833 50.992C113.441 50.992 113.993 51.08 114.489 51.256C115.001 51.432 115.449 51.68 115.833 52C116.217 52.304 116.545 52.664 116.817 53.08C117.089 53.48 117.289 53.912 117.417 54.376L116.625 54.28V51.256H120.441V64H116.553V60.928L117.417 60.904C117.289 61.352 117.081 61.776 116.793 62.176C116.505 62.576 116.153 62.928 115.737 63.232C115.321 63.536 114.857 63.776 114.345 63.952C113.833 64.128 113.289 64.216 112.713 64.216ZM113.769 60.976C114.361 60.976 114.873 60.84 115.305 60.568C115.737 60.296 116.073 59.912 116.313 59.416C116.553 58.904 116.673 58.304 116.673 57.616C116.673 56.928 116.553 56.336 116.313 55.84C116.073 55.328 115.737 54.936 115.305 54.664C114.873 54.376 114.361 54.232 113.769 54.232C113.193 54.232 112.689 54.376 112.257 54.664C111.841 54.936 111.513 55.328 111.273 55.84C111.033 56.336 110.913 56.928 110.913 57.616C110.913 58.304 111.033 58.904 111.273 59.416C111.513 59.912 111.841 60.296 112.257 60.568C112.689 60.84 113.193 60.976 113.769 60.976ZM136.341 64.264C135.237 64.264 134.253 63.984 133.389 63.424C132.541 62.848 131.869 62.064 131.373 61.072C130.877 60.064 130.629 58.92 130.629 57.64C130.629 56.36 130.877 55.224 131.373 54.232C131.869 53.224 132.549 52.432 133.413 51.856C134.277 51.28 135.269 50.992 136.389 50.992C136.965 50.992 137.517 51.08 138.045 51.256C138.573 51.432 139.053 51.672 139.485 51.976C139.917 52.28 140.269 52.632 140.541 53.032C140.813 53.416 140.973 53.816 141.021 54.232L140.109 54.448V46.24H143.973V64H140.397L140.181 61.096L140.949 61.216C140.901 61.616 140.741 62 140.469 62.368C140.213 62.736 139.877 63.064 139.461 63.352C139.045 63.624 138.565 63.84 138.021 64C137.493 64.176 136.933 64.264 136.341 64.264ZM137.325 61.072C137.917 61.072 138.429 60.928 138.861 60.64C139.293 60.352 139.621 59.952 139.845 59.44C140.085 58.928 140.205 58.328 140.205 57.64C140.205 56.936 140.085 56.328 139.845 55.816C139.621 55.304 139.293 54.904 138.861 54.616C138.429 54.328 137.917 54.184 137.325 54.184C136.733 54.184 136.221 54.328 135.789 54.616C135.373 54.904 135.045 55.304 134.805 55.816C134.565 56.328 134.445 56.936 134.445 57.64C134.445 58.328 134.565 58.928 134.805 59.44C135.045 59.952 135.373 60.352 135.789 60.64C136.221 60.928 136.733 61.072 137.325 61.072ZM153.292 64.24C151.884 64.24 150.66 63.96 149.62 63.4C148.58 62.824 147.772 62.048 147.196 61.072C146.62 60.08 146.332 58.952 146.332 57.688C146.332 56.712 146.492 55.816 146.812 55C147.132 54.184 147.58 53.48 148.156 52.888C148.732 52.28 149.412 51.816 150.196 51.496C150.996 51.16 151.868 50.992 152.812 50.992C153.708 50.992 154.524 51.152 155.26 51.472C156.012 51.792 156.66 52.24 157.204 52.816C157.748 53.392 158.164 54.072 158.452 54.856C158.74 55.64 158.868 56.496 158.836 57.424L158.812 58.456H148.66L148.108 56.296H155.692L155.284 56.752V56.272C155.252 55.872 155.124 55.52 154.9 55.216C154.692 54.896 154.412 54.648 154.06 54.472C153.708 54.296 153.308 54.208 152.86 54.208C152.236 54.208 151.7 54.336 151.252 54.592C150.82 54.832 150.492 55.192 150.268 55.672C150.044 56.136 149.932 56.712 149.932 57.4C149.932 58.104 150.076 58.72 150.364 59.248C150.668 59.76 151.1 60.16 151.66 60.448C152.236 60.736 152.916 60.88 153.7 60.88C154.244 60.88 154.724 60.8 155.14 60.64C155.572 60.48 156.036 60.208 156.532 59.824L158.332 62.368C157.836 62.8 157.308 63.152 156.748 63.424C156.188 63.696 155.612 63.896 155.02 64.024C154.444 64.168 153.868 64.24 153.292 64.24ZM161.306 64V46.24H165.146V64H161.306ZM175.971 64L175.179 62.032L180.075 56.68C180.347 56.376 180.643 56.032 180.963 55.648C181.283 55.264 181.595 54.872 181.899 54.472C182.203 54.056 182.443 53.656 182.619 53.272C182.811 52.888 182.907 52.536 182.907 52.216C182.907 51.896 182.835 51.616 182.691 51.376C182.547 51.136 182.339 50.952 182.067 50.824C181.795 50.68 181.451 50.608 181.035 50.608C180.667 50.608 180.315 50.704 179.979 50.896C179.643 51.072 179.323 51.352 179.019 51.736C178.731 52.12 178.459 52.592 178.203 53.152L175.179 51.52C175.515 50.592 175.987 49.776 176.595 49.072C177.219 48.352 177.947 47.8 178.779 47.416C179.611 47.016 180.499 46.816 181.443 46.816C182.435 46.832 183.331 47.048 184.131 47.464C184.931 47.864 185.563 48.432 186.027 49.168C186.507 49.888 186.747 50.736 186.747 51.712C186.747 52.048 186.707 52.4 186.627 52.768C186.547 53.136 186.427 53.52 186.267 53.92C186.107 54.304 185.891 54.72 185.619 55.168C185.363 55.6 185.051 56.056 184.683 56.536C184.315 57.016 183.883 57.528 183.387 58.072L179.571 62.224L179.091 60.4H187.491V64H175.971Z" fill="#0F1521"/>
<mask id="path-5-inside-2_19_35" fill="white">
<path d="M41 88C41 85.7909 42.7909 84 45 84H197C199.209 84 201 85.7909 201 88V113C201 115.209 199.209 117 197 117H45C42.7909 117 41 115.209 41 113V88Z"/>
</mask>
<path d="M41 88C41 85.7909 42.7909 84 45 84H197C199.209 84 201 85.7909 201 88V113C201 115.209 199.209 117 197 117H45C42.7909 117 41 115.209 41 113V88Z" fill="#0F1521"/>
<path d="M45 84V85H197V84V83H45V84ZM201 88H200V113H201H202V88H201ZM197 117V116H45V117V118H197V117ZM41 113H42V88H41H40V113H41ZM45 117V116C43.3431 116 42 114.657 42 113H41H40C40 115.761 42.2386 118 45 118V117ZM201 113H200C200 114.657 198.657 116 197 116V117V118C199.761 118 202 115.761 202 113H201ZM197 84V85C198.657 85 200 86.3431 200 88H201H202C202 85.2386 199.761 83 197 83V84ZM45 84V83C42.2386 83 40 85.2386 40 88H41H42C42 86.3431 43.3431 85 45 85V84Z" fill="#00B4FF" mask="url(#path-5-inside-2_19_35)"/>
<path d="M93.1766 108L92.7146 106.852L95.5706 103.73C95.7293 103.553 95.9019 103.352 96.0886 103.128C96.2753 102.904 96.4573 102.675 96.6346 102.442C96.8119 102.199 96.9519 101.966 97.0546 101.742C97.1666 101.518 97.2226 101.313 97.2226 101.126C97.2226 100.939 97.1806 100.776 97.0966 100.636C97.0126 100.496 96.8913 100.389 96.7326 100.314C96.5739 100.23 96.3733 100.188 96.1306 100.188C95.9159 100.188 95.7106 100.244 95.5146 100.356C95.3186 100.459 95.1319 100.622 94.9546 100.846C94.7866 101.07 94.6279 101.345 94.4786 101.672L92.7146 100.72C92.9106 100.179 93.1859 99.7027 93.5406 99.292C93.9046 98.872 94.3293 98.55 94.8146 98.326C95.2999 98.0927 95.8179 97.976 96.3686 97.976C96.9473 97.9853 97.4699 98.1113 97.9366 98.354C98.4033 98.5873 98.7719 98.9187 99.0426 99.348C99.3226 99.768 99.4626 100.263 99.4626 100.832C99.4626 101.028 99.4393 101.233 99.3926 101.448C99.3459 101.663 99.2759 101.887 99.1826 102.12C99.0893 102.344 98.9633 102.587 98.8046 102.848C98.6553 103.1 98.4733 103.366 98.2586 103.646C98.0439 103.926 97.7919 104.225 97.5026 104.542L95.2766 106.964L94.9966 105.9H99.8966V108H93.1766ZM110.077 107.258L105.037 102.218L106.381 100.902L111.421 105.942L110.077 107.258ZM106.381 107.3L105.065 105.942L110.091 100.902L111.421 102.246L106.381 107.3ZM119.394 107.314V99.362L119.912 100.552L117.812 101.546L117.406 99.418L120.192 98.06H121.732V107.314H119.394ZM117.602 108V105.9H123.566V108H117.602ZM129.71 103.45V101.63H136.556V103.45H129.71ZM129.71 106.488V104.682H136.556V106.488H129.71Z" fill="white"/>
<path d="M142.805 108L142.343 106.852L145.199 103.73C145.358 103.553 145.531 103.352 145.717 103.128C145.904 102.904 146.086 102.675 146.263 102.442C146.441 102.199 146.581 101.966 146.683 101.742C146.795 101.518 146.851 101.313 146.851 101.126C146.851 100.939 146.809 100.776 146.725 100.636C146.641 100.496 146.52 100.389 146.361 100.314C146.203 100.23 146.002 100.188 145.759 100.188C145.545 100.188 145.339 100.244 145.143 100.356C144.947 100.459 144.761 100.622 144.583 100.846C144.415 101.07 144.257 101.345 144.107 101.672L142.343 100.72C142.539 100.179 142.815 99.7027 143.169 99.292C143.533 98.872 143.958 98.55 144.443 98.326C144.929 98.0927 145.447 97.976 145.997 97.976C146.576 97.9853 147.099 98.1113 147.565 98.354C148.032 98.5873 148.401 98.9187 148.671 99.348C148.951 99.768 149.091 100.263 149.091 100.832C149.091 101.028 149.068 101.233 149.021 101.448C148.975 101.663 148.905 101.887 148.811 102.12C148.718 102.344 148.592 102.587 148.433 102.848C148.284 103.1 148.102 103.366 147.887 103.646C147.673 103.926 147.421 104.225 147.131 104.542L144.905 106.964L144.625 105.9H149.525V108H142.805Z" fill="#F59E0B"/>
<mask id="path-8-inside-3_19_35" fill="white">
<path d="M41 129C41 126.791 42.7909 125 45 125H197C199.209 125 201 126.791 201 129V154C201 156.209 199.209 158 197 158H45C42.7909 158 41 156.209 41 154V129Z"/>
</mask>
<path d="M41 129C41 126.791 42.7909 125 45 125H197C199.209 125 201 126.791 201 129V154C201 156.209 199.209 158 197 158H45C42.7909 158 41 156.209 41 154V129Z" fill="#0F1521"/>
<path d="M45 125V126H197V125V124H45V125ZM201 129H200V154H201H202V129H201ZM197 158V157H45V158V159H197V158ZM41 154H42V129H41H40V154H41ZM45 158V157C43.3431 157 42 155.657 42 154H41H40C40 156.761 42.2386 159 45 159V158ZM201 154H200C200 155.657 198.657 157 197 157V158V159C199.761 159 202 156.761 202 154H201ZM197 125V126C198.657 126 200 127.343 200 129H201H202C202 126.239 199.761 124 197 124V125ZM45 125V124C42.2386 124 40 126.239 40 129H41H42C42 127.343 43.3431 126 45 126V125Z" fill="#00B4FF" mask="url(#path-8-inside-3_19_35)"/>
<path d="M92.4656 149L92.0036 147.852L94.8596 144.73C95.0183 144.553 95.191 144.352 95.3776 144.128C95.5643 143.904 95.7463 143.675 95.9236 143.442C96.101 143.199 96.241 142.966 96.3436 142.742C96.4556 142.518 96.5116 142.313 96.5116 142.126C96.5116 141.939 96.4696 141.776 96.3856 141.636C96.3016 141.496 96.1803 141.389 96.0216 141.314C95.863 141.23 95.6623 141.188 95.4196 141.188C95.205 141.188 94.9996 141.244 94.8036 141.356C94.6076 141.459 94.421 141.622 94.2436 141.846C94.0756 142.07 93.917 142.345 93.7676 142.672L92.0036 141.72C92.1996 141.179 92.475 140.703 92.8296 140.292C93.1936 139.872 93.6183 139.55 94.1036 139.326C94.589 139.093 95.107 138.976 95.6576 138.976C96.2363 138.985 96.759 139.111 97.2256 139.354C97.6923 139.587 98.061 139.919 98.3316 140.348C98.6116 140.768 98.7516 141.263 98.7516 141.832C98.7516 142.028 98.7283 142.233 98.6816 142.448C98.635 142.663 98.565 142.887 98.4716 143.12C98.3783 143.344 98.2523 143.587 98.0936 143.848C97.9443 144.1 97.7623 144.366 97.5476 144.646C97.333 144.926 97.081 145.225 96.7916 145.542L94.5656 147.964L94.2856 146.9H99.1856V149H92.4656ZM109.366 148.258L104.326 143.218L105.67 141.902L110.71 146.942L109.366 148.258ZM105.67 148.3L104.354 146.942L109.38 141.902L110.71 143.246L105.67 148.3ZM116.555 149L116.093 147.852L118.949 144.73C119.108 144.553 119.281 144.352 119.467 144.128C119.654 143.904 119.836 143.675 120.013 143.442C120.191 143.199 120.331 142.966 120.433 142.742C120.545 142.518 120.601 142.313 120.601 142.126C120.601 141.939 120.559 141.776 120.475 141.636C120.391 141.496 120.27 141.389 120.111 141.314C119.953 141.23 119.752 141.188 119.509 141.188C119.295 141.188 119.089 141.244 118.893 141.356C118.697 141.459 118.511 141.622 118.333 141.846C118.165 142.07 118.007 142.345 117.857 142.672L116.093 141.72C116.289 141.179 116.565 140.703 116.919 140.292C117.283 139.872 117.708 139.55 118.193 139.326C118.679 139.093 119.197 138.976 119.747 138.976C120.326 138.985 120.849 139.111 121.315 139.354C121.782 139.587 122.151 139.919 122.421 140.348C122.701 140.768 122.841 141.263 122.841 141.832C122.841 142.028 122.818 142.233 122.771 142.448C122.725 142.663 122.655 142.887 122.561 143.12C122.468 143.344 122.342 143.587 122.183 143.848C122.034 144.1 121.852 144.366 121.637 144.646C121.423 144.926 121.171 145.225 120.881 145.542L118.655 147.964L118.375 146.9H123.275V149H116.555ZM128.822 144.45V142.63H135.668V144.45H128.822ZM128.822 147.488V145.682H135.668V147.488H128.822Z" fill="white"/>
<path d="M145.977 149V141.076L147.251 141.104L143.709 145.444L143.373 145.024H149.869V146.984H142.309L141.357 145.15L146.355 139.116H148.273V149H145.977Z" fill="#F59E0B"/>
<mask id="path-11-inside-4_19_35" fill="white">
<path d="M41 170C41 167.791 42.7909 166 45 166H197C199.209 166 201 167.791 201 170V195C201 197.209 199.209 199 197 199H45C42.7909 199 41 197.209 41 195V170Z"/>
</mask>
<path d="M41 170C41 167.791 42.7909 166 45 166H197C199.209 166 201 167.791 201 170V195C201 197.209 199.209 199 197 199H45C42.7909 199 41 197.209 41 195V170Z" fill="#0F1521"/>
<path d="M45 166V167H197V166V165H45V166ZM201 170H200V195H201H202V170H201ZM197 199V198H45V199V200H197V199ZM41 195H42V170H41H40V195H41ZM45 199V198C43.3431 198 42 196.657 42 195H41H40C40 197.761 42.2386 200 45 200V199ZM201 195H200C200 196.657 198.657 198 197 198V199V200C199.761 200 202 197.761 202 195H201ZM197 166V167C198.657 167 200 168.343 200 170H201H202C202 167.239 199.761 165 197 165V166ZM45 166V165C42.2386 165 40 167.239 40 170H41H42C42 168.343 43.3431 167 45 167V166Z" fill="#00B4FF" mask="url(#path-11-inside-4_19_35)"/>
<path d="M92.7459 190L92.2839 188.852L95.1399 185.73C95.2986 185.553 95.4713 185.352 95.6579 185.128C95.8446 184.904 96.0266 184.675 96.2039 184.442C96.3813 184.199 96.5213 183.966 96.6239 183.742C96.7359 183.518 96.7919 183.313 96.7919 183.126C96.7919 182.939 96.7499 182.776 96.6659 182.636C96.5819 182.496 96.4606 182.389 96.3019 182.314C96.1433 182.23 95.9426 182.188 95.6999 182.188C95.4853 182.188 95.2799 182.244 95.0839 182.356C94.8879 182.459 94.7013 182.622 94.5239 182.846C94.3559 183.07 94.1973 183.345 94.0479 183.672L92.2839 182.72C92.4799 182.179 92.7553 181.703 93.1099 181.292C93.4739 180.872 93.8986 180.55 94.3839 180.326C94.8693 180.093 95.3873 179.976 95.9379 179.976C96.5166 179.985 97.0393 180.111 97.5059 180.354C97.9726 180.587 98.3413 180.919 98.6119 181.348C98.8919 181.768 99.0319 182.263 99.0319 182.832C99.0319 183.028 99.0086 183.233 98.9619 183.448C98.9153 183.663 98.8453 183.887 98.7519 184.12C98.6586 184.344 98.5326 184.587 98.3739 184.848C98.2246 185.1 98.0426 185.366 97.8279 185.646C97.6133 185.926 97.3613 186.225 97.0719 186.542L94.8459 188.964L94.5659 187.9H99.4659V190H92.7459ZM109.646 189.258L104.606 184.218L105.95 182.902L110.99 187.942L109.646 189.258ZM105.95 189.3L104.634 187.942L109.66 182.902L110.99 184.246L105.95 189.3ZM120.028 190.14C119.234 190.14 118.539 189.977 117.942 189.65C117.354 189.314 116.817 188.74 116.332 187.928L118.04 186.822C118.245 187.149 118.455 187.41 118.67 187.606C118.894 187.802 119.122 187.947 119.356 188.04C119.598 188.124 119.85 188.166 120.112 188.166C120.373 188.166 120.611 188.11 120.826 187.998C121.05 187.877 121.227 187.709 121.358 187.494C121.498 187.279 121.568 187.037 121.568 186.766C121.568 186.477 121.507 186.234 121.386 186.038C121.274 185.833 121.106 185.679 120.882 185.576C120.667 185.473 120.406 185.422 120.098 185.422C119.958 185.422 119.808 185.441 119.65 185.478C119.491 185.506 119.323 185.548 119.146 185.604C118.968 185.66 118.786 185.735 118.6 185.828L118.082 184.442L120.462 181.852L121.106 182.202L117.018 182.118V180.116H123.038L123.472 180.984L120.238 184.456L119.678 183.798C119.752 183.761 119.874 183.728 120.042 183.7C120.219 183.663 120.387 183.644 120.546 183.644C120.984 183.644 121.395 183.723 121.778 183.882C122.16 184.041 122.501 184.26 122.8 184.54C123.098 184.82 123.332 185.151 123.5 185.534C123.668 185.907 123.752 186.309 123.752 186.738C123.752 187.391 123.584 187.975 123.248 188.488C122.921 188.992 122.473 189.393 121.904 189.692C121.344 189.991 120.718 190.14 120.028 190.14ZM129.704 185.45V183.63H136.55V185.45H129.704ZM129.704 188.488V186.682H136.55V188.488H129.704Z" fill="white"/>
<path d="M146.089 190C145.585 190 145.109 189.911 144.661 189.734C144.222 189.547 143.839 189.295 143.513 188.978C143.186 188.651 142.925 188.273 142.729 187.844C142.542 187.415 142.449 186.953 142.449 186.458C142.449 186.113 142.486 185.781 142.561 185.464C142.635 185.137 142.738 184.811 142.869 184.484C143.009 184.148 143.172 183.807 143.359 183.462C143.555 183.107 143.769 182.734 144.003 182.342L145.375 180.046H147.573L147.629 180.186L145.725 183.182C145.482 183.574 145.272 183.943 145.095 184.288C144.917 184.624 144.759 184.96 144.619 185.296C144.479 185.632 144.339 185.987 144.199 186.36L143.751 185.394C143.844 185.067 143.993 184.769 144.199 184.498C144.404 184.218 144.642 183.98 144.913 183.784C145.193 183.579 145.482 183.425 145.781 183.322C146.079 183.21 146.373 183.154 146.663 183.154C147.213 183.154 147.717 183.303 148.175 183.602C148.641 183.891 149.015 184.279 149.295 184.764C149.575 185.249 149.715 185.781 149.715 186.36C149.715 187.051 149.556 187.671 149.239 188.222C148.931 188.773 148.501 189.207 147.951 189.524C147.409 189.841 146.789 190 146.089 190ZM146.117 188.04C146.415 188.04 146.677 187.975 146.901 187.844C147.134 187.713 147.316 187.531 147.447 187.298C147.577 187.055 147.643 186.78 147.643 186.472C147.643 186.211 147.573 185.968 147.433 185.744C147.302 185.511 147.12 185.324 146.887 185.184C146.663 185.035 146.411 184.96 146.131 184.96C145.832 184.96 145.561 185.03 145.319 185.17C145.085 185.301 144.903 185.483 144.773 185.716C144.642 185.94 144.577 186.192 144.577 186.472C144.577 186.771 144.642 187.041 144.773 187.284C144.903 187.517 145.085 187.704 145.319 187.844C145.552 187.975 145.818 188.04 146.117 188.04Z" fill="#F59E0B"/>
<mask id="path-14-inside-5_19_35" fill="white">
<path d="M41 211C41 208.791 42.7909 207 45 207H197C199.209 207 201 208.791 201 211V236C201 238.209 199.209 240 197 240H45C42.7909 240 41 238.209 41 236V211Z"/>
</mask>
<path d="M41 211C41 208.791 42.7909 207 45 207H197C199.209 207 201 208.791 201 211V236C201 238.209 199.209 240 197 240H45C42.7909 240 41 238.209 41 236V211Z" fill="#0F1521"/>
<path d="M45 207V208H197V207V206H45V207ZM201 211H200V236H201H202V211H201ZM197 240V239H45V240V241H197V240ZM41 236H42V211H41H40V236H41ZM45 240V239C43.3431 239 42 237.657 42 236H41H40C40 238.761 42.2386 241 45 241V240ZM201 236H200C200 237.657 198.657 239 197 239V240V241C199.761 241 202 238.761 202 236H201ZM197 207V208C198.657 208 200 209.343 200 211H201H202C202 208.239 199.761 206 197 206V207ZM45 207V206C42.2386 206 40 208.239 40 211H41H42C42 209.343 43.3431 208 45 208V207Z" fill="#00B4FF" mask="url(#path-14-inside-5_19_35)"/>
<path d="M92.1102 231L91.6482 229.852L94.5042 226.73C94.6628 226.553 94.8355 226.352 95.0222 226.128C95.2088 225.904 95.3908 225.675 95.5682 225.442C95.7455 225.199 95.8855 224.966 95.9882 224.742C96.1002 224.518 96.1562 224.313 96.1562 224.126C96.1562 223.939 96.1142 223.776 96.0302 223.636C95.9462 223.496 95.8248 223.389 95.6662 223.314C95.5075 223.23 95.3068 223.188 95.0642 223.188C94.8495 223.188 94.6442 223.244 94.4482 223.356C94.2522 223.459 94.0655 223.622 93.8882 223.846C93.7202 224.07 93.5615 224.345 93.4122 224.672L91.6482 223.72C91.8442 223.179 92.1195 222.703 92.4742 222.292C92.8382 221.872 93.2628 221.55 93.7482 221.326C94.2335 221.093 94.7515 220.976 95.3022 220.976C95.8808 220.985 96.4035 221.111 96.8702 221.354C97.3368 221.587 97.7055 221.919 97.9762 222.348C98.2562 222.768 98.3962 223.263 98.3962 223.832C98.3962 224.028 98.3728 224.233 98.3262 224.448C98.2795 224.663 98.2095 224.887 98.1162 225.12C98.0228 225.344 97.8968 225.587 97.7382 225.848C97.5888 226.1 97.4068 226.366 97.1922 226.646C96.9775 226.926 96.7255 227.225 96.4362 227.542L94.2102 229.964L93.9302 228.9H98.8302V231H92.1102ZM109.01 230.258L103.97 225.218L105.314 223.902L110.354 228.942L109.01 230.258ZM105.314 230.3L103.998 228.942L109.024 223.902L110.354 225.246L105.314 230.3ZM120.26 231V223.076L121.534 223.104L117.992 227.444L117.656 227.024H124.152V228.984H116.592L115.64 227.15L120.638 221.116H122.556V231H120.26ZM130.066 226.45V224.63H136.912V226.45H130.066ZM130.066 229.488V227.682H136.912V229.488H130.066Z" fill="white"/>
<path d="M146.521 231.042C145.849 231.042 145.238 230.916 144.687 230.664C144.146 230.403 143.712 230.053 143.385 229.614C143.058 229.175 142.895 228.681 142.895 228.13C142.895 227.766 142.942 227.439 143.035 227.15C143.128 226.851 143.268 226.59 143.455 226.366C143.651 226.133 143.884 225.937 144.155 225.778C144.435 225.61 144.752 225.475 145.107 225.372L144.939 225.932C144.678 225.829 144.44 225.703 144.225 225.554C144.01 225.405 143.828 225.237 143.679 225.05C143.53 224.854 143.413 224.644 143.329 224.42C143.254 224.196 143.217 223.963 143.217 223.72C143.217 223.197 143.362 222.735 143.651 222.334C143.95 221.933 144.346 221.62 144.841 221.396C145.345 221.163 145.905 221.046 146.521 221.046C147.128 221.046 147.678 221.163 148.173 221.396C148.677 221.62 149.078 221.933 149.377 222.334C149.676 222.735 149.825 223.197 149.825 223.72C149.825 223.963 149.788 224.196 149.713 224.42C149.638 224.644 149.526 224.849 149.377 225.036C149.228 225.213 149.046 225.381 148.831 225.54C148.616 225.689 148.369 225.82 148.089 225.932L147.963 225.428C148.28 225.512 148.574 225.633 148.845 225.792C149.116 225.941 149.349 226.133 149.545 226.366C149.741 226.59 149.89 226.851 149.993 227.15C150.105 227.439 150.161 227.766 150.161 228.13C150.161 228.69 149.998 229.189 149.671 229.628C149.344 230.067 148.906 230.412 148.355 230.664C147.804 230.916 147.193 231.042 146.521 231.042ZM146.521 229.166C146.782 229.166 147.016 229.115 147.221 229.012C147.426 228.909 147.59 228.769 147.711 228.592C147.832 228.415 147.893 228.209 147.893 227.976C147.893 227.733 147.832 227.523 147.711 227.346C147.599 227.159 147.436 227.015 147.221 226.912C147.016 226.8 146.782 226.744 146.521 226.744C146.26 226.744 146.026 226.8 145.821 226.912C145.616 227.015 145.452 227.159 145.331 227.346C145.21 227.523 145.149 227.733 145.149 227.976C145.149 228.2 145.21 228.401 145.331 228.578C145.452 228.755 145.616 228.9 145.821 229.012C146.026 229.115 146.26 229.166 146.521 229.166ZM146.521 224.854C146.745 224.854 146.946 224.812 147.123 224.728C147.31 224.635 147.454 224.513 147.557 224.364C147.66 224.205 147.711 224.023 147.711 223.818C147.711 223.613 147.66 223.431 147.557 223.272C147.454 223.113 147.31 222.987 147.123 222.894C146.946 222.801 146.745 222.754 146.521 222.754C146.288 222.754 146.078 222.801 145.891 222.894C145.714 222.987 145.574 223.113 145.471 223.272C145.368 223.431 145.317 223.613 145.317 223.818C145.317 224.023 145.368 224.205 145.471 224.364C145.574 224.513 145.714 224.635 145.891 224.728C146.078 224.812 146.288 224.854 146.521 224.854Z" fill="#F59E0B"/>
<mask id="path-17-inside-6_19_35" fill="white">
<path d="M41 252C41 249.791 42.7909 248 45 248H197C199.209 248 201 249.791 201 252V277C201 279.209 199.209 281 197 281H45C42.7909 281 41 279.209 41 277V252Z"/>
</mask>
<path d="M41 252C41 249.791 42.7909 248 45 248H197C199.209 248 201 249.791 201 252V277C201 279.209 199.209 281 197 281H45C42.7909 281 41 279.209 41 277V252Z" fill="#0F1521"/>
<path d="M45 248V249H197V248V247H45V248ZM201 252H200V277H201H202V252H201ZM197 281V280H45V281V282H197V281ZM41 277H42V252H41H40V277H41ZM45 281V280C43.3431 280 42 278.657 42 277H41H40C40 279.761 42.2386 282 45 282V281ZM201 277H200C200 278.657 198.657 280 197 280V281V282C199.761 282 202 279.761 202 277H201ZM197 248V249C198.657 249 200 250.343 200 252H201H202C202 249.239 199.761 247 197 247V248ZM45 248V247C42.2386 247 40 249.239 40 252H41H42C42 250.343 43.3431 249 45 249V248Z" fill="#00B4FF" mask="url(#path-17-inside-6_19_35)"/>
<path d="M88.118 270L87.656 268.852L90.512 265.73C90.6707 265.553 90.8433 265.352 91.03 265.128C91.2167 264.904 91.3987 264.675 91.576 264.442C91.7533 264.199 91.8933 263.966 91.996 263.742C92.108 263.518 92.164 263.313 92.164 263.126C92.164 262.939 92.122 262.776 92.038 262.636C91.954 262.496 91.8327 262.389 91.674 262.314C91.5153 262.23 91.3147 262.188 91.072 262.188C90.8573 262.188 90.652 262.244 90.456 262.356C90.26 262.459 90.0733 262.622 89.896 262.846C89.728 263.07 89.5693 263.345 89.42 263.672L87.656 262.72C87.852 262.179 88.1273 261.703 88.482 261.292C88.846 260.872 89.2707 260.55 89.756 260.326C90.2413 260.093 90.7593 259.976 91.31 259.976C91.8887 259.985 92.4113 260.111 92.878 260.354C93.3447 260.587 93.7133 260.919 93.984 261.348C94.264 261.768 94.404 262.263 94.404 262.832C94.404 263.028 94.3807 263.233 94.334 263.448C94.2873 263.663 94.2173 263.887 94.124 264.12C94.0307 264.344 93.9047 264.587 93.746 264.848C93.5967 265.1 93.4147 265.366 93.2 265.646C92.9853 265.926 92.7333 266.225 92.444 266.542L90.218 268.964L89.938 267.9H94.838V270H88.118ZM105.018 269.258L99.9783 264.218L101.322 262.902L106.362 267.942L105.018 269.258ZM101.322 269.3L100.006 267.942L105.032 262.902L106.362 264.246L101.322 269.3ZM115.33 270.098C114.593 270.098 113.921 269.949 113.314 269.65C112.717 269.351 112.222 268.922 111.83 268.362L113.104 266.962C113.487 267.382 113.841 267.671 114.168 267.83C114.495 267.979 114.859 268.054 115.26 268.054C115.559 268.054 115.825 267.993 116.058 267.872C116.291 267.751 116.473 267.583 116.604 267.368C116.744 267.144 116.814 266.897 116.814 266.626C116.814 266.346 116.744 266.099 116.604 265.884C116.473 265.66 116.291 265.483 116.058 265.352C115.834 265.221 115.573 265.156 115.274 265.156C115.059 265.156 114.859 265.175 114.672 265.212C114.485 265.249 114.285 265.315 114.07 265.408C113.865 265.492 113.617 265.618 113.328 265.786L112.32 264.442L112.922 260.116H118.55V262.118H114.056L114.672 261.334L114.21 264.442L113.37 264.162C113.547 264.003 113.762 263.863 114.014 263.742C114.275 263.621 114.555 263.523 114.854 263.448C115.153 263.364 115.451 263.322 115.75 263.322C116.366 263.322 116.917 263.467 117.402 263.756C117.897 264.036 118.289 264.428 118.578 264.932C118.867 265.436 119.012 266.015 119.012 266.668C119.012 267.312 118.849 267.895 118.522 268.418C118.195 268.931 117.757 269.342 117.206 269.65C116.655 269.949 116.03 270.098 115.33 270.098ZM125.144 265.45V263.63H131.99V265.45H125.144ZM125.144 268.488V266.682H131.99V268.488H125.144Z" fill="white"/>
<path d="M140.367 269.314V261.362L140.885 262.552L138.785 263.546L138.379 261.418L141.165 260.06H142.705V269.314H140.367ZM138.575 270V267.9H144.539V270H138.575ZM149.979 270.14C149.101 270.14 148.35 269.939 147.725 269.538C147.109 269.137 146.637 268.563 146.311 267.816C145.984 267.06 145.821 266.155 145.821 265.1C145.821 264.045 145.984 263.145 146.311 262.398C146.637 261.642 147.109 261.063 147.725 260.662C148.35 260.261 149.101 260.06 149.979 260.06C150.856 260.06 151.607 260.261 152.233 260.662C152.858 261.063 153.334 261.642 153.661 262.398C153.987 263.145 154.151 264.045 154.151 265.1C154.151 266.155 153.987 267.06 153.661 267.816C153.334 268.563 152.858 269.137 152.233 269.538C151.607 269.939 150.856 270.14 149.979 270.14ZM149.979 268.124C150.585 268.124 151.052 267.863 151.379 267.34C151.715 266.817 151.883 266.071 151.883 265.1C151.883 264.101 151.715 263.336 151.379 262.804C151.052 262.263 150.585 261.992 149.979 261.992C149.372 261.992 148.901 262.263 148.565 262.804C148.238 263.336 148.075 264.101 148.075 265.1C148.075 266.071 148.238 266.817 148.565 267.34C148.901 267.863 149.372 268.124 149.979 268.124Z" fill="#F59E0B"/>
<mask id="path-20-inside-7_19_35" fill="white">
<path d="M41 293C41 290.791 42.7909 289 45 289H197C199.209 289 201 290.791 201 293V318C201 320.209 199.209 322 197 322H45C42.7909 322 41 320.209 41 318V293Z"/>
</mask>
<path d="M41 293C41 290.791 42.7909 289 45 289H197C199.209 289 201 290.791 201 293V318C201 320.209 199.209 322 197 322H45C42.7909 322 41 320.209 41 318V293Z" fill="#0F1521"/>
<path d="M45 289V290H197V289V288H45V289ZM201 293H200V318H201H202V293H201ZM197 322V321H45V322V323H197V322ZM41 318H42V293H41H40V318H41ZM45 322V321C43.3431 321 42 319.657 42 318H41H40C40 320.761 42.2386 323 45 323V322ZM201 318H200C200 319.657 198.657 321 197 321V322V323C199.761 323 202 320.761 202 318H201ZM197 289V290C198.657 290 200 291.343 200 293H201H202C202 290.239 199.761 288 197 288V289ZM45 289V288C42.2386 288 40 290.239 40 293H41H42C42 291.343 43.3431 290 45 290V289Z" fill="#00B4FF" mask="url(#path-20-inside-7_19_35)"/>
<path d="M89.1229 311L88.6609 309.852L91.5169 306.73C91.6755 306.553 91.8482 306.352 92.0349 306.128C92.2215 305.904 92.4035 305.675 92.5809 305.442C92.7582 305.199 92.8982 304.966 93.0009 304.742C93.1129 304.518 93.1689 304.313 93.1689 304.126C93.1689 303.939 93.1269 303.776 93.0429 303.636C92.9589 303.496 92.8375 303.389 92.6789 303.314C92.5202 303.23 92.3195 303.188 92.0769 303.188C91.8622 303.188 91.6569 303.244 91.4609 303.356C91.2649 303.459 91.0782 303.622 90.9009 303.846C90.7329 304.07 90.5742 304.345 90.4249 304.672L88.6609 303.72C88.8569 303.179 89.1322 302.703 89.4869 302.292C89.8509 301.872 90.2755 301.55 90.7609 301.326C91.2462 301.093 91.7642 300.976 92.3149 300.976C92.8935 300.985 93.4162 301.111 93.8829 301.354C94.3495 301.587 94.7182 301.919 94.9889 302.348C95.2689 302.768 95.4089 303.263 95.4089 303.832C95.4089 304.028 95.3855 304.233 95.3389 304.448C95.2922 304.663 95.2222 304.887 95.1289 305.12C95.0355 305.344 94.9095 305.587 94.7509 305.848C94.6015 306.1 94.4195 306.366 94.2049 306.646C93.9902 306.926 93.7382 307.225 93.4489 307.542L91.2229 309.964L90.9429 308.9H95.8429V311H89.1229ZM106.023 310.258L100.983 305.218L102.327 303.902L107.367 308.942L106.023 310.258ZM102.327 310.3L101.011 308.942L106.037 303.902L107.367 305.246L102.327 310.3ZM116.503 311C115.999 311 115.523 310.911 115.075 310.734C114.636 310.547 114.253 310.295 113.927 309.978C113.6 309.651 113.339 309.273 113.143 308.844C112.956 308.415 112.863 307.953 112.863 307.458C112.863 307.113 112.9 306.781 112.975 306.464C113.049 306.137 113.152 305.811 113.283 305.484C113.423 305.148 113.586 304.807 113.773 304.462C113.969 304.107 114.183 303.734 114.417 303.342L115.789 301.046H117.987L118.043 301.186L116.139 304.182C115.896 304.574 115.686 304.943 115.509 305.288C115.331 305.624 115.173 305.96 115.033 306.296C114.893 306.632 114.753 306.987 114.613 307.36L114.165 306.394C114.258 306.067 114.407 305.769 114.613 305.498C114.818 305.218 115.056 304.98 115.327 304.784C115.607 304.579 115.896 304.425 116.195 304.322C116.493 304.21 116.787 304.154 117.077 304.154C117.627 304.154 118.131 304.303 118.589 304.602C119.055 304.891 119.429 305.279 119.709 305.764C119.989 306.249 120.129 306.781 120.129 307.36C120.129 308.051 119.97 308.671 119.653 309.222C119.345 309.773 118.915 310.207 118.365 310.524C117.823 310.841 117.203 311 116.503 311ZM116.531 309.04C116.829 309.04 117.091 308.975 117.315 308.844C117.548 308.713 117.73 308.531 117.861 308.298C117.991 308.055 118.057 307.78 118.057 307.472C118.057 307.211 117.987 306.968 117.847 306.744C117.716 306.511 117.534 306.324 117.301 306.184C117.077 306.035 116.825 305.96 116.545 305.96C116.246 305.96 115.975 306.03 115.733 306.17C115.499 306.301 115.317 306.483 115.187 306.716C115.056 306.94 114.991 307.192 114.991 307.472C114.991 307.771 115.056 308.041 115.187 308.284C115.317 308.517 115.499 308.704 115.733 308.844C115.966 308.975 116.232 309.04 116.531 309.04ZM125.917 306.45V304.63H132.763V306.45H125.917ZM125.917 309.488V307.682H132.763V309.488H125.917Z" fill="white"/>
<path d="M141.14 310.314V302.362L141.658 303.552L139.558 304.546L139.152 302.418L141.938 301.06H143.478V310.314H141.14ZM139.348 311V308.9H145.312V311H139.348ZM146.859 311L146.397 309.852L149.253 306.73C149.412 306.553 149.585 306.352 149.771 306.128C149.958 305.904 150.14 305.675 150.317 305.442C150.495 305.199 150.635 304.966 150.737 304.742C150.849 304.518 150.905 304.313 150.905 304.126C150.905 303.939 150.863 303.776 150.779 303.636C150.695 303.496 150.574 303.389 150.415 303.314C150.257 303.23 150.056 303.188 149.813 303.188C149.599 303.188 149.393 303.244 149.197 303.356C149.001 303.459 148.815 303.622 148.637 303.846C148.469 304.07 148.311 304.345 148.161 304.672L146.397 303.72C146.593 303.179 146.869 302.703 147.223 302.292C147.587 301.872 148.012 301.55 148.497 301.326C148.983 301.093 149.501 300.976 150.051 300.976C150.63 300.985 151.153 301.111 151.619 301.354C152.086 301.587 152.455 301.919 152.725 302.348C153.005 302.768 153.145 303.263 153.145 303.832C153.145 304.028 153.122 304.233 153.075 304.448C153.029 304.663 152.959 304.887 152.865 305.12C152.772 305.344 152.646 305.587 152.487 305.848C152.338 306.1 152.156 306.366 151.941 306.646C151.727 306.926 151.475 307.225 151.185 307.542L148.959 309.964L148.679 308.9H153.579V311H146.859Z" fill="#F59E0B"/>
<mask id="path-23-inside-8_19_35" fill="white">
<path d="M41 334C41 331.791 42.7909 330 45 330H197C199.209 330 201 331.791 201 334V359C201 361.209 199.209 363 197 363H45C42.7909 363 41 361.209 41 359V334Z"/>
</mask>
<path d="M41 334C41 331.791 42.7909 330 45 330H197C199.209 330 201 331.791 201 334V359C201 361.209 199.209 363 197 363H45C42.7909 363 41 361.209 41 359V334Z" fill="#0F1521"/>
<path d="M45 330V331H197V330V329H45V330ZM201 334H200V359H201H202V334H201ZM197 363V362H45V363V364H197V363ZM41 359H42V334H41H40V359H41ZM45 363V362C43.3431 362 42 360.657 42 359H41H40C40 361.761 42.2386 364 45 364V363ZM201 359H200C200 360.657 198.657 362 197 362V363V364C199.761 364 202 361.761 202 359H201ZM197 330V331C198.657 331 200 332.343 200 334H201H202C202 331.239 199.761 329 197 329V330ZM45 330V329C42.2386 329 40 331.239 40 334H41H42C42 332.343 43.3431 331 45 331V330Z" fill="#00B4FF" mask="url(#path-23-inside-8_19_35)"/>
<path d="M88.5076 352L88.0456 350.852L90.9016 347.73C91.0603 347.553 91.233 347.352 91.4196 347.128C91.6063 346.904 91.7883 346.675 91.9656 346.442C92.143 346.199 92.283 345.966 92.3856 345.742C92.4976 345.518 92.5536 345.313 92.5536 345.126C92.5536 344.939 92.5116 344.776 92.4276 344.636C92.3436 344.496 92.2223 344.389 92.0636 344.314C91.905 344.23 91.7043 344.188 91.4616 344.188C91.247 344.188 91.0416 344.244 90.8456 344.356C90.6496 344.459 90.463 344.622 90.2856 344.846C90.1176 345.07 89.959 345.345 89.8096 345.672L88.0456 344.72C88.2416 344.179 88.517 343.703 88.8716 343.292C89.2356 342.872 89.6603 342.55 90.1456 342.326C90.631 342.093 91.149 341.976 91.6996 341.976C92.2783 341.985 92.801 342.111 93.2676 342.354C93.7343 342.587 94.103 342.919 94.3736 343.348C94.6536 343.768 94.7936 344.263 94.7936 344.832C94.7936 345.028 94.7703 345.233 94.7236 345.448C94.677 345.663 94.607 345.887 94.5136 346.12C94.4203 346.344 94.2943 346.587 94.1356 346.848C93.9863 347.1 93.8043 347.366 93.5896 347.646C93.375 347.926 93.123 348.225 92.8336 348.542L90.6076 350.964L90.3276 349.9H95.2276V352H88.5076ZM105.408 351.258L100.368 346.218L101.712 344.902L106.752 349.942L105.408 351.258ZM101.712 351.3L100.396 349.942L105.422 344.902L106.752 346.246L101.712 351.3ZM112.947 352L116.867 343.068L117.539 344.188H112.415V342.116H118.799L119.023 343.25L115.327 352H112.947ZM124.932 347.45V345.63H131.778V347.45H124.932ZM124.932 350.488V348.682H131.778V350.488H124.932Z" fill="white"/>
<path d="M140.155 351.314V343.362L140.673 344.552L138.573 345.546L138.167 343.418L140.953 342.06H142.493V351.314H140.155ZM138.363 352V349.9H144.327V352H138.363ZM149.935 352V344.076L151.209 344.104L147.667 348.444L147.331 348.024H153.827V349.984H146.267L145.315 348.15L150.313 342.116H152.231V352H149.935Z" fill="#F59E0B"/>
<mask id="path-26-inside-9_19_35" fill="white">
<path d="M41 375C41 372.791 42.7909 371 45 371H197C199.209 371 201 372.791 201 375V400C201 402.209 199.209 404 197 404H45C42.7909 404 41 402.209 41 400V375Z"/>
</mask>
<path d="M41 375C41 372.791 42.7909 371 45 371H197C199.209 371 201 372.791 201 375V400C201 402.209 199.209 404 197 404H45C42.7909 404 41 402.209 41 400V375Z" fill="#0F1521"/>
<path d="M45 371V372H197V371V370H45V371ZM201 375H200V400H201H202V375H201ZM197 404V403H45V404V405H197V404ZM41 400H42V375H41H40V400H41ZM45 404V403C43.3431 403 42 401.657 42 400H41H40C40 402.761 42.2386 405 45 405V404ZM201 400H200C200 401.657 198.657 403 197 403V404V405C199.761 405 202 402.761 202 400H201ZM197 371V372C198.657 372 200 373.343 200 375H201H202C202 372.239 199.761 370 197 370V371ZM45 371V370C42.2386 370 40 372.239 40 375H41H42C42 373.343 43.3431 372 45 372V371Z" fill="#00B4FF" mask="url(#path-26-inside-9_19_35)"/>
<path d="M88.7674 393L88.3054 391.852L91.1614 388.73C91.3201 388.553 91.4927 388.352 91.6794 388.128C91.8661 387.904 92.0481 387.675 92.2254 387.442C92.4027 387.199 92.5427 386.966 92.6454 386.742C92.7574 386.518 92.8134 386.313 92.8134 386.126C92.8134 385.939 92.7714 385.776 92.6874 385.636C92.6034 385.496 92.4821 385.389 92.3234 385.314C92.1647 385.23 91.9641 385.188 91.7214 385.188C91.5067 385.188 91.3014 385.244 91.1054 385.356C90.9094 385.459 90.7227 385.622 90.5454 385.846C90.3774 386.07 90.2187 386.345 90.0694 386.672L88.3054 385.72C88.5014 385.179 88.7767 384.703 89.1314 384.292C89.4954 383.872 89.9201 383.55 90.4054 383.326C90.8907 383.093 91.4087 382.976 91.9594 382.976C92.5381 382.985 93.0607 383.111 93.5274 383.354C93.9941 383.587 94.3627 383.919 94.6334 384.348C94.9134 384.768 95.0534 385.263 95.0534 385.832C95.0534 386.028 95.0301 386.233 94.9834 386.448C94.9367 386.663 94.8667 386.887 94.7734 387.12C94.6801 387.344 94.5541 387.587 94.3954 387.848C94.2461 388.1 94.0641 388.366 93.8494 388.646C93.6347 388.926 93.3827 389.225 93.0934 389.542L90.8674 391.964L90.5874 390.9H95.4874V393H88.7674ZM105.668 392.258L100.628 387.218L101.972 385.902L107.012 390.942L105.668 392.258ZM101.972 392.3L100.656 390.942L105.682 385.902L107.012 387.246L101.972 392.3ZM116.217 393.042C115.545 393.042 114.934 392.916 114.383 392.664C113.842 392.403 113.408 392.053 113.081 391.614C112.755 391.175 112.591 390.681 112.591 390.13C112.591 389.766 112.638 389.439 112.731 389.15C112.825 388.851 112.965 388.59 113.151 388.366C113.347 388.133 113.581 387.937 113.851 387.778C114.131 387.61 114.449 387.475 114.803 387.372L114.635 387.932C114.374 387.829 114.136 387.703 113.921 387.554C113.707 387.405 113.525 387.237 113.375 387.05C113.226 386.854 113.109 386.644 113.025 386.42C112.951 386.196 112.913 385.963 112.913 385.72C112.913 385.197 113.058 384.735 113.347 384.334C113.646 383.933 114.043 383.62 114.537 383.396C115.041 383.163 115.601 383.046 116.217 383.046C116.824 383.046 117.375 383.163 117.869 383.396C118.373 383.62 118.775 383.933 119.073 384.334C119.372 384.735 119.521 385.197 119.521 385.72C119.521 385.963 119.484 386.196 119.409 386.42C119.335 386.644 119.223 386.849 119.073 387.036C118.924 387.213 118.742 387.381 118.527 387.54C118.313 387.689 118.065 387.82 117.785 387.932L117.659 387.428C117.977 387.512 118.271 387.633 118.541 387.792C118.812 387.941 119.045 388.133 119.241 388.366C119.437 388.59 119.587 388.851 119.689 389.15C119.801 389.439 119.857 389.766 119.857 390.13C119.857 390.69 119.694 391.189 119.367 391.628C119.041 392.067 118.602 392.412 118.051 392.664C117.501 392.916 116.889 393.042 116.217 393.042ZM116.217 391.166C116.479 391.166 116.712 391.115 116.917 391.012C117.123 390.909 117.286 390.769 117.407 390.592C117.529 390.415 117.589 390.209 117.589 389.976C117.589 389.733 117.529 389.523 117.407 389.346C117.295 389.159 117.132 389.015 116.917 388.912C116.712 388.8 116.479 388.744 116.217 388.744C115.956 388.744 115.723 388.8 115.517 388.912C115.312 389.015 115.149 389.159 115.027 389.346C114.906 389.523 114.845 389.733 114.845 389.976C114.845 390.2 114.906 390.401 115.027 390.578C115.149 390.755 115.312 390.9 115.517 391.012C115.723 391.115 115.956 391.166 116.217 391.166ZM116.217 386.854C116.441 386.854 116.642 386.812 116.819 386.728C117.006 386.635 117.151 386.513 117.253 386.364C117.356 386.205 117.407 386.023 117.407 385.818C117.407 385.613 117.356 385.431 117.253 385.272C117.151 385.113 117.006 384.987 116.819 384.894C116.642 384.801 116.441 384.754 116.217 384.754C115.984 384.754 115.774 384.801 115.587 384.894C115.41 384.987 115.27 385.113 115.167 385.272C115.065 385.431 115.013 385.613 115.013 385.818C115.013 386.023 115.065 386.205 115.167 386.364C115.27 386.513 115.41 386.635 115.587 386.728C115.774 386.812 115.984 386.854 116.217 386.854ZM125.834 388.45V386.63H132.68V388.45H125.834ZM125.834 391.488V389.682H132.68V391.488H125.834Z" fill="white"/>
<path d="M141.058 392.314V384.362L141.576 385.552L139.476 386.546L139.07 384.418L141.856 383.06H143.396V392.314H141.058ZM139.266 393V390.9H145.23V393H139.266ZM150.067 393C149.563 393 149.087 392.911 148.639 392.734C148.201 392.547 147.818 392.295 147.491 391.978C147.165 391.651 146.903 391.273 146.707 390.844C146.521 390.415 146.427 389.953 146.427 389.458C146.427 389.113 146.465 388.781 146.539 388.464C146.614 388.137 146.717 387.811 146.847 387.484C146.987 387.148 147.151 386.807 147.337 386.462C147.533 386.107 147.748 385.734 147.981 385.342L149.353 383.046H151.551L151.607 383.186L149.703 386.182C149.461 386.574 149.251 386.943 149.073 387.288C148.896 387.624 148.737 387.96 148.597 388.296C148.457 388.632 148.317 388.987 148.177 389.36L147.729 388.394C147.823 388.067 147.972 387.769 148.177 387.498C148.383 387.218 148.621 386.98 148.891 386.784C149.171 386.579 149.461 386.425 149.759 386.322C150.058 386.21 150.352 386.154 150.641 386.154C151.192 386.154 151.696 386.303 152.153 386.602C152.62 386.891 152.993 387.279 153.273 387.764C153.553 388.249 153.693 388.781 153.693 389.36C153.693 390.051 153.535 390.671 153.217 391.222C152.909 391.773 152.48 392.207 151.929 392.524C151.388 392.841 150.767 393 150.067 393ZM150.095 391.04C150.394 391.04 150.655 390.975 150.879 390.844C151.113 390.713 151.295 390.531 151.425 390.298C151.556 390.055 151.621 389.78 151.621 389.472C151.621 389.211 151.551 388.968 151.411 388.744C151.281 388.511 151.099 388.324 150.865 388.184C150.641 388.035 150.389 387.96 150.109 387.96C149.811 387.96 149.54 388.03 149.297 388.17C149.064 388.301 148.882 388.483 148.751 388.716C148.621 388.94 148.555 389.192 148.555 389.472C148.555 389.771 148.621 390.041 148.751 390.284C148.882 390.517 149.064 390.704 149.297 390.844C149.531 390.975 149.797 391.04 150.095 391.04Z" fill="#F59E0B"/>
<mask id="path-29-inside-10_19_35" fill="white">
<path d="M41 416C41 413.791 42.7909 412 45 412H197C199.209 412 201 413.791 201 416V441C201 443.209 199.209 445 197 445H45C42.7909 445 41 443.209 41 441V416Z"/>
</mask>
<path d="M41 416C41 413.791 42.7909 412 45 412H197C199.209 412 201 413.791 201 416V441C201 443.209 199.209 445 197 445H45C42.7909 445 41 443.209 41 441V416Z" fill="#0F1521"/>
<path d="M45 412V413H197V412V411H45V412ZM201 416H200V441H201H202V416H201ZM197 445V444H45V445V446H197V445ZM41 441H42V416H41H40V441H41ZM45 445V444C43.3431 444 42 442.657 42 441H41H40C40 443.761 42.2386 446 45 446V445ZM201 441H200C200 442.657 198.657 444 197 444V445V446C199.761 446 202 443.761 202 441H201ZM197 412V413C198.657 413 200 414.343 200 416H201H202C202 413.239 199.761 411 197 411V412ZM45 412V411C42.2386 411 40 413.239 40 416H41H42C42 414.343 43.3431 413 45 413V412Z" fill="#00B4FF" mask="url(#path-29-inside-10_19_35)"/>
<path d="M88.7811 434L88.3191 432.852L91.1751 429.73C91.3337 429.553 91.5064 429.352 91.6931 429.128C91.8797 428.904 92.0617 428.675 92.2391 428.442C92.4164 428.199 92.5564 427.966 92.6591 427.742C92.7711 427.518 92.8271 427.313 92.8271 427.126C92.8271 426.939 92.7851 426.776 92.7011 426.636C92.6171 426.496 92.4957 426.389 92.3371 426.314C92.1784 426.23 91.9777 426.188 91.7351 426.188C91.5204 426.188 91.3151 426.244 91.1191 426.356C90.9231 426.459 90.7364 426.622 90.5591 426.846C90.3911 427.07 90.2324 427.345 90.0831 427.672L88.3191 426.72C88.5151 426.179 88.7904 425.703 89.1451 425.292C89.5091 424.872 89.9337 424.55 90.4191 424.326C90.9044 424.093 91.4224 423.976 91.9731 423.976C92.5517 423.985 93.0744 424.111 93.5411 424.354C94.0077 424.587 94.3764 424.919 94.6471 425.348C94.9271 425.768 95.0671 426.263 95.0671 426.832C95.0671 427.028 95.0437 427.233 94.9971 427.448C94.9504 427.663 94.8804 427.887 94.7871 428.12C94.6937 428.344 94.5677 428.587 94.4091 428.848C94.2597 429.1 94.0777 429.366 93.8631 429.646C93.6484 429.926 93.3964 430.225 93.1071 430.542L90.8811 432.964L90.6011 431.9H95.5011V434H88.7811ZM105.681 433.258L100.641 428.218L101.985 426.902L107.025 431.942L105.681 433.258ZM101.985 433.3L100.669 431.942L105.695 426.902L107.025 428.246L101.985 433.3ZM114.957 434L114.901 433.86L117.967 427.672L118.373 428.512C118.28 428.848 118.13 429.151 117.925 429.422C117.72 429.693 117.472 429.931 117.183 430.136C116.903 430.332 116.609 430.486 116.301 430.598C115.993 430.701 115.699 430.752 115.419 430.752C114.887 430.752 114.397 430.607 113.949 430.318C113.501 430.029 113.142 429.641 112.871 429.156C112.6 428.671 112.465 428.143 112.465 427.574C112.465 426.902 112.624 426.295 112.941 425.754C113.268 425.203 113.706 424.769 114.257 424.452C114.808 424.125 115.428 423.962 116.119 423.962C116.623 423.962 117.094 424.051 117.533 424.228C117.972 424.405 118.354 424.653 118.681 424.97C119.017 425.278 119.278 425.637 119.465 426.048C119.652 426.459 119.745 426.893 119.745 427.35C119.745 427.686 119.717 428.017 119.661 428.344C119.605 428.661 119.516 428.988 119.395 429.324C119.274 429.66 119.129 430.01 118.961 430.374C118.802 430.738 118.616 431.135 118.401 431.564L117.169 434H114.957ZM115.993 428.876C116.282 428.876 116.539 428.811 116.763 428.68C116.987 428.549 117.16 428.377 117.281 428.162C117.412 427.938 117.477 427.691 117.477 427.42C117.477 427.131 117.412 426.874 117.281 426.65C117.16 426.417 116.987 426.235 116.763 426.104C116.548 425.973 116.296 425.908 116.007 425.908C115.727 425.908 115.48 425.973 115.265 426.104C115.06 426.225 114.892 426.403 114.761 426.636C114.64 426.86 114.579 427.121 114.579 427.42C114.579 427.672 114.64 427.91 114.761 428.134C114.892 428.349 115.064 428.526 115.279 428.666C115.494 428.806 115.732 428.876 115.993 428.876ZM125.547 429.45V427.63H132.393V429.45H125.547ZM125.547 432.488V430.682H132.393V432.488H125.547Z" fill="white"/>
<path d="M140.77 433.314V425.362L141.288 426.552L139.188 427.546L138.782 425.418L141.568 424.06H143.108V433.314H140.77ZM138.978 434V431.9H144.942V434H138.978ZM149.85 434.042C149.178 434.042 148.567 433.916 148.016 433.664C147.475 433.403 147.041 433.053 146.714 432.614C146.387 432.175 146.224 431.681 146.224 431.13C146.224 430.766 146.271 430.439 146.364 430.15C146.457 429.851 146.597 429.59 146.784 429.366C146.98 429.133 147.213 428.937 147.484 428.778C147.764 428.61 148.081 428.475 148.436 428.372L148.268 428.932C148.007 428.829 147.769 428.703 147.554 428.554C147.339 428.405 147.157 428.237 147.008 428.05C146.859 427.854 146.742 427.644 146.658 427.42C146.583 427.196 146.546 426.963 146.546 426.72C146.546 426.197 146.691 425.735 146.98 425.334C147.279 424.933 147.675 424.62 148.17 424.396C148.674 424.163 149.234 424.046 149.85 424.046C150.457 424.046 151.007 424.163 151.502 424.396C152.006 424.62 152.407 424.933 152.706 425.334C153.005 425.735 153.154 426.197 153.154 426.72C153.154 426.963 153.117 427.196 153.042 427.42C152.967 427.644 152.855 427.849 152.706 428.036C152.557 428.213 152.375 428.381 152.16 428.54C151.945 428.689 151.698 428.82 151.418 428.932L151.292 428.428C151.609 428.512 151.903 428.633 152.174 428.792C152.445 428.941 152.678 429.133 152.874 429.366C153.07 429.59 153.219 429.851 153.322 430.15C153.434 430.439 153.49 430.766 153.49 431.13C153.49 431.69 153.327 432.189 153 432.628C152.673 433.067 152.235 433.412 151.684 433.664C151.133 433.916 150.522 434.042 149.85 434.042ZM149.85 432.166C150.111 432.166 150.345 432.115 150.55 432.012C150.755 431.909 150.919 431.769 151.04 431.592C151.161 431.415 151.222 431.209 151.222 430.976C151.222 430.733 151.161 430.523 151.04 430.346C150.928 430.159 150.765 430.015 150.55 429.912C150.345 429.8 150.111 429.744 149.85 429.744C149.589 429.744 149.355 429.8 149.15 429.912C148.945 430.015 148.781 430.159 148.66 430.346C148.539 430.523 148.478 430.733 148.478 430.976C148.478 431.2 148.539 431.401 148.66 431.578C148.781 431.755 148.945 431.9 149.15 432.012C149.355 432.115 149.589 432.166 149.85 432.166ZM149.85 427.854C150.074 427.854 150.275 427.812 150.452 427.728C150.639 427.635 150.783 427.513 150.886 427.364C150.989 427.205 151.04 427.023 151.04 426.818C151.04 426.613 150.989 426.431 150.886 426.272C150.783 426.113 150.639 425.987 150.452 425.894C150.275 425.801 150.074 425.754 149.85 425.754C149.617 425.754 149.407 425.801 149.22 425.894C149.043 425.987 148.903 426.113 148.8 426.272C148.697 426.431 148.646 426.613 148.646 426.818C148.646 427.023 148.697 427.205 148.8 427.364C148.903 427.513 149.043 427.635 149.22 427.728C149.407 427.812 149.617 427.854 149.85 427.854Z" fill="#F59E0B"/>
<mask id="path-32-inside-11_19_35" fill="white">
<path d="M41 457C41 454.791 42.7909 453 45 453H197C199.209 453 201 454.791 201 457V482C201 484.209 199.209 486 197 486H45C42.7909 486 41 484.209 41 482V457Z"/>
</mask>
<path d="M41 457C41 454.791 42.7909 453 45 453H197C199.209 453 201 454.791 201 457V482C201 484.209 199.209 486 197 486H45C42.7909 486 41 484.209 41 482V457Z" fill="#0F1521"/>
<path d="M45 453V454H197V453V452H45V453ZM201 457H200V482H201H202V457H201ZM197 486V485H45V486V487H197V486ZM41 482H42V457H41H40V482H41ZM45 486V485C43.3431 485 42 483.657 42 482H41H40C40 484.761 42.2386 487 45 487V486ZM201 482H200C200 483.657 198.657 485 197 485V486V487C199.761 487 202 484.761 202 482H201ZM197 453V454C198.657 454 200 455.343 200 457H201H202C202 454.239 199.761 452 197 452V453ZM45 453V452C42.2386 452 40 454.239 40 457H41H42C42 455.343 43.3431 454 45 454V453Z" fill="#00B4FF" mask="url(#path-32-inside-11_19_35)"/>
<path d="M83.7293 475L83.2673 473.852L86.1233 470.73C86.282 470.553 86.4547 470.352 86.6413 470.128C86.828 469.904 87.01 469.675 87.1873 469.442C87.3647 469.199 87.5047 468.966 87.6073 468.742C87.7193 468.518 87.7753 468.313 87.7753 468.126C87.7753 467.939 87.7333 467.776 87.6493 467.636C87.5653 467.496 87.444 467.389 87.2853 467.314C87.1267 467.23 86.926 467.188 86.6833 467.188C86.4687 467.188 86.2633 467.244 86.0673 467.356C85.8713 467.459 85.6847 467.622 85.5073 467.846C85.3393 468.07 85.1807 468.345 85.0313 468.672L83.2673 467.72C83.4633 467.179 83.7387 466.703 84.0933 466.292C84.4573 465.872 84.882 465.55 85.3673 465.326C85.8527 465.093 86.3707 464.976 86.9213 464.976C87.5 464.985 88.0227 465.111 88.4893 465.354C88.956 465.587 89.3247 465.919 89.5953 466.348C89.8753 466.768 90.0153 467.263 90.0153 467.832C90.0153 468.028 89.992 468.233 89.9453 468.448C89.8987 468.663 89.8287 468.887 89.7353 469.12C89.642 469.344 89.516 469.587 89.3573 469.848C89.208 470.1 89.026 470.366 88.8113 470.646C88.5967 470.926 88.3447 471.225 88.0553 471.542L85.8293 473.964L85.5493 472.9H90.4493V475H83.7293ZM100.63 474.258L95.5896 469.218L96.9336 467.902L101.974 472.942L100.63 474.258ZM96.9336 474.3L95.6176 472.942L100.644 467.902L101.974 469.246L96.9336 474.3ZM109.947 474.314V466.362L110.465 467.552L108.365 468.546L107.959 466.418L110.745 465.06H112.285V474.314H109.947ZM108.155 475V472.9H114.119V475H108.155ZM119.559 475.14C118.681 475.14 117.93 474.939 117.305 474.538C116.689 474.137 116.217 473.563 115.891 472.816C115.564 472.06 115.401 471.155 115.401 470.1C115.401 469.045 115.564 468.145 115.891 467.398C116.217 466.642 116.689 466.063 117.305 465.662C117.93 465.261 118.681 465.06 119.559 465.06C120.436 465.06 121.187 465.261 121.813 465.662C122.438 466.063 122.914 466.642 123.241 467.398C123.567 468.145 123.731 469.045 123.731 470.1C123.731 471.155 123.567 472.06 123.241 472.816C122.914 473.563 122.438 474.137 121.813 474.538C121.187 474.939 120.436 475.14 119.559 475.14ZM119.559 473.124C120.165 473.124 120.632 472.863 120.959 472.34C121.295 471.817 121.463 471.071 121.463 470.1C121.463 469.101 121.295 468.336 120.959 467.804C120.632 467.263 120.165 466.992 119.559 466.992C118.952 466.992 118.481 467.263 118.145 467.804C117.818 468.336 117.655 469.101 117.655 470.1C117.655 471.071 117.818 471.817 118.145 472.34C118.481 472.863 118.952 473.124 119.559 473.124ZM129.71 470.45V468.63H136.556V470.45H129.71ZM129.71 473.488V471.682H136.556V473.488H129.71Z" fill="white"/>
<path d="M142.805 475L142.343 473.852L145.199 470.73C145.358 470.553 145.531 470.352 145.717 470.128C145.904 469.904 146.086 469.675 146.263 469.442C146.441 469.199 146.581 468.966 146.683 468.742C146.795 468.518 146.851 468.313 146.851 468.126C146.851 467.939 146.809 467.776 146.725 467.636C146.641 467.496 146.52 467.389 146.361 467.314C146.203 467.23 146.002 467.188 145.759 467.188C145.545 467.188 145.339 467.244 145.143 467.356C144.947 467.459 144.761 467.622 144.583 467.846C144.415 468.07 144.257 468.345 144.107 468.672L142.343 467.72C142.539 467.179 142.815 466.703 143.169 466.292C143.533 465.872 143.958 465.55 144.443 465.326C144.929 465.093 145.447 464.976 145.997 464.976C146.576 464.985 147.099 465.111 147.565 465.354C148.032 465.587 148.401 465.919 148.671 466.348C148.951 466.768 149.091 467.263 149.091 467.832C149.091 468.028 149.068 468.233 149.021 468.448C148.975 468.663 148.905 468.887 148.811 469.12C148.718 469.344 148.592 469.587 148.433 469.848C148.284 470.1 148.102 470.366 147.887 470.646C147.673 470.926 147.421 471.225 147.131 471.542L144.905 473.964L144.625 472.9H149.525V475H142.805ZM154.367 475.14C153.49 475.14 152.739 474.939 152.113 474.538C151.497 474.137 151.026 473.563 150.699 472.816C150.373 472.06 150.209 471.155 150.209 470.1C150.209 469.045 150.373 468.145 150.699 467.398C151.026 466.642 151.497 466.063 152.113 465.662C152.739 465.261 153.49 465.06 154.367 465.06C155.245 465.06 155.996 465.261 156.621 465.662C157.247 466.063 157.723 466.642 158.049 467.398C158.376 468.145 158.539 469.045 158.539 470.1C158.539 471.155 158.376 472.06 158.049 472.816C157.723 473.563 157.247 474.137 156.621 474.538C155.996 474.939 155.245 475.14 154.367 475.14ZM154.367 473.124C154.974 473.124 155.441 472.863 155.767 472.34C156.103 471.817 156.271 471.071 156.271 470.1C156.271 469.101 156.103 468.336 155.767 467.804C155.441 467.263 154.974 466.992 154.367 466.992C153.761 466.992 153.289 467.263 152.953 467.804C152.627 468.336 152.463 469.101 152.463 470.1C152.463 471.071 152.627 471.817 152.953 472.34C153.289 472.863 153.761 473.124 154.367 473.124Z" fill="#F59E0B"/>
</g>
<defs>
<filter id="filter0_d_19_35" x="0" y="0" width="242" height="530" filterUnits="userSpaceOnUse" color-interpolation-filters="sRGB">
<feFlood flood-opacity="0" result="BackgroundImageFix"/>
<feColorMatrix in="SourceAlpha" type="matrix" values="0 0 0 0 0 0 0 0 0 0 0 0 0 0 0 0 0 0 127 0" result="hardAlpha"/>
<feOffset/>
<feGaussianBlur stdDeviation="7.5"/>
<feComposite in2="hardAlpha" operator="out"/>
<feColorMatrix type="matrix" values="0 0 0 0 0 0 0 0 0 0.705882 0 0 0 0 1 0 0 0 0.2 0"/>
<feBlend mode="normal" in2="BackgroundImageFix" result="effect1_dropShadow_19_35"/>
<feBlend mode="normal" in="SourceGraphic" in2="effect1_dropShadow_19_35" result="shape"/>
</filter>
<linearGradient id="paint0_linear_19_35" x1="15" y1="15" x2="374.39" y2="167.381" gradientUnits="userSpaceOnUse">
<stop stop-color="#1A2332"/>
<stop offset="0.166667" stop-color="#18212F"/>
<stop offset="0.333333" stop-color="#161E2C"/>
<stop offset="0.5" stop-color="#141C29"/>
<stop offset="0.666667" stop-color="#131A27"/>
<stop offset="0.833333" stop-color="#111724"/>
<stop offset="1" stop-color="#0F1521"/>
</linearGradient>
</defs>
</svg>
